<?xml version="1.0" encoding="utf-8"?>
<!-- Generator: Adobe Illustrator 25.0.1, SVG Export Plug-In . SVG Version: 6.00 Build 0)  -->
<svg version="1.1" id="Layer_1" xmlns="http://www.w3.org/2000/svg" xmlns:xlink="http://www.w3.org/1999/xlink" x="0px" y="0px"
	 viewBox="0 0 800 300" enable-background="new 0 0 800 300" xml:space="preserve">
<rect width="800" height="300"/>
<g>
	<path fill-rule="evenodd" clip-rule="evenodd" fill="#FFFFFF" d="M301.74,114.35l0.6,10.77c6.87-8.33,15.9-12.49,27.07-12.49
		c19.36,0,29.21,11.11,29.55,33.33v61.57H338.1v-60.37c0-5.91-1.27-10.29-3.82-13.13c-2.55-2.84-6.72-4.26-12.5-4.26
		c-8.42,0-14.7,3.82-18.81,11.45v66.31h-20.88v-93.18H301.74L301.74,114.35z M421.18,209.26c-13.23,0-23.96-4.17-32.17-12.53
		c-8.22-8.35-12.33-19.48-12.33-33.37v-2.58c0-9.3,1.79-17.61,5.37-24.93c3.58-7.32,8.61-13.02,15.08-17.1
		c6.47-4.07,13.69-6.11,21.65-6.11c12.65,0,22.44,4.05,29.34,12.14c6.91,8.1,10.36,19.55,10.36,34.36v8.44h-60.75
		c0.64,7.69,3.19,13.78,7.69,18.25c4.5,4.48,10.16,6.72,16.97,6.72c9.56,0,17.35-3.87,23.37-11.63L457,191.69
		c-3.72,5.57-8.69,9.89-14.9,12.96C435.88,207.72,428.91,209.26,421.18,209.26L421.18,209.26z M418.69,129.43
		c-5.73,0-10.35,2.01-13.87,6.03c-3.53,4.02-5.77,9.62-6.75,16.79h39.78v-1.55c-0.46-7.01-2.32-12.3-5.59-15.89
		C429,131.22,424.47,129.43,418.69,129.43z M500.82,91.7v22.65h16.41v15.5h-16.41v52.01c0,3.56,0.71,6.12,2.11,7.71
		c1.4,1.58,3.91,2.37,7.52,2.37c2.46-0.01,4.91-0.3,7.3-0.86v16.19c-4.75,1.32-9.33,1.98-13.75,1.98
		c-16.04,0-24.05-8.87-24.05-26.61v-52.79h-15.31v-15.5h15.3V91.7L500.82,91.7L500.82,91.7z M555.39,207.54H534.5V75.26h20.88
		V207.54z M600.32,207.54h-20.88v-93.18h20.88V207.54z M578.15,90.15c0-3.21,1.01-5.88,3.05-8.01c2.04-2.12,4.94-3.18,8.72-3.18
		c3.78,0,6.7,1.06,8.77,3.18c2.06,2.13,3.09,4.8,3.09,8.01c0,3.16-1.03,5.78-3.09,7.88c-2.07,2.1-4.99,3.15-8.77,3.15
		c-3.78,0-6.68-1.05-8.72-3.15C579.17,95.94,578.15,93.31,578.15,90.15L578.15,90.15z M630.39,207.54v-77.69h-14.18v-15.5h14.18
		v-8.52c0-10.34,2.86-18.31,8.59-23.94c5.73-5.62,13.75-8.44,24.05-8.44c3.67,0,7.56,0.51,11.69,1.55l-0.51,16.36
		c-2.63-0.49-5.31-0.72-7.99-0.69c-9.97,0-14.95,5.13-14.95,15.41v8.26h18.9v15.5h-18.9v77.68L630.39,207.54L630.39,207.54z
		 M717.94,177.57l18.9-63.21h22.25l-36.94,107.31c-5.67,15.67-15.3,23.51-28.87,23.51c-3.04,0-6.39-0.52-10.05-1.55v-16.19
		l3.95,0.26c5.27,0,9.23-0.96,11.9-2.89c2.66-1.92,4.77-5.15,6.32-9.69l3-8.01l-32.65-92.75h22.51L717.94,177.57z"/>
	
		<radialGradient id="SVGID_1_" cx="3.0343" cy="328.6052" r="4.9046" gradientTransform="matrix(0 38.301 44.1228 0 -14364.2383 -61.4931)" gradientUnits="userSpaceOnUse">
		<stop  offset="0" style="stop-color:#20C6B7"/>
		<stop  offset="1" style="stop-color:#4D9ABF"/>
	</radialGradient>
	<path fill="url(#SVGID_1_)" d="M176.9,120.02l-0.07-0.03c-0.04-0.01-0.08-0.03-0.11-0.06c-0.11-0.12-0.16-0.29-0.14-0.46
		l3.79-23.15l17.76,17.76l-18.47,7.86c-0.05,0.02-0.11,0.03-0.16,0.03h-0.07c-0.02-0.01-0.05-0.03-0.1-0.08
		C178.64,121.12,177.81,120.49,176.9,120.02z M202.66,118.61l18.99,18.99c3.94,3.95,5.92,5.92,6.64,8.2
		c0.11,0.34,0.2,0.68,0.26,1.02l-45.38-19.22c-0.02-0.01-0.05-0.02-0.07-0.03c-0.18-0.07-0.39-0.16-0.39-0.34
		c0-0.19,0.22-0.27,0.4-0.35l0.06-0.02L202.66,118.61z M227.78,152.92c-0.98,1.84-2.89,3.75-6.12,6.99l-21.41,21.4l-27.69-5.77
		l-0.15-0.03c-0.24-0.04-0.5-0.08-0.5-0.3c-0.21-2.31-1.37-4.43-3.21-5.84c-0.11-0.11-0.08-0.29-0.05-0.45c0-0.02,0-0.05,0.01-0.07
		l5.21-31.97l0.02-0.11c0.03-0.24,0.07-0.53,0.29-0.53c2.25-0.28,4.3-1.45,5.68-3.26c0.04-0.05,0.07-0.1,0.13-0.13
		c0.16-0.07,0.34,0,0.5,0.07L227.78,152.92L227.78,152.92z M195.32,186.23l-35.21,35.21l6.03-37.04l0.01-0.05
		c0-0.05,0.01-0.1,0.03-0.14c0.05-0.12,0.18-0.17,0.3-0.22l0.06-0.02c1.32-0.56,2.49-1.43,3.4-2.53c0.12-0.14,0.26-0.27,0.44-0.29
		c0.05-0.01,0.1-0.01,0.14,0L195.32,186.23L195.32,186.23z M152.66,228.89l-3.97,3.97l-43.87-63.41c-0.02-0.02-0.03-0.05-0.05-0.07
		c-0.07-0.09-0.14-0.19-0.13-0.29c0-0.08,0.05-0.15,0.11-0.21l0.05-0.06c0.13-0.2,0.24-0.39,0.37-0.6l0.1-0.17l0.01-0.01
		c0.07-0.12,0.13-0.23,0.25-0.29c0.1-0.05,0.24-0.03,0.36,0l48.6,10.02c0.14,0.02,0.26,0.08,0.37,0.16
		c0.06,0.06,0.08,0.13,0.09,0.21c0.69,2.6,2.55,4.73,5.04,5.76c0.14,0.07,0.08,0.22,0.01,0.38c-0.03,0.07-0.06,0.14-0.07,0.22
		C159.32,188.21,154.07,220.24,152.66,228.89z M144.37,237.18c-2.92,2.9-4.65,4.43-6.6,5.05c-1.92,0.61-3.99,0.61-5.91,0
		c-2.28-0.73-4.26-2.69-8.2-6.64l-44.06-44.06l11.51-17.85c0.05-0.09,0.11-0.17,0.2-0.23c0.12-0.09,0.3-0.05,0.45,0
		c2.64,0.8,5.48,0.65,8.02-0.41c0.13-0.05,0.26-0.08,0.37,0.01c0.05,0.05,0.1,0.1,0.14,0.16L144.37,237.18L144.37,237.18z
		 M75.36,187.27l-10.11-10.11l19.96-8.51c0.05-0.02,0.11-0.03,0.16-0.03c0.17,0,0.26,0.17,0.35,0.32c0.2,0.31,0.41,0.61,0.64,0.9
		l0.06,0.08c0.06,0.08,0.02,0.17-0.04,0.24L75.36,187.27L75.36,187.27z M60.78,172.69l-12.79-12.79c-2.18-2.18-3.75-3.75-4.85-5.11
		l38.88,8.06c0.05,0.01,0.1,0.02,0.15,0.02c0.24,0.04,0.5,0.08,0.5,0.31c0,0.24-0.29,0.36-0.53,0.45l-0.11,0.05L60.78,172.69z
		 M40.91,148.22c0.04-0.82,0.19-1.64,0.44-2.43c0.73-2.28,2.69-4.25,6.64-8.2l16.36-16.36c7.53,10.93,15.09,21.85,22.66,32.76
		c0.13,0.18,0.28,0.37,0.13,0.52c-0.72,0.79-1.43,1.65-1.94,2.59c-0.05,0.12-0.14,0.22-0.24,0.3c-0.06,0.04-0.13,0.02-0.21,0.01
		h-0.01L40.91,148.22L40.91,148.22z M68.73,116.85l21.99-22c2.07,0.91,9.6,4.09,16.33,6.93c5.1,2.16,9.74,4.12,11.2,4.75
		c0.15,0.06,0.28,0.12,0.34,0.26c0.04,0.09,0.02,0.2,0,0.29c-0.71,3.23,0.26,6.59,2.56,8.96c0.15,0.15,0,0.36-0.13,0.54l-0.07,0.1
		l-22.34,34.6c-0.06,0.1-0.11,0.18-0.21,0.24c-0.12,0.07-0.28,0.04-0.42,0c-0.87-0.23-1.76-0.35-2.66-0.36
		c-0.8,0-1.68,0.15-2.56,0.31h0c-0.1,0.01-0.19,0.03-0.26-0.02c-0.09-0.07-0.16-0.16-0.22-0.25L68.73,116.85L68.73,116.85z
		 M95.18,90.41l28.48-28.48c3.94-3.94,5.92-5.92,8.2-6.64c1.92-0.61,3.99-0.61,5.91,0c2.28,0.72,4.26,2.69,8.2,6.64l6.17,6.17
		l-20.26,31.37c-0.05,0.09-0.12,0.17-0.2,0.24c-0.12,0.08-0.29,0.05-0.44,0c-3.24-0.98-6.76-0.31-9.41,1.81
		c-0.13,0.14-0.33,0.06-0.49-0.01C118.7,100.35,98.12,91.66,95.18,90.41z M156.45,72.4l18.71,18.71l-4.51,27.92v0.07
		c0,0.06-0.02,0.13-0.04,0.19c-0.05,0.1-0.15,0.12-0.24,0.15c-0.96,0.29-1.87,0.74-2.68,1.34c-0.03,0.02-0.07,0.05-0.1,0.08
		c-0.05,0.06-0.11,0.11-0.2,0.12c-0.07,0-0.14-0.01-0.21-0.03l-28.5-12.11l-0.05-0.02c-0.18-0.07-0.4-0.16-0.4-0.35
		c-0.17-1.59-0.69-3.12-1.52-4.48c-0.14-0.23-0.29-0.46-0.17-0.69L156.45,72.4z M137.19,114.56l26.72,11.32
		c0.15,0.07,0.31,0.13,0.37,0.28c0.03,0.09,0.03,0.19,0,0.28c-0.08,0.39-0.15,0.84-0.15,1.29v0.75c0,0.19-0.19,0.26-0.37,0.34
		l-0.05,0.02c-4.23,1.81-59.43,25.34-59.51,25.34c-0.08,0-0.17,0-0.25-0.08c-0.15-0.15,0-0.35,0.13-0.54
		c0.02-0.03,0.05-0.06,0.07-0.1l21.96-34l0.04-0.06c0.13-0.21,0.27-0.44,0.51-0.44l0.22,0.03c0.5,0.07,0.94,0.13,1.39,0.13
		c3.33,0,6.42-1.62,8.28-4.39c0.04-0.07,0.1-0.14,0.17-0.2C136.84,114.44,137.03,114.49,137.19,114.56z M106.59,159.56l60.16-25.66
		c0,0,0.09,0,0.17,0.08c0.33,0.33,0.61,0.55,0.88,0.75l0.13,0.08c0.12,0.07,0.24,0.15,0.25,0.27c0,0.05,0,0.08-0.01,0.12
		l-5.15,31.66l-0.02,0.13c-0.03,0.24-0.07,0.52-0.3,0.52c-2.79,0.19-5.31,1.74-6.73,4.15l-0.02,0.04c-0.07,0.11-0.13,0.22-0.24,0.28
		c-0.1,0.05-0.24,0.03-0.34,0l-47.98-9.9C107.33,162.1,106.64,159.56,106.59,159.56z"/>
</g>
</svg>
