<?xml version="1.0" encoding="utf-8"?>
<!-- Generator: Adobe Illustrator 25.0.1, SVG Export Plug-In . SVG Version: 6.00 Build 0)  -->
<svg version="1.1" id="Layer_1" xmlns="http://www.w3.org/2000/svg" xmlns:xlink="http://www.w3.org/1999/xlink" x="0px" y="0px"
	 viewBox="0 0 5279.98 1895.18" enable-background="new 0 0 5279.98 1895.18" xml:space="preserve">
<rect x="0.52" y="0.52" stroke="#000000" stroke-width="1.0301" stroke-miterlimit="10" width="5278.94" height="1894.15"/>
<path fill="#FFFFFF" d="M2644.99,697.59c-172.5,0-296.88,112.5-296.88,281.25s139.85,281.25,312.51,281.25
	c104.21,0,196.09-41.25,252.96-110.78l-119.53-69.06c-31.56,34.53-79.53,54.69-133.43,54.69c-74.85,0-138.44-39.06-162.04-101.56
	h437.82c3.43-17.5,5.47-35.62,5.47-54.69C2941.87,810.09,2817.65,697.59,2644.99,697.59z M2497.33,924.15
	c19.53-62.34,72.97-101.56,147.66-101.56c74.84,0,128.28,39.22,147.66,101.56H2497.33z M2462.02,525.72l-432.97,750l-433.12-750
	h162.34l270.63,468.75l270.62-468.75H2462.02z M998.58,447.59l577.35,1000H421.24L998.58,447.59z M3569.99,978.84
	c0,93.75,61.25,156.25,156.25,156.25c64.38,0,112.66-29.22,137.5-76.88l120,69.22c-49.69,82.81-142.81,132.66-257.5,132.66
	c-172.66,0-296.87-112.5-296.87-281.25s124.37-281.25,296.87-281.25c114.69,0,207.66,49.84,257.5,132.66l-120,69.22
	c-24.84-47.66-73.12-76.88-137.5-76.88C3631.4,822.59,3569.99,885.09,3569.99,978.84z M4858.74,525.72v718.75h-140.62V525.72
	H4858.74z M4327.49,697.59c-172.5,0-296.87,112.5-296.87,281.25s140,281.25,312.5,281.25c104.21,0,196.09-41.25,252.96-110.78
	l-119.53-69.06c-31.56,34.53-79.53,54.69-133.43,54.69c-74.85,0-138.44-39.06-162.04-101.56h437.82c3.43-17.5,5.46-35.62,5.46-54.69
	C4624.36,810.09,4500.15,697.59,4327.49,697.59z M4179.83,924.15c19.54-62.34,72.82-101.56,147.66-101.56
	c74.84,0,128.28,39.22,147.66,101.56H4179.83z M3382.49,713.22v151.41c-15.62-4.53-32.19-7.66-50-7.66
	c-90.78,0-156.25,62.5-156.25,156.25v231.25h-140.62V713.22h140.62v143.75C3176.24,777.59,3268.58,713.22,3382.49,713.22z"/>
</svg>
