<?xml version="1.0" encoding="utf-8"?>
<!-- Generator: Adobe Illustrator 25.0.1, SVG Export Plug-In . SVG Version: 6.00 Build 0)  -->
<svg version="1.1" id="Layer_1" xmlns="http://www.w3.org/2000/svg" xmlns:xlink="http://www.w3.org/1999/xlink" x="0px" y="0px"
	 viewBox="0 0 5279.98 1895.18" enable-background="new 0 0 5279.98 1895.18" xml:space="preserve">
<rect x="0.52" y="0.52" stroke="#000000" stroke-width="1.0301" stroke-miterlimit="10" width="5278.94" height="1894.15"/>
<g>
	<path fill="#FFFFFF" d="M1360.19,866.54h-349.86c-9.03,0-16.35,7.33-16.35,16.36v171.05c0,9.03,7.32,16.37,16.35,16.37h136.48
		v212.51c0,0-30.65,10.45-115.37,10.45c-99.96,0-239.59-36.52-239.59-343.57c0-307.11,145.4-347.52,281.9-347.52
		c118.16,0,169.07,20.8,201.46,30.83c10.18,3.12,19.59-7.02,19.59-16.05l39.03-165.27c0-4.23-1.43-9.32-6.25-12.77
		c-13.16-9.38-93.41-54.29-296.14-54.29c-233.56,0-473.13,99.37-473.13,577.04c0,477.69,274.29,548.87,505.43,548.87
		c191.38,0,307.49-81.78,307.49-81.78c4.78-2.64,5.3-9.33,5.3-12.39V882.89C1376.53,873.86,1369.22,866.54,1360.19,866.54z"/>
	<path fill="#FFFFFF" d="M3163.2,441.87c0-9.1-7.21-16.44-16.24-16.44h-196.99c-9,0-16.31,7.34-16.31,16.44
		c0,0.04,0.05,380.69,0.05,380.69h-307.06V441.87c0-9.1-7.25-16.44-16.25-16.44h-196.98c-8.97,0-16.27,7.34-16.27,16.44v1030.8
		c0,9.09,7.31,16.49,16.27,16.49h196.98c9.01,0,16.25-7.4,16.25-16.49v-440.91h307.06c0,0-0.53,440.88-0.53,440.91
		c0,9.09,7.31,16.49,16.31,16.49h197.45c9.03,0,16.24-7.4,16.26-16.49V441.87z"/>
	<g>
		<g>
			<path fill="#FFFFFF" d="M1731.92,577.13c0-70.93-56.87-128.25-127.03-128.25c-70.09,0-127,57.32-127,128.25
				c0,70.86,56.91,128.34,127,128.34C1675.05,705.47,1731.92,647.99,1731.92,577.13z"/>
			<path fill="#FFFFFF" d="M1717.83,1255.23c0-26.41,0-475.82,0-475.82c0-9.03-7.29-16.42-16.3-16.42h-196.37
				c-9.01,0-17.07,9.29-17.07,18.32c0,0,0,572.56,0,681.71c0,20.03,12.49,25.99,28.64,25.99c0,0,83.81,0,176.92,0
				c19.41,0,24.17-9.53,24.17-26.31C1717.83,1426.16,1717.83,1283.01,1717.83,1255.23z"/>
		</g>
	</g>
	<path fill="#FFFFFF" d="M3911.85,764.54h-195.48c-8.97,0-16.26,7.39-16.26,16.48v505.43c0,0-49.66,36.34-120.15,36.34
		c-70.48,0-89.19-31.98-89.19-101c0-69.1,0-440.77,0-440.77c0-9.09-7.28-16.48-16.26-16.48h-198.39c-8.96,0-16.29,7.39-16.29,16.48
		c0,0,0,269.16,0,474.14c0,205,114.25,255.15,271.42,255.15c128.94,0,232.9-71.23,232.9-71.23s4.95,37.54,7.19,41.99
		c2.24,4.44,8.08,8.92,14.38,8.92l126.21-0.56c8.96,0,16.29-7.4,16.29-16.46l-0.06-691.95
		C3928.16,771.93,3920.85,764.54,3911.85,764.54z"/>
	<path fill="#FFFFFF" d="M4446.12,741.38c-111.02,0-186.54,49.53-186.54,49.53V441.87c0-9.1-7.27-16.44-16.26-16.44h-197.55
		c-8.98,0-16.28,7.34-16.28,16.44v1030.8c0,9.09,7.3,16.49,16.3,16.49c0.02,0,137.01,0,137.06,0c6.17,0,10.84-3.18,14.3-8.75
		c3.4-5.54,8.32-47.53,8.32-47.53s80.77,76.55,233.7,76.55c179.52,0,282.48-91.06,282.48-408.79
		C4721.66,782.9,4557.23,741.38,4446.12,741.38z M4369.02,1322.16c-67.8-2.07-113.79-32.83-113.79-32.83V962.9
		c0,0,45.37-27.81,101.03-32.78c70.4-6.3,138.23,14.96,138.23,182.88C4494.49,1290.07,4463.88,1325.02,4369.02,1322.16z"/>
	<path fill="#FFFFFF" d="M2283.99,762.89h-147.77c0,0-0.22-195.17-0.22-195.21c0-7.39-3.81-11.08-12.35-11.08h-201.36
		c-7.83,0-12.03,3.45-12.03,10.97V769.3c0,0-100.92,24.36-107.74,26.33c-6.79,1.97-11.79,8.24-11.79,15.71V938.1
		c0,9.12,7.28,16.47,16.29,16.47h103.24c0,0,0,132.59,0,304.97c0,226.52,158.89,248.77,266.1,248.77
		c48.99,0,107.59-15.73,117.27-19.3c5.85-2.15,9.25-8.21,9.25-14.78l0.16-139.45c0-9.09-7.68-16.46-16.33-16.46
		c-8.61,0-30.64,3.5-53.32,3.5c-72.58,0-97.17-33.75-97.17-77.43c0-43.65-0.01-289.82-0.01-289.82h147.77
		c9.01,0,16.31-7.35,16.31-16.47V779.32C2300.3,770.22,2293,762.89,2283.99,762.89z"/>
</g>
</svg>
