<?xml version="1.0" encoding="utf-8"?>
<!-- Generator: Adobe Illustrator 25.0.1, SVG Export Plug-In . SVG Version: 6.00 Build 0)  -->
<svg version="1.1" id="Layer_1" xmlns="http://www.w3.org/2000/svg" xmlns:xlink="http://www.w3.org/1999/xlink" x="0px" y="0px"
	 viewBox="0 0 801.13 446.28" enable-background="new 0 0 801.13 446.28" xml:space="preserve">
<rect x="0.56" y="0.56" stroke="#000000" stroke-width="1.1278" stroke-miterlimit="10" width="800" height="445.15"/>
<path fill="#FFFFFF" d="M206.61,141.9l-0.08-0.03c-0.05-0.02-0.09-0.03-0.13-0.07c-0.13-0.14-0.19-0.34-0.16-0.53l4.44-27.12
	l20.8,20.81l-21.63,9.2c-0.06,0.02-0.12,0.04-0.19,0.03h-0.09c-0.03-0.02-0.06-0.04-0.11-0.1
	C208.65,143.2,207.69,142.45,206.61,141.9z M236.79,140.25l22.24,22.24c4.61,4.62,6.93,6.93,7.77,9.61c0.13,0.4,0.23,0.79,0.31,1.2
	l-53.15-22.5c-0.03-0.01-0.06-0.02-0.09-0.03c-0.21-0.09-0.46-0.18-0.46-0.4c0-0.22,0.25-0.32,0.47-0.41l0.07-0.03L236.79,140.25z
	 M266.21,180.43c-1.15,2.16-3.39,4.4-7.17,8.19l-25.07,25.07l-32.42-6.75l-0.17-0.03c-0.29-0.05-0.59-0.1-0.59-0.36
	c-0.25-2.71-1.61-5.18-3.76-6.84c-0.13-0.13-0.1-0.34-0.06-0.53c0-0.03,0-0.06,0.01-0.08l6.1-37.45l0.02-0.13
	c0.03-0.29,0.09-0.62,0.34-0.62c2.64-0.33,5.03-1.7,6.65-3.82c0.05-0.06,0.09-0.12,0.16-0.16c0.18-0.09,0.4,0,0.59,0.08
	L266.21,180.43L266.21,180.43z M228.19,219.46l-41.23,41.23l7.06-43.37l0.01-0.06c0.01-0.06,0.02-0.11,0.03-0.17
	c0.06-0.14,0.21-0.2,0.35-0.25l0.07-0.03c1.55-0.66,2.92-1.68,3.99-2.97c0.14-0.16,0.3-0.32,0.52-0.34c0.06-0.01,0.11-0.01,0.17,0
	L228.19,219.46L228.19,219.46z M178.23,269.41l-4.64,4.64l-51.38-74.26c-0.02-0.03-0.04-0.05-0.06-0.08
	c-0.08-0.11-0.17-0.22-0.15-0.34c0-0.09,0.06-0.17,0.13-0.24l0.06-0.07c0.16-0.23,0.29-0.46,0.43-0.71l0.11-0.2l0.02-0.02
	c0.08-0.14,0.16-0.27,0.29-0.34c0.12-0.06,0.29-0.03,0.42-0.01l56.93,11.74c0.16,0.02,0.31,0.09,0.44,0.19
	c0.07,0.07,0.09,0.16,0.11,0.25c0.81,3.05,2.99,5.54,5.89,6.74c0.16,0.08,0.09,0.26,0.02,0.45c-0.04,0.08-0.07,0.17-0.09,0.26
	C186.03,221.77,179.88,259.28,178.23,269.41z M168.52,279.12c-3.43,3.39-5.44,5.18-7.73,5.91c-2.25,0.71-4.66,0.71-6.92,0
	c-2.68-0.85-4.98-3.16-9.61-7.78l-51.6-51.6l13.47-20.91c0.06-0.1,0.13-0.2,0.23-0.27c0.14-0.1,0.35-0.06,0.52,0
	c3.1,0.93,6.41,0.77,9.4-0.48c0.16-0.06,0.31-0.1,0.43,0.01c0.06,0.06,0.11,0.12,0.16,0.18L168.52,279.12L168.52,279.12z
	 M87.69,220.67l-11.84-11.84l23.37-9.97c0.06-0.03,0.12-0.04,0.19-0.04c0.2,0,0.31,0.2,0.41,0.37c0.24,0.36,0.48,0.71,0.75,1.06
	l0.07,0.09c0.07,0.1,0.02,0.2-0.05,0.29L87.69,220.67L87.69,220.67z M70.62,203.59l-14.97-14.97c-2.55-2.55-4.4-4.4-5.68-5.98
	l45.53,9.44c0.06,0.01,0.11,0.02,0.17,0.03c0.28,0.05,0.59,0.1,0.59,0.36c0,0.29-0.34,0.42-0.63,0.53l-0.13,0.06L70.62,203.59z
	 M47.35,174.93c0.05-0.97,0.23-1.92,0.52-2.84c0.85-2.68,3.16-4.98,7.78-9.61l19.16-19.16c8.82,12.81,17.67,25.59,26.54,38.37
	c0.16,0.21,0.33,0.44,0.15,0.61c-0.84,0.92-1.68,1.94-2.27,3.03c-0.06,0.14-0.16,0.26-0.29,0.36c-0.07,0.05-0.16,0.03-0.24,0.01
	h-0.01L47.35,174.93L47.35,174.93z M79.94,138.2l25.75-25.77c2.43,1.06,11.25,4.78,19.12,8.11c5.96,2.53,11.41,4.81,13.12,5.56
	c0.17,0.07,0.33,0.14,0.4,0.31c0.05,0.1,0.02,0.24,0,0.34c-0.83,3.78,0.3,7.72,3,10.49c0.17,0.17,0,0.42-0.15,0.63l-0.08,0.12
	l-26.16,40.52c-0.07,0.11-0.13,0.21-0.25,0.29c-0.14,0.09-0.33,0.05-0.49,0.01c-1.02-0.27-2.07-0.41-3.12-0.43
	c-0.94,0-1.96,0.17-3,0.36h-0.01c-0.11,0.02-0.22,0.04-0.31-0.03c-0.1-0.08-0.19-0.18-0.26-0.29L79.94,138.2L79.94,138.2z
	 M110.91,107.23l33.36-33.36c4.61-4.61,6.93-6.93,9.61-7.77c2.25-0.71,4.66-0.71,6.92,0c2.68,0.84,4.98,3.16,9.61,7.77l7.23,7.23
	l-23.72,36.74c-0.06,0.11-0.14,0.2-0.24,0.28c-0.14,0.1-0.34,0.06-0.52,0c-3.8-1.15-7.92-0.36-11.02,2.13
	c-0.16,0.16-0.38,0.07-0.58-0.02C138.46,118.88,114.36,108.69,110.91,107.23z M182.67,86.13l21.91,21.91l-5.27,32.69v0.09
	c0,0.07-0.02,0.15-0.05,0.22c-0.06,0.11-0.17,0.14-0.29,0.17c-1.13,0.34-2.19,0.87-3.15,1.57c-0.04,0.03-0.08,0.06-0.11,0.1
	c-0.06,0.07-0.13,0.13-0.23,0.14c-0.08,0-0.17-0.01-0.25-0.04l-33.38-14.18l-0.06-0.03c-0.21-0.09-0.47-0.19-0.47-0.41
	c-0.2-1.86-0.8-3.66-1.78-5.25c-0.16-0.26-0.34-0.54-0.2-0.81L182.67,86.13z M160.1,135.52l31.3,13.26
	c0.17,0.08,0.36,0.16,0.44,0.33c0.03,0.11,0.03,0.22,0,0.33c-0.09,0.46-0.17,0.98-0.17,1.51v0.88c0,0.22-0.22,0.31-0.43,0.4
	l-0.06,0.02c-4.95,2.12-69.59,29.68-69.69,29.68c-0.1,0-0.2,0-0.3-0.1c-0.17-0.17,0-0.41,0.16-0.63c0.03-0.04,0.05-0.08,0.08-0.11
	l25.71-39.82l0.05-0.07c0.15-0.24,0.32-0.51,0.6-0.51l0.26,0.04c0.59,0.08,1.1,0.16,1.63,0.16c3.91,0,7.51-1.9,9.7-5.14
	c0.05-0.09,0.12-0.16,0.2-0.23C159.7,135.38,159.93,135.43,160.1,135.52z M124.27,188.21l70.46-30.05c0,0,0.1,0,0.2,0.1
	c0.38,0.38,0.71,0.64,1.03,0.88l0.16,0.1c0.14,0.08,0.29,0.17,0.3,0.32c0,0.06,0,0.09-0.01,0.14l-6.03,37.08l-0.02,0.15
	c-0.04,0.29-0.08,0.61-0.35,0.61c-3.27,0.22-6.21,2.04-7.88,4.86l-0.03,0.05c-0.08,0.13-0.16,0.26-0.29,0.33
	c-0.12,0.06-0.28,0.03-0.4,0.01l-56.19-11.59C125.15,191.19,124.33,188.22,124.27,188.21z"/>
<g>
	<path fill-rule="evenodd" clip-rule="evenodd" fill="#FFFFFF" d="M649.01,65.56c-62.28,0-112.78,50.5-112.78,112.78
		c0,49.83,32.32,92.1,77.12,107.02c5.64,1.05,7.71-2.45,7.71-5.42c0-2.69-0.1-11.58-0.15-21c-31.37,6.82-38-13.31-38-13.31
		c-5.13-13.03-12.52-16.51-12.52-16.51c-10.23-7,0.77-6.86,0.77-6.86c11.33,0.8,17.29,11.63,17.29,11.63
		c10.06,17.25,26.38,12.25,32.82,9.37c1.02-7.29,3.94-12.26,7.16-15.08c-25.05-2.85-51.39-12.52-51.39-55.73
		c0-12.31,4.41-22.37,11.63-30.28c-1.17-2.84-5.03-14.31,1.1-29.85c0,0,9.47-3.02,31.03,11.57c9-2.5,18.65-3.75,28.23-3.79
		c9.59,0.04,19.24,1.29,28.26,3.79c21.53-14.59,30.98-11.57,30.98-11.57c6.14,15.53,2.28,27.01,1.11,29.85
		c7.23,7.89,11.61,17.96,11.61,30.28c0,43.32-26.38,52.85-51.5,55.65c4.05,3.5,7.65,10.37,7.65,20.89c0,15.09-0.13,27.23-0.13,30.95
		c0,3,2.03,6.52,7.74,5.41c44.78-14.93,77.06-57.19,77.06-107C761.79,116.05,711.29,65.56,649.01,65.56z"/>
	<path fill="#FFFFFF" d="M578.94,227.49c-0.25,0.56-1.13,0.73-1.94,0.35c-0.82-0.37-1.28-1.13-1.02-1.69
		c0.25-0.57,1.13-0.74,1.94-0.35C578.75,226.15,579.22,226.92,578.94,227.49L578.94,227.49z"/>
	<path fill="#FFFFFF" d="M583.5,232.58c-0.53,0.5-1.59,0.27-2.31-0.52c-0.74-0.79-0.87-1.84-0.33-2.35c0.55-0.5,1.58-0.27,2.32,0.52
		C583.92,231.04,584.07,232.08,583.5,232.58L583.5,232.58z"/>
	<path fill="#FFFFFF" d="M587.95,239.08c-0.69,0.48-1.83,0.03-2.52-0.97c-0.69-1-0.69-2.2,0.02-2.69c0.7-0.48,1.81-0.05,2.52,0.94
		C588.66,237.38,588.66,238.59,587.95,239.08L587.95,239.08z"/>
	<path fill="#FFFFFF" d="M594.04,245.36c-0.62,0.69-1.94,0.5-2.9-0.43c-0.98-0.91-1.26-2.2-0.65-2.88c0.63-0.69,1.95-0.49,2.92,0.43
		C594.41,243.38,594.71,244.68,594.04,245.36L594.04,245.36z"/>
	<path fill="#FFFFFF" d="M602.45,249c-0.28,0.88-1.54,1.28-2.82,0.91c-1.28-0.39-2.11-1.43-1.86-2.32c0.27-0.89,1.54-1.31,2.83-0.9
		C601.87,247.07,602.72,248.1,602.45,249L602.45,249z"/>
	<path fill="#FFFFFF" d="M611.68,249.68c0.03,0.93-1.06,1.7-2.39,1.72c-1.34,0.03-2.44-0.72-2.45-1.64c0-0.94,1.06-1.7,2.41-1.72
		C610.58,248,611.68,248.75,611.68,249.68L611.68,249.68z"/>
	<path fill="#FFFFFF" d="M620.27,248.21c0.16,0.9-0.77,1.84-2.1,2.09c-1.31,0.24-2.52-0.32-2.69-1.22c-0.16-0.93,0.79-1.87,2.09-2.1
		C618.9,246.74,620.09,247.29,620.27,248.21L620.27,248.21z"/>
</g>
<path fill="#FFFFFF" d="M400.56,65.56l127.02,220H273.55L400.56,65.56z"/>
<g>
	<path fill="#999999" d="M129.13,338.73h28.98v9.6h-16.86v7.95h15.26v9.09h-15.26v14.61h-12.12V338.73z"/>
	<path fill="#999999" d="M162.4,338.73h18.58c3.54,0,6.53,0.54,8.96,1.63c2.43,1.09,4.27,2.68,5.53,4.77
		c1.26,2.1,1.89,4.67,1.89,7.72v0.06c0,2.57-0.6,4.93-1.81,7.06c-1.21,2.13-2.82,3.69-4.82,4.66l7.83,15.35h-13.55l-6.52-13.55
		c-0.08,0-0.16,0-0.26,0c-0.1,0-0.19,0-0.29,0h-3.43v13.55H162.4V338.73z M179.58,357.88c1.64,0,2.95-0.47,3.94-1.4
		c0.99-0.93,1.49-2.15,1.49-3.66v-0.06c0-1.5-0.51-2.73-1.52-3.67s-2.31-1.42-3.92-1.42h-5.06v10.2H179.58z"/>
	<path fill="#999999" d="M202.27,338.73h29.1v9.6h-16.98v6.57h15.92v8.92h-15.92v6.55h16.98v9.6h-29.1V338.73z"/>
	<path fill="#999999" d="M237.03,338.73h29.1v9.6h-16.98v6.57h15.92v8.92h-15.92v6.55h16.98v9.6h-29.1V338.73z"/>
	<path fill="#999999" d="M281.25,338.73h2.37l10.18,37.47h0.06l10.89-37.47h2.17l10.89,37.47h0.06l10.2-37.47h2.34l-11.52,41.25
		h-2.03l-11-37.16h-0.06l-11,37.16h-2.03L281.25,338.73z"/>
	<path fill="#999999" d="M335.24,338.73h24.04v2.06h-21.81v17.01h20.75v2.06h-20.75v18.06h21.81v2.06h-24.04V338.73z"/>
	<path fill="#999999" d="M365.77,338.73H368v41.25h-2.23V338.73z M366.88,377.94h12.06c4.23,0,7.37-0.8,9.4-2.42
		c2.04-1.61,3.06-3.79,3.06-6.53v-0.06c0-1.91-0.52-3.54-1.56-4.92s-2.5-2.42-4.39-3.16c-1.89-0.73-4.11-1.1-6.66-1.1h-11.92v-2
		h11.52c3.28,0,5.91-0.79,7.89-2.37c1.98-1.58,2.97-3.72,2.97-6.4v-0.06c0-2.5-0.93-4.48-2.79-5.96c-1.86-1.48-4.4-2.22-7.62-2.22
		h-11.98v-2.03h12.35c2.5,0,4.66,0.42,6.5,1.27s3.26,2.02,4.27,3.52s1.52,3.24,1.52,5.24v0.06c0,1.64-0.34,3.13-1.01,4.49
		c-0.68,1.35-1.63,2.48-2.86,3.39s-2.68,1.51-4.36,1.81v0.09c1.91,0.23,3.64,0.79,5.22,1.67c1.57,0.89,2.83,2.06,3.77,3.53
		c0.94,1.47,1.41,3.2,1.41,5.2v0.06c0,2.23-0.54,4.16-1.62,5.8s-2.68,2.9-4.81,3.79c-2.14,0.89-4.82,1.33-8.06,1.33h-12.32V377.94z"
		/>
	<path fill="#999999" d="M409.27,338.73h12.12v15.69h14.52v-15.69h12.12v41.25h-12.12v-15.95h-14.52v15.95h-12.12V338.73z"/>
	<path fill="#999999" d="M462.46,378.13c-3.11-1.72-5.5-4.19-7.19-7.39s-2.53-6.99-2.53-11.38v-0.06c0-4.38,0.85-8.17,2.54-11.36
		c1.7-3.19,4.1-5.65,7.2-7.37c3.11-1.72,6.77-2.59,11-2.59c4.27,0,7.96,0.87,11.08,2.6c3.12,1.73,5.52,4.19,7.2,7.37
		c1.69,3.18,2.53,6.96,2.53,11.35v0.06c0,4.38-0.84,8.17-2.53,11.36s-4.08,5.65-7.19,7.39c-3.11,1.73-6.8,2.6-11.09,2.6
		C469.24,380.72,465.57,379.85,462.46,378.13z M478.01,369.43c1.26-0.93,2.23-2.26,2.92-3.97c0.69-1.71,1.03-3.74,1.03-6.09v-0.06
		c0-2.36-0.35-4.4-1.04-6.1c-0.7-1.71-1.68-3.02-2.94-3.94c-1.27-0.92-2.76-1.39-4.47-1.39c-1.68,0-3.15,0.46-4.42,1.37
		c-1.27,0.92-2.25,2.22-2.94,3.93c-0.7,1.71-1.04,3.75-1.04,6.13v0.06c0,2.36,0.35,4.4,1.04,6.12c0.7,1.71,1.67,3.03,2.93,3.96
		c1.26,0.92,2.73,1.39,4.43,1.39C475.25,370.83,476.75,370.36,478.01,369.43z"/>
	<path fill="#999999" d="M506.41,379.23c-2.6-0.99-4.63-2.43-6.09-4.33c-1.46-1.9-2.26-4.2-2.42-6.9l-0.03-0.54h11.15l0.06,0.26
		c0.17,0.74,0.57,1.39,1.2,1.94s1.42,0.99,2.37,1.3c0.95,0.31,2,0.47,3.14,0.47c1.22,0,2.26-0.15,3.13-0.46
		c0.87-0.3,1.54-0.72,2.01-1.26c0.48-0.53,0.71-1.14,0.71-1.83v-0.03c0-0.97-0.47-1.71-1.4-2.2c-0.93-0.5-2.54-0.95-4.83-1.37
		l-4.14-0.74c-4.1-0.72-7.24-2.1-9.42-4.14c-2.18-2.04-3.27-4.66-3.27-7.86v-0.03c0-2.76,0.73-5.15,2.19-7.17s3.46-3.58,6.02-4.69
		s5.46-1.66,8.72-1.66c3.68,0,6.77,0.51,9.29,1.54c2.52,1.03,4.44,2.49,5.77,4.39c1.33,1.9,2.06,4.13,2.17,6.7l0.03,0.63h-11.15
		l-0.03-0.29c-0.08-0.76-0.38-1.42-0.9-1.96s-1.22-0.97-2.09-1.27c-0.87-0.3-1.85-0.46-2.96-0.46s-2.03,0.15-2.79,0.44
		c-0.75,0.3-1.32,0.7-1.7,1.2c-0.38,0.51-0.57,1.07-0.57,1.7v0.03c0,0.93,0.47,1.65,1.4,2.16c0.93,0.5,2.43,0.95,4.49,1.33
		l4.14,0.74c4.42,0.8,7.7,2.14,9.83,4.03c2.13,1.89,3.2,4.51,3.2,7.86v0.03c0,2.84-0.71,5.3-2.13,7.39
		c-1.42,2.09-3.47,3.7-6.16,4.83c-2.69,1.13-5.93,1.7-9.72,1.7C512.09,380.72,509.01,380.22,506.41,379.23z"/>
	<path fill="#999999" d="M546.32,348.33h-10.86v-9.6h33.84v9.6h-10.86v31.64h-12.12V348.33z"/>
	<path fill="#999999" d="M573.45,338.73h12.12v41.25h-12.12V338.73z"/>
	<path fill="#999999" d="M591.28,338.73h10.09l17.78,25.72l-7.95-4.63h4.95v-21.09h12.12v41.25h-9.98l-17.86-26.07l7.92,4.63h-4.94
		v21.44h-12.12V338.73z"/>
	<path fill="#999999" d="M642.62,378.22c-3.11-1.67-5.49-4.09-7.15-7.27c-1.66-3.18-2.49-7.06-2.49-11.63v-0.03
		c0-4.52,0.82-8.36,2.47-11.53c1.65-3.17,4-5.59,7.06-7.26c3.06-1.67,6.7-2.5,10.93-2.5c3.45,0,6.55,0.62,9.3,1.86
		c2.75,1.24,4.98,2.93,6.69,5.09c1.71,2.15,2.69,4.6,2.96,7.35l0.03,0.29h-11.92l-0.09-0.29c-0.42-1.37-1.24-2.45-2.46-3.23
		c-1.22-0.78-2.71-1.17-4.46-1.17c-1.71,0-3.18,0.43-4.4,1.29s-2.15,2.12-2.8,3.8c-0.65,1.68-0.97,3.74-0.97,6.17v0.03
		c0,2.5,0.36,4.61,1.09,6.35c0.72,1.73,1.74,3.05,3.06,3.96c1.31,0.91,2.86,1.36,4.63,1.36c1.31,0,2.48-0.2,3.49-0.61
		c1.01-0.41,1.83-1,2.46-1.79c0.63-0.78,1.01-1.71,1.14-2.8l0.06-0.43h-7.2v-8.35h18.86v5.57c0,3.77-0.76,7.03-2.27,9.76
		c-1.51,2.73-3.7,4.84-6.54,6.32c-2.85,1.48-6.27,2.21-10.28,2.21C649.46,380.72,645.72,379.88,642.62,378.22z"/>
</g>
</svg>
