<svg version="1.1" id="Layer_1" xmlns="http://www.w3.org/2000/svg" xmlns:xlink="http://www.w3.org/1999/xlink" x="0px" y="0px" viewBox="0 0 1200 600" enable-background="new 0 0 1200 600" xml:space="preserve">
	<g>
		<path fill="#565656" d="M779.1,224c0,0,0,3.6,0,6.1v2.1l1.9,0.7c5.1,1.8,11.1,4,22.1,8.4c0.6,0.2,0.9,0.5,1,0.5
 c0.6,0.3,1.5,0.5,2.5,0.3c0.1,0,9-1.1,12.8-0.8c3.3,0.1,7.3,0.3,9,0.6c6.7,1.1,13.7,4.3,17,9.8c0.4,0.8-0.1,2.5-0.7,3.4
 c-1.1,1.6-2.3,3.3-3.4,4.9c-0.4,0.7-0.3,1.4,0.3,1.9c1.8,1.2,3.4,2.7,4.6,4.5l1.6,2.7c0.5,0.9,0.7,1.9,0.8,3l-0.5,12.9l-0.2,0.9
 c-0.7,1.9-2.8,3.7-4.8,3.9c-1.7,0.2-5.2-0.7-7.4-1.3c-1.3-0.4-2.5-1-3.6-1.9l-5.5-5.7c-0.9-0.4-1.9-0.6-2.9-0.6l-2.9,0.5
 c-0.6,0.2-1,0.5-1.1,1.1c-0.2,1,1.2,2.8,1.6,3.6l0.4,1.5c0.6,2.8,1.6,5.5,3,7.9c3.1,5.3,9.6,15,14.2,19.3c0,0,3,2.4,3.9,3.1
 c0.9,0.7,3,2.3,7.2,3.4c1.2,0.4,2.2,0.8,2.2,0.8c0.6,0.3,1.6,1,2.4,1.7c1.4,1.4,0.9,2.4,0.8,2.9c-0.8,4.4-3.3,9.7-5.5,13.3
 c-0.5,0.8-1.1,1.5-1.9,2c-1.1,0.7-2.3,1.2-3.6,1.5c-12.4,1.8-15.1,0.3-15.2,1.7c-0.2,1.7,1.3,5.7,0.9,7.5c-0.2,0.8-0.8,1.5-2,1.5
 c-1.8,0.4-4.1,0.3-4.8,0.3c-5.4-0.2-23.1-0.9-23.1-0.9c-1,0-3.1,0.7-5,1.2c-2.9,1.4-4.8-0.6-5.4-0.9c-2.1-1.1-4.5-2.2-6.8-2.2
 l-4.4,0.4v7.9l4.2-0.4c1.6,0,3.3,1.4,4.7,2.1c0,0,2.2,0.9,2.9,1.2c0.7,0.3,2.9,1,5,0c0.8-0.2,2.5-0.8,3.6-1.1
 c0.7-0.3,1.5-0.4,2.3-0.3c0.8,0,23.6,1,23.6,1c3,0,5.9-0.6,8.6-1.6c2.8-1.1,4.9-4,4.6-7.1c0,0,0-0.3-0.1-0.7
 c-0.1-0.4-0.1-0.9,1.2-1c0.9-0.1,2.5-0.2,2.5-0.2c5.1-0.3,10.2-2,13.6-6.1c3.2-3.8,5.7-9.7,7.1-15.2c1.8-7,0.5-8.4,0-9.2
 c-1.1-2-3.8-5.4-8.7-7c-2.6-1-6.8-2.7-8.9-4.9c-0.2-0.2-0.4-0.3-0.6-0.5c-3.4-3.8-6.6-7.8-9.5-12c6.6,1.8,11.3,1.7,15.9-2.3
 c2.2-1.9,4.5-5,4.9-8l0.6-14.1c-0.4-4.6-2.3-8.9-5.4-12.2c2.3-3.7,3.3-8.1,1.1-11.9c-2.6-4.5-6.7-8.1-11.5-10.2
 c-5.3-2.6-11.1-4-17-4.1c-5.8-0.2-11.6,0-17.4,0.6C797.6,230.9,789.8,227.2,779.1,224L779.1,224z">
		</path>
		<path fill="#565656" d="M418.8,462.5c-0.8-2.9-1.8-5.7-3-8.4c-0.7-1.8-1.4-3.6-2.1-5.4c-0.6-1.5-1.1-3-1.5-4.5
 c-0.4-1.3-0.7-2.6-0.8-3.9c-0.1-0.9-0.1-1.8,0-2.4c0.1-0.5,0.2-0.9,0.2-1.3l0.5-1.5c1-1.9,1.9-3.9,2.6-5.9c0.7-1.8,1.3-3.7,1.8-5.6
 c0.9-3.6,1.6-7.2,2.1-10.8c0.2-2,0.4-4.7,0.5-5.8l0.1-1.8l-0.1-0.2c-1.8-2.5-3-5.5-3.4-8.6c0,0-0.5-4-2-4c-1,0-1.3,1.4-1.5,2.6
 c-0.2,1.8-0.4,4.8-0.6,8.1c-0.2,3.3-0.4,6.6-0.7,8.8c-0.5,3.7-1.9,13.2-5.8,20.2l-1,2.7c0,0.3-0.3,1.6-0.3,1.6
 c-1.2,5.6,1.8,13,4.2,19l0.7,1.7c1.1,2.5,2,5.1,2.7,7.7c1,3.4-0.4,8.4-3.6,10.1c-1,0.3-2.2,0.5-3.6,0.5c-3.5,0-7.5-1-11.3-2.8
 c-0.5-0.4-1-0.9-1.7-1.5c-2.4-2.4-3.5-4.6-4.5-6.8c-0.6-1.2-1.1-2.3-1.8-3.4c-1.7-2.5-3.2-3.5-4.4-4.1c-0.5-0.3-1-0.6-1.2-0.9
 c-1.7-2-0.9-4.9,0-8c0.5-1.6,0.9-3.2,1.1-4.7l0.7-6.2c-0.1-2.7,1-4.4,1.9-5.7c0.3-0.4,0.5-0.8,0.7-1.1c0.5-1,0.9-2.1,1.1-3.3
 c0.5-2.2-0.1-7.7-0.6-12.3c-0.4-3-0.6-6-0.8-9v-0.3c-1.6-13.3-4.3-17.2-7.3-21.7c-2.3-3.4-4.9-7.3-7.4-16.5
 c-0.2-0.7-0.4-1.3-0.6-2.1c-1.7-5.7-3.8-12.8-9.2-17.7c-2.7-3.5-4.8-7.9-6.2-13c-5.9-16.1-4.8-36.3,2.9-55.5
 c0.6-1.4,1.1-2.2,1.4-2.6c0.2-0.3,0.3-0.4,0.3-0.6c0-0.4-0.1-0.8-0.3-1.1c-0.6-0.8-2.1-0.9-3.9-1.1c-1.8-0.2-3.8-0.4-5.1-1.2
 c-2.2-1.2-3.4-2.7-3.6-4.6c-0.5-4.2,4.1-8.8,4.2-8.8c4.2-3.4,9.2-5.4,12.9-5.4c1.6,0,2.9,0.4,3.7,1.1c0.9,1.1,1.7,1.8,2.2,2.1
 c1,0.7,2.1,0.5,2.8-0.5c0.1-0.1,9.2-6.7,22.5-13.8c13-7,22.6-10.7,22.7-10.7l0.4-0.2v-0.5c0.1-7,0.1-7-0.1-7.2l-0.3-0.3l-0.4,0.2
 c-1.1,0.4-27.5,11-46.4,24.3c-2.3-1.1-5.3-1.7-8.3-1.7c-2.5,0-5,0.4-7,1.2c-3.4,1.3-6.7,3.2-9.5,5.5c-0.4,0.3-0.8,0.7-1.3,1.3
 c-2.1,2.3-3.7,4.8-4.7,7.4c-0.5,1.4-0.9,2.9-1,4.4c-0.4,4.2,1.3,8.2,4.5,11.1c0.9,0.8,1.9,1.5,3,2.1c0.9,0.5,1.7,0.9,2.7,1.2
 c-6,17.1-7.3,33.8-3.6,49.5c0.6,2.4,1.2,4.7,2.1,7c0.8,2.7,1.8,5.3,3,7.9c1.2,2.6,2.7,5.1,4.4,7.4c0.3,0.4,0.6,0.7,0.9,1
 c1,0.9,1.9,1.9,2.6,3.1c0.8,1.2,1.4,2.4,1.9,3.7c0.6,1.5,1.2,3.1,1.7,4.6c0.5,1.6,1,3.2,1.5,4.8c0.5,1.9,1.1,3.8,1.7,5.7
 c0.7,1.9,1.4,3.8,2.3,5.6c0.9,1.8,1.8,3.5,2.9,5.2c0.5,0.8,1,1.5,1.5,2.3c1.4,2.1,2.3,3.5,3.2,5.6c0.5,1.3,0.9,2.6,1.3,3.9
 c0.4,1.5,0.7,3,0.9,4.5c0.2,1.3,0.4,2.6,0.6,4c0.1,1.6,0.2,3.2,0.4,4.8c0.1,1.6,0.3,3.1,0.5,4.7c0.6,4.5,0.8,7.7,0.8,9.5
 c0,0.1,0,0.1,0,0.2c-0.1,0.5-0.3,1-0.5,1.5c0,0.1-0.1,0.2-0.2,0.2c-1,1.3-1.7,2.8-2.3,4.3l-0.1,0.1c-0.6,1.7-0.9,3.5-0.9,5.3
 l-0.6,5.8c0,0.4-0.1,0.9-0.2,1.3c-0.2,0.6-0.3,1.2-0.5,1.8c-0.9,3.1-1.7,5.9-1.3,9c0.4,3.6,2.4,6.7,5.3,8.5l1,0.6
 c0.3,0.2,0.6,0.4,0.8,0.6c0.3,0.3,0.5,0.6,0.7,0.9c0.3,0.4,0.5,0.9,0.8,1.4l0.9,1.9c0.7,1.5,1.6,3,2.6,4.5c1.5,2.1,3.2,3.9,5.3,5.7
 c0.4,0.4,0.9,0.7,1.4,0.9c2.9,1.4,6,2.4,9.2,3.1c1.8,0.4,3.6,0.5,5.4,0.5c1,0,1.9-0.1,2.8-0.2c0.7-0.1,2.9-0.4,4.4-1.2
 c3.4-1.8,6-5,7.2-9c0.5-1.6,0.8-3.3,0.9-5C419.4,465.8,419.2,464.1,418.8,462.5z">
		</path>
		<path fill="#565656" d="M466.7,423.6l-8-2.3c0,0,0.5,1.8,1,3.7c1.9,7.5,2.5,10.3,5.4,14.7c4,6.7,17.2,11,12.4,21.7
 c-0.8,2.3-2.9,3-5.2,3.2c-11.1-0.2-8.8-2.7-13.4-6c-1.7-1.5-4.8-4.3-4.8-4.3c-0.5-0.3-2.1-0.6-2.7-0.5c-2.7,0.5-4.6,0.3-6.4-1.3
 c-2.8-3.8-5.8-2.4-8.2-29c-0.3-3-0.6-6-0.9-8.7l-6.7-1.9c-0.3-0.1-0.6-0.2-0.9-0.3c1.2,8.9,3.2,24.4,4.2,31.1
 c0.6,7.3,6.7,15.7,13,17.7c0.7,0.2,1.5,0.4,2.3,0.5c4.9,0.2,3.6,0.1,5.8,1.8c0.5,0.5,1.1,1,1.4,1.3c3.7,3.9,2.8,4.9,11.6,7
 c2.3,0.4,4.5,0.5,6.4,0.6c4.2,0.2,8-1.9,10.1-5.3c0.4-0.7,2-3.9,2.3-7.7c2.4-13.5-10.5-16.3-15.3-26.3
 C468.8,430.6,467.8,427.7,466.7,423.6L466.7,423.6z">
		</path>
		<g>
			<path fill="#8B0304" d="M591.5,386.2l0.1-76.3h0l0-0.1H434.9c0,0,0,0,0,0.1c0,0.3,0,70.7,0,83.5l48.6,14.1v-75.6h59.3l0.1,83.2
 L591.5,386.2z">
			</path>
			<path fill="#565656" d="M591.6,301.2l0-0.1h0l-0.1-76.3l-48.6-28.9l-0.1,83.2h-59.3v-76.7l-48.6,14.2c0,0,0,84.6,0,84.6H591.6z">
			</path>
			<polygon fill="#565656" points="709.4,203.3 709.4,301.1 709.4,301.1 709.4,301.1 759.1,301.1 759.1,217.4 		">
			</polygon>
			<path fill="#8B0304" d="M694.1,360.5c0-0.2,0-0.4,0-0.6H694c-0.1-2.5-0.3-5-0.6-7.3c-0.4-3-1.1-5.9-2.1-8.8h0.1
 c-0.4-1.1-0.8-2.2-1.3-3.2h0c-1.6-3.6-3.7-7.1-6.7-10.7c-2.2-2.7-4.7-5.1-7.5-7.4c0,0-0.1-0.1-0.1-0.1c-0.7-0.5-1.3-1.1-2-1.6
 c0,0-0.1-0.1-0.1-0.1h0c-0.5-0.4-1-0.7-1.5-1.1h0.1c-6.3-4.4-13.8-7.8-22.1-9.7h-46.3v22.2c0,0-0.7,0,0,0c8.3,0,17.7,0.9,25.1,4.1
 h0.4c2.7,1.2,5.2,2.6,7.5,4.4h-0.2c1.3,1,2.5,2,3.6,3.2h0.1c0.9,0.9,1.8,1.9,2.6,3c0.6,0.8,1.1,1.6,1.6,2.4h-0.1
 c0.3,0.5,0.6,1,0.8,1.5h0.1c0.6,1.1,1.1,2.1,1.5,3.2c0.8,1.8,1.3,3.9,1.5,6h0c0,0.2,0,0.3,0.1,0.5c0.8,8.2-2.2,17.6-7.1,22.9
 c-5.3,5.8-15.3,10.4-35,10.4H595l-48.5,28.8H603c45.4,0,72.6-10.4,84.2-29.3C692.6,384.3,694.4,371.7,694.1,360.5L694.1,360.5z">
			</path>
			<path fill="#8B0304" d="M709.4,309.9L709.4,309.9L709.4,309.9c0,0,0,88.2,0,97.8l49.7-14.1v-83.7H709.4z">
			</path>
			<path fill="#565656" d="M603,188.5h-56.5l48.5,28.8h11.3c19.7,0,29.7,4.6,35,10.4c6.2,6.8,9.4,20.4,5.5,29.4
 c-0.4,1.1-0.9,2.1-1.5,3.2c0,0-1.9,3.1-2.4,3.9c-0.8,1.1-1.7,2.1-2.7,3.1h0c-0.5,0.6-3,2.8-3.6,3.2h0c-2.4,1.8-4.9,3.3-7.6,4.4
 h-0.2c-5.5,2.4-11.6,3.5-17.9,3.9c0,0,0,0,0,0c-2.1,0.1-7.2,0.2-7.2,0.2v22.1v0H650c8.3-1.9,15.8-5.3,22.1-9.7H672
 c0.5-0.4,1-0.7,1.5-1.1h0c0,0,0.1-0.1,0.1-0.1c0.7-0.5,1.4-1,2-1.6c0,0,0.1-0.1,0.1-0.1c2.8-2.3,5.3-4.8,7.5-7.4
 c0.3-0.3,0.5-0.7,0.8-1h0c0,0,0,0,0,0c2.5-3.2,4.4-6.3,5.8-9.6h0.1c0.5-1,0.9-2.1,1.3-3.2h-0.1c1-2.9,1.7-5.8,2.1-8.9
 c1.7-12.6,0.6-29.5-6.2-40.6C675.6,198.9,648.4,188.5,603,188.5z">
			</path>
		</g>
		<g>
			<g>
				<path fill="#C4161C" d="M474.9,162c-2.8,0.7-5.6,1.4-8.4,2.1c1.4-7.4,2.8-14.8,4.1-22.2c0.1,0,0.1,0,0.2,0
 C472.1,148.6,473.5,155.3,474.9,162L474.9,162z M454,187.9c2.8-0.8,5.7-1.7,8.5-2.4c0.8-4.4,1.7-8.8,2.5-13.1
 c3.8-1,7.7-1.9,11.5-2.9c0.8,4,1.6,7.7,2.5,11.6c2.8-0.6,5.6-1.3,8.4-2c-4.4-18.5-8.7-36.8-13.1-55.1c-2.3,0.6-4.7,1.3-7,1.9
 C462.8,146.5,458.4,167.3,454,187.9L454,187.9z">
				</path>
				<path fill="#C4161C" d="M522.1,114.1c-2.9,0.5-5.8,1-8.8,1.5c-2.2,13.9-4.4,28-6.7,41.9c-0.1,0-0.1,0-0.2,0
 c-2.2-13.2-4.4-26.3-6.6-39.4c-2.9,0.6-5.9,1.3-8.8,1.9c4,18.6,7.9,37.2,11.8,55.8c2.4-0.5,4.9-0.9,7.3-1.4
 C514.2,154.3,518.2,134.1,522.1,114.1L522.1,114.1z">
				</path>
				<path fill="#C4161C" d="M534.3,170.6c8.2-1,14.9-1.7,24.5-2.6c0-2.8,0-5.6,0-8.4c-5.4,0.4-10.8,1-16.3,1.5c0-5.7,0-11.4,0-17.1
 c4.7-0.5,9.4-1,14.2-1.4c0-2.6,0-5.2,0-7.9c-4.7,0.4-9.4,0.9-14.2,1.4c0-5.7,0-11.4,0-17.1c5.4-0.6,10.8-1.1,16.3-1.5
 c0-2.6,0-5.2,0-7.9c-8.1,0.7-15.9,1.5-24.5,2.6C534.3,131.7,534.3,151.2,534.3,170.6L534.3,170.6z">
				</path>
				<path fill="#C4161C" d="M580.4,116.4c1.4,0,2.8-0.1,4.2-0.1c6-0.1,7,3.1,7,9c0,5.8-0.9,9.1-6.6,9.2c-1.5,0-3.1,0.1-4.6,0.1
 C580.4,128.5,580.4,122.5,580.4,116.4L580.4,116.4z M572.2,167.2c2.7-0.1,5.5-0.2,8.2-0.3c0-8.3,0-16.6,0-24.9
 c1.6-0.1,3.3-0.1,4.9-0.1c2.5,8.2,5.1,16.5,7.6,24.7c2.9,0,5.8,0,8.7,0c-2.9-8.9-5.9-17.7-8.8-26.6c5.2-3,7.1-7.9,7.1-14.6
 c0-11.3-4.7-17.1-14.4-17c-4.9,0.1-8.8,0.3-13.1,0.5C572.2,128.3,572.2,147.8,572.2,167.2L572.2,167.2z">
				</path>
				<path fill="#C4161C" d="M613.7,166.9c2.7,0.1,5.5,0.2,8.2,0.4c0-5.8,0-11.7,0-17.5c1.5-2.7,2.9-5.5,4.4-8.2
 c3.1,8.8,6.2,17.8,9.4,26.6c2.9,0.2,5.8,0.5,8.7,0.8c-4.4-12.1-8.8-24.2-13.3-36.2c3.7-7.5,7.4-14.9,11.2-22.3
 c-2.7-0.3-5.5-0.5-8.2-0.7c-4,8.6-8,17.1-12,25.8c-0.1,0-0.1,0-0.2,0c0-8.9,0-17.7,0-26.5c-2.7-0.1-5.5-0.3-8.2-0.4
 C613.7,128,613.7,147.5,613.7,166.9L613.7,166.9z">
				</path>
				<path fill="#C4161C" d="M651.7,169.8c2.7,0.3,5.5,0.7,8.2,1c0.8-4.1,1.6-8.1,2.4-12.2c3.7,0.5,7.5,1.1,11.3,1.7
 c0.8,4.3,1.7,8.7,2.5,13c2.8,0.5,5.5,0.9,8.3,1.4c-4.3-20.2-8.6-40.4-12.9-60.5c-2.3-0.3-4.6-0.7-6.9-1
 C660.3,132,656,150.9,651.7,169.8L651.7,169.8z M672.1,152.1c-2.8-0.4-5.5-0.8-8.3-1.2c1.3-6.9,2.7-13.7,4-20.5
 c0.1,0,0.1,0,0.2,0C669.4,137.7,670.7,144.9,672.1,152.1L672.1,152.1z">
				</path>
				<path fill="#C4161C" d="M696,177c2.8,0.6,5.6,1.2,8.4,1.8c0-11.8,0-23.7,0-35.5c0.1,0,0.1,0,0.2,0c2.7,9,5.5,17.9,8.2,26.9
 c1.4,0.3,2.8,0.7,4.2,1c2.8-7.7,5.6-15.3,8.3-23c0.1,0,0.1,0,0.2,0c0,11.8,0,24,0,35.8c2.8,0.7,5.6,1.6,8.5,2.3
 c0-19.4,0-38.9,0-58.3c-2.7-0.7-5.5-1.6-8.3-2.3c-3.6,9.4-7.1,18.5-10.7,27.9c-0.1,0-0.1,0-0.2,0c-3.6-11.1-7.2-22.2-10.8-33.2
 c-2.7-0.6-5.4-1.2-8-1.7C696,138.1,696,157.6,696,177L696,177z">
				</path>
				<path fill="#C4161C" d="M415.5,201c2.9-1,5.8-2.2,8.7-3.1c0-8.6,0-17.9,0-26.5c3.6-1.2,7.1-2.3,10.7-3.4c0,8.6,0,17.6,0,26.2
 c2.6-0.9,5.7-2,8.6-2.8c0-19.4,0-38.9,0-58.3c-2.9,0.9-5.7,1.9-8.6,2.8c0,8.3,0,16.4,0,24.7c-3.5,1.1-7.1,2.3-10.7,3.4
 c0-8.3,0-16.1,0-24.5c-3.7,1.3-5.8,2.2-8.7,3.2C415.5,162.1,415.5,181.6,415.5,201L415.5,201z">
				</path>
				<path fill="#C4161C" d="M749.6,191c2.9,0.9,5.7,1.9,8.6,2.8c0-7.6,0-15.2,0-22.8c1.5,0.5,2.9,0.9,4.4,1.4
 c6.3,2.1,10.2,1.1,12.6-1.9c2-2.5,2.5-5.8,2.5-10.8c0-6.9-0.9-10.9-3.9-15c-3-4-6.5-6.1-11.2-7.6c-4.3-1.4-8.6-2.9-12.9-4.2
 C749.6,152.2,749.6,171.6,749.6,191L749.6,191z M758.2,143.4c1.5,0.5,3,0.9,4.5,1.4c6.8,2.2,6.8,6.7,6.8,12.2
 c0,5.8-0.1,9.8-7.1,7.5c-1.4-0.4-2.8-0.9-4.1-1.3C758.2,156.6,758.2,150,758.2,143.4L758.2,143.4z">
				</path>
			</g>
			<g>
				<path fill="#C4161C" d="M498.8,473.1c2.5,0.4,5,1.1,7.5,1.5c7,0.9,10-1.8,10-7.9c0-0.6,0-1.3,0-1.9c0-3.6-1.1-5.8-3.7-7.3
 c2.4-1.1,3.7-2.3,3.7-5.9c0-0.4,0-0.8,0-1.3c0-3-1.1-6.1-4-8c-1.4-1-2.7-1.5-8.6-2.6c-1.7-0.4-3.3-0.7-5-1
 C498.8,450.2,498.8,461.6,498.8,473.1L498.8,473.1z M504.3,458.5c0.8,0.1,1.6,0.2,2.4,0.3c3.9,0.5,4.6,2.4,4.6,5.9
 c0,3.4-0.3,5.6-4.7,5.1c-0.8-0.1-1.6-0.3-2.4-0.4C504.3,465.7,504.3,462.2,504.3,458.5L504.3,458.5z M504.3,444.6
 c0.8,0.1,1.5,0.2,2.2,0.3c3.6,0.5,4.8,2.2,4.8,5.3c0,3.2-0.9,4.7-4.6,4.3c-0.8-0.1-1.6-0.2-2.5-0.3
 C504.3,451,504.3,447.8,504.3,444.6L504.3,444.6z">
				</path>
				<path fill="#C4161C" d="M531.1,448.8c0.9,0.1,1.8,0.2,2.6,0.3c3.7,0.4,4.3,2.3,4.3,5.8s-0.5,5.3-4,5c-1-0.1-1.9-0.2-2.9-0.3
 C531.1,456,531.1,452.4,531.1,448.8L531.1,448.8z M526,478c1.7,0.2,3.4,0.5,5.1,0.7c0-4.9,0-9.8,0-14.7c1,0.1,2,0.2,3,0.3
 c1.6,5.1,3.2,10.3,4.8,15.4c1.8,0.2,3.5,0.4,5.2,0.6c-1.8-5.4-3.6-11.1-5.4-16.5c3.2-1.4,4.3-4.1,4.3-8.1c0-6.7-2.9-10.4-8.8-11
 c-2.7-0.3-5.5-0.7-8.2-1C526,455.1,526,466.4,526,478L526,478z">
				</path>
				<path fill="#C4161C" d="M551.2,473.1c0,5.6,4.2,8.8,8.1,9.1c3.9,0.2,8-2.3,8-8c0-6.1,0-12.2,0-18.3c0-5.6-4.1-8.7-8-8.9
 c-3.9-0.3-8.1,2.2-8.1,7.9C551.2,460.9,551.2,467,551.2,473.1L551.2,473.1z M556,455.2c0-2.4,1.5-3.4,3.3-3.3
 c1.7,0.1,3.2,1.3,3.2,3.7c0,6.1,0,12.2,0,18.3c0,2.4-1.5,3.4-3.2,3.3s-3.3-1.3-3.3-3.7C556,467.3,556,461.3,556,455.2L556,455.2z
 ">
				</path>
				<path fill="#C4161C" d="M590.9,456.1c0-3.8-3.1-7.7-7.8-7.8c-5.4-0.2-8,3.8-8,9.1c0,4.3,1.1,7.2,5.1,9.1c1.1,0.5,2.2,1,3.3,1.6
 c2.3,1,2.7,1.6,2.7,5.3c0,3.2-0.2,5.1-3.4,5.1c-2.4-0.1-3.3-1.8-3.3-3.6c0-0.5,0-1,0-1.6c-1.6-0.1-3.1-0.1-4.7-0.2
 c0,0.6,0,1.2,0,1.8c0,4.7,3.5,8.3,8,8.5c6,0.1,8.1-4.2,8.1-10c0-5.1-0.8-7.8-4.9-9.6c-1.2-0.5-2.4-1.1-3.6-1.6
 c-2.4-1.1-2.7-2-2.7-4.7c0-2.3,0.6-4.3,3.2-4.2c2.4,0.1,3.3,1.8,3.3,4.1c0,0.4,0,0.7,0,1.1c1.6,0,3.1,0.1,4.7,0.1
 C590.9,457.8,590.9,457,590.9,456.1L590.9,456.1z">
				</path>
				<path fill="#C4161C" d="M598.3,483.3c1.6,0,3.1,0,4.7,0c0-1.7,0-3.3,0-5c-1.6,0-3.1,0-4.7,0C598.3,480,598.3,481.6,598.3,483.3
 L598.3,483.3z">
				</path>
				<path fill="#C4161C" d="M624.3,482.5c1.6-0.1,3.2-0.2,4.7-0.3c0-11.5,0-22.9,0-34.5c-1.6,0.1-3.2,0.2-4.7,0.3
 C624.3,459.6,624.3,471,624.3,482.5L624.3,482.5z">
				</path>
				<path fill="#C4161C" d="M637.8,481.5c1.6-0.1,3.2-0.2,4.8-0.4c0-6.9,0-13.7,0-20.7h0.1c2.5,6.7,5,13.1,7.5,19.8
 c1.6-0.1,3.1-0.4,4.7-0.6c0-11.5,0-22.8,0-34.4c-1.7,0.2-3.3,0.4-5,0.5c0,7,0,14.1,0,21h-0.1c-2.5-6.7-4.9-13.5-7.4-20.3
 c-1.6,0.1-3.1,0.3-4.7,0.4C637.8,458.5,637.8,469.9,637.8,481.5L637.8,481.5z">
				</path>
				<path fill="#C4161C" d="M680.7,466.4c-1.8,0.2-3.5,0.4-5.3,0.7c0,0.6,0,1.1,0,1.7c0,2.7-1.9,3.7-3.3,3.9
 c-2.3,0.3-3.2-1.2-3.2-3.1c0-5.8,0-11.7,0-17.5c0-2.3,0.6-4.1,3.2-4.4c2-0.2,3.2,1.2,3.2,3.2c0,0.5,0,1.1,0,1.6
 c1.8-0.2,3.5-0.4,5.3-0.7c0-0.6,0-1.3,0-1.9c0-4.8-3.6-7.7-8.5-7.1c-5,0.6-8.4,4.4-8.4,8.9c0,6.3,0,12.6,0,18.9s4.5,7.6,8.5,7.1
 c4.7-0.6,8.4-4.8,8.4-9C680.7,467.8,680.7,467.1,680.7,466.4L680.7,466.4z">
				</path>
				<path fill="#C4161C" d="M689.6,474.1c1.8-0.3,3.7-0.8,5.5-1c0-1.7,0-3.3,0-5c-1.8,0.3-3.7,0.8-5.5,1
 C689.6,470.8,689.6,472.5,689.6,474.1L689.6,474.1z">
				</path>
			</g>
		</g>
		<path fill="#565656" d="M750.5,416.9l-8,2.3c0.1,1,0.3,1.9,0.4,2.7c0.8,4.5,2.1,8.9,3.6,13.2l2.7,6.1c0.9,2.1,3.1,5.2,5,6.6
 c0,0,0.6,0.4,1.5,1c1,0.6,6.4,3.6,8.7,7.9c0.3,0.9-0.4,1.2-0.7,1.3c-2.6,1.4-7.1,1.6-9.7,1.3l-5.1-0.8l-1.6-0.5l-0.8-0.5l-0.3-0.1
 l-2.5-0.1c-0.9-0.1-2.9-1.5-3.2-2.4c-0.3-1.1-0.8-2.2-1.4-3.2v-0.1c-1.1-1.1-2.2-2.2-3.1-3.4l-0.5-0.3l-0.3-0.1
 c-1.6-0.2-2.3,1.6-2.3,2.8c0,0,0.5,5.9,0.8,9.7c0.2,6.5,0.9,5.1,3.3,8c5.3,4.8,8.1,10.3,9,12.1c0.5,2.8-0.8,2.7-0.9,2.8
 c-3.7,1.1-9.5,0-12.8-1.1l-3.8-1.4l-3.6-1.8l-0.6-0.4l-0.8-0.7l-0.2-0.2l-0.5-0.2l-2.7-0.8c-0.4-0.1-0.7-0.4-1-0.6
 c-3-2.8-2-2.7-2.7-6.5l-2.5-10.4c-1-4-2.6-7.9-4.6-11.5v-0.1c-4.4-7.1-7.8-14.9-10-22.9c-2.8-1.7-5.2-4.1-7-7.1
 c-1.2,1.1-2.4,2.1-3.6,3.1l2,3c2.3,9.4,6,18.3,10.8,26.7c3.5,6.3,5.9,13.2,6.9,20.3c0.8,7,4.4,12.9,11.2,14.2
 c1.6,1.1,3.4,2,5.3,2.8c7.1,2.9,16.9,5.4,23.9,2.9c3.6-1.3,6-4.6,6-8.5c0-4.6-5.8-12.5-9.2-16.4c6.6,2.1,18.2,2.5,24.2-2
 c4-3,4.2-7.6,1.7-11.3c-1.5-2.2-6.2-7.2-8.4-8.8l-4-2.5c-0.7-0.5-2.2-2.9-2.8-4c-2.5-5.3-4.3-10.8-5.3-16.6
 C750.7,419.4,750.6,418.2,750.5,416.9L750.5,416.9z">
		</path>
	</g>
	<g>
		<path fill="#8B0304" d="M-77.8,309.8c0,0,0,0,0,0.1">
		</path>
		<path fill="#565656" d="M-77.8,301.1c0,0.1,0,0.1,0,0.1">
		</path>
		<path fill="#8B8B8B" d="M-77.8,291.4c0,7.8,0,9.4,0,9.7">
		</path>
		<path fill="#8B8B8B" d="M-77.8,283c0,2.9,0,5.3,0,7.3">
		</path>
		<path fill="#8B8B8B" d="M-77.8,274.9c0,1.9,0,3.6,0,5.2">
		</path>
		<path fill="#8B8B8B" d="M-77.8,267.2c0,1.1,0,2.2,0,3.2">
		</path>
		<path fill="#8B8B8B" d="M-77.8,260.3c0,0.5,0,1,0,1.5">
		</path>
		<path fill="#8B8B8B" d="M-77.8,250.5c0,0.1,0,0.1,0,0.2c0,0.1,0,0.3,0,0.4l0,0">
		</path>
		<path fill="#C4161C" d="M-77.8,309.9c0,0.3,0,1.9,0,9.7">
		</path>
		<path fill="#C4161C" d="M-77.8,320.7c0,2,0,4.4,0,7.3">
		</path>
		<path fill="#C4161C" d="M-77.8,330.9c0,1.6,0,3.3,0,5.2">
		</path>
		<path fill="#C4161C" d="M-77.8,340.6c0,1,0,2.1,0,3.2">
		</path>
		<path fill="#C4161C" d="M-77.8,349.2c0,0.5,0,1,0,1.5">
		</path>
		<path fill="#C4161C" d="M-77.8,359.9L-77.8,359.9c0,0.1,0,0.3,0,0.4c0,0.1,0,0.1,0,0.2">
		</path>
	</g>
</svg>
