<?xml version="1.0" encoding="utf-8"?>
<!-- Generator: Adobe Illustrator 25.0.1, SVG Export Plug-In . SVG Version: 6.00 Build 0)  -->
<svg version="1.1" id="grasshopper" xmlns="http://www.w3.org/2000/svg" xmlns:xlink="http://www.w3.org/1999/xlink" x="0px"
	 y="0px" viewBox="0 0 279 112" enable-background="new 0 0 279 112" xml:space="preserve">
<path fill="#0D0116" d="M253.8,38.6c1.3-4.6,1.8-10.3-1.4-13.9c-1.7-1.9-4.9-3.8-10.5-2.2c-6.5,1.8-9.4,6.5-9.9,7.4
	c-0.2,0.1-0.4,0.3-0.7,0.5c-1.6,1.4-4.5,4.4-5.8,5.7c-1,0.7-1.7,1.7-2.1,2.7c-0.5,0.3-1,0.6-1.4,1c-2.3,2.1-4.3,3.3-5.5,4.1
	c-0.6,0.4-1.4,0.8-2,1.4c-1-8.3-1.7-15.2-2-17.7c0.2-1.2,0.6-3.7,1.9-8.6c0-0.1,0-0.1,0-0.2c0.2-0.5,0.2-0.9,0.2-1.4v-0.1
	c0-0.2,0-0.3,0-0.5l-0.1-0.5c-0.5-4.6-2.7-6-6.8-7.2l0,0c-1.6-0.5-4.6-0.9-5-1c-4.4-0.6-7.4-0.6-9.3,1.7c-0.5,0.6-1.2,1.4-3,7.7
	c-4.7,7.1-16.7,10.8-20.7,12.1l0,0c-1,0.3-1.7,0.5-2.4,0.9c-0.3,0.2-1,0.4-1.7,0.7l-0.5,0.2H165c-3.1,1.2-7.7,3-11.9,6.2
	c-1-1.1-2.5-2.3-4.8-3c-0.3-0.1-1.9-0.6-3.8-0.8c0-0.1,0-0.2,0-0.3c0-0.9-0.1-1.7-0.3-2.3c-0.1-0.5-0.2-1-0.5-1.5
	c-0.3-0.6-0.8-1.2-1.3-1.6c-2.9-2.6-9.6-5.3-13.3-5.6c-4.3-0.4-7,0.8-8.6,2.5c-1.1-1.6-2.4-2.9-4.1-3.8c-2.1-1-6.2-1.3-9.6-1.4
	c-0.5-0.1-1-0.1-1.6,0c-2.4,0.2-4.2,1.6-5,3.5c-3.6-3.5-7.1-3.6-11.3-2.6c-3,0.7-6.4,2.3-8.6,3.4c-2.7-3.4-6.3-4.2-9.1-4
	c-6,0.3-9.1,1-12.3,1.7c-0.8,0.2-1.6,0.4-2.4,0.5c-0.4,0.1-0.8,0.2-1.1,0.2l-0.1-0.1c-0.1-0.2-0.3-0.4-0.4-0.6
	c-0.2-0.2-0.3-0.5-0.5-0.7C46.4,10.7,36.1,12,29,15c-2.4,0.9-3.5,2.5-4,3.7c0,0.1-0.1,0.2-0.1,0.3c-0.9,2.5-0.1,4.6,0.2,5.2
	c0,0.1,0.1,0.2,0.1,0.2c2.1,4.6,6.4,5,9.4,3.8c0.1,0,0.2-0.1,0.3-0.1c0.1-0.1,0.3-0.1,0.4-0.2c0.3-0.1,0.6-0.3,0.9-0.4
	c4-1.7,5.2-2.1,7.1,1.6c-0.1,0.4-0.2,0.8-0.4,1.2c0,0.1-0.1,0.3-0.1,0.5c-2.2,7.5-4.6,21.2,2.1,30.8c2.6,3.7,6.2,6.3,10.1,7.4
	c0.3,0.3,0.5,0.6,0.7,0.9l0.2,0.4c2.6,4.2,9.6,15.5,18.6,17.1c1.3,0.3,2.1,0.4,2.9,0.3c0.8,0.8,1.9,1.5,3,1.9
	c-1.9,0.5-3.7,1.3-5.1,2.4c-2.5,2-3.4,4.7-2.6,7.3c0.8,2.5,3.2,4.3,6,4.4c0.2,0,0.4,0,0.5,0c2.2,0,4.4-0.7,6.6-1.5
	c0.9-0.3,3.5-0.2,4.4,0c2.5,1.2,7.2,1.8,9.9-1c1.5-1.6,2.5-4.4,0.6-7.7c0-0.1-0.1-0.1-0.1-0.2c1.4-1.8,4.3-4.5,5.8-5.1
	c3-1.2,5-3.8,5.2-7c0-0.3,0-0.6,0-0.9c0.7,0,1.3,0,1.8-0.2c0.2,0.3,0.3,0.6,0.5,0.9c-0.2,0.8-0.2,1.7-0.1,2.7
	c0.4,2.3,1.8,4.3,4.1,5.9c1.2,2.1,1.7,3.3,1.9,4c-0.1,0.1-0.2,0.3-0.3,0.4c-1.5,2.3-2.4,5.7-0.5,8.4c0.9,1.3,3.2,3.4,7.9,2.2
	c3.5-0.9,3.8-0.7,4.3-0.4c0.6,0.4,1.3,0.7,2,0.8c0,0,2.5,0.3,5.4,0.3c3.3,0,7.1-0.4,8.9-1.9c0.5-0.5,1-1.1,1.2-1.7
	c0.7-1.6,0.5-3.7-0.5-5.6c-1.3-2.5-3.7-4.4-6.8-5.2l0,0c-2.3-0.6-4.6-0.7-6.5-0.8c-0.6,0-1.2-0.1-1.8-0.1c-0.4-1.7-0.9-3.6-1.3-4.9
	c0.4-1.1,0.8-2.6,0.5-4.2c0.3-0.1,0.6-0.2,0.9-0.3c0.4,0.5,1,0.9,1.5,1.2c1.6,0.9,3.8,1.2,5.9,1.2c0.5,0,1,0,1.5-0.1
	c0.5,1.2,1.2,2.2,2.2,3c1.1,0.8,3.4,2.1,6.9,1.1c0.7,0.8,1.8,1.5,3.5,1.7c1.4,0.2,17.6,1.6,18.3,1.6c1.5,0,2.7-0.5,3.5-1.2
	c1,0.8,2.4,1.3,3.9,1.3c6.2,0,6.5-0.1,7-0.2c0.9-0.2,1.6-0.6,2.3-1.1c1,0.5,2.1,0.8,3.3,0.8c0.4,0,0.9,0,1.3,0
	c-0.6,1.2-0.9,2.5-0.9,4c0,5.2,4.2,9.3,9.4,9.3c1.8,0,3.5-0.5,5-1.4c1.4,0.6,2.7,0.7,3.3,0.7c0.5,0,0.9,0.1,1.4,0.1
	c1.6,0,3.1-0.2,4.6-0.4c0.7-0.1,2.2-0.3,3-0.3c0.5,0,0.9,0.1,1.3,0.2c0.1,0,0.1,0,0.2,0c1.8,0.2,3.7,0.5,6.3,0
	c4.2-0.7,5.9-3.5,6.1-5.9c0-0.1,0-0.1,0-0.2c0.2-2.9-1.9-5.6-5-6.7c-1.2-0.4-3.3-0.9-9.2-1c-0.2-1.6-0.6-4.2-1.1-8.7
	c0.6,0.3,1.4,0.5,2.1,0.5c0.2,0,0.3,0,0.5,0c0.1,0,8.8-1.8,10.3-5.7c0.5-1.2,0.4-2.5-0.1-3.7c0-0.7,0.1-2.1,0.3-3.6
	c0.4,0.4,0.8,0.8,1.3,1c0.8,0.5,1.7,0.7,2.7,0.7s2-0.3,2.9-0.8c1.4-0.8,8.8-9.4,9.4-12.2c0-0.1,0-0.1,0-0.2c0.4-0.3,0.8-0.8,1.2-1.3
	c1.9-2.7,2.7-4.4,3-5.5c1-0.5,1.9-1.4,2.3-2.6c1.1-3.2,1.2-3.6,1.2-4.4C255.6,40.8,254.9,39.5,253.8,38.6z M243.5,35.8
	c-0.2-0.1-0.4-0.3-0.5-0.4c-0.1-0.2-0.2-0.5-0.4-0.7c0.1-0.1,0.3-0.2,0.5-0.3l1.3,1.7C244.1,36.2,243.8,36,243.5,35.8z M215.4,53.4
	c0.5,0.5,1.2,1.8,1.7,3.7c-0.5-0.1-0.9-0.1-1.4-0.1C215.6,55.8,215.5,54.6,215.4,53.4L215.4,53.4z M73.7,52.7
	c0.7,0.2,1.4,0.2,1.9,0.2c0.3,0,0.6,0,0.9,0c-0.9,0.3-1.9,0.6-3,1.1C73.6,53.5,73.7,53.1,73.7,52.7z M59.1,53.8
	c-0.3,0.9-0.6,1.4-0.8,1.6c-0.2,0-0.6-0.1-1.1-0.4c-0.5-0.5-1.3-2.5-1.7-6c1.4,0.6,2.9,1,4.3,1.2C59.8,51.3,59.5,52.6,59.1,53.8z
	 M89,82.7c0-0.6,0.1-1.2,0.1-2c1.2-0.1,2.9-0.3,3.8-0.4c-0.1,0.4-0.2,0.8-0.2,1.3c-1.3,1.3-3,3-4.5,4.7C88.6,85.3,88.9,84.1,89,82.7
	z M156.4,56.2l0.4-0.7v-0.1c1.7-3.6,5.5-6.6,8.9-9.3l0.1-0.1l0.1-0.1l0.2-0.2c1.2-0.9,3.2-1.8,5.4-2.7c-2,2.9-3.8,5.9-5.5,9.1
	c-2.7,5.3-6.2,9.7-9.1,12.8c-0.1-0.7-0.3-1.4-0.4-2.1l-0.1-0.3c-0.3-1.7-0.6-3.3-0.6-4.6c0-0.7,0-1,0-1l0,0
	C156.1,56.8,156.3,56.4,156.4,56.2z M186.6,51.3c-0.2,0-0.4-0.1-0.6-0.2c-0.6-0.2-1.1-0.3-1.7-0.4c5.5-7.3,11-13.6,12.8-15
	c0.3-0.2,0.6-0.4,0.8-0.6c0.6,2.8,1.5,8.4,2.7,15.7c-1.9-0.1-4.5-0.1-6-0.2c-0.4-0.1-0.8-0.2-1.2-0.2c-1.6,0-3.3,0.5-4.8,1.5
	C188,51.7,187.4,51.4,186.6,51.3z M217.2,69.6c0.1-0.1,0.2-0.1,0.3-0.2c0,0,0,0,0.1-0.1c0,0.1,0,0.2-0.1,0.3
	c-0.1,0.1-0.1,0.2-0.2,0.4C217.3,69.8,217.2,69.7,217.2,69.6z M230.7,70.3L230.7,70.3l0.1,0.1C230.7,70.4,230.7,70.3,230.7,70.3z"/>
<path fill="#FFFFFF" d="M250.8,37.8c-0.1-0.1-0.2-0.1-0.3-0.2c1.3-4.2,2.2-10.2-1-13.7c-1.5-1.6-4.3-3.3-9.4-1.8
	c-6.3,1.8-9,6.4-9.3,6.9c0,0,0,0.1-0.1,0.1c-0.3,0.2-0.6,0.4-0.7,0.5c-1.6,1.4-4.7,4.5-5.9,5.7c-0.9,0.6-1.6,1.6-1.9,2.5v0.1
	c-0.6,0.2-1.1,0.6-1.5,1c-2.4,2.2-4.4,3.4-5.7,4.2c-1.4,0.8-3.1,1.8-3.3,3.9c-1.2-9.9-2.1-18.4-2.4-21.2c0.2-1.2,0.6-3.8,1.9-8.8
	c0-0.1,0-0.1,0.1-0.2l0,0c0.1-0.4,0.2-0.7,0.2-1.1v-0.1c0-0.1,0-0.2,0-0.4l-0.1-0.5c-0.5-4.1-2.2-5.2-6-6.3c-0.1,0-0.2-0.1-0.3-0.1
	h-0.2c-8.8-1.8-11.2-1.3-12.7,0.5c-0.4,0.4-1,1.3-2.8,7.5c-4.8,7.5-17.2,11.4-21.3,12.7l0,0c-1,0.3-1.7,0.5-2.3,0.8
	c-0.4,0.2-1.1,0.5-1.8,0.7l-0.6,0.2c-3.5,1.4-8.3,3.2-12.4,6.7c-0.8-1.3-2.2-2.7-5-3.6c-0.1,0-2-0.6-4-0.8c-0.2-0.4-0.4-0.7-0.5-1.1
	c0-0.1,0-0.2,0-0.3c0-1.3-0.5-2.7-0.6-3.1c-0.1-0.3-0.3-0.6-0.4-0.8c-1.8-2.5-9.4-5.7-13.4-6.1c-4.8-0.4-7.4,1.3-8.7,3.4
	c-1.1-2.1-2.5-3.7-4.4-4.7c-2-1-6.4-1.2-9.2-1.2c-0.4-0.1-0.9-0.1-1.4-0.1c-2.7,0.3-4.5,2.2-4.4,4.7c-3.8-4.6-7.3-4.9-11.7-3.8
	c-3.3,0.8-7.1,2.7-9.1,3.7c-2-3-5-4.5-8.7-4.3c-5.9,0.3-8.8,1-12.1,1.7c-0.8,0.2-1.6,0.4-2.4,0.5c-0.5,0.1-1,0.2-1.4,0.3
	c-0.1,0-0.2,0-0.3,0.1c-0.1-0.1-0.2-0.3-0.4-0.5l-0.1-0.2c-0.1-0.2-0.3-0.4-0.4-0.6c-0.2-0.2-0.3-0.4-0.5-0.6
	c-6.1-8-14.3-9.9-24.2-5.8c-2,0.8-3,2.1-3.5,3.1c0,0.1-0.1,0.2-0.1,0.2c-0.8,2.1,0,3.9,0.2,4.5c0,0,0.1,0.1,0.1,0.2
	c1.8,4,5.4,4.3,8.1,3.3c0.1,0,0.1-0.1,0.2-0.1c0.1-0.1,0.2-0.1,0.4-0.2c0.3-0.1,0.7-0.3,1-0.4c4.2-1.8,6.1-2.4,8.5,2.5
	c0,0,0,0,0,0.1c-0.1,0.3-0.2,0.9-0.4,1.4c0,0.1-0.1,0.2-0.1,0.4c-2.1,7.3-4.7,20.9,1.8,30.2c2.5,3.5,6,6.1,9.8,7.1
	c0.4,0.4,0.8,0.8,1.1,1.3l0.2,0.4c2.2,4.3,9,15.3,17.5,16.8c1.5,0.3,2.3,0.4,3.2,0.3c1.2,1.3,3,2.3,4.8,2.3c0.2,0,0.4,0,0.5,0
	c1.3-0.1,4.5-1.1,4.9-6.5c0.1-0.8,0.1-1.8,0.1-2.9h0.1c1.3,0,4.1-0.4,4.9-0.5c0.5-0.1,0.9-0.2,1.3-0.5l-0.1,0.2
	c-0.3,0.8-0.7,1.9-0.7,3.2c-1.7,1.6-5.1,5-6.9,7.6c-1.6,0.1-7.9,0.9-11,3.4c-2.1,1.7-3,4-2.3,6.2c0.7,2.1,2.7,3.5,5.1,3.7
	c0.2,0,0.3,0,0.5,0c2,0,4.1-0.7,6.3-1.4c1-0.3,4.3-0.3,5.1,0.1c1.9,1,6.3,1.7,8.8-0.8c0.6-0.6,2.4-2.9,0.4-6.4
	c-0.2-0.3-0.3-0.6-0.4-0.8l0,0c1.1-1.7,4.7-5.2,6.6-6c2.6-1.1,4.3-3.4,4.5-6.2c0-0.6,0-1.2-0.1-1.8c1.6,0.3,2.7,0.1,3.5-0.3
	c0.4,0.8,0.8,1.5,1.1,2.1c-0.2,0.8-0.3,1.7-0.2,2.7c0.3,2,1.6,3.8,3.9,5.4c1.8,3,2.2,4.4,2.2,5c-0.2,0.2-0.4,0.4-0.6,0.7
	c-1.3,2-2.2,4.9-0.5,7.3c0.8,1.1,2.7,2.8,6.7,1.8c4-1,4.3-0.8,5.1-0.2c0.4,0.3,1,0.5,1.5,0.6c0,0,2.5,0.3,5.3,0.3
	c3.1,0,6.6-0.3,8.1-1.6c0.4-0.4,0.8-0.9,1-1.4c0.5-1.4,0.3-3.2-0.5-4.8c-1.1-2.2-3.3-3.8-6.1-4.6l0,0c-2.2-0.6-4.4-0.7-6.3-0.8
	c-0.8,0-1.9-0.1-2.6-0.2c-0.5-1.9-1.2-4.4-1.6-5.9c0.5-1.3,1-3,0.2-4.9c0.9-0.2,1.8-0.5,2.5-0.9c0.5,0.7,1.1,1.2,1.8,1.6
	c1.4,0.8,3.5,1,5.4,1c0.8,0,1.5,0,2.2-0.1c0.3,1.3,1,2.5,2.1,3.3c1.2,0.9,3.2,1.8,6.2,0.8c0.2-0.1,0.3-0.1,0.5-0.1
	c0.5,0.8,1.5,1.7,3.4,2c1.2,0.2,17.5,1.5,18.1,1.5c1.5,0,2.6-0.5,3.5-1.6l0.1,0.1c0.6,0.7,1.8,1.5,3.7,1.5c6.1,0,6.4-0.1,6.8-0.2
	c1-0.2,1.8-0.7,2.4-1.4c1,0.6,2.2,1,3.4,1c0.8,0,1.9,0,3.1-0.1c-1.1,1.4-1.7,3.1-1.7,5.1c0,4.7,3.7,8.3,8.4,8.3
	c1.8,0,3.5-0.6,4.9-1.6c1.4,0.8,2.9,0.9,3.5,0.9c0.4,0,0.9,0,1.3,0c1.6,0,3-0.2,4.4-0.4c1.2-0.2,2.4-0.3,3.3-0.3
	c0.5,0,1,0.1,1.4,0.2h0.1c1.8,0.2,3.5,0.5,6,0c3.6-0.6,5.1-3,5.3-5c0-0.1,0-0.1,0-0.2c0.1-2.6-1.6-4.9-4.4-5.8
	c-1.1-0.4-3.3-0.9-9.7-0.9c-0.3-2.1-0.9-7-2.3-18.1c0.6-0.9,1.5-1.6,2.3-2.3c0,0.3-0.1,0.5-0.1,0.8c-1.3,1.8-2.1,4.6-1.2,7.2
	c0.5,1.4,1.8,2.3,3.3,2.3c0.1,0,0.2,0,0.4,0c0.1,0,8.2-1.8,9.4-5c0.4-1,0.3-2.1-0.2-3c-0.1-1,0.2-3.8,0.7-6.2
	c0.1-0.1,0.2-0.1,0.3-0.2c0.1,0,0.1-0.1,0.2-0.1c0.3,1.2,1,2.2,2,2.8c0.7,0.4,1.4,0.6,2.1,0.6c0.8,0,1.7-0.2,2.4-0.7
	c1.1-0.7,8.4-9,8.9-11.5c0-0.2,0.1-0.4,0.1-0.6c0.4-0.3,0.9-0.7,1.3-1.3c2.2-3.1,2.8-4.7,3-5.7c1-0.3,1.8-1.1,2.2-2.2
	c1.2-3.3,1.2-3.5,1.2-4.1C252.5,39.5,251.8,38.4,250.8,37.8z M184.3,50.2c-0.9-0.1-2.9-0.1-4,0.1l0,0c5.9-8,12.2-15.3,14.2-16.8
	c1-0.8,1.7-1.2,2.2-1.5c0.6,2.3,1.8,9.2,3.3,18.4c-2-0.1-5.5-0.2-7.4-0.2c-0.3-0.1-0.7-0.2-1.1-0.2c-1.3,0-3,0.4-4.4,1.4
	C186.4,50.8,185.5,50.4,184.3,50.2z M163.2,43.6l0.1-0.1l0.3-0.2c1.7-1.3,4.6-2.5,7.8-3.7l0.5-0.2c0.3-0.1,0.6-0.2,0.9-0.4
	c-2.9,3.6-5.4,7.6-7.6,12c-3.2,6.3-7.6,11.4-10.7,14.6c-0.2-1.4-0.4-2.8-0.7-4.2l-0.1-0.3c-0.3-1.7-0.6-3.4-0.6-4.7
	c0-1.2,0-1.2,0.5-2.2l0.4-0.8C155.6,49.6,159.6,46.5,163.2,43.6L163.2,43.6z M227.8,69.4L227.8,69.4
	C227.8,69.5,227.9,69.5,227.8,69.4C227.9,69.5,227.8,69.5,227.8,69.4z"/>
<g>
	<path fill="#E31837" d="M62.8,40.7c-0.7-0.6-1.7-0.5-2.7-0.4H60c0.5-0.5,0.8-1.1,0.9-1.7c0.1-1,0-2.9-3-5.1c-4.3-3.3-6.4-1.6-6.8-1
		c-0.5,0.6-0.8,1.5-0.7,2.4c-0.6-0.2-1.1-0.2-1.5,0.1c-1.4,0.9-1.4,4.1-1.3,5.5l0,0v0.2l0,0c0,0.1,0,0.1,0,0.1
		c-0.6,7.5,0.7,15.5,4.8,17.8c2.4,1.3,4.5,1.6,6.3,0.9c1.9-0.7,3.3-2.5,4.2-5.3c1.1-3.3,1.4-7.9,0.8-10.5
		C63.6,42.1,63.4,41.2,62.8,40.7z M52.2,33.4c0.8-1,2.7-0.5,4.9,1.2c1.7,1.3,2.6,2.7,2.4,3.8c-0.1,0.7-0.6,1.1-1.3,1.4
		c-0.8,0.3-2,0.2-3.3-0.5c-0.6-0.5-1.2-1.1-1.8-1.9c-0.3-0.3-0.5-0.6-0.8-0.9C51.6,35.2,51.6,34,52.2,33.4z M61.5,53.7
		c-0.8,2.4-1.9,3.9-3.4,4.4c-1.4,0.6-3.1,0.3-5.1-0.8c-3-1.6-4.6-8.3-4-16.3c0-0.1,0-0.2,0.1-0.2c0.2-0.2,0.4-0.5,0.7-0.8
		c0.3-0.1,0.7,0.1,0.9,0.3c0,0,0.1,0.1,0.2,0.2c3.2,2.6,6.5,3.8,9.9,3.7c0.3,0,0.6,0.1,0.9,0.1c0.2,0,0.3,0,0.5,0
		c0.1,0.2,0.1,0.5,0.2,0.9h0.1C62.7,47.4,62.5,50.7,61.5,53.7z"/>
	<path fill="#E31837" d="M77.2,81.4c0.5,1.8,4.7,5.4,5.2-0.6c0.4-6-0.9-21.5-2.2-25.3c-0.3-0.8-0.8-0.6-1.3-0.6s-6.7,1.4-10.6,4.5
		c-2.4,2.5-0.8,6.7,2.8,4.3c0.2-1.3,1.2-2.9,2.3-1.2c2.5,3.9,3,4.9,3.9,10.5c0.4,2.2-2.8,0.4-3.7-0.3c-0.9-0.7-7.2-5-9-11.5
		c-0.2-0.7-0.3-1.2-0.4-1.5c1.1-1.5,2-3.6,2.7-6.4c1.2-5,0.2-14.1-4.2-20.4c0.4-0.2,1.3-0.4,3.2-0.7c3.9-0.8,5.4,0.4,5.9,2.5
		s0.6,8.4,0.8,10.8c0.1,1.1-0.5,1.2,1.2,1.2c2.2,0,4.8-0.4,4.9-1.6c0.1-1.1-1.3-14.5-2.3-17c-0.8-2.1-2.3-5.3-6.8-5.1
		c-6.9,0.4-9.5,1.2-14,2.2c-1.3,0.3-2.3,0.5-3,0.6c-1.5-0.6-1.8-1-2.5-2c-0.2-0.2-0.4-0.5-0.6-0.8c-0.1-0.1-0.2-0.3-0.4-0.5
		c-1.9-2.5-7.5-10-20.3-4.8C28,18,27.5,18.4,27.3,19c-0.3,0.7,0,1.4,0.2,1.9c0.4,0.7,1.1,2.5,3.8,1.5c0.4-0.2,0.9-0.4,1.3-0.6
		c3.9-1.7,9.2-3.9,13.2,4.1c0.7,1.3,0.7,1.4-0.2,4.3v0.1C44,35.7,41,49.1,46.9,57.5c2.3,3.2,5.5,5.4,8.7,5.9
		c0.8,0.7,1.7,1.6,2.3,2.6c2,3.2,8.5,14.1,15.8,15.4C75.7,82,75.1,81.8,77.2,81.4z M58.3,62.2c-3.5,0.7-7.9-1.5-10.6-5.4
		c-5.6-7.9-2.6-20.8-1.1-26v-0.1c0.9-3,1-3.5,0.1-5.3c-4.6-9.2-11.4-6.3-15-4.7c-0.5,0.2-0.9,0.4-1.3,0.5c-1.4,0.5-1.6-0.1-1.9-0.8
		c-0.2-0.4-0.2-0.6-0.1-0.8c0.1-0.2,0.4-0.4,0.7-0.5c11.8-4.8,16.8,1.8,18.6,4.3c0.2,0.2,0.3,0.4,0.4,0.5c0.2,0.3,0.4,0.5,0.6,0.7
		c1.2,1.6,1.6,1.9,5.5,3.3C64.6,31.8,67,46.3,65.4,53C64.2,58.4,61.7,61.5,58.3,62.2z"/>
	<path fill="#E31837" d="M131.8,71.5c1.2-6.9-0.4-13.2-0.3-11.8c0.2,1.3-0.1-2.3-3.6-4.4c-0.4-0.3-2.3-0.7-2.7-5.5
		c-0.4-4.8-0.1-10.4,0.3-13c0.4-2.5,1.8-3.4,3.5-3.3c1.7,0.1,1.7,2.4-0.1,3.1c-1.8,0.7-2,2.9-0.4,2.9c1.7,0,5.5-0.5,6.4-0.9
		s1.7-1.4,1.9-2.3c0.3-0.8,0.9-3.7,1-4.5c0.1-1.9-0.7-2.6-3.1-3.8c-2.3-1.1-5.5-2.6-8.2-2.8c-3.9-0.3-5.9,0.8-6.2,4.4
		c-0.7,7.2-2,19-0.8,23.3s4.1,6.1,5.7,6.9c1.6,0.9,1.9,1.6,2,3.5s0.1,3.9-0.2,4.6c-0.3,0.6-1.6,1.1-2,0.3c-0.4-0.8-1.1-3.4-1.1-7.5
		c0-0.4-0.8-0.5-0.8-0.5s-3.9-0.9-3.6-1c0.4-0.1-0.7-0.4-0.7,1.1c0,0.4-0.2,5.1,0.4,8.3C120.4,75.8,130.5,78.8,131.8,71.5z"/>
	<path fill="#E31837" d="M143.3,60.6c-0.6-2.6,0.3-2.6-3.4-6.6c-3.6-3.8-3.9-5.8-3.6-8c0.6-4.9,6.6-3.1,4.1,1.7
		c-1.2,2.4-1.5,1.2-1.1,2.2s1.8,1.2,2.9,3c0.1,0.2,1.2,1.2,1.3,0.1c0.1-1.1,0.4-3,2.1-5.4c1.8-2.4,3.2-3.4,2.5-7.4
		c-0.6-3.5-8.2-4.1-9-3.3c-1.8,1.6-2.9,3.7-7.6,3.9c-0.8,0.4-1-0.3-1.1,1.3c-0.2,1.6-0.3,7-0.3,7.7s-0.4,3.7,3.6,6.3
		c3.9,2.6,5.4,5.3,5.4,8.4c0.1,3.2,0.2,5.3-0.2,6.4s-1.8,1.3-1.8-0.7s2.2-6.3,1.4-6.8c-0.8-0.4-3.7-1.7-4.1-1.6
		c-0.4,0.1-0.5-0.5-1,0.9c-0.4,1.4-1.2,6.4-1.3,7.7s1,5.4,2.4,6.2c1.4,0.8,5.7,0.7,6.8,0.3c0.5-0.2,2.3-0.7,2.8-6.8
		C144.6,66.6,143.8,62.8,143.3,60.6z"/>
	<path fill="#E31837" d="M225.3,92.5c-1.4-0.5-4.7-0.7-10-0.7c-0.5,0-0.8,0.1-1.1,0.1c-0.1,0-0.1,0-0.2,0c-0.1-0.1-0.2-0.5-0.5-1.5
		c-0.1-0.6-0.6-4-1.2-8.9h0.1c-0.1-0.1-0.1-0.1-0.1-0.2c-0.3-2-0.5-4.3-0.8-6.7c-0.4-6.4,5.4-8.5,6.1-10c1.7-3.5,1.4-7.2,0.6-11.5
		c-1-4.8-5-3.8-6.5-3.3c-0.8,0.5-1.9,1.1-3,1.6c-1.4-12-2.6-22.7-2.9-25.3c0.4-3.5,2.1-9.9,2.2-10V16v-0.1v-0.4
		c-0.3-2.2-0.5-2.5-3.5-3.3c-0.1,0-8.6-1.9-9.6-0.7c-0.5,0.6-1.6,4.3-2.3,6.6c-5.4,9-19.1,13.2-23.6,14.7c-0.9,0.3-1.3,0.4-1.5,0.5
		c-0.7,0.4-1.6,0.7-2.8,1.1c-4.4,1.7-11,4.3-15,9.9c-4.9,6.9-5.1,9.5-5.1,13.4c0,1.4,0.3,3.1,0.7,4.8c0.6,3,1.3,6.4,0.6,9.7
		c-1.1,5.1-1.9,6.5-1.9,6.5l-0.1,0.1V79c0,0.2-0.1,1.7,1,2.6c0.7,0.6,1.8,0.7,3,0.3c0.7-0.2,1.2-0.4,1.6-0.4c1.9-0.4,2-0.8,3.4-4.2
		c0.3-0.7,0.7-0.8,1.4-1.1c0.3-0.1,0.6-0.2,0.8-0.4c5.7-3.2,10.7-8.6,15-16.1c0.2-0.3,0.4-0.7,0.6-1c0.5-0.2,0.7,0.1,0.4,1.2
		c-1.2,5.1-15.9,19.9-18.3,22.2c-1.1,1.1-0.6,1.5,0.4,1.7c1.1,0.2,17.1,1.5,17.5,1.5s0.7,0,1.1-0.7c0.4-0.7,2.1-9.1,2.5-11.9
		c0.3-1.7,2.6-1.1,2.6,0.2c0.1,2.4,0.4,5.4-0.3,11.3c0,0.5,0.2,1.2,1.4,1.2s5.7,0,6.1-0.1c0.4-0.1,0.8-0.8,0.9-1.1
		c0.1-0.3,0.4-23.8-0.1-29.1c-0.1-0.9-0.8-1-1.3-1.1s-2.5,0-2.8,0.1c-0.4,0.1-0.7-0.2-0.9,1.5c-0.3,2.2-1.3,10.4-1.6,11
		s-2.4,0.9-2.3-0.7c0.1-1.6,2.3-9.1,1.6-12.2c-0.2-0.8-0.9-0.5-1.1-0.5c-0.2,0-1.3-0.2-2-0.6c6.3-9,14.7-19.2,17.7-21.5
		c2.6-2,4.4-2.9,5.7-2.5c0.7,0.2,1.3,0.8,1.8,1.9c1.1,2.8,5.3,29.8,8.1,49.2c-0.1,1.5-0.4,2.4-0.9,2.4c0,0,0.5,0,1.3,0.1
		c0.3,2.1,0.6,4.2,0.9,6c-0.2,0.6-0.6,1.3-0.9,2c-0.6,1.3-1.3,2.6-1.5,3.5l-0.1,0.3c-0.3,0.8-0.5,1.7,0,2.4c0.4,0.7,1.3,1,2.8,1.1
		c1.7,0.1,3.3-0.1,4.9-0.3c1.4-0.2,2.9-0.4,4-0.3c0.7,0,1.2,0.1,1.8,0.2c1.7,0.2,3,0.4,5,0s2.3-1.4,2.4-1.9
		C227.3,93.9,226.5,93,225.3,92.5z M205,51.8c-1.7-10.9-3.4-20.4-4-22.1c-0.6-1.5-1.5-2.5-2.7-2.8c-1.7-0.5-3.9,0.4-6.9,2.8
		c-4.3,3.3-17.4,19.8-22.7,29.1c-4.2,7.3-9,12.6-14.5,15.6c-0.2,0.1-0.4,0.2-0.7,0.3c-0.7,0.3-1.7,0.7-2.2,1.9
		c-1.2,3.1-1.2,3.1-2.4,3.3c-0.4,0.1-1,0.2-1.8,0.5c-0.6,0.2-1.3,0.3-1.7,0s-0.4-0.9-0.4-1.2c0.3-0.5,1-2.3,2-6.8
		c0.7-3.6,0-7.1-0.6-10.3c-0.4-1.7-0.7-3.3-0.7-4.6c0-3.4,0-5.7,4.9-12.6c3.7-5.3,10.1-7.8,14.3-9.4c1.1-0.4,2.1-0.8,2.9-1.2
		c0.1,0,0.7-0.3,1.3-0.4c4.7-1.4,18.8-5.8,24.4-15.3v-0.1v-0.1c0.8-2.7,1.8-5.6,2.1-6.3c1.1-0.2,6,0.5,8.2,1.1
		c2.3,0.6,2.3,0.6,2.4,2.1v0.2c-0.2,0.7-1.9,6.7-2.2,10.2V26v0.1c0.1,1.6,1.4,12.9,2.9,25.7C206.3,52,205.5,52,205,51.8z
		 M209.3,56.7l0.1-0.2c0,0,0.3-0.4,0.7-0.7c0,0,0.1-0.1,0.2-0.2c0.5-0.5,1.2-1,1.8-0.8c0.1,0,0.3,0.1,0.4,0.2
		c1.1,0.6,1.8,2.8,1.7,4.8c0,0.7-0.1,1.5-0.4,2.2c-0.8,3.1-2.4,2.9-3.7,2.8C210.2,64.7,209.6,59.2,209.3,56.7L209.3,56.7z
		 M224.6,95.5c-1.8,0.3-2.9,0.2-4.5,0c-0.5-0.1-1.1-0.1-1.8-0.2c-1.4-0.1-2.9,0.1-4.4,0.3c-1.5,0.2-3.1,0.4-4.6,0.3
		c-1.4-0.1-1.6-0.4-1.7-0.5c-0.1-0.2,0-0.7,0.2-1.2l0.1-0.3c0.3-0.8,0.9-2.1,1.4-3.3c0.4-0.8,0.8-1.7,1.1-2.3l0.1-0.2v-0.2
		c-0.1-0.4-0.4-2.7-0.9-6.1c0.4,0,0.9,0,1.3-0.1c0.6,5,1.1,8.4,1.3,9.1c0.5,2,0.8,2.8,2.3,2.5c0.2,0,0.5-0.1,0.8-0.1
		c6.7,0,8.8,0.4,9.5,0.7c0.7,0.3,1.1,0.7,1.1,0.9C225.7,95,225.3,95.3,224.6,95.5z"/>
	<path fill="#E31837" d="M199.3,15.3c-0.8-0.2-2.6-0.1-4.8,3c-5.2,7.4-8.6,9.2-14,11.8l-2.3,1.2c-2.6,1.4-5.5,2.5-8.2,3.6
		c-3.7,1.4-7.3,2.9-9.6,4.7l-0.3,0.3c-3.9,3.1-8.4,6.7-10.7,11.5l-0.4,0.7c-0.7,1.4-1.1,2.1-1,4.6c0,1.8,0.4,3.7,0.8,5.7
		c0.5,2.9,1.1,5.8,0.9,8.7c0,0.9,0.4,1.7,1.2,2.1c0.5,0.3,1.8,0.7,3.6-0.9c2.9-2.5,10.2-9.5,14.9-18.9c3.9-7.8,9.1-14.4,15.4-19.6
		C189.4,30,196.9,24,197,24v0.1c3.1-1.5,4.3-4.2,4.1-6.1C201,16.4,200.3,15.5,199.3,15.3z M196.4,22.6L196.4,22.6l-0.1,0.1
		c0,0-7.6,6-12.2,9.8c-6.4,5.4-11.8,12.1-15.7,20.1c-4.6,9.2-11.7,16-14.6,18.5c-1,0.8-1.7,0.9-2.1,0.7c-0.3-0.1-0.4-0.4-0.4-0.7
		c0.2-3-0.4-6.1-0.9-9c-0.4-2-0.7-3.9-0.7-5.5c-0.1-2.1,0.2-2.6,0.8-3.9l0.4-0.7c2.1-4.6,6.5-8,10.3-11l0.3-0.3
		c2.1-1.7,5.6-3,9.2-4.5c2.8-1.1,5.7-2.2,8.4-3.6l2.3-1.2c5.3-2.7,9.1-4.7,14.5-12.3c1.4-2.1,2.6-2.6,3.2-2.4
		c0.4,0.1,0.7,0.6,0.8,1.2C199.9,19.3,198.9,21.4,196.4,22.6z"/>
	<path fill="#E31837" d="M200.4,53.9c-2.4-0.1-9.2-0.3-9.2-0.3c1.8-0.1-3.5-1.1-3.9,4.5c-0.4,5.7-0.4,19.6-0.2,21.9
		c0.2,2.3,1.4,4.4,3.6,4.4c2.2,0,10.9-0.3,12.5-1.6c1.7-1.3,2.6-2.4,2.6-4.2c0-1.8-2.5-19.6-2.9-20.6
		C202.7,56.8,202.8,54,200.4,53.9z M192.8,75.8c0-1.1,0.4-11.8,0.5-13.7c0.3-3,4.2-2.7,4.2,0.2c0,0,0.5,10.2,0.7,13.6
		C198.5,79.2,192.8,79.2,192.8,75.8z"/>
	<path fill="#E31837" d="M227,43c-0.8-1.1-2.7-2.6-3.9-1.4c-5.5,5.2-9.4,5.4-7.4,6.4c3.2,1.7,6.5,11.1,4,22.2
		c-0.9,0.9-1.8,2.7-1.1,4.4c1.7-0.2,6.8-2.5,6.5-2.9c-1.1-1.3,0-7.3,0.6-9.7c1.7-1.8,5.3-2.8,4.4-9.4C229.2,45.9,227.8,44.1,227,43z
		 M226,56c-0.6,0.8-1.4,1.1-1.6,0.1c-0.2-1-2-5.3-2-5.3c-1.2-2.4,2.6-6.1,3.6-1.1S226.7,55,226,56z"/>
	<path fill="#E31837" d="M238.6,48.4c-1.5,2.4-5.3,1.2-1.1-3.3c-0.3-1.5-1.1-3-1.8-2.5c-1.5,0.9-4.7,0.4-0.3-3.9
		c0.3-0.3,0.1-1.1,0.1-1.1l-2.4-5c-0.7-0.2-0.4-0.5-0.7-0.2c-1.9,1.7-6.3,6.1-6.3,6.1c0.6-0.6-1.5,0.7,0,1.9s6.7,7.4,6.7,22.1
		c0,0.9,0.9,0.9,1.3,0.6c0.4-0.3,7-8,7.3-9.2s-1.6-5.4-1.8-5.7C239.4,47.8,238.9,47.9,238.6,48.4z"/>
	<path fill="#E31837" d="M246.1,39.6c2.9-7.2,4.1-16.8-5-14.2c-5.1,1.4-7.2,5.3-7.2,5.2c1.1,1.9,7.3,12.4,8.5,19.7
		c0.1,0.5,0.3,1.1,0.9,0.3c0.6-0.9,2.4-3.7,2.4-4.3c-0.2-1.9-1.3-3.2,2.4-2.7c1-2.7,1-2.9,1-2.9S244.8,42.8,246.1,39.6z M244.7,33.6
		c-0.4,3.1-2.8,5.5-3.5,1.8l-1.2-3.8C243.5,28.9,245.1,30.5,244.7,33.6z"/>
	<path fill="#E31837" d="M102.7,75.8L102.7,75.8c-1.5-2.7-8.2-15-8-14.4c0.2,0.7-0.7-1.3,0.1-2.6c0.8-1.3,10.2-20.4,2.2-31.4
		c-3.3-4.6-5.5-4.7-9.1-3.8c-4,1-9.4,4-9.4,4c4.6,16.1,5.8,44,6.2,46.4c0.2,1,0.3,0.7,1.4,0.7s4.5-0.4,4.5-0.4s0.4-0.4,0.3-0.9
		s-0.3-4.5,0-5.8s1.9,1.8,2.3,2.6c0.4,0.9,1.9,3.7,2.7,5.3l0,0c0.4,1.3,0.4,1.7,0,2.7c-0.4,1.1-0.9,2.2-0.5,3.6
		C95,82.9,94.3,83,94.3,83s-6.1,5.8-7,8c-0.4,0.4-1.2,0.7-2.1,0.7s-6.8,0.7-9.1,2.6c-2.2,1.8-1,3.5,0.8,3.6c1.6,0.1,3.7-0.6,5.4-1.2
		c1.8-0.6,6.2-0.6,7.9,0.3c1.7,0.9,6.4,1,4.5-2.4c-1.4-2.5-1.2-3.1-0.3-4.5c1.4-2.1,5.4-6.1,8.2-7.3C106,81.5,105.2,77.1,102.7,75.8
		z M91.1,53.9c-0.9,1.2-1.9,1.4-2,0c-0.6-9-2.2-16-3.3-22.2c0,0,0.2-0.4,1.1-0.7c1.1-0.4,2.1-1.1,3.2-0.8c0.8,0.3,1,0,1.6,1.2
		C96.9,41.8,92.9,51.3,91.1,53.9z M92.2,95.4c-0.2,0.4-1,0.4-1.4,0.4c-0.7-0.1-1.6-0.3-2.1-0.4c-1.3-0.4-0.4-1.3-0.1-1.8
		s1.1-0.6,1.4-1.2c0.1-0.2,0.2-0.4,0.4-0.5c0.1-0.1,0.2,0,0.2,0.1c0.1,0.3,0.4,0.2,0.4,0.5l0.1-0.2C91.3,93.1,92.8,94.5,92.2,95.4z
		 M102,75.7l-2.2-0.1C100.6,75.6,101.4,75.6,102,75.7z M103.1,80.7c-0.2,0.7-0.7,1.4-1.3,1.5c-0.8,0.3-1.8,0.4-2.6,0.4
		c-0.4,0-0.5,0.8-1,1C98,83.7,97.7,84,97.5,84c-0.3-0.1-0.8,0.4-1.1,0.4c1.3-1.1,1.4-3.2,1.9-4.7c0.2-0.4,0.7-0.6,1-1
		c0.4-0.5-0.1,0,0-0.8l0,0c0.1-0.3,0.4-0.4,0.4-0.8c1,0.4,2.4,0.5,3.1,1.3C103.3,78.7,103.3,79.9,103.1,80.7z"/>
	<path fill="#E31837" d="M137.8,94.3c-4.8-1.3-10.4,0.2-11.1-2.6c-0.7-2.8-2.1-8.1-2.1-8.1c1.1-1.8,1.8-3.4-1.8-5.8
		c-1.5-0.9-4-6.7-4.6-7.9c-0.9-3.2-1.8-7.5-1.4-12c0.9-9.7,2.5-30.8-4.7-34.3c-1.8-0.9-8.2-0.9-8.2-0.9c0.5-0.1-1.8-0.4-1.7,1.1
		c0,0.8,0,2.5-0.2,3.9c-0.2,1.3-1.4,9.5-1.5,12c-0.4,6.9-1.8,21.6,3.6,34.2c0.4,0.5-0.1,0.7,1.1,0.6c1.4-0.1,2.5-0.2,3.2,0
		s2.3,0.4,2-0.7s-2.3-6.1-2.7-9.7c-0.3-2.4,2.7-3.7,2.8,0.1c0.1,3.6,4,12.2,5.8,14.9c0.1,0.5,0.1,1,0.1,1s-2.2,2.5,2.5,5.4
		c1,1.7,5.1,8.1,1.9,10.2c-1.1,1.6-1.8,4.7,2.5,3.7c4.3-1.1,5.9-1.1,8,0.4c1.8,0.3,9.4,0.4,10.5-0.5
		C142.3,98.3,141.8,95.4,137.8,94.3z M111.1,55.4c-0.4,0.9-2.5,1.4-3.5,1c-1.1-0.4-1.1-2.6-1.1-1.3c0.1,1.3-1.4-17.8,1-23v0.3
		c-0.4,2.3,1.1-6.2,3.2,1.4C112.7,41.3,111.5,54.5,111.1,55.4z M127.8,96c-1,0.4-3.4,0.5-3.9,0.5c-0.4,0-1.3-1.1-0.4-2.5
		c0.9-1.6-2-8-3.3-9.2c-1.6-1.5-3.1-3.4-1.9-4.7l4.8,3.2l0,0c0,0,2,8.2,2.4,8.8c0.4,0.5,0.5,1.5,2.4,2.2
		C128.8,94.6,128.8,95.7,127.8,96z M137.1,97.3c-3.1,1-5.6,1.1-6.8,0c-1.3-1.1-0.3-1.8-0.3-1.8s6.1,0.1,6.9,0.3
		C137.8,95.9,138.2,97,137.1,97.3z"/>
	<path fill="#E31837" d="M200.6,88c-2.6,0-4.9,2-4.9,4.8s2.2,4.8,4.9,4.8c2.6,0,4.8-2,4.8-4.8C205.4,90.1,203.1,88,200.6,88z
		 M200.5,96.8c-2.2,0-3.9-1.7-3.9-4s1.7-4,3.9-4c2.1,0,3.9,1.7,3.9,4C204.4,95.1,202.7,96.8,200.5,96.8z"/>
	<path fill="#E31837" d="M202.7,91.6c0-1.1-0.6-1.6-1.9-1.6h-2.1v5.5h0.8v-2.4h1l1.4,2.4h0.9l-1.6-2.4
		C202.1,93,202.7,92.6,202.7,91.6z M200.5,92.6h-1v-1.7h1.2c0.6,0,1.2,0.1,1.2,0.8C201.9,92.5,201.2,92.5,200.5,92.6L200.5,92.6z"/>
</g>
</svg>
