<?xml version="1.0" encoding="UTF-8" standalone="no"?>
<!DOCTYPE svg PUBLIC "-//W3C//DTD SVG 1.1//EN" "http://www.w3.org/Graphics/SVG/1.1/DTD/svg11.dtd">
<svg width="100%" height="100%" viewBox="0 0 545 180" version="1.1" xmlns="http://www.w3.org/2000/svg" xmlns:xlink="http://www.w3.org/1999/xlink" xml:space="preserve" xmlns:serif="http://www.serif.com/" style="fill-rule:evenodd;clip-rule:evenodd;stroke-linejoin:round;stroke-miterlimit:2;">
    <g transform="matrix(0.430814,0,0,0.430814,-77.8001,288.006)">
        <g>
            <g transform="matrix(4.16667,0,0,4.16667,364.927,-435.617)">
                <path d="M0,-36.188L-10.434,-24.305L-14.491,-36.188L-26.846,-36.188L-36.565,0L-24.015,0L-19.645,-16.305L-15.349,-4.925L-14.579,-4.925L-4.359,-16.087L-8.67,0L4.081,0L13.8,-36.188L0,-36.188Z" style="fill:rgb(240,80,37);fill-rule:nonzero;"/>
            </g>
            <g transform="matrix(4.16667,0,0,4.16667,470.243,-519.869)">
                <path d="M0,11.573C-3.416,11.573 -4.632,9.118 -4.632,6.821C-4.632,3.527 -2.259,-0 1.273,-0C4.689,-0 5.906,2.454 5.906,4.752C5.906,8.046 3.533,11.573 0,11.573M1.911,-9.205C-7.409,-9.205 -14.991,-1.641 -14.991,7.657C-14.991,15.26 -8.955,20.778 -0.637,20.778C8.683,20.778 16.265,13.213 16.265,3.915C16.265,-3.687 10.229,-9.205 1.911,-9.205" style="fill:rgb(240,80,37);fill-rule:nonzero;"/>
            </g>
            <g transform="matrix(4.16667,0,0,4.16667,651.239,-435.618)">
                <path d="M0,-28.868L-8.175,-19.558L-11.354,-28.868L-21.294,-28.868L-29.047,0L-18.891,0L-15.494,-12.676L-12.181,-3.901L-11.453,-3.901L-3.616,-12.459L-6.956,0L3.359,0L11.113,-28.868L0,-28.868Z" style="fill:rgb(240,80,37);fill-rule:nonzero;"/>
            </g>
            <g transform="matrix(4.16667,0,0,4.16667,727.917,-511.457)">
                <path d="M0,7.534L13.617,7.534L15.676,-0.198L2.063,-0.198L2.551,-2.019L17.158,-2.019L19.5,-10.667L-5.306,-10.667L-13.059,18.201L11.945,18.201L14.243,9.554L-0.558,9.554L0,7.534Z" style="fill:rgb(240,80,37);fill-rule:nonzero;"/>
            </g>
            <g transform="matrix(4.16667,0,0,4.16667,899.199,-435.614)">
                <path d="M0,-28.869L-3.329,-16.516L-9.209,-28.869L-18.629,-28.869L-26.382,-0.001L-16.107,-0.001L-12.619,-12.913L-6.46,-0.001L2.521,0L10.274,-28.869L0,-28.869Z" style="fill:rgb(240,80,37);fill-rule:nonzero;"/>
            </g>
            <g transform="matrix(4.16667,0,0,4.16667,1061.43,-435.614)">
                <path d="M0,-28.869L-26.755,-28.869L-29.134,-19.982L-20.935,-19.982L-26.309,0L-15.953,0L-10.579,-19.982L-2.379,-19.982L0,-28.869Z" style="fill:rgb(240,80,37);fill-rule:nonzero;"/>
            </g>
            <g transform="matrix(4.16667,0,0,4.16667,1187.81,-433.293)">
                <path d="M0,-29.426L-10.515,-29.426L-14.634,-14.092C-15.188,-12.095 -15.692,-11.055 -16.495,-10.252C-17.145,-9.603 -18.079,-9.245 -19.125,-9.245C-21.327,-9.245 -22.443,-10.255 -22.443,-12.245C-22.443,-12.811 -22.342,-13.507 -22.143,-14.304L-18.071,-29.426L-28.586,-29.426L-32.429,-15.159C-32.83,-13.634 -33.042,-12.034 -33.042,-10.534C-33.042,-3.84 -28.463,0 -20.479,0C-15.454,0 -11.625,-1.282 -9.097,-3.81C-7.071,-5.835 -5.597,-8.643 -4.589,-12.393L0,-29.426Z" style="fill:rgb(240,80,37);fill-rule:nonzero;"/>
            </g>
            <g transform="matrix(4.16667,0,0,4.16667,1318.58,-435.615)">
                <path d="M0,-36.188L-10.434,-24.306L-14.491,-36.188L-26.847,-36.188L-36.565,0L-24.015,0L-19.646,-16.305L-15.349,-4.926L-14.579,-4.926L-4.358,-16.087L-8.67,0L4.081,0L13.8,-36.188L0,-36.188Z" style="fill:rgb(240,80,37);fill-rule:nonzero;"/>
            </g>
            <g transform="matrix(4.16667,0,0,4.16667,711.448,-646.231)">
                <path d="M0,14.474C-7.226,3.783 -19.457,-3.249 -33.333,-3.249C-48.57,-3.249 -61.827,5.227 -68.647,17.722L-63.329,17.722L-63.329,17.723L115.143,17.723L116.156,14.474L0,14.474Z" style="fill:rgb(240,80,37);fill-rule:nonzero;"/>
            </g>
            <g transform="matrix(4.16667,0,0,4.16667,1313.82,-331.755)">
                <path d="M0,-20.969L0,-20.97L-265.33,-20.97L-266.201,-17.722L-63.342,-17.721C-56.115,-7.03 -43.885,0.001 -30.009,0.001C-14.771,0.001 -1.516,-8.475 5.306,-20.969L0,-20.969Z" style="fill:rgb(240,80,37);fill-rule:nonzero;"/>
            </g>
            <g transform="matrix(4.16667,0,0,4.16667,1412.32,-557.624)">
                <path d="M0,-6.906L2.4,-6.906L3.88,-4.485L5.36,-6.906L7.781,-6.906L7.781,0L5.473,0L5.473,-3.43L3.88,-0.964L3.857,-0.964L2.266,-3.43L2.266,0L0,0L0,-6.906ZM-5.067,-4.933L-7.108,-4.933L-7.108,-6.906L-0.739,-6.906L-0.739,-4.933L-2.78,-4.933L-2.78,0L-5.067,0L-5.067,-4.933Z" style="fill:rgb(240,80,37);fill-rule:nonzero;"/>
            </g>
            <g>
                <g transform="matrix(4.16667,0,0,4.16667,225.226,-375.297)">
                    <path d="M0,18.551C1.539,18.551 2.763,18.182 3.673,17.445C4.582,16.708 5.344,15.667 5.958,14.321C6.507,14.235 6.947,14.289 7.282,14.482C6.689,16.442 6.06,18.282 5.392,20.004C3.476,19.961 2.212,19.94 1.598,19.94L-5.476,19.94L-10.361,20.004C-10.49,19.918 -10.528,19.732 -10.475,19.447C-10.42,19.162 -10.302,18.971 -10.119,18.874C-9.592,18.853 -9.196,18.815 -8.932,18.761C-8.669,18.707 -8.389,18.586 -8.093,18.398C-7.797,18.209 -7.56,17.914 -7.383,17.51C-7.205,17.107 -7.051,16.571 -6.922,15.904L-4.339,2.648C-4.253,2.185 -4.199,1.792 -4.178,1.469C-4.157,1.146 -4.183,0.883 -4.259,0.678C-4.333,0.473 -4.42,0.304 -4.517,0.169C-4.613,0.035 -4.772,-0.064 -4.993,-0.129C-5.213,-0.194 -5.418,-0.237 -5.606,-0.259C-5.794,-0.28 -6.066,-0.301 -6.421,-0.323C-6.551,-0.409 -6.589,-0.598 -6.535,-0.888C-6.481,-1.178 -6.368,-1.366 -6.195,-1.453C-3.778,-1.41 -2.145,-1.389 -1.297,-1.389C-0.922,-1.389 -0.538,-1.394 -0.146,-1.405C0.246,-1.415 0.784,-1.427 1.467,-1.438C2.15,-1.448 2.836,-1.453 3.526,-1.453C3.655,-1.366 3.692,-1.182 3.639,-0.896C3.584,-0.611 3.466,-0.42 3.284,-0.323C2.756,-0.301 2.36,-0.264 2.097,-0.21C1.833,-0.156 1.553,-0.035 1.257,0.153C0.961,0.342 0.725,0.637 0.547,1.04C0.369,1.444 0.216,1.978 0.087,2.645L-2.503,15.932C-2.856,17.678 -2.657,18.551 -1.905,18.551L0,18.551Z" style="fill:rgb(240,80,37);fill-rule:nonzero;"/>
                </g>
                <g transform="matrix(4.16667,0,0,4.16667,281.551,-299.417)">
                    <path d="M0,-17.985C0,-18.534 0.202,-19.013 0.605,-19.422C1.009,-19.832 1.577,-20.036 2.309,-20.036C2.943,-20.036 3.46,-19.81 3.859,-19.358C4.257,-18.906 4.456,-18.4 4.456,-17.84C4.456,-17.356 4.235,-16.892 3.794,-16.452C3.353,-16.01 2.793,-15.79 2.115,-15.79C1.479,-15.79 0.969,-16.013 0.581,-16.46C0.194,-16.906 0,-17.414 0,-17.985M3.147,-8.863L1.713,-2.372C1.401,-1.027 1.443,-0.354 1.84,-0.354C2.034,-0.354 2.371,-0.502 2.85,-0.797C3.329,-1.092 3.767,-1.46 4.166,-1.9C4.359,-1.9 4.55,-1.795 4.739,-1.586C4.927,-1.376 5.053,-1.176 5.118,-0.982C4.364,-0.013 3.45,0.734 2.374,1.261C1.297,1.788 0.172,2.051 -1.001,2.051C-1.819,2.051 -2.357,1.691 -2.616,0.97C-2.788,0.485 -2.713,-0.532 -2.39,-2.082L-0.929,-8.878C-0.805,-9.482 -0.743,-9.927 -0.743,-10.214C-0.743,-10.628 -0.937,-10.845 -1.324,-10.867L-2.648,-10.963C-2.734,-11.117 -2.772,-11.337 -2.761,-11.624C-2.75,-11.912 -2.691,-12.121 -2.583,-12.253C-0.334,-12.544 1.561,-12.69 3.1,-12.69C3.552,-12.69 3.778,-12.456 3.778,-11.988C3.778,-11.818 3.745,-11.58 3.678,-11.275C3.612,-10.97 3.523,-10.566 3.412,-10.062C3.3,-9.557 3.212,-9.157 3.147,-8.863" style="fill:rgb(240,80,37);fill-rule:nonzero;"/>
                </g>
                <g transform="matrix(4.16667,0,0,4.16667,356.561,-276.268)">
                    <path d="M0,-14.403C0,-15.081 -0.186,-15.653 -0.557,-16.122C-0.929,-16.591 -1.416,-16.825 -2.019,-16.825C-3.633,-16.825 -4.868,-16.008 -5.724,-14.379C-6.58,-12.748 -7.007,-10.641 -7.007,-8.057C-7.007,-7.174 -6.865,-6.491 -6.58,-6.007C-6.294,-5.523 -5.942,-5.28 -5.522,-5.28C-4.909,-5.28 -4.12,-5.765 -3.157,-6.734C-2.193,-7.702 -1.523,-8.719 -1.146,-9.785C-0.382,-12.046 0,-13.585 0,-14.403M-3.536,1.501L-1.356,-7.105L-1.453,-7.137C-3.197,-4.715 -4.957,-3.505 -6.733,-3.505C-8.186,-3.505 -9.306,-4.027 -10.091,-5.071C-10.877,-6.115 -11.27,-7.32 -11.27,-8.687C-11.27,-10.291 -10.891,-11.796 -10.131,-13.2C-9.372,-14.605 -8.384,-15.754 -7.167,-16.647C-5.617,-17.778 -3.91,-18.342 -2.047,-18.342C-0.766,-18.342 0.295,-17.76 1.135,-16.598L2.379,-17.696C2.497,-17.793 2.624,-17.887 2.759,-17.979C2.893,-18.07 3.025,-18.143 3.154,-18.197C3.283,-18.251 3.41,-18.296 3.534,-18.334C3.658,-18.372 3.76,-18.399 3.841,-18.414C3.921,-18.431 3.989,-18.439 4.042,-18.439C4.484,-18.439 4.729,-18.264 4.777,-17.914C4.826,-17.563 4.764,-17.098 4.592,-16.516L0.411,1.503C0.238,2.293 0.599,2.756 1.493,2.888L2.122,2.987C2.251,3.007 2.321,3.09 2.332,3.236L2.332,3.876L2.268,3.939C-0.178,3.898 -1.838,3.877 -2.711,3.877L-6.184,4.036L-6.249,3.971L-6.249,3.364C-6.249,3.239 -6.135,3.157 -5.909,3.115L-5.28,3.017C-4.752,2.931 -4.357,2.776 -4.093,2.55C-3.829,2.324 -3.644,1.974 -3.536,1.501" style="fill:rgb(240,80,37);fill-rule:nonzero;"/>
                </g>
                <g transform="matrix(4.16667,0,0,4.16667,428.206,-337.154)">
                    <path d="M0,7.25L-0.081,7.491L0.081,6.749L0.016,6.684C-0.576,7.384 -1.138,7.989 -1.671,8.501C-2.204,9.012 -2.686,9.427 -3.116,9.744C-3.547,10.062 -3.969,10.314 -4.383,10.502C-4.798,10.692 -5.172,10.818 -5.506,10.882C-5.839,10.946 -6.194,10.979 -6.571,10.979C-7.325,10.979 -8.003,10.756 -8.605,10.31C-9.208,9.862 -9.51,9.181 -9.51,8.267C-9.51,7.373 -9.424,6.561 -9.251,5.828L-7.992,0.565C-7.659,-0.78 -7.702,-1.454 -8.121,-1.454C-8.326,-1.454 -8.665,-1.305 -9.138,-1.009C-9.612,-0.713 -10.042,-0.344 -10.43,0.097C-10.635,0.097 -10.831,-0.008 -11.019,-0.218C-11.208,-0.428 -11.334,-0.629 -11.398,-0.823C-10.646,-1.792 -9.728,-2.541 -8.646,-3.068C-7.564,-3.594 -6.442,-3.858 -5.28,-3.858C-4.832,-3.858 -4.49,-3.771 -4.255,-3.593C-4.021,-3.417 -3.834,-3.145 -3.693,-2.779C-3.489,-2.221 -3.57,-1.207 -3.936,0.264L-5.166,5.543C-5.23,6.019 -5.261,6.459 -5.255,6.864C-5.25,7.27 -5.148,7.605 -4.949,7.87C-4.75,8.135 -4.462,8.267 -4.084,8.267C-3.516,8.267 -2.916,7.962 -2.284,7.354C-1.652,6.747 -0.682,5.643 0.626,4.043L1.669,-1.131C1.692,-1.247 1.722,-1.395 1.759,-1.574C1.794,-1.753 1.824,-1.901 1.848,-2.017C1.871,-2.133 1.898,-2.268 1.929,-2.421C1.959,-2.574 2,-2.704 2.048,-2.811C2.096,-2.919 2.157,-3.032 2.232,-3.149C2.308,-3.268 2.393,-3.367 2.49,-3.448C2.586,-3.528 2.702,-3.601 2.836,-3.666C2.971,-3.729 3.125,-3.778 3.303,-3.811C3.48,-3.842 3.681,-3.858 3.906,-3.858C4.357,-3.858 4.727,-3.84 5.017,-3.803C5.307,-3.765 5.526,-3.704 5.677,-3.618C5.827,-3.532 5.932,-3.441 5.991,-3.345C6.049,-3.249 6.079,-3.125 6.079,-2.976C6.079,-2.88 6.056,-2.731 6.012,-2.531C5.966,-2.332 5.913,-2.093 5.849,-1.814C5.786,-1.536 5.736,-1.312 5.698,-1.144L3.929,6.678C3.779,7.369 3.71,7.838 3.721,8.087C3.721,8.498 3.838,8.703 4.075,8.703C4.269,8.703 4.602,8.554 5.076,8.259C5.549,7.962 5.985,7.594 6.384,7.153C6.578,7.153 6.768,7.258 6.957,7.467C7.145,7.677 7.271,7.879 7.336,8.073C5.754,10.097 3.8,11.108 1.475,11.108C0.64,11.108 0.089,10.748 -0.178,10.026C-0.21,9.93 -0.234,9.813 -0.25,9.679C-0.267,9.545 -0.275,9.396 -0.275,9.235C-0.275,9.16 -0.272,9.085 -0.266,9.01C-0.261,8.934 -0.256,8.858 -0.25,8.783C-0.245,8.708 -0.237,8.627 -0.226,8.541C-0.215,8.455 -0.202,8.372 -0.186,8.291C-0.169,8.21 -0.153,8.124 -0.137,8.032C-0.122,7.941 -0.108,7.857 -0.097,7.782C-0.086,7.708 -0.07,7.619 -0.049,7.516C-0.027,7.413 -0.011,7.325 0,7.25" style="fill:rgb(240,80,37);fill-rule:nonzero;"/>
                </g>
                <g transform="matrix(4.16667,0,0,4.16667,485.254,-299.413)">
                    <path d="M0,-17.986C0,-18.535 0.202,-19.014 0.605,-19.423C1.009,-19.833 1.577,-20.036 2.309,-20.036C2.943,-20.036 3.46,-19.811 3.859,-19.359C4.257,-18.907 4.456,-18.401 4.456,-17.841C4.456,-17.357 4.235,-16.893 3.794,-16.453C3.353,-16.01 2.793,-15.791 2.115,-15.791C1.479,-15.791 0.969,-16.014 0.581,-16.461C0.194,-16.907 0,-17.415 0,-17.986M3.147,-8.864L1.713,-2.373C1.401,-1.028 1.443,-0.355 1.84,-0.355C2.034,-0.355 2.371,-0.503 2.85,-0.798C3.329,-1.093 3.767,-1.461 4.166,-1.901C4.359,-1.901 4.55,-1.796 4.739,-1.587C4.927,-1.377 5.053,-1.176 5.118,-0.983C4.365,-0.014 3.45,0.733 2.374,1.26C1.297,1.787 0.172,2.05 -1.001,2.05C-1.819,2.05 -2.357,1.69 -2.616,0.969C-2.788,0.484 -2.712,-0.533 -2.39,-2.083L-0.929,-8.879C-0.805,-9.483 -0.743,-9.928 -0.743,-10.215C-0.743,-10.629 -0.937,-10.846 -1.324,-10.867L-2.648,-10.964C-2.734,-11.118 -2.772,-11.338 -2.761,-11.625C-2.75,-11.913 -2.691,-12.122 -2.583,-12.254C-0.334,-12.545 1.561,-12.691 3.1,-12.691C3.552,-12.691 3.778,-12.457 3.778,-11.989C3.778,-11.819 3.745,-11.581 3.679,-11.276C3.612,-10.971 3.523,-10.567 3.412,-10.063C3.3,-9.558 3.212,-9.158 3.147,-8.864" style="fill:rgb(240,80,37);fill-rule:nonzero;"/>
                </g>
                <g transform="matrix(4.16667,0,0,4.16667,558.014,-348.313)">
                    <path d="M0,4.173C0.008,4.121 0.02,4.068 0.033,4.015C0.046,3.963 0.059,3.91 0.071,3.857C0.083,3.805 0.094,3.758 0.103,3.716C0.113,3.674 0.118,3.619 0.118,3.55L0,4.173ZM-0.132,4.756L0.078,3.195C0.078,3.12 0.081,3.066 0.088,3.033C0.088,2.395 -0.095,1.807 -0.461,1.271C-0.827,0.735 -1.306,0.466 -1.898,0.466C-2.867,0.466 -3.739,0.897 -4.513,1.758C-5.289,2.619 -5.867,3.655 -6.249,4.866C-6.631,6.077 -6.822,7.291 -6.822,8.506C-6.822,10.584 -6.361,11.618 -5.438,11.607C-4.812,11.607 -4.161,11.239 -3.486,10.506C-2.81,9.77 -2.043,8.626 -1.187,7.071C-1.033,6.793 -0.89,6.517 -0.758,6.243C-0.627,5.97 -0.508,5.713 -0.404,5.472C-0.3,5.231 -0.209,4.991 -0.132,4.756M2.105,-5.119C2.375,-6.225 2.367,-6.918 2.083,-7.2C1.8,-7.482 1.079,-7.623 -0.08,-7.623C-0.194,-7.94 -0.138,-8.316 0.088,-8.752C0.335,-8.795 0.902,-8.9 1.79,-9.067C2.678,-9.234 3.452,-9.369 4.113,-9.472C4.775,-9.573 5.262,-9.625 5.573,-9.625C6.23,-9.625 6.558,-9.258 6.558,-8.524C6.558,-8.277 6.391,-7.374 6.058,-5.816L2.758,9.277C2.693,9.571 2.636,9.835 2.585,10.066C2.535,10.297 2.51,10.503 2.51,10.687C2.51,10.816 2.521,10.92 2.542,11.002C2.563,11.083 2.601,11.149 2.655,11.203C2.708,11.257 2.778,11.284 2.865,11.284C3.059,11.284 3.392,11.135 3.866,10.84C4.339,10.544 4.775,10.175 5.173,9.735C5.368,9.735 5.559,9.837 5.747,10.041C5.935,10.245 6.062,10.45 6.126,10.654C4.231,12.754 2.181,13.798 -0.025,13.786C-0.596,13.786 -1.016,13.623 -1.285,13.295C-1.554,12.965 -1.688,12.506 -1.688,11.914C-1.688,11.319 -1.537,10.556 -1.235,9.623L-1.446,9.556C-2.458,11.031 -3.375,12.105 -4.199,12.777C-5.022,13.45 -5.854,13.786 -6.693,13.786C-8.017,13.786 -9.037,13.27 -9.753,12.237C-10.469,11.203 -10.827,10.138 -10.827,9.04C-10.827,6.575 -9.823,4.277 -7.815,2.146C-5.808,0.014 -3.868,-1.051 -1.995,-1.051C-1.367,-1.051 -0.807,-0.879 -0.316,-0.534C0.175,-0.19 0.535,0.256 0.763,0.803L2.105,-5.119Z" style="fill:rgb(240,80,37);fill-rule:nonzero;"/>
                </g>
                <g transform="matrix(4.16667,0,0,4.16667,653.359,-364.669)">
                    <path d="M0,13.449C-0.194,14.504 -0.115,15.204 0.234,15.548C0.584,15.893 1.34,16.066 2.502,16.066C3.138,16.066 3.81,15.923 4.521,15.637C5.231,15.352 5.949,14.911 6.676,14.314C7.402,13.716 8.064,12.87 8.662,11.778C9.259,10.686 9.687,9.424 9.945,7.992C10.161,6.851 10.314,5.84 10.406,4.957C10.497,4.075 10.505,3.138 10.43,2.148C10.354,1.157 10.134,0.336 9.768,-0.314C9.402,-0.966 8.829,-1.507 8.048,-1.938C7.268,-2.367 6.27,-2.584 5.054,-2.584C3.751,-2.584 2.938,-1.754 2.616,-0.096L0,13.449ZM-2.988,17.389L-7.876,17.453C-8.005,17.367 -8.043,17.182 -7.99,16.896C-7.936,16.611 -7.817,16.421 -7.634,16.324C-7.107,16.303 -6.711,16.264 -6.447,16.211C-6.184,16.157 -5.904,16.035 -5.608,15.847C-5.312,15.658 -5.075,15.363 -4.898,14.96C-4.72,14.556 -4.566,14.02 -4.437,13.353L-1.861,0.096C-1.775,-0.367 -1.721,-0.759 -1.7,-1.082C-1.678,-1.405 -1.705,-1.668 -1.78,-1.873C-1.856,-2.077 -1.942,-2.246 -2.038,-2.382C-2.135,-2.516 -2.293,-2.615 -2.513,-2.679C-2.733,-2.745 -2.937,-2.787 -3.125,-2.809C-3.313,-2.83 -3.583,-2.852 -3.938,-2.873C-4.067,-2.96 -4.104,-3.148 -4.051,-3.439C-3.998,-3.729 -3.885,-3.917 -3.713,-4.004C-1.294,-3.961 0.34,-3.94 1.19,-3.94C1.567,-3.94 2.221,-3.944 3.152,-3.955C4.083,-3.966 4.85,-3.971 5.453,-3.971C7.96,-3.971 10.008,-3.461 11.596,-2.438C13.184,-1.414 14.23,-0.081 14.736,1.566C15.242,3.214 15.296,5.08 14.898,7.169C14.564,8.827 14.042,10.317 13.332,11.642C12.621,12.965 11.803,13.976 10.878,14.677C8.499,16.528 5.587,17.453 2.143,17.453C1.723,17.453 0.868,17.443 -0.424,17.422C-1.714,17.399 -2.57,17.389 -2.988,17.389" style="fill:rgb(240,80,37);fill-rule:nonzero;"/>
                </g>
                <g transform="matrix(4.16667,0,0,4.16667,759.93,-300.352)">
                    <path d="M0,-10.286C0,-10.899 -0.35,-11.206 -1.05,-11.206C-1.416,-11.206 -1.741,-11.144 -2.026,-11.02C-2.312,-10.896 -2.613,-10.659 -2.931,-10.309C-3.248,-9.96 -3.558,-9.415 -3.859,-8.68C-4.16,-7.942 -4.446,-7.013 -4.715,-5.893C-4.208,-5.979 -3.711,-6.115 -3.221,-6.297C-2.731,-6.48 -2.229,-6.736 -1.711,-7.064C-1.195,-7.393 -0.781,-7.836 -0.469,-8.396C-0.156,-8.955 0,-9.586 0,-10.286M-4.957,-4.634C-4.979,-4.462 -4.989,-4.085 -4.989,-3.505C-4.989,-0.964 -4.402,0.306 -3.229,0.306C-2.433,0.306 -1.717,0.134 -1.082,-0.21C-0.447,-0.556 0.333,-1.2 1.259,-2.148C1.453,-2.148 1.657,-2.059 1.873,-1.881C2.088,-1.704 2.238,-1.518 2.325,-1.324C1.399,-0.129 0.336,0.769 -0.864,1.371C-2.064,1.974 -3.251,2.276 -4.424,2.276C-6.254,2.276 -7.516,1.838 -8.21,0.96C-8.904,0.083 -9.251,-1.152 -9.251,-2.746C-9.251,-3.628 -9.146,-4.51 -8.937,-5.393C-8.727,-6.276 -8.391,-7.151 -7.927,-8.016C-7.465,-8.883 -6.897,-9.648 -6.225,-10.309C-5.552,-10.971 -4.704,-11.513 -3.681,-11.932C-2.659,-12.352 -1.529,-12.562 -0.291,-12.562C0.969,-12.562 1.956,-12.33 2.672,-11.868C3.388,-11.404 3.746,-10.867 3.746,-10.253C3.746,-9.134 3.401,-8.24 2.712,-7.574C1.55,-6.475 -1.007,-5.495 -4.957,-4.634" style="fill:rgb(240,80,37);fill-rule:nonzero;"/>
                </g>
                <g transform="matrix(4.16667,0,0,4.16667,814.085,-332.709)">
                    <path d="M0,2.615L-6.555,2.615C-7.373,2.615 -7.782,2.383 -7.782,1.921C-7.782,1.608 -7.61,1.21 -7.266,0.726C-6.921,0.241 -6.582,0 -6.248,0L0.355,0C1.152,0 1.55,0.231 1.55,0.693C1.55,0.962 1.375,1.35 1.026,1.855C0.675,2.362 0.333,2.615 0,2.615" style="fill:rgb(240,80,37);fill-rule:nonzero;"/>
                </g>
                <g transform="matrix(4.16667,0,0,4.16667,847.384,-309.038)">
                    <path d="M0,-13.254C0.086,-13.717 0.139,-14.109 0.16,-14.433C0.182,-14.755 0.155,-15.02 0.08,-15.224C0.005,-15.429 -0.081,-15.598 -0.178,-15.733C-0.275,-15.867 -0.434,-15.966 -0.653,-16.031C-0.875,-16.096 -1.08,-16.139 -1.267,-16.16C-1.456,-16.182 -1.729,-16.203 -2.083,-16.225C-2.212,-16.312 -2.25,-16.5 -2.196,-16.791C-2.142,-17.08 -2.029,-17.269 -1.856,-17.356C-0.179,-17.313 1.453,-17.291 3.042,-17.291C4.534,-17.291 6.142,-17.313 7.864,-17.356C7.993,-17.269 8.03,-17.084 7.978,-16.798C7.923,-16.513 7.805,-16.321 7.622,-16.225C7.095,-16.203 6.699,-16.166 6.436,-16.112C6.171,-16.058 5.892,-15.937 5.596,-15.749C5.3,-15.561 5.063,-15.265 4.885,-14.861C4.708,-14.458 4.555,-13.923 4.425,-13.257L1.842,-0.002C1.757,0.462 1.702,0.855 1.681,1.179C1.659,1.501 1.687,1.765 1.761,1.97C1.837,2.175 1.917,2.345 2.004,2.48C2.089,2.614 2.248,2.714 2.479,2.778C2.711,2.843 2.915,2.886 3.094,2.908C3.271,2.93 3.537,2.951 3.893,2.973C4.021,3.058 4.064,3.246 4.021,3.537C3.979,3.828 3.87,4.017 3.699,4.102C2.021,4.059 0.411,4.038 -1.129,4.038C-2.668,4.038 -4.301,4.059 -6.022,4.102C-6.152,4.017 -6.189,3.83 -6.135,3.545C-6.082,3.26 -5.964,3.069 -5.78,2.973C-5.254,2.951 -4.857,2.913 -4.594,2.86C-4.33,2.806 -4.051,2.684 -3.754,2.496C-3.458,2.307 -3.221,2.012 -3.044,1.608C-2.865,1.204 -2.712,0.669 -2.584,0.002L0,-13.254Z" style="fill:rgb(240,80,37);fill-rule:nonzero;"/>
                </g>
                <g transform="matrix(4.16667,0,0,4.16667,924.614,-340.047)">
                    <path d="M0,8.606C-0.797,9.532 -1.773,10.296 -2.93,10.898C-4.088,11.501 -5.161,11.802 -6.15,11.802C-8.197,11.802 -9.672,11.232 -10.576,10.091C-11.565,8.81 -11.818,7.056 -11.335,4.828C-10.85,2.471 -9.733,0.544 -7.984,-0.952C-6.235,-2.448 -4.408,-3.196 -2.503,-3.196C-0.92,-3.196 0.234,-2.866 0.961,-2.203C1.687,-1.541 1.954,-0.727 1.76,0.242C1.651,0.77 1.399,1.208 1.001,1.559C0.603,1.908 0.161,2.083 -0.323,2.083C-0.828,2.083 -1.228,1.936 -1.518,1.639C-1.809,1.343 -1.933,0.975 -1.89,0.533C-1.803,-0.081 -1.851,-0.623 -2.035,-1.097C-2.218,-1.571 -2.562,-1.808 -3.067,-1.808C-3.907,-1.808 -4.668,-1.34 -5.353,-0.404C-6.036,0.533 -6.577,1.895 -6.975,3.682C-7.352,5.403 -7.273,6.771 -6.74,7.782C-6.208,8.794 -5.415,9.3 -4.359,9.3C-3.304,9.3 -2.083,8.725 -0.694,7.572C-0.564,7.572 -0.417,7.708 -0.25,7.976C-0.083,8.245 0,8.455 0,8.606" style="fill:rgb(240,80,37);fill-rule:nonzero;"/>
                </g>
                <g transform="matrix(4.16667,0,0,4.16667,973.588,-300.352)">
                    <path d="M0,-10.286C0,-10.899 -0.351,-11.206 -1.049,-11.206C-1.416,-11.206 -1.741,-11.144 -2.026,-11.02C-2.312,-10.896 -2.613,-10.659 -2.931,-10.309C-3.249,-9.96 -3.558,-9.415 -3.858,-8.679C-4.161,-7.942 -4.446,-7.013 -4.715,-5.893C-4.209,-5.979 -3.711,-6.115 -3.222,-6.297C-2.731,-6.48 -2.229,-6.736 -1.712,-7.064C-1.194,-7.393 -0.781,-7.836 -0.469,-8.396C-0.156,-8.955 0,-9.586 0,-10.286M-4.957,-4.634C-4.979,-4.462 -4.989,-4.085 -4.989,-3.505C-4.989,-0.963 -4.402,0.306 -3.229,0.306C-2.433,0.306 -1.717,0.134 -1.082,-0.21C-0.447,-0.556 0.333,-1.2 1.26,-2.148C1.452,-2.148 1.657,-2.059 1.873,-1.881C2.088,-1.704 2.238,-1.518 2.325,-1.324C1.399,-0.129 0.336,0.769 -0.864,1.371C-2.063,1.974 -3.251,2.276 -4.425,2.276C-6.255,2.276 -7.516,1.838 -8.21,0.96C-8.905,0.083 -9.252,-1.152 -9.252,-2.746C-9.252,-3.627 -9.146,-4.51 -8.937,-5.393C-8.727,-6.276 -8.391,-7.151 -7.928,-8.016C-7.465,-8.883 -6.897,-9.648 -6.224,-10.309C-5.552,-10.971 -4.704,-11.513 -3.682,-11.932C-2.659,-12.352 -1.528,-12.562 -0.291,-12.562C0.969,-12.562 1.956,-12.329 2.672,-11.868C3.388,-11.404 3.745,-10.867 3.745,-10.253C3.745,-9.134 3.4,-8.24 2.712,-7.573C1.55,-6.475 -1.007,-5.495 -4.957,-4.634" style="fill:rgb(240,80,37);fill-rule:nonzero;"/>
                </g>
                <g transform="matrix(4.16667,0,0,4.16667,1020.28,-320.032)">
                    <path d="M0,-0.84L-1.233,4.324C-1.264,4.45 -1.313,4.662 -1.384,4.959C-1.455,5.258 -1.508,5.474 -1.54,5.611C-1.572,5.746 -1.646,5.922 -1.76,6.139C-1.873,6.354 -2.001,6.513 -2.143,6.612C-2.285,6.712 -2.483,6.802 -2.739,6.88C-2.995,6.959 -3.293,6.999 -3.635,6.999C-4.496,6.999 -5.074,6.927 -5.369,6.781C-5.666,6.636 -5.813,6.412 -5.813,6.112C-5.813,6.014 -5.791,5.866 -5.747,5.666C-5.702,5.467 -5.648,5.228 -5.587,4.949C-5.524,4.671 -5.475,4.448 -5.437,4.279L-4.176,-1.366C-3.836,-2.882 -3.666,-4.082 -3.666,-4.964C-3.666,-5.58 -3.865,-5.9 -4.264,-5.92L-5.588,-6.014C-5.674,-6.169 -5.711,-6.389 -5.701,-6.676C-5.689,-6.964 -5.631,-7.173 -5.522,-7.305C-3.273,-7.596 -1.443,-7.742 -0.033,-7.742C0.182,-7.742 0.364,-7.665 0.516,-7.513C0.666,-7.361 0.741,-7.17 0.741,-6.941C0.741,-6.018 0.606,-4.907 0.338,-3.609L0.435,-3.543C0.897,-4.523 1.416,-5.344 1.992,-6.006C2.568,-6.668 3.126,-7.138 3.663,-7.419C4.202,-7.699 4.729,-7.839 5.246,-7.839C5.924,-7.839 6.437,-7.639 6.788,-7.241C7.138,-6.843 7.312,-6.391 7.312,-5.885C7.312,-5.293 7.144,-4.76 6.804,-4.286C6.465,-3.813 6.037,-3.576 5.521,-3.576C5.11,-3.576 4.664,-3.867 4.181,-4.447C3.911,-4.781 3.632,-4.948 3.341,-4.948C2.898,-4.948 2.421,-4.634 1.903,-4.007C1.387,-3.379 0.752,-2.322 0,-0.84" style="fill:rgb(240,80,37);fill-rule:nonzero;"/>
                </g>
            </g>
        </g>
    </g>
</svg>
