<?xml version="1.0" encoding="UTF-8" standalone="no"?>
<!DOCTYPE svg PUBLIC "-//W3C//DTD SVG 1.1//EN" "http://www.w3.org/Graphics/SVG/1.1/DTD/svg11.dtd">
<svg width="100%" height="100%" viewBox="0 0 545 180" version="1.1" xmlns="http://www.w3.org/2000/svg" xmlns:xlink="http://www.w3.org/1999/xlink" xml:space="preserve" xmlns:serif="http://www.serif.com/" style="fill-rule:evenodd;clip-rule:evenodd;stroke-linejoin:round;stroke-miterlimit:2;">
    <g transform="matrix(0.989103,0,0,1.01269,-22.7908,183.29)">
        <g transform="matrix(97.2163,0,0,-97.2163,169.373,-99.3204)">
            <path d="M0,0.465L0,-0.465L0.748,-0.465C0.825,-0.465 0.905,-0.444 0.947,-0.413C0.984,-0.386 1,-0.345 1,-0.277L1,-0.126C1,-0.061 0.962,-0.017 0.883,0.009L0.864,0.015L0.882,0.023C0.964,0.058 0.997,0.093 0.997,0.145L0.997,0.292C0.997,0.351 0.973,0.402 0.933,0.432C0.888,0.465 0.803,0.465 0.734,0.465L0,0.465ZM0.209,0.306L0.692,0.306C0.719,0.306 0.741,0.299 0.756,0.287C0.771,0.275 0.78,0.263 0.78,0.241L0.78,0.167C0.78,0.141 0.773,0.122 0.759,0.112C0.746,0.103 0.723,0.099 0.688,0.099L0.209,0.099L0.209,0.306ZM0.209,-0.065L0.683,-0.065C0.72,-0.065 0.744,-0.069 0.762,-0.079C0.78,-0.089 0.789,-0.107 0.789,-0.133L0.789,-0.215C0.789,-0.236 0.781,-0.254 0.765,-0.266C0.749,-0.28 0.732,-0.285 0.706,-0.285L0.209,-0.285L0.209,-0.065Z" style="fill:url(#_Linear1);fill-rule:nonzero;"/>
        </g>
        <g transform="matrix(0.499171,0,0,0.499171,190.427,-126.274)">
            <path d="M0,107.993L0,68.215L90.844,68.215C98.138,68.215 102.339,69.059 105.418,70.739C108.496,72.424 110.035,75.453 110.035,79.828L110.035,95.876C110.035,99.58 108.667,102.526 105.931,104.711C103.194,106.9 100.303,107.993 95.29,107.993L0,107.993ZM0,33.276L0,-4.04L92.554,-4.04C97.567,-4.04 101.447,-2.944 104.182,-0.759C106.919,1.431 108.287,3.377 108.287,7.077L108.287,21.412C108.287,26.125 107.143,29.281 104.867,30.878C102.585,32.48 98.25,33.276 91.869,33.276L0,33.276ZM100.762,-38.001L-43.679,-38.001L-43.679,145.994L103.499,145.994C118.088,145.994 134.327,142.156 143.22,135.592C152.113,129.029 154.076,118.935 154.076,107.993L154.076,78.496C154.076,65.708 146.693,56.248 130.276,50.86C144.866,44.635 153.416,37.657 153.416,25.705L153.416,-2.792C153.416,-13.73 149.309,-24.691 140.417,-31.254C131.524,-37.818 115.352,-38.001 100.762,-38.001M-3,110.993L95.29,110.993C100.681,110.993 104.307,109.852 107.803,107.056C111.275,104.283 113.035,100.521 113.035,95.876L113.035,79.828C113.035,72.934 109.676,69.649 106.855,68.106C103.142,66.08 98.354,65.215 90.844,65.215L-3,65.215L-3,110.993M-3,36.276L91.869,36.276C99.052,36.276 103.729,35.341 106.59,33.334C109.707,31.147 111.287,27.136 111.287,21.412L111.287,7.077C111.287,2.102 109.196,-0.59 106.055,-3.103C102.784,-5.715 98.241,-7.04 92.554,-7.04L-3,-7.04L-3,36.276M100.762,-35.001C113.917,-35.001 130.289,-35.001 138.635,-28.84C146.122,-23.315 150.416,-13.821 150.416,-2.792L150.416,25.705C150.416,35.152 144.24,41.641 129.099,48.101L121.772,51.227L129.34,53.711C143.966,58.511 151.076,66.618 151.076,78.496L151.076,107.993C151.076,120.661 148.194,128.193 141.438,133.179C133.485,139.05 118.238,142.994 103.499,142.994L-40.679,142.994L-40.679,-35.001L100.762,-35.001Z" style="fill:rgb(97,126,108);fill-rule:nonzero;"/>
        </g>
        <g transform="matrix(87.3496,0,0,-87.3496,390.576,-99.1394)">
            <path d="M0,0.515L0,-0.515L1,-0.515L1,-0.32L0.249,-0.32L0.249,0.515L0,0.515Z" style="fill:url(#_Linear2);fill-rule:nonzero;"/>
        </g>
        <g transform="matrix(0.499171,0,0,0.499171,413.044,-53.398)">
            <path d="M0,-183.27L-46.513,-183.27L-46.513,0L131.477,0L131.477,-37.091L0,-37.091L0,-183.27ZM-3,-180.27L-3,-34.091L128.477,-34.091L128.477,-3L-43.513,-3L-43.513,-180.27L-3,-180.27Z" style="fill:rgb(97,126,108);fill-rule:nonzero;"/>
        </g>
        <g transform="matrix(103.717,0,0,-103.717,445.967,-99.1394)">
            <path d="M-0,0.434L-0,0.264L0.393,0.264L0.393,-0.434L0.601,-0.434L0.601,0.264L1,0.264L1,0.434L-0,0.434Z" style="fill:url(#_Linear3);fill-rule:nonzero;"/>
        </g>
        <g transform="matrix(0.499171,0,0,0.499171,550.434,-53.398)">
            <path d="M0,-183.27L-210.78,-183.27L-210.78,-145.08L-129.053,-145.08L-129.053,0L-82.908,0L-82.908,-145.08L0,-145.08L0,-183.27ZM-3,-180.27L-3,-148.08L-85.908,-148.08L-85.908,-3L-126.053,-3L-126.053,-148.08L-207.78,-148.08L-207.78,-180.27L-3,-180.27Z" style="fill:rgb(97,126,108);fill-rule:nonzero;"/>
        </g>
        <g transform="matrix(110.8,0,0,-110.8,272.315,-99.3204)">
            <path d="M0.19,0.408C0.076,0.408 -0,0.379 -0,0.241L-0,-0.238C-0,-0.379 0.076,-0.408 0.19,-0.408L0.81,-0.408C0.924,-0.408 1,-0.379 1,-0.238L1,0.241C1,0.379 0.924,0.408 0.81,0.408L0.19,0.408ZM0.193,0.254L0.807,0.254L0.807,-0.251L0.193,-0.251L0.193,0.254Z" style="fill:url(#_Linear4);fill-rule:nonzero;"/>
        </g>
        <g transform="matrix(0.499171,0,0,0.499171,294.465,-126.437)">
            <path d="M0,108.646L0,-0.508L133.219,-0.508L133.219,108.646L0,108.646ZM135.395,-37.675L-2.176,-37.675C-26.505,-37.675 -45.874,-32.378 -45.874,0.927L-45.874,107.211C-45.874,140.516 -26.505,146.321 -2.176,146.321L135.395,146.321C159.725,146.321 179.093,140.516 179.093,107.211L179.093,0.927C179.093,-32.378 159.725,-37.675 135.395,-37.675M-3,111.646L136.219,111.646L136.219,-3.508L-3,-3.508L-3,111.646M135.395,-34.675C160.521,-34.675 176.093,-28.719 176.093,0.927L176.093,107.211C176.093,121.634 172.343,131.317 164.627,136.811C158.306,141.313 149.291,143.321 135.395,143.321L-2.176,143.321C-16.072,143.321 -25.087,141.313 -31.408,136.811C-39.123,131.317 -42.874,121.634 -42.874,107.211L-42.874,0.927C-42.874,-28.719 -27.302,-34.675 -2.176,-34.675L135.395,-34.675Z" style="fill:rgb(97,126,108);fill-rule:nonzero;"/>
        </g>
        <g transform="matrix(50.4516,0,0,-50.4516,64.9067,-155.163)">
            <path d="M0.262,0.1L-0,-0.162L0.721,-0.162C0.823,-0.162 0.917,-0.172 1,-0.192L0.707,0.1C0.648,0.16 0.569,0.192 0.485,0.192C0.401,0.192 0.321,0.16 0.262,0.1Z" style="fill:url(#_Linear5);fill-rule:nonzero;"/>
        </g>
        <g transform="matrix(0.499171,0,0,0.499171,89.3593,-143.958)">
            <path d="M0,-43.399C-8.529,-43.399 -17.059,-40.145 -23.566,-33.637L-52.608,-4.596L23.863,-4.596C36.521,-4.596 47.632,-3.062 57.204,0L23.567,-33.637C17.059,-40.145 8.529,-43.399 0,-43.399M0,-40.399C8.101,-40.399 15.717,-37.244 21.445,-31.516L47.417,-5.544C40.219,-6.908 32.338,-7.596 23.863,-7.596L-45.365,-7.596L-21.445,-31.516C-15.717,-37.244 -8.101,-40.399 0,-40.399" style="fill:rgb(97,126,108);fill-rule:nonzero;"/>
        </g>
        <g transform="matrix(47.9682,0,0,-47.9682,65.88,-41.9239)">
            <path d="M0,0.169L0.227,-0.056C0.3,-0.129 0.396,-0.169 0.497,-0.169L0.497,-0.169C0.582,-0.169 0.663,-0.14 0.724,-0.086C0.816,-0.016 0.945,0.114 1,0.169L0,0.169Z" style="fill:url(#_Linear6);fill-rule:nonzero;"/>
        </g>
        <g transform="matrix(0.499171,0,0,0.499171,115.621,-33.0626)">
            <path d="M0,-35.502L-103.298,-35.502L-78.852,-11.327C-71.124,-3.599 -61.36,0 -51.932,0C-43.495,0 -35.327,-2.881 -29.124,-8.262C-17.589,-17.141 0,-35.502 0,-35.502M-7.144,-32.502C-13.171,-26.447 -23.444,-16.42 -30.954,-10.64L-31.023,-10.586L-31.09,-10.528C-36.686,-5.674 -44.088,-3 -51.932,-3C-61.186,-3 -69.993,-6.711 -76.743,-13.46L-95.998,-32.502L-7.144,-32.502Z" style="fill:rgb(97,126,108);fill-rule:nonzero;"/>
        </g>
        <g transform="matrix(-20.3887,8.96324,8.96324,20.3887,43.7881,-103.617)">
            <path d="M0.497,-0.565C0.864,-0.422 1.046,-0.008 0.903,0.358L0.497,1.401L-0.546,-0.971L0.497,-0.565Z" style="fill:url(#_Linear7);fill-rule:nonzero;"/>
        </g>
        <g transform="matrix(0.499171,0,0,0.499171,46.9618,-68.7794)">
            <path d="M0,-122.875L-37.871,-85.004C-50.886,-71.989 -50.887,-50.886 -37.871,-37.871L0,0L0,-122.875ZM-3,-115.632L-3,-7.243L-35.75,-39.992C-41.478,-45.721 -44.633,-53.337 -44.633,-61.438C-44.633,-69.539 -41.478,-77.155 -35.75,-82.883L-3,-115.632Z" style="fill:rgb(97,126,108);fill-rule:nonzero;"/>
        </g>
        <g transform="matrix(53.4693,0,0,-53.4693,63.087,-120.364)">
            <path d="M-0,0.175L-0,-0.175L0.861,-0.175C0.931,-0.175 1,-0.108 1,-0.04L1,-0C1,0.08 0.973,0.175 0.846,0.175L-0,0.175Z" style="fill:url(#_Linear8);fill-rule:nonzero;"/>
        </g>
        <g transform="matrix(0.499171,0,0,0.499171,108.345,-110.267)">
            <path d="M0,-40.454L-92.167,-40.454L-92.167,0L1.603,0C10.073,0 17.949,-8.027 17.949,-15.928L17.922,-20.227C17.922,-27.621 15.824,-40.454 0,-40.454M0,-37.454C9.901,-37.454 14.922,-31.658 14.922,-20.208L14.949,-15.928C14.949,-9.525 8.214,-3 1.603,-3L-89.167,-3L-89.167,-37.454L0,-37.454Z" style="fill:rgb(97,126,108);fill-rule:nonzero;"/>
        </g>
        <g transform="matrix(25.8929,0,0,-25.8929,128.67,-105.177)">
            <path d="M0.148,0.771C0.162,0.682 0.162,0.553 0.148,0.416C0.135,0.288 0.1,0.187 0.032,0.08L0.031,0.078L-0,0.039C0.063,-0.003 0.218,-0.117 0.323,-0.266C0.455,-0.441 0.536,-0.661 0.536,-0.84L0.538,-1L0.814,-0.731C1.056,-0.489 1.063,-0.022 0.828,0.213L0.076,1C0.105,0.922 0.138,0.827 0.148,0.771Z" style="fill:url(#_Linear9);fill-rule:nonzero;"/>
        </g>
        <g transform="matrix(0.499171,0,0,0.499171,128.828,-77.5198)">
            <path d="M0,-113.274C0.184,-111.762 5.032,-100.131 5.854,-95.157C6.675,-90.184 6.513,-83.235 5.875,-77.164C5.238,-71.092 3.637,-65.98 0.087,-60.341L-2.524,-57.093C-2.524,-57.093 8.522,-50.271 15.225,-40.695C22.193,-31.438 26.008,-20.381 26.008,-11.821L26.151,0L42.953,-16.407C55.968,-29.422 56.753,-54.478 43.738,-67.494L0,-113.274ZM7.325,-101.264L41.569,-65.422L41.592,-65.397L41.617,-65.373C53.239,-53.75 52.85,-30.547 40.857,-18.553L29.066,-7.039L29.008,-11.821C29.008,-21.4 24.658,-33.135 17.653,-42.458C12.724,-49.481 5.717,-55.01 1.858,-57.756L2.425,-58.462L2.533,-58.597L2.625,-58.743C6.27,-64.531 8.134,-69.946 8.859,-76.85C9.614,-84.045 9.598,-90.896 8.813,-95.646C8.563,-97.164 8.009,-99.139 7.325,-101.264" style="fill:rgb(97,126,108);fill-rule:nonzero;"/>
        </g>
        <g transform="matrix(63.1325,0,0,-63.1325,63.087,-80.6601)">
            <path d="M-0,0.218L-0,-0.218L0.647,-0.218C0.661,-0.218 0.675,-0.218 0.689,-0.218C0.704,-0.218 0.72,-0.218 0.735,-0.218L0.735,-0.218C0.792,-0.218 0.854,-0.216 0.884,-0.196C0.919,-0.173 1,-0.109 1,-0.007C1,0.142 0.915,0.218 0.748,0.218L-0,0.218Z" style="fill:url(#_Linear10);fill-rule:nonzero;"/>
        </g>
        <g transform="matrix(0.499171,0,0,0.499171,110.306,-66.123)">
            <path d="M0,-58.245L-96.095,-58.245L-96.095,0L-12.754,-0.1C-9.269,-0.1 -5.438,0 -1.646,0C6.24,0 13.955,-0.43 18.027,-3.081C24.051,-7.001 33.38,-15.602 33.38,-28.197C33.38,-40.793 28.768,-58.245 0,-58.245M0,-55.245C11.81,-55.245 20.266,-52.158 25.135,-46.071C28.615,-41.72 30.38,-35.706 30.38,-28.197C30.38,-16.014 20.597,-8.333 16.39,-5.595C12.857,-3.295 4.895,-3 -1.646,-3C-3.562,-3 -5.51,-3.026 -7.393,-3.051C-9.263,-3.076 -11.028,-3.1 -12.758,-3.1L-93.095,-3.004L-93.095,-55.245L0,-55.245Z" style="fill:rgb(97,126,108);fill-rule:nonzero;"/>
        </g>
        <g transform="matrix(0.499171,0,0,0.499171,230.72,-35.4789)">
            <path d="M0,27.655L4.497,21.224C7.832,24.745 11.897,26.514 16.694,26.534C18.848,26.534 20.497,26.112 21.64,25.267C22.783,24.424 23.354,23.403 23.354,22.209C23.354,21.165 22.811,20.302 21.724,19.619C20.637,18.937 19.288,18.398 17.677,18.003C16.065,17.61 14.29,17.176 12.352,16.702C10.412,16.227 8.628,15.621 6.998,14.884C5.368,14.146 4.005,12.983 2.909,11.394C1.812,9.806 1.265,7.867 1.265,5.579C1.265,2.273 2.59,-0.502 5.241,-2.747C7.893,-4.992 11.419,-6.115 15.823,-6.115C21.951,-6.115 26.961,-4.338 30.853,-0.786L26.269,5.353C23.247,2.533 19.549,1.121 15.176,1.121L15.092,1.121C13.406,1.121 12.08,1.463 11.115,2.144C10.15,2.824 9.668,3.744 9.668,4.901C9.668,5.816 10.221,6.576 11.328,7.182C12.435,7.789 13.796,8.301 15.412,8.718C17.028,9.135 18.794,9.592 20.71,10.087C22.626,10.581 24.401,11.213 26.037,11.978C27.671,12.743 29.033,13.926 30.123,15.523C31.213,17.122 31.758,19.079 31.758,21.394C31.758,25.096 30.441,28.084 27.809,30.359C25.176,32.632 21.358,33.77 16.356,33.77C9.518,33.77 4.065,31.732 0,27.655" style="fill:rgb(97,126,108);fill-rule:nonzero;"/>
        </g>
        <g transform="matrix(0.499171,0,0,0.499171,250.855,-22.5867)">
            <path d="M0,-24.14L0,-31.376L30.662,-31.376L30.662,-24.14L19.448,-24.14L19.448,7.236L11.27,7.236L11.27,-24.14L0,-24.14Z" style="fill:rgb(97,126,108);fill-rule:nonzero;"/>
        </g>
        <g transform="matrix(0.499171,0,0,0.499171,275.017,-31.3771)">
            <path d="M0,11.08L11.972,11.08L5.986,-5.541L0,11.08ZM-13.912,24.846L0.871,-13.766L11.129,-13.766L25.912,24.846L16.638,24.846L14.221,18.316L-2.22,18.316L-4.637,24.846L-13.912,24.846Z" style="fill:rgb(97,126,108);fill-rule:nonzero;"/>
        </g>
        <g transform="matrix(0.499171,0,0,0.499171,296.962,-34.6369)">
            <path d="M0,24.14L10.595,24.14C12.131,24.14 13.331,23.753 14.192,22.981C15.054,22.208 15.485,21.125 15.485,19.731C15.485,18.449 15.054,17.399 14.192,16.578C13.331,15.759 12.131,15.35 10.595,15.35L0,15.35L0,24.14ZM0,8.112L10.258,8.112C11.644,8.112 12.735,7.745 13.532,7.01C14.328,6.275 14.727,5.287 14.727,4.042C14.727,2.855 14.323,1.885 13.518,1.131C12.712,0.378 11.625,0 10.258,0L0,0L0,8.112ZM-8.179,31.376L-8.179,-7.236L12.065,-7.236C15.556,-7.236 18.273,-6.279 20.216,-4.367C22.158,-2.454 23.13,-0.131 23.13,2.601C23.13,4.919 22.493,6.879 21.219,8.48C19.944,10.083 18.364,11.071 16.477,11.449C18.57,11.75 20.329,12.801 21.752,14.6C23.176,16.4 23.889,18.497 23.889,20.889C23.889,23.942 22.917,26.453 20.975,28.422C19.032,30.392 16.277,31.376 12.711,31.376L-8.179,31.376Z" style="fill:rgb(97,126,108);fill-rule:nonzero;"/>
        </g>
        <g transform="matrix(0.499171,0,0,0.499171,23.185,-38.6019)">
            <rect x="584.753" y="0.707" width="8.179" height="38.612" style="fill:rgb(97,126,108);"/>
        </g>
        <g transform="matrix(0.499171,0,0,0.499171,325.939,-38.2489)">
            <path d="M0,38.612L0,0L8.178,0L8.178,31.376L24.45,31.376L24.45,38.612L0,38.612Z" style="fill:rgb(97,126,108);fill-rule:nonzero;"/>
        </g>
        <g transform="matrix(0.499171,0,0,0.499171,23.185,-38.6019)">
            <rect x="642.804" y="0.707" width="8.179" height="38.612" style="fill:rgb(97,126,108);"/>
        </g>
        <g transform="matrix(0.499171,0,0,0.499171,354.398,-38.2489)">
            <path d="M0,38.612L0,31.941L18.127,7.236L0,7.236L0,0L28.835,0L28.835,6.586L10.708,31.376L29.229,31.376L29.229,38.612L0,38.612Z" style="fill:rgb(97,126,108);fill-rule:nonzero;"/>
        </g>
        <g transform="matrix(0.499171,0,0,0.499171,375.248,-38.2489)">
            <path d="M0,38.612L0,0L27.177,0L27.177,7.236L8.179,7.236L8.179,15.348L26.756,15.348L26.756,22.585L8.179,22.585L8.179,31.376L27.177,31.376L27.177,38.612L0,38.612Z" style="fill:rgb(97,126,108);fill-rule:nonzero;"/>
        </g>
        <g transform="matrix(0.499171,0,0,0.499171,399.228,-34.6369)">
            <path d="M0,24.14L6.97,24.14C10.66,24.14 13.588,22.981 15.752,20.663C17.916,18.345 18.998,15.471 18.998,12.041C18.998,8.537 17.954,5.654 15.864,3.392C13.775,1.131 10.829,0 7.026,0L0,0L0,24.14ZM-8.179,31.376L-8.179,-7.236L6.994,-7.236C13.036,-7.236 17.948,-5.459 21.729,-1.908C25.511,1.645 27.401,6.294 27.401,12.041C27.401,17.864 25.52,22.543 21.758,26.076C17.995,29.61 13.093,31.376 7.05,31.376L-8.179,31.376Z" style="fill:rgb(97,126,108);fill-rule:nonzero;"/>
        </g>
        <g transform="matrix(0.499171,0,0,0.499171,429.468,-30.1777)">
            <path d="M0,6.981L0,-16.169L8.179,-16.169L8.179,6.796C8.179,9.571 8.967,11.784 10.543,13.436C12.119,15.087 14.348,15.913 17.229,15.913C20.108,15.913 22.327,15.087 23.885,13.436C25.442,11.784 26.222,9.571 26.222,6.796L26.222,-16.169L34.625,-16.169L34.625,6.981C34.625,11.919 33.148,15.847 30.198,18.768C27.246,21.69 22.928,23.15 17.242,23.15C11.557,23.15 7.261,21.69 4.356,18.768C1.452,15.847 0,11.919 0,6.981" style="fill:rgb(97,126,108);fill-rule:nonzero;"/>
        </g>
        <g transform="matrix(0.499171,0,0,0.499171,457.796,-27.7939)">
            <path d="M0,-3.278L8.628,-3.278C10.276,-3.278 11.64,-3.754 12.717,-4.706C13.794,-5.657 14.333,-6.943 14.333,-8.564C14.333,-10.109 13.794,-11.353 12.717,-12.295C11.64,-13.237 10.276,-13.708 8.628,-13.708L0,-13.708L0,-3.278ZM-8.179,17.667L-8.179,-20.945L9.78,-20.945C13.733,-20.945 16.881,-19.786 19.224,-17.468C21.565,-15.15 22.736,-12.163 22.736,-8.508C22.736,-5.342 21.902,-2.774 20.235,-0.805C18.567,1.164 16.581,2.422 14.276,2.969L22.961,17.667L13.518,17.667L5.986,3.958L0,3.958L0,17.667L-8.179,17.667Z" style="fill:rgb(97,126,108);fill-rule:nonzero;"/>
        </g>
        <g transform="matrix(0.499171,0,0,0.499171,475.336,-38.2489)">
            <path d="M0,38.612L0,0L27.177,0L27.177,7.236L8.179,7.236L8.179,15.348L26.756,15.348L26.756,22.585L8.179,22.585L8.179,31.376L27.177,31.376L27.177,38.612L0,38.612Z" style="fill:rgb(97,126,108);fill-rule:nonzero;"/>
        </g>
        <g transform="matrix(0.499171,0,0,0.499171,500.171,-31.3771)">
            <path d="M0,11.08L11.973,11.08L5.986,-5.541L0,11.08ZM-13.911,24.846L0.871,-13.766L11.13,-13.766L25.912,24.846L16.638,24.846L14.221,18.316L-2.22,18.316L-4.637,24.846L-13.911,24.846Z" style="fill:rgb(97,126,108);fill-rule:nonzero;"/>
        </g>
        <g transform="matrix(0.499171,0,0,0.499171,564.22,-136.465)">
            <path d="M0,-12.274L-4.856,-12.274L-4.856,2.737L-7.814,2.737L-7.814,-12.274L-12.67,-12.274L-12.67,-15.011L0,-15.011L0,-12.274Z" style="fill:rgb(97,126,108);fill-rule:nonzero;"/>
        </g>
        <g transform="matrix(0.499171,0,0,0.499171,573.903,-135.099)">
            <path d="M0,-17.748L0,0L-2.785,0L-2.785,-12.965L-7.197,-2.834L-9.441,-2.834L-13.828,-12.965L-13.828,0L-16.613,0L-16.613,-17.748L-13.31,-17.748L-8.331,-6.532L-3.327,-17.748L0,-17.748Z" style="fill:rgb(97,126,108);fill-rule:nonzero;"/>
        </g>
    </g>
    <defs>
        <linearGradient id="_Linear1" x1="0" y1="0" x2="1" y2="0" gradientUnits="userSpaceOnUse" gradientTransform="matrix(1,0,0,-1,0,-1.51575e-06)"><stop offset="0" style="stop-color:rgb(97,126,108);stop-opacity:1"/><stop offset="1" style="stop-color:rgb(158,209,179);stop-opacity:1"/></linearGradient>
        <linearGradient id="_Linear2" x1="0" y1="0" x2="1" y2="0" gradientUnits="userSpaceOnUse" gradientTransform="matrix(1,0,0,-1,0,5.45176e-07)"><stop offset="0" style="stop-color:rgb(97,126,108);stop-opacity:1"/><stop offset="1" style="stop-color:rgb(158,209,179);stop-opacity:1"/></linearGradient>
        <linearGradient id="_Linear3" x1="0" y1="0" x2="1" y2="0" gradientUnits="userSpaceOnUse" gradientTransform="matrix(1,0,0,-1,0,4.59141e-07)"><stop offset="0" style="stop-color:rgb(97,126,108);stop-opacity:1"/><stop offset="1" style="stop-color:rgb(158,209,179);stop-opacity:1"/></linearGradient>
        <linearGradient id="_Linear4" x1="0" y1="0" x2="1" y2="0" gradientUnits="userSpaceOnUse" gradientTransform="matrix(1,0,0,-1,0,-1.32993e-06)"><stop offset="0" style="stop-color:rgb(97,126,108);stop-opacity:1"/><stop offset="1" style="stop-color:rgb(158,209,179);stop-opacity:1"/></linearGradient>
        <linearGradient id="_Linear5" x1="0" y1="0" x2="1" y2="0" gradientUnits="userSpaceOnUse" gradientTransform="matrix(1,0,0,-1,0,8.66719e-06)"><stop offset="0" style="stop-color:rgb(97,126,108);stop-opacity:1"/><stop offset="1" style="stop-color:rgb(158,209,179);stop-opacity:1"/></linearGradient>
        <linearGradient id="_Linear6" x1="0" y1="0" x2="1" y2="0" gradientUnits="userSpaceOnUse" gradientTransform="matrix(1,0,0,-1,0,-1.07976e-05)"><stop offset="0" style="stop-color:rgb(97,126,108);stop-opacity:1"/><stop offset="1" style="stop-color:rgb(158,209,179);stop-opacity:1"/></linearGradient>
        <linearGradient id="_Linear7" x1="0" y1="0" x2="1" y2="0" gradientUnits="userSpaceOnUse" gradientTransform="matrix(-0.915444,0.402446,0.402446,0.915444,0.891117,-0.187229)"><stop offset="0" style="stop-color:rgb(97,126,108);stop-opacity:1"/><stop offset="1" style="stop-color:rgb(158,209,179);stop-opacity:1"/></linearGradient>
        <linearGradient id="_Linear8" x1="0" y1="0" x2="1" y2="0" gradientUnits="userSpaceOnUse" gradientTransform="matrix(1,0,0,-1,0,-7.42371e-06)"><stop offset="0" style="stop-color:rgb(97,126,108);stop-opacity:1"/><stop offset="1" style="stop-color:rgb(158,209,179);stop-opacity:1"/></linearGradient>
        <linearGradient id="_Linear9" x1="0" y1="0" x2="1" y2="0" gradientUnits="userSpaceOnUse" gradientTransform="matrix(1,0,0,-1,0,-8.70222e-06)"><stop offset="0" style="stop-color:rgb(97,126,108);stop-opacity:1"/><stop offset="1" style="stop-color:rgb(158,209,179);stop-opacity:1"/></linearGradient>
        <linearGradient id="_Linear10" x1="0" y1="0" x2="1" y2="0" gradientUnits="userSpaceOnUse" gradientTransform="matrix(1,0,0,-1,0,4.45939e-07)"><stop offset="0" style="stop-color:rgb(97,126,108);stop-opacity:1"/><stop offset="1" style="stop-color:rgb(158,209,179);stop-opacity:1"/></linearGradient>
    </defs>
</svg>
