<?xml version="1.0" encoding="UTF-8" standalone="no"?>
<!DOCTYPE svg PUBLIC "-//W3C//DTD SVG 1.1//EN" "http://www.w3.org/Graphics/SVG/1.1/DTD/svg11.dtd">
<svg width="100%" height="100%" viewBox="0 0 545 180" version="1.1" xmlns="http://www.w3.org/2000/svg" xmlns:xlink="http://www.w3.org/1999/xlink" xml:space="preserve" xmlns:serif="http://www.serif.com/" style="fill-rule:evenodd;clip-rule:evenodd;stroke-linejoin:round;stroke-miterlimit:2;">
    <g transform="matrix(0.404009,0,0,0.404009,623.763,-300.359)">
        <g>
            <g transform="matrix(2.22857,0,0,2.22857,-1510.28,545.539)">
                <path d="M237.471,258.624C237.471,260.01 237.226,260.951 236.737,261.449C236.248,261.947 235.319,262.196 233.95,262.196L225.119,262.196C223.633,262.196 222.655,261.893 222.186,261.288C221.775,260.781 221.57,259.756 221.57,258.214L223.917,257.657L223.917,260.088L235.182,260.088L235.182,255.549L225.677,255.549C223.995,255.549 222.939,255.12 222.508,254.261C222.274,253.792 222.156,252.592 222.156,250.659C222.156,249.273 222.401,248.331 222.89,247.833C223.379,247.335 224.308,247.087 225.677,247.087L233.745,247.087C235.133,247.087 236.072,247.34 236.561,247.848C237.05,248.355 237.295,249.312 237.295,250.718L235.124,251.332L235.124,249.136L224.415,249.136L224.415,253.353L233.95,253.353C235.319,253.353 236.248,253.607 236.737,254.114C237.226,254.622 237.471,255.559 237.471,256.925L237.471,258.624ZM353.073,262.196L350.55,262.196L350.55,247.087L353.073,247.087L353.073,262.196ZM344.348,262.196L330.354,262.196L330.354,247.087L332.877,247.087L332.877,260.088L344.348,260.088L344.348,262.196ZM397.69,262.196L382.991,262.196L382.991,247.087L397.572,247.087L397.572,249.107L385.514,249.107L385.514,253.324L392.878,253.324L392.878,255.315L385.514,255.315L385.514,260.117L397.69,260.117L397.69,262.196ZM503.509,262.196L488.811,262.196L488.811,247.087L503.391,247.087L503.391,249.107L491.334,249.107L491.334,253.324L498.697,253.324L498.697,255.315L491.334,255.315L491.334,260.117L503.509,260.117L503.509,262.196ZM375.234,262.196L359.979,262.196L359.979,261.171L371.186,249.136L360.947,249.136L360.947,247.087L375.234,247.087L375.234,247.936L363.822,260.088L375.234,260.088L375.234,262.196ZM299.966,259.238C299.966,261.21 298.567,262.196 295.77,262.196L284.475,262.196L284.475,247.087L296.68,247.087C297.775,247.087 298.582,247.311 299.1,247.76C299.618,248.209 299.878,248.961 299.878,250.015L299.878,251.772C299.878,253.294 299.037,254.153 297.355,254.348C299.095,254.563 299.966,255.549 299.966,257.306L299.966,259.238ZM456.486,258.624C456.486,260.01 456.242,260.951 455.753,261.449C455.264,261.947 454.335,262.196 452.966,262.196L443.989,262.196C442.619,262.196 441.686,261.947 441.187,261.449C440.688,260.951 440.439,260.01 440.439,258.624L440.439,247.087L442.962,247.087L442.962,260.088L453.993,260.088L453.993,247.087L456.486,247.087L456.486,258.624ZM258.987,249.136L252.034,249.136L252.034,262.196L249.511,262.196L249.511,249.136L242.587,249.136L242.587,247.087L258.987,247.087L258.987,249.136ZM482.315,262.196L478.56,262.196L472.399,256.31L467.94,256.31L467.94,262.196L465.417,262.196L465.417,247.087L477.621,247.087C478.716,247.087 479.523,247.311 480.041,247.76C480.56,248.209 480.819,248.961 480.819,250.015L480.819,253.382C480.819,254.885 480.232,255.803 479.059,256.135C478.687,256.252 477.465,256.31 475.391,256.31L482.315,262.196ZM422.022,254.553C422.022,257.501 420.976,259.658 418.883,261.025C417.69,261.806 415.754,262.196 413.074,262.196L404.742,262.196L404.742,247.087L413.074,247.087C415.734,247.087 417.67,247.477 418.883,248.258C419.9,248.922 420.682,249.839 421.23,251.01C421.758,252.084 422.022,253.265 422.022,254.553ZM526.991,262.196L524.203,262.196L522.267,258.477L512.028,258.477L510.092,262.196L507.598,262.196L515.872,247.087L518.571,247.087L526.991,262.196ZM278.537,262.196L275.75,262.196L273.814,258.477L263.575,258.477L261.639,262.196L259.145,262.196L267.419,247.087L270.118,247.087L278.537,262.196ZM324.416,262.196L321.629,262.196L319.692,258.477L309.454,258.477L307.517,262.196L305.024,262.196L313.297,247.087L315.996,247.087L324.416,262.196ZM297.413,258.331L297.413,257.072C297.413,256.408 297.296,255.939 297.061,255.666C296.827,255.393 296.386,255.256 295.741,255.256L286.999,255.256L286.999,260.117L295.741,260.117C296.386,260.117 296.827,259.985 297.061,259.722C297.296,259.458 297.413,258.994 297.413,258.331ZM419.44,254.553C419.44,252.465 418.815,251.001 417.563,250.161C416.546,249.478 414.932,249.136 412.722,249.136L407.265,249.136L407.265,260.088L412.722,260.088C414.991,260.088 416.624,259.736 417.622,259.034C418.834,258.194 419.44,256.701 419.44,254.553ZM521.24,256.545L517.162,248.814L513.085,256.545L521.24,256.545ZM272.787,256.545L268.709,248.814L264.631,256.545L272.787,256.545ZM318.666,256.545L314.588,248.814L310.51,256.545L318.666,256.545ZM478.267,252.797L478.267,250.6C478.267,250.015 478.144,249.61 477.9,249.385C477.655,249.161 477.23,249.048 476.624,249.048L467.94,249.048L467.94,254.348L476.624,254.348C477.23,254.348 477.655,254.241 477.9,254.026C478.144,253.812 478.267,253.402 478.267,252.797ZM297.296,251.947L297.296,250.425C297.296,249.878 297.174,249.522 296.929,249.356C296.685,249.19 296.289,249.107 295.741,249.107L286.999,249.107L286.999,253.294L295.741,253.294C296.778,253.294 297.296,252.845 297.296,251.947Z" style="fill:rgb(247,148,29);fill-rule:nonzero;stroke:rgb(247,148,29);stroke-width:1.35px;"/>
            </g>
            <g>
                <g transform="matrix(4.16667,0,0,4.16667,-1147.89,998.7)">
                    <path d="M13.616,-46.959L5.191,-32.524L14.987,-32.516L14.948,14.429L30.533,14.442L30.572,-32.502L45.56,-32.489L45.573,-46.932L13.616,-46.959Z" style="fill:url(#_Linear1);"/>
                </g>
                <g transform="matrix(4.16667,0,0,4.16667,-940.107,803.315)">
                    <path d="M0,61.351L41.654,61.387L41.667,46.786L15.599,46.763L15.607,37.256L36.731,37.274L36.745,22.832L15.62,22.813L15.626,14.579L41.694,14.602L41.707,0L0.053,-0.036L0,61.351Z" style="fill:url(#_Linear2);fill-rule:nonzero;"/>
                </g>
                <g transform="matrix(4.16667,0,0,4.16667,-604.835,926.092)">
                    <path d="M0,2.503L-18.171,-29.449L-33.375,-29.463L-33.428,31.924L-18.48,31.938L-18.452,-1.294L0.516,31.954L14.922,31.966L14.975,-29.421L0.028,-29.434L0,2.503Z" style="fill:url(#_Linear3);fill-rule:nonzero;"/>
                </g>
                <g transform="matrix(4.16667,0,0,4.16667,-393.498,998.465)">
                    <path d="M0,-32.156L-0.032,0.026L-14.177,0.014L-14.15,-32.17L0,-32.156ZM2.384,-46.758L-29.723,-46.785L-29.776,14.601L2.331,14.629L2.349,14.629C10.736,14.628 15.549,9.826 15.556,1.452L15.587,-33.558C15.594,-41.94 10.781,-46.751 2.384,-46.758" style="fill:url(#_Linear4);fill-rule:nonzero;"/>
                </g>
                <g transform="matrix(4.16667,0,0,4.16667,-1277.35,865.958)">
                    <path d="M0,48.123L17.124,77.379L48.719,77.379L15.964,23.86L48.798,-29.255L48.798,-29.256L18.115,-29.256L1.037,-0.161L-15.851,-29.256L-47.866,-29.256L-15.63,23.833L-47.868,77.379L-17.073,77.379L0,48.123Z" style="fill:url(#_Linear5);fill-rule:nonzero;"/>
                </g>
            </g>
            <g transform="matrix(1,0,0,1,-11.5441,0.230881)">
                <g transform="matrix(4.16667,0,0,4.16667,-323.43,835.804)">
                    <path d="M0,-5.857L2.452,-5.857L2.452,1.863L4.452,1.863L4.452,-5.857L6.933,-5.857L6.933,-7.72L0,-7.72L0,-5.857Z" style="fill:rgb(246,148,28);fill-rule:nonzero;"/>
                </g>
                <g transform="matrix(4.16667,0,0,4.16667,-259.536,843.566)">
                    <path d="M0,-9.583L-2.401,-4.153L-4.748,-9.583L-6.935,-9.583L-6.935,0L-5.094,0L-5.094,-6.096L-3.041,-1.491L-1.735,-1.491L0.32,-6.096L0.32,0L2.159,0L2.159,-9.583L0,-9.583Z" style="fill:rgb(246,148,28);fill-rule:nonzero;"/>
                </g>
            </g>
        </g>
    </g>
    <defs>
        <linearGradient id="_Linear1" x1="0" y1="0" x2="1" y2="0" gradientUnits="userSpaceOnUse" gradientTransform="matrix(-29.0285,3.55497e-15,-3.55497e-15,-29.0285,42.402,-57.3264)"><stop offset="0" style="stop-color:rgb(251,175,64);stop-opacity:1"/><stop offset="1" style="stop-color:rgb(220,129,18);stop-opacity:1"/></linearGradient>
        <linearGradient id="_Linear2" x1="0" y1="0" x2="1" y2="0" gradientUnits="userSpaceOnUse" gradientTransform="matrix(-47.7814,5.85154e-15,-5.85154e-15,-47.7814,41.6007,-4.52531)"><stop offset="0" style="stop-color:rgb(251,175,64);stop-opacity:1"/><stop offset="1" style="stop-color:rgb(220,129,18);stop-opacity:1"/></linearGradient>
        <linearGradient id="_Linear3" x1="0" y1="0" x2="1" y2="0" gradientUnits="userSpaceOnUse" gradientTransform="matrix(-47.2676,5.78862e-15,-5.78862e-15,-47.2676,14.5683,-35.79)"><stop offset="0" style="stop-color:rgb(251,175,64);stop-opacity:1"/><stop offset="1" style="stop-color:rgb(220,129,18);stop-opacity:1"/></linearGradient>
        <linearGradient id="_Linear4" x1="0" y1="0" x2="1" y2="0" gradientUnits="userSpaceOnUse" gradientTransform="matrix(-45.2125,5.53694e-15,-5.53694e-15,-45.2125,15.4823,-55.7286)"><stop offset="0" style="stop-color:rgb(251,175,64);stop-opacity:1"/><stop offset="1" style="stop-color:rgb(220,129,18);stop-opacity:1"/></linearGradient>
        <linearGradient id="_Linear5" x1="0" y1="0" x2="1" y2="0" gradientUnits="userSpaceOnUse" gradientTransform="matrix(-96.5904,1.18289e-14,-1.18289e-14,-96.5904,49.0699,-38.8265)"><stop offset="0" style="stop-color:rgb(251,175,64);stop-opacity:1"/><stop offset="1" style="stop-color:rgb(220,129,18);stop-opacity:1"/></linearGradient>
    </defs>
</svg>
