<?xml version="1.0" encoding="utf-8"?>
<!-- Generator: Adobe Illustrator 25.0.1, SVG Export Plug-In . SVG Version: 6.00 Build 0)  -->
<svg version="1.1" id="cargill-logo" xmlns="http://www.w3.org/2000/svg" xmlns:xlink="http://www.w3.org/1999/xlink" x="0px"
	 y="0px" viewBox="0 0 279 112" enable-background="new 0 0 279 112" xml:space="preserve">
<g id="g4" transform="translate(41.7666,89.0635)">
	<path id="path6" fill-rule="evenodd" clip-rule="evenodd" fill="#161413" d="M48.6-42.7c6.7,0,11,1.2,13,3.7
		c1.2,1.5,1.7,3.2,1.7,5.5c0,1.2-0.2,2.7-0.5,4.2L58.1-6.8c-0.7,3-1,5.5-1,7.5c0,0.5,0,1.2,0.2,1.7c-1.7,0-11.2,0-12.7,0
		c0-0.2,0-0.2,0-0.5c0-1,0-2,0.2-3l0.2-1.7h-0.7l-0.5,0.5c-2.2,3.7-7.5,6-12,6c-3.7,0-6.2-1-7.7-2.7c-1.5-2-2-5.2-1-9.5
		c1.7-8.5,5.5-12,15-14l6.2-1.5c3.7-0.7,5.5-2.5,6.2-5.7c0.2-1.7,0.2-3.2-0.5-4S48.4-35,46.9-35c-3.5,0-5.2,1.7-6.2,6
		c-1.2,0-9.5,0-11.2,0C32.2-40.7,42.7-42.7,48.6-42.7z M48.6-19.5c0,0-0.2,0.2-0.7,0.5c-0.7,0.2-2.5,0.5-3.7,1
		c-0.7,0.2-1.7,0.5-2.7,1c-2.7,1.2-4.2,3-5,6.5c-0.5,2-0.2,3.7,0.7,4.7c0.7,0.7,1.7,1.2,3,1.2c5,0,6.5-4.7,7.2-8.2L48.6-19.5
		L48.6-19.5l-1.2,6.7L48.6-19.5z"/>
</g>
<g id="g8" transform="translate(92.6445,89.0635)">
	<path id="path10" fill-rule="evenodd" clip-rule="evenodd" fill="#161413" d="M43.1-1.3c-2.7-3.2-3.2-8.5-1.2-17.7
		c4-20,11.7-23.4,18.2-23.4c3.2,0,8,1.2,8.5,6.7v0.7h1c0,0,1-5.2,1.2-6.2c1.2,0,10.5,0,12.2,0C82.5-39,73.8,2.7,73.8,2.7
		c-2.2,10.5-9,15.7-21.2,15.7c-11.5,0-13.2-6.7-13.5-8.7c0-0.7,0.2-3.2,0.2-3.2c1.2,0,10.2,0,12,0l0,0c0,1,0,2.7,0.5,3
		c0.5,0.5,1,1.2,2.7,1.2c2.5,0,5-0.7,6.2-6.5l2-10h-1l-0.2,0.5c-2.5,4.2-7,6.5-11.7,6.5C46.8,1.2,44.6,0.4,43.1-1.3z M55.3-20
		c-1.2,6.5-1.2,9,0,10.7c0.7,0.7,1.7,1.2,3,1.2c3.7,0,5.5-2.2,7.5-11.5C67-26,67.3-30.3,66-32c-0.7-0.7-1.5-1.2-2.7-1.2
		C59.3-33.3,57.3-29.3,55.3-20z"/>
</g>
<g id="g12" transform="translate(123.604,89.959)">
	<path id="path14" fill-rule="evenodd" clip-rule="evenodd" fill="#161413" d="M71.9-42.4c-0.5,2.2-8.7,42.6-9,43.9
		c-1.2,0-11.5,0-13.2,0c0.5-2.2,8.7-42.6,9.2-43.9C59.9-42.4,70.1-42.4,71.9-42.4z"/>
</g>
<g id="g16" transform="translate(139.69,78.9561)">
	<path id="path18" fill-rule="evenodd" clip-rule="evenodd" fill="#161413" d="M80.2-46.1c-0.2,2.2-11.7,57.4-12,58.6
		c-1.2,0-11.5,0-13.2,0c0.2-2,11.7-57.1,12-58.6C68.2-46.1,78.5-46.1,80.2-46.1z"/>
</g>
<g id="g20" transform="translate(155.721,78.9561)">
	<path id="path22" fill-rule="evenodd" clip-rule="evenodd" fill="#161413" d="M85.7-46.1c-0.5,2.2-12,57.4-12.2,58.6
		c-1.2,0-11.5,0-13.2,0c0.5-2,11.7-57.1,12-58.6C73.5-46.1,83.7-46.1,85.7-46.1z"/>
</g>
<g id="g24" transform="translate(71.7109,89.0635)">
	<path id="path26" fill-rule="evenodd" clip-rule="evenodd" fill="#161413" d="M65.9-42.7c-4.5,0-9.5,3-12.2,8v0.5h-1
		c0,0,1.2-5.7,1.5-7.2c-0.2,0-0.7,0-1.2,0l0,0c-1.5,0-10.7,0-12.7,0c0,0.5,0.2,1.2,0.2,1.7c0,1.5-0.2,3-0.5,5
		c-2.5,12-7.5,35.7-7.7,37.2c2,0,12,0,13.2,0c0.7-4.2,5-24.2,5-24.2c1.2-6,4.7-9,11.2-9c1,0,2,0,3,0.2c0.2-1.5,2.2-10.5,2.5-12.2
		C66.7-42.7,65.9-42.7,65.9-42.7z"/>
</g>
<g id="g28" transform="translate(11.6572,78.7568)">
	<path id="path30" fill-rule="evenodd" clip-rule="evenodd" fill="#161413" d="M15.6,10.4c-3.2-4-3.5-11.7-0.5-25.9
		c4.7-22.9,11.7-30.7,27.2-30.7c6.2,0,10.5,1.5,13,4.5c1.5,2,2.2,4.5,2.2,7.7c0,1.7-0.2,3.7-0.7,6c0,0-0.5,2-0.7,3
		c-1.2,0-13.2,0-13.2,0s1-6.2,1-7.7c0-1.5,0-2.5-0.7-3.2c-0.5-0.7-1.5-1.5-3-1.5c-5.7,0-7.7,5.5-11,21.4C26.6-3.5,25.6,2.2,27.6,4.5
		c0.7,1,2,1.2,3.5,1.2c4.5,0,6.5-4,8.7-14.7C41.1-9,51.3-9,53-9c-0.2,1.2-0.7,3.2-0.7,3.2C49.5,7.7,41.6,14.4,28.8,14.4
		C22.4,14.9,18.1,13.4,15.6,10.4z"/>
</g>
<g id="g32" transform="translate(176.852,78.9326)">
	<path id="path34" fill-rule="evenodd" clip-rule="evenodd" fill="#161413" d="M67.4-46.1h4l-0.2,0.7h-1.7l-1.2,5.7h-0.7l1.2-5.7
		h-1.7L67.4-46.1z"/>
</g>
<g id="g36" transform="translate(179.535,78.9326)">
	<path id="path38" fill-rule="evenodd" clip-rule="evenodd" fill="#161413" d="M73.4-46.1h1.2l-1.2,6.5h-0.7l1-5.2
		c0-0.2,0.2-0.5,0.2-0.7l0,0c-0.2,0.2-0.2,0.5-0.2,0.7l-2.5,5.2h-0.7l-0.2-5.2c0-0.2,0-0.5,0-0.7l0,0c0,0.2,0,0.5-0.2,0.7l-1,5.2
		h-0.7l1.2-6.5h1.2l0.2,5c0,0.2,0,0.5,0,1l0,0c0-0.2,0.2-0.7,0.2-1L73.4-46.1z"/>
</g>
<g id="g40" transform="translate(66.9893,54.3311)">
	<path id="path42" fill-rule="evenodd" clip-rule="evenodd" fill="#00812E" d="M129.7-11.8c1-24.2-28.2-42.4-55.4-36.7
		C47.2-43,33.9-19.3,30.7-12.1h4.5c6-10,12-17.7,22.2-20.7c6.5-1.7,11.7-1.5,24.2,5.7c5.7,3.2,19,13,33.2,15
		C120.7-11.3,129.7-11.8,129.7-11.8z"/>
</g>
</svg>
