<?xml version="1.0" encoding="UTF-8" standalone="no"?>
<!DOCTYPE svg PUBLIC "-//W3C//DTD SVG 1.1//EN" "http://www.w3.org/Graphics/SVG/1.1/DTD/svg11.dtd">
<svg width="100%" height="100%" viewBox="0 0 545 180" version="1.1" xmlns="http://www.w3.org/2000/svg" xmlns:xlink="http://www.w3.org/1999/xlink" xml:space="preserve" xmlns:serif="http://www.serif.com/" style="fill-rule:evenodd;clip-rule:evenodd;stroke-linejoin:round;stroke-miterlimit:2;">
    <g transform="matrix(1,0,0,1,-15.3564,-97.9456)">
        <g transform="matrix(1.86144,0,0,1.86144,15.3564,97.9456)">
            <g transform="matrix(1,0,0,1,76.54,83.5469)">
                <path d="M0,12.346C-0.115,12.226 -0.172,12.05 -0.172,11.82L-0.172,-0.182L7.672,-0.182L7.672,0.417L0.481,0.417L0.481,5.737L7.127,5.737L7.127,6.336L0.481,6.336L0.481,11.929L7.672,11.929L7.672,12.528L0.481,12.528C0.275,12.528 0.115,12.467 0,12.346" style="fill:rgb(120,154,11);fill-rule:nonzero;"/>
            </g>
            <g transform="matrix(1,0,0,1,86.0273,95.9299)">
                <path d="M0,-8.916L0.618,-8.916L0.618,-7.154C0.956,-7.771 1.362,-8.244 1.834,-8.57C2.306,-8.897 2.802,-9.061 3.323,-9.061L4.521,-9.061C5.272,-9.061 5.88,-8.791 6.346,-8.253C6.812,-7.714 7.045,-7.003 7.045,-6.119L7.045,0.145L6.41,0.145L6.41,-6.119C6.41,-6.821 6.237,-7.391 5.892,-7.826C5.547,-8.262 5.09,-8.479 4.521,-8.479L3.323,-8.479C2.802,-8.479 2.294,-8.256 1.798,-7.809C1.301,-7.36 0.914,-6.767 0.636,-6.028L0.636,0.145L0,0.145L0,-8.916Z" style="fill:rgb(120,154,11);fill-rule:nonzero;"/>
            </g>
            <g transform="matrix(1,0,0,1,95.2509,96.0745)">
                <path d="M0,-12.71L0.636,-12.71L0.636,-7.317C0.975,-7.935 1.377,-8.403 1.843,-8.725C2.309,-9.045 2.802,-9.205 3.323,-9.205L4.558,-9.205C5.308,-9.205 5.917,-8.936 6.382,-8.398C6.848,-7.858 7.082,-7.148 7.082,-6.264L7.082,0L6.446,0L6.446,-6.264C6.446,-6.966 6.273,-7.535 5.929,-7.971C5.583,-8.406 5.126,-8.624 4.558,-8.624L3.323,-8.624C2.802,-8.624 2.294,-8.4 1.798,-7.953C1.301,-7.505 0.914,-6.911 0.636,-6.173L0.636,0L0,0L0,-12.71Z" style="fill:rgb(120,154,11);fill-rule:nonzero;"/>
            </g>
            <g transform="matrix(1,0,0,1,108.016,87.4499)">
                <path d="M0,8.189C0.448,8.189 0.908,8.002 1.38,7.627C1.852,7.252 2.257,6.761 2.597,6.156L2.597,4.866C2.318,4.587 1.949,4.361 1.489,4.185C1.029,4.01 0.569,3.922 0.109,3.922L-1.107,3.922C-1.737,3.922 -2.24,4.077 -2.615,4.385C-2.99,4.694 -3.177,5.115 -3.177,5.647L-3.177,6.446C-3.177,6.966 -2.99,7.387 -2.615,7.708C-2.24,8.029 -1.75,8.189 -1.144,8.189L0,8.189ZM-3.078,8.134C-3.568,7.71 -3.813,7.148 -3.813,6.446L-3.813,5.647C-3.813,4.945 -3.568,4.385 -3.078,3.967C-2.587,3.549 -1.931,3.341 -1.107,3.341L0.109,3.341C0.533,3.341 0.974,3.417 1.435,3.568C1.895,3.719 2.282,3.922 2.597,4.176L2.597,2.161C2.597,1.519 2.409,0.999 2.034,0.599C1.658,0.2 1.168,0.001 0.563,0.001L-0.817,0.001C-1.447,0.001 -1.955,0.145 -2.342,0.436C-2.73,0.726 -2.923,1.114 -2.923,1.598L-3.559,1.598C-3.559,0.944 -3.308,0.418 -2.805,0.018C-2.303,-0.381 -1.64,-0.581 -0.817,-0.581L0.563,-0.581C1.362,-0.581 2.006,-0.33 2.497,0.172C2.987,0.675 3.232,1.337 3.232,2.161L3.232,8.625L2.615,8.625L2.615,7.082C2.251,7.614 1.84,8.029 1.38,8.325C0.92,8.622 0.46,8.77 0,8.77L-1.144,8.77C-1.943,8.77 -2.587,8.558 -3.078,8.134" style="fill:rgb(120,154,11);fill-rule:nonzero;"/>
            </g>
            <g transform="matrix(1,0,0,1,113.426,95.9299)">
                <path d="M0,-8.916L0.618,-8.916L0.618,-7.154C0.956,-7.771 1.362,-8.244 1.834,-8.57C2.306,-8.897 2.802,-9.061 3.323,-9.061L4.521,-9.061C5.272,-9.061 5.88,-8.791 6.346,-8.253C6.812,-7.714 7.045,-7.003 7.045,-6.119L7.045,0.145L6.41,0.145L6.41,-6.119C6.41,-6.821 6.237,-7.391 5.892,-7.826C5.547,-8.262 5.09,-8.479 4.521,-8.479L3.323,-8.479C2.802,-8.479 2.294,-8.256 1.798,-7.809C1.301,-7.36 0.914,-6.767 0.636,-6.028L0.636,0.145L0,0.145L0,-8.916Z" style="fill:rgb(120,154,11);fill-rule:nonzero;"/>
            </g>
            <g transform="matrix(1,0,0,1,123.122,87.7143)">
                <path d="M0,7.661C-0.545,7.099 -0.817,6.351 -0.817,5.419L-0.817,2.423C-0.817,1.442 -0.548,0.652 -0.009,0.054C0.529,-0.546 1.241,-0.845 2.125,-0.845L3.613,-0.845C4.449,-0.845 5.121,-0.621 5.629,-0.173C6.137,0.274 6.392,0.861 6.392,1.588L5.774,1.588C5.774,1.031 5.574,0.583 5.175,0.244C4.775,-0.095 4.255,-0.264 3.613,-0.264L2.125,-0.264C1.435,-0.264 0.877,-0.019 0.454,0.472C0.03,0.962 -0.182,1.612 -0.182,2.423L-0.182,5.419C-0.182,6.17 0.03,6.775 0.454,7.234C0.877,7.695 1.44,7.925 2.143,7.925L3.631,7.925C4.297,7.925 4.83,7.704 5.229,7.262C5.629,6.82 5.829,6.236 5.829,5.51L6.446,5.51C6.446,6.406 6.188,7.129 5.674,7.68C5.16,8.23 4.479,8.506 3.631,8.506L2.143,8.506C1.259,8.506 0.545,8.224 0,7.661" style="fill:rgb(120,154,11);fill-rule:nonzero;"/>
            </g>
            <g transform="matrix(1,0,0,1,137.666,92.1159)">
                <path d="M0,-1.143L0,-2.051C0,-2.838 -0.209,-3.47 -0.626,-3.949C-1.044,-4.427 -1.598,-4.665 -2.288,-4.665L-3.777,-4.665C-4.491,-4.665 -5.063,-4.42 -5.493,-3.93C-5.922,-3.44 -6.137,-2.789 -6.137,-1.979L-6.137,-1.143L0,-1.143ZM-5.946,3.259C-6.498,2.697 -6.772,1.956 -6.772,1.036L-6.772,-1.979C-6.772,-2.959 -6.498,-3.749 -5.946,-4.348C-5.396,-4.948 -4.673,-5.247 -3.777,-5.247L-2.288,-5.247C-1.404,-5.247 -0.696,-4.956 -0.164,-4.375C0.369,-3.794 0.636,-3.02 0.636,-2.051L0.636,-0.581L-6.137,-0.581L-6.137,1.036C-6.137,1.786 -5.919,2.388 -5.483,2.842C-5.048,3.296 -4.473,3.523 -3.758,3.523L-2.378,3.523C-1.677,3.523 -1.111,3.311 -0.681,2.887C-0.251,2.464 -0.036,1.907 -0.036,1.217L0.599,1.217C0.599,2.077 0.324,2.773 -0.227,3.305C-0.778,3.837 -1.495,4.104 -2.378,4.104L-3.758,4.104C-4.667,4.104 -5.396,3.823 -5.946,3.259" style="fill:rgb(120,154,11);fill-rule:nonzero;"/>
            </g>
            <g transform="matrix(1,0,0,1,143.93,83.9459)">
                <path d="M0,11.693C0.57,11.693 1.09,11.457 1.562,10.985C2.036,10.512 2.385,9.889 2.616,9.115L2.616,5.519C2.458,4.926 2.165,4.442 1.735,4.067C1.305,3.692 0.824,3.505 0.291,3.505L-1.125,3.505C-1.84,3.505 -2.418,3.758 -2.859,4.266C-3.301,4.775 -3.521,5.447 -3.521,6.282L-3.521,8.969C-3.521,9.781 -3.318,10.437 -2.914,10.939C-2.508,11.442 -1.973,11.693 -1.307,11.693L0,11.693ZM-3.377,11.366C-3.897,10.761 -4.157,9.963 -4.157,8.969L-4.157,6.282C-4.157,5.278 -3.879,4.466 -3.322,3.849C-2.766,3.232 -2.033,2.923 -1.125,2.923L0.291,2.923C0.752,2.923 1.189,3.047 1.608,3.296C2.026,3.544 2.362,3.88 2.616,4.303L2.616,-0.581L3.25,-0.581L3.25,12.129L2.633,12.129L2.633,10.422C2.307,11.027 1.92,11.487 1.471,11.802C1.023,12.117 0.533,12.274 0,12.274L-1.307,12.274C-2.166,12.274 -2.855,11.971 -3.377,11.366" style="fill:rgb(120,154,11);fill-rule:nonzero;"/>
            </g>
            <g transform="matrix(1,0,0,1,154.507,83.7733)">
                <path d="M0,11.893C-0.562,11.524 -1.002,11.006 -1.316,10.34C-1.631,9.675 -1.788,8.906 -1.788,8.035L-1.788,3.858C-1.788,2.987 -1.628,2.218 -1.308,1.552C-0.986,0.887 -0.539,0.37 0.036,-0.001C0.611,-0.37 1.274,-0.554 2.024,-0.554L3.949,-0.554C5.051,-0.554 5.937,-0.211 6.609,0.472C7.281,1.156 7.617,2.055 7.617,3.168L6.981,3.168C6.981,2.237 6.706,1.483 6.155,0.908C5.604,0.333 4.869,0.045 3.949,0.045L2.024,0.045C1.407,0.045 0.859,0.203 0.382,0.517C-0.097,0.832 -0.469,1.28 -0.735,1.861C-1.002,2.442 -1.135,3.108 -1.135,3.858L-1.135,8.035C-1.135,8.786 -1.005,9.451 -0.744,10.032C-0.484,10.613 -0.121,11.061 0.345,11.375C0.811,11.69 1.347,11.847 1.952,11.847L3.913,11.847C4.845,11.847 5.596,11.536 6.164,10.913C6.733,10.289 7.018,9.463 7.018,8.434L7.653,8.434C7.653,9.233 7.499,9.935 7.19,10.54C6.882,11.146 6.442,11.615 5.874,11.948C5.305,12.281 4.651,12.447 3.913,12.447L1.952,12.447C1.214,12.447 0.563,12.262 0,11.893" style="fill:rgb(120,154,11);fill-rule:nonzero;"/>
            </g>
            <g transform="matrix(1,0,0,1,167.335,87.4499)">
                <path d="M0,8.189C0.447,8.189 0.908,8.002 1.38,7.627C1.853,7.252 2.258,6.761 2.597,6.156L2.597,4.866C2.318,4.587 1.949,4.361 1.489,4.185C1.028,4.01 0.569,3.922 0.109,3.922L-1.107,3.922C-1.737,3.922 -2.239,4.077 -2.614,4.385C-2.99,4.694 -3.178,5.115 -3.178,5.647L-3.178,6.446C-3.178,6.966 -2.99,7.387 -2.614,7.708C-2.239,8.029 -1.749,8.189 -1.144,8.189L0,8.189ZM-3.077,8.134C-3.567,7.71 -3.813,7.148 -3.813,6.446L-3.813,5.647C-3.813,4.945 -3.567,4.385 -3.077,3.967C-2.587,3.549 -1.931,3.341 -1.107,3.341L0.109,3.341C0.532,3.341 0.975,3.417 1.435,3.568C1.895,3.719 2.281,3.922 2.597,4.176L2.597,2.161C2.597,1.519 2.409,0.999 2.033,0.599C1.658,0.2 1.168,0.001 0.562,0.001L-0.817,0.001C-1.446,0.001 -1.955,0.145 -2.342,0.436C-2.729,0.726 -2.923,1.114 -2.923,1.598L-3.559,1.598C-3.559,0.944 -3.308,0.418 -2.806,0.018C-2.303,-0.381 -1.641,-0.581 -0.817,-0.581L0.562,-0.581C1.362,-0.581 2.007,-0.33 2.497,0.172C2.987,0.675 3.232,1.337 3.232,2.161L3.232,8.625L2.614,8.625L2.614,7.082C2.252,7.614 1.84,8.029 1.38,8.325C0.92,8.622 0.46,8.77 0,8.77L-1.144,8.77C-1.942,8.77 -2.587,8.558 -3.077,8.134" style="fill:rgb(120,154,11);fill-rule:nonzero;"/>
            </g>
            <g transform="matrix(1,0,0,1,173.181,83.8829)">
                <path d="M0,11.674C-0.29,11.329 -0.436,10.757 -0.436,9.958L-0.436,-0.518L0.2,-0.518L0.2,9.958C0.2,10.552 0.294,10.976 0.481,11.23C0.669,11.484 0.987,11.611 1.435,11.611L1.998,11.611L1.998,12.192L1.435,12.192C0.769,12.192 0.291,12.02 0,11.674" style="fill:rgb(120,154,11);fill-rule:nonzero;"/>
            </g>
            <g transform="matrix(1,0,0,1,176.922,87.7143)">
                <path d="M0,7.661C-0.545,7.099 -0.817,6.351 -0.817,5.419L-0.817,2.423C-0.817,1.442 -0.548,0.652 -0.009,0.054C0.529,-0.546 1.24,-0.845 2.124,-0.845L3.613,-0.845C4.448,-0.845 5.12,-0.621 5.629,-0.173C6.137,0.274 6.392,0.861 6.392,1.588L5.774,1.588C5.774,1.031 5.574,0.583 5.175,0.244C4.775,-0.095 4.255,-0.264 3.613,-0.264L2.124,-0.264C1.435,-0.264 0.878,-0.019 0.454,0.472C0.03,0.962 -0.182,1.612 -0.182,2.423L-0.182,5.419C-0.182,6.17 0.03,6.775 0.454,7.234C0.878,7.695 1.44,7.925 2.143,7.925L3.632,7.925C4.297,7.925 4.83,7.704 5.229,7.262C5.629,6.82 5.828,6.236 5.828,5.51L6.446,5.51C6.446,6.406 6.188,7.129 5.674,7.68C5.159,8.23 4.479,8.506 3.632,8.506L2.143,8.506C1.259,8.506 0.545,8.224 0,7.661" style="fill:rgb(120,154,11);fill-rule:nonzero;"/>
            </g>
            <g transform="matrix(1,0,0,1,0,83.891)">
                <path d="M185.365,3.123L186.001,3.123L186.001,12.184L185.365,12.184L185.365,3.123ZM185.229,1.244C185.114,1.129 185.056,0.975 185.056,0.781C185.056,0.588 185.114,0.433 185.229,0.318C185.343,0.203 185.498,0.145 185.692,0.145C185.885,0.145 186.039,0.203 186.155,0.318C186.27,0.433 186.328,0.588 186.328,0.781C186.328,0.975 186.27,1.129 186.155,1.244C186.039,1.359 185.885,1.417 185.692,1.417C185.498,1.417 185.343,1.359 185.229,1.244" style="fill:rgb(120,154,11);fill-rule:nonzero;"/>
            </g>
            <g transform="matrix(1,0,0,1,189.223,87.7845)">
                <path d="M0,7.664C-0.466,7.149 -0.698,6.475 -0.698,5.64L-0.698,-0.771L-0.063,-0.771L-0.063,5.64C-0.063,6.306 0.109,6.841 0.454,7.246C0.8,7.652 1.256,7.854 1.825,7.854L2.951,7.854C3.29,7.854 3.65,7.725 4.031,7.464C4.413,7.204 4.755,6.868 5.058,6.456C5.359,6.045 5.565,5.615 5.675,5.167L5.675,-0.771L6.311,-0.771L6.311,8.29L5.692,8.29L5.692,6.42C5.354,7.014 4.933,7.498 4.431,7.873C3.929,8.248 3.441,8.435 2.969,8.435L1.825,8.435C1.074,8.435 0.466,8.179 0,7.664" style="fill:rgb(120,154,11);fill-rule:nonzero;"/>
            </g>
            <g transform="matrix(1,0,0,1,209.204,95.3572)">
                <path d="M0,-7.771C0.424,-7.292 0.636,-6.661 0.636,-5.874L0.636,0.717L0,0.717L0,-5.874C0,-6.479 -0.154,-6.969 -0.463,-7.344C-0.771,-7.719 -1.18,-7.907 -1.688,-7.907L-2.813,-7.907C-3.347,-7.907 -3.815,-7.692 -4.221,-7.262C-4.627,-6.833 -4.902,-6.273 -5.047,-5.583L-5.047,0.717L-5.683,0.717L-5.683,-5.692C-5.683,-6.345 -5.834,-6.878 -6.137,-7.29C-6.439,-7.702 -6.827,-7.907 -7.299,-7.907L-8.389,-7.907C-8.885,-7.907 -9.351,-7.674 -9.786,-7.209C-10.222,-6.742 -10.537,-6.152 -10.73,-5.438L-10.73,0.717L-11.366,0.717L-11.366,-8.343L-10.749,-8.343L-10.749,-6.691C-10.471,-7.259 -10.125,-7.702 -9.714,-8.016C-9.303,-8.331 -8.86,-8.488 -8.389,-8.488L-7.299,-8.488C-6.814,-8.488 -6.382,-8.331 -6.001,-8.016C-5.619,-7.702 -5.362,-7.278 -5.229,-6.746C-4.987,-7.278 -4.654,-7.702 -4.23,-8.016C-3.807,-8.331 -3.335,-8.488 -2.813,-8.488L-1.688,-8.488C-0.986,-8.488 -0.424,-8.25 0,-7.771" style="fill:rgb(120,154,11);fill-rule:nonzero;"/>
            </g>
            <g opacity="0.33">
                <g transform="matrix(1,0,0,1,3.7104,66.2516)">
                    <path d="M0,3.904C11.723,3.26 23.449,2.663 35.176,2.112C46.909,1.736 58.644,1.405 70.379,1.121C93.853,0.592 117.326,0.219 140.805,0C164.285,0.217 187.758,0.59 211.232,1.117C222.967,1.401 234.702,1.731 246.434,2.107C258.163,2.66 269.887,3.259 281.611,3.904C269.873,3.812 258.134,3.766 246.396,3.766C234.664,3.589 222.93,3.458 211.197,3.373C187.732,3.222 164.271,3.226 140.805,3.384C117.34,3.225 93.879,3.219 70.414,3.369C58.681,3.453 46.948,3.584 35.215,3.761C23.477,3.762 11.738,3.81 0,3.904" style="fill:rgb(167,169,172);fill-rule:nonzero;"/>
                </g>
            </g>
            <g opacity="0.52">
                <g transform="matrix(1,0,0,1,1.3764,15.2022)">
                    <path d="M0,34.155L0,0C0,-7.726 3.66,-11.386 11.385,-11.386L29.602,-11.386C37.328,-11.386 40.988,-7.726 40.988,0L40.988,8.212L31.229,8.212L31.229,0.569C31.229,-1.628 30.416,-2.44 28.221,-2.44L12.85,-2.44C10.573,-2.44 9.759,-1.628 9.759,0.569L9.759,33.586C9.759,35.781 10.573,36.595 12.85,36.595L28.221,36.595C30.416,36.595 31.229,35.781 31.229,33.586L31.229,25.941L40.988,25.941L40.988,34.155C40.988,41.8 37.328,45.541 29.602,45.541L11.385,45.541C3.66,45.541 0,41.8 0,34.155" style="fill:rgb(167,169,172);fill-rule:nonzero;"/>
                </g>
                <g transform="matrix(1,0,0,1,163.198,28.8661)">
                    <path d="M0,20.165L0,11.139L-13.5,13.253C-16.265,13.66 -17.321,14.392 -17.321,18.703C-17.321,23.094 -16.427,24.151 -12.931,24.151C-6.912,24.151 -3.821,22.443 0,20.165M-26.512,19.434C-26.512,10.327 -22.445,7.236 -15.207,6.341C-11.548,5.853 -6.017,5.365 0,5.039L0,-1.223C0,-3.418 -0.894,-4.314 -3.091,-4.314L-12.767,-4.314C-14.962,-4.314 -15.857,-3.418 -15.857,-1.223L-15.857,0.974L-25.047,0.974L-25.047,-1.304C-25.047,-8.623 -21.631,-12.038 -14.313,-12.038L-1.381,-12.038C5.937,-12.038 9.353,-8.623 9.353,-1.304L9.353,31.877L0,31.877L0,25.289C-3.172,29.436 -6.424,32.203 -14.394,32.203C-23.095,32.203 -26.512,28.543 -26.512,19.434" style="fill:rgb(167,169,172);fill-rule:nonzero;"/>
                </g>
                <g transform="matrix(1,0,0,1,0,-34.101)">
                    <rect x="177.344" y="35.477" width="9.354" height="59.367" style="fill:rgb(167,169,172);"/>
                </g>
                <g transform="matrix(1,0,0,1,203.286,29.84)">
                    <path d="M0,30.903L-15.614,-13.012L-5.691,-13.012L4.719,20.736L15.29,-13.012L24.803,-13.012L4.474,43.915L-4.474,43.915L0,30.903Z" style="fill:rgb(167,169,172);fill-rule:nonzero;"/>
                </g>
                <g transform="matrix(1,0,0,1,226.461,28.1332)">
                    <path d="M0,21.305L0,18.459L9.188,18.459L9.188,21.469C9.188,24.233 10.003,25.046 12.279,25.046L22.688,25.046C24.886,25.046 25.779,24.233 25.779,20.005C25.779,15.857 24.965,15.288 22.443,14.881L10.085,12.847C3.335,11.79 0.569,9.431 0.569,1.381C0.569,-7.89 3.983,-11.305 11.303,-11.305L23.258,-11.305C30.577,-11.305 33.991,-7.89 33.991,-0.326L33.991,2.112L24.803,2.112L24.803,-0.407C24.803,-2.929 23.909,-3.743 21.713,-3.743L12.848,-3.743C10.654,-3.743 9.758,-2.929 9.758,0.731C9.758,4.39 10.571,4.959 13.093,5.367L25.455,7.4C32.205,8.457 34.968,10.814 34.968,19.354C34.968,29.193 31.553,32.61 24.233,32.61L10.733,32.61C3.415,32.61 0,29.193 0,21.305" style="fill:rgb(167,169,172);fill-rule:nonzero;"/>
                </g>
                <g transform="matrix(1,0,0,1,266.792,16.9906)">
                    <path d="M0,33.017L0,7.562L-6.505,7.562L-6.505,-0.162L0.083,-0.162L0.083,-10.735L9.191,-10.735L9.191,-0.162L19.273,-0.162L19.273,7.562L9.271,7.562L9.271,32.773C9.271,35.05 10.168,35.864 12.361,35.864L19.273,35.864L19.273,43.752L10.737,43.752C3.418,43.752 0,40.336 0,33.017" style="fill:rgb(167,169,172);fill-rule:nonzero;"/>
                </g>
                <g opacity="0.52">
                    <g transform="matrix(1,0,0,1,71.0664,28.8661)">
                        <path d="M0,20.165L0,11.139L-13.5,13.253C-16.265,13.66 -17.322,14.392 -17.322,18.703C-17.322,23.094 -16.427,24.151 -12.931,24.151C-6.912,24.151 -3.822,22.443 0,20.165M-26.512,19.434C-26.512,10.327 -22.445,7.236 -15.208,6.341C-11.548,5.853 -6.017,5.365 0,5.039L0,-1.223C0,-3.418 -0.894,-4.314 -3.09,-4.314L-12.767,-4.314C-14.962,-4.314 -15.857,-3.418 -15.857,-1.223L-15.857,0.974L-25.048,0.974L-25.048,-1.304C-25.048,-8.623 -21.631,-12.038 -14.313,-12.038L-1.381,-12.038C5.937,-12.038 9.352,-8.623 9.352,-1.304L9.352,31.877L0,31.877L0,25.289C-3.171,29.436 -6.424,32.203 -14.394,32.203C-23.096,32.203 -26.512,28.543 -26.512,19.434" style="fill:rgb(167,169,172);fill-rule:nonzero;"/>
                    </g>
                </g>
            </g>
            <g transform="matrix(1,0,0,1,3.499,64.4869)">
                <path d="M0,3.904C11.723,3.26 23.448,2.663 35.176,2.112C46.909,1.736 58.643,1.405 70.378,1.121C93.853,0.592 117.326,0.219 140.806,0C164.284,0.217 187.758,0.59 211.231,1.117C222.967,1.401 234.701,1.731 246.435,2.107C258.162,2.66 269.888,3.259 281.61,3.904C269.872,3.812 258.134,3.766 246.396,3.766C234.663,3.589 222.93,3.458 211.196,3.373C187.731,3.222 164.271,3.226 140.805,3.384C117.34,3.225 93.879,3.219 70.414,3.369C58.68,3.453 46.947,3.584 35.215,3.761C23.477,3.762 11.738,3.81 0,3.904" style="fill:rgb(120,154,11);fill-rule:nonzero;"/>
            </g>
            <g transform="matrix(1,0,0,1,69.6899,27.4895)">
                <path d="M0,20.165L0,11.139L-13.5,13.253C-16.265,13.66 -17.322,14.392 -17.322,18.703C-17.322,23.094 -16.427,24.151 -12.931,24.151C-6.912,24.151 -3.822,22.443 0,20.165M-26.512,19.434C-26.512,10.327 -22.445,7.236 -15.208,6.341C-11.548,5.853 -6.017,5.365 0,5.039L0,-1.223C0,-3.418 -0.894,-4.314 -3.09,-4.314L-12.767,-4.314C-14.962,-4.314 -15.857,-3.418 -15.857,-1.223L-15.857,0.974L-25.048,0.974L-25.048,-1.304C-25.048,-8.623 -21.631,-12.038 -14.313,-12.038L-1.381,-12.038C5.937,-12.038 9.352,-8.623 9.352,-1.304L9.352,31.877L0,31.877L0,25.289C-3.171,29.436 -6.424,32.203 -14.394,32.203C-23.096,32.203 -26.512,28.543 -26.512,19.434" style="fill:rgb(80,10,118);fill-rule:nonzero;"/>
            </g>
            <g transform="matrix(1,0,0,1,0,13.8258)">
                <path d="M0,34.155L0,0C0,-7.726 3.66,-11.386 11.385,-11.386L29.602,-11.386C37.328,-11.386 40.988,-7.726 40.988,0L40.988,8.212L31.229,8.212L31.229,0.569C31.229,-1.628 30.416,-2.44 28.221,-2.44L12.85,-2.44C10.573,-2.44 9.759,-1.628 9.759,0.569L9.759,33.586C9.759,35.781 10.573,36.595 12.85,36.595L28.221,36.595C30.416,36.595 31.229,35.781 31.229,33.586L31.229,25.941L40.988,25.941L40.988,34.155C40.988,41.8 37.328,45.541 29.602,45.541L11.385,45.541C3.66,45.541 0,41.8 0,34.155" style="fill:rgb(80,10,118);fill-rule:nonzero;"/>
            </g>
            <g transform="matrix(1,0,0,1,161.822,27.4895)">
                <path d="M0,20.165L0,11.139L-13.5,13.253C-16.265,13.66 -17.322,14.392 -17.322,18.703C-17.322,23.094 -16.427,24.151 -12.932,24.151C-6.912,24.151 -3.822,22.443 0,20.165M-26.512,19.434C-26.512,10.327 -22.446,7.236 -15.208,6.341C-11.548,5.853 -6.018,5.365 0,5.039L0,-1.223C0,-3.418 -0.894,-4.314 -3.091,-4.314L-12.768,-4.314C-14.963,-4.314 -15.857,-3.418 -15.857,-1.223L-15.857,0.974L-25.048,0.974L-25.048,-1.304C-25.048,-8.623 -21.632,-12.038 -14.313,-12.038L-1.382,-12.038C5.937,-12.038 9.352,-8.623 9.352,-1.304L9.352,31.877L0,31.877L0,25.289C-3.172,29.436 -6.425,32.203 -14.394,32.203C-23.096,32.203 -26.512,28.543 -26.512,19.434" style="fill:rgb(80,10,118);fill-rule:nonzero;"/>
            </g>
            <g transform="matrix(1,0,0,1,0,-36.853)">
                <rect x="175.968" y="36.853" width="9.354" height="59.367" style="fill:rgb(80,10,118);"/>
            </g>
            <g transform="matrix(1,0,0,1,201.909,28.4634)">
                <path d="M0,30.903L-15.613,-13.012L-5.69,-13.012L4.719,20.736L15.29,-13.012L24.804,-13.012L4.474,43.915L-4.473,43.915L0,30.903Z" style="fill:rgb(80,10,118);fill-rule:nonzero;"/>
            </g>
            <g transform="matrix(1,0,0,1,225.085,26.7568)">
                <path d="M0,21.305L0,18.459L9.188,18.459L9.188,21.469C9.188,24.233 10.002,25.046 12.278,25.046L22.688,25.046C24.885,25.046 25.778,24.233 25.778,20.005C25.778,15.857 24.965,15.288 22.443,14.881L10.085,12.847C3.335,11.79 0.568,9.431 0.568,1.381C0.568,-7.89 3.983,-11.305 11.303,-11.305L23.257,-11.305C30.576,-11.305 33.991,-7.89 33.991,-0.326L33.991,2.112L24.803,2.112L24.803,-0.407C24.803,-2.929 23.909,-3.743 21.712,-3.743L12.848,-3.743C10.654,-3.743 9.757,-2.929 9.757,0.731C9.757,4.39 10.571,4.959 13.093,5.367L25.454,7.4C32.204,8.457 34.967,10.814 34.967,19.354C34.967,29.193 31.553,32.61 24.233,32.61L10.733,32.61C3.414,32.61 0,29.193 0,21.305" style="fill:rgb(80,10,118);fill-rule:nonzero;"/>
            </g>
            <g transform="matrix(1,0,0,1,265.415,15.6141)">
                <path d="M0,33.017L0,7.562L-6.505,7.562L-6.505,-0.162L0.083,-0.162L0.083,-10.735L9.192,-10.735L9.192,-0.162L19.274,-0.162L19.274,7.562L9.271,7.562L9.271,32.773C9.271,35.05 10.168,35.864 12.362,35.864L19.274,35.864L19.274,43.752L10.737,43.752C3.419,43.752 0,40.336 0,33.017" style="fill:rgb(80,10,118);fill-rule:nonzero;"/>
            </g>
            <g transform="matrix(1,0,0,1,281.461,11.0535)">
                <path d="M0,-4.98L-2.221,-4.98L-2.221,-5.99L3.39,-5.99L3.39,-4.98L1.17,-4.98L1.17,1.01L0,1.01L0,-4.98Z" style="fill:rgb(80,10,118);fill-rule:nonzero;"/>
            </g>
            <g transform="matrix(1,0,0,1,285.62,12.0637)">
                <path d="M0,-7L1.061,-7L3.42,-2.68L5.721,-7L6.78,-7L6.78,0L5.63,0L5.63,-4.83L3.98,-1.77C3.887,-1.61 3.797,-1.495 3.71,-1.425C3.624,-1.355 3.527,-1.32 3.42,-1.32L3.09,-1.32L1.141,-4.83L1.141,0L0,0L0,-7Z" style="fill:rgb(80,10,118);fill-rule:nonzero;"/>
            </g>
            <g opacity="0.4">
                <g transform="matrix(1,0,0,1,113.85,13.4756)">
                    <path d="M0,44.24L-8.854,44.24C-8.992,44.24 -9.104,44.128 -9.104,43.99L-9.104,0.25C-9.104,0.112 -8.992,0 -8.854,0L0,0C0.138,0 0.25,0.112 0.25,0.25L0.25,43.99C0.25,44.128 0.138,44.24 0,44.24" style="fill:rgb(167,169,172);fill-rule:nonzero;"/>
                </g>
                <g transform="matrix(1,0,0,1,87.3022,31.0057)">
                    <path d="M0,8.854L0,-0C0,-0.138 0.112,-0.25 0.25,-0.25L43.991,-0.25C44.128,-0.25 44.241,-0.138 44.241,-0L44.241,8.854C44.241,8.992 44.128,9.104 43.991,9.104L0.25,9.104C0.112,9.104 0,8.992 0,8.854" style="fill:rgb(167,169,172);fill-rule:nonzero;"/>
                </g>
            </g>
            <g transform="matrix(1,0,0,1,112.367,12.0639)">
                <path d="M0,44.24L-8.854,44.24C-8.992,44.24 -9.104,44.128 -9.104,43.99L-9.104,0.25C-9.104,0.112 -8.992,0 -8.854,0L0,0C0.138,0 0.25,0.112 0.25,0.25L0.25,43.99C0.25,44.128 0.138,44.24 0,44.24" style="fill:rgb(120,154,11);fill-rule:nonzero;"/>
            </g>
            <g transform="matrix(1,0,0,1,85.8198,29.5939)">
                <path d="M0,8.854L0,-0C0,-0.138 0.112,-0.25 0.25,-0.25L43.991,-0.25C44.128,-0.25 44.241,-0.138 44.241,-0L44.241,8.854C44.241,8.992 44.128,9.104 43.991,9.104L0.25,9.104C0.112,9.104 0,8.992 0,8.854" style="fill:rgb(120,154,11);fill-rule:nonzero;"/>
            </g>
        </g>
    </g>
</svg>
