<?xml version="1.0" encoding="UTF-8" standalone="no"?>
<!DOCTYPE svg PUBLIC "-//W3C//DTD SVG 1.1//EN" "http://www.w3.org/Graphics/SVG/1.1/DTD/svg11.dtd">
<svg width="100%" height="100%" viewBox="0 0 545 159" version="1.1" xmlns="http://www.w3.org/2000/svg" xmlns:xlink="http://www.w3.org/1999/xlink" xml:space="preserve" xmlns:serif="http://www.serif.com/" style="fill-rule:evenodd;clip-rule:evenodd;stroke-linejoin:round;stroke-miterlimit:2;">
    <g transform="matrix(1,0,0,1,-15.3832,-112.954)">
        <g id="mcia-inno-env" transform="matrix(0.942962,0,0,0.942962,16.6017,15.494)">
            <g transform="matrix(1,0,0,1,-1.29215,103.355)">
                <g transform="matrix(1,0,0,1,0,167.839)">
                    <path d="M0,-59.419L0,0L40.819,0L40.819,-11.108L11.108,-11.108L11.108,-22.305L7.405,-22.305L7.405,-7.404L37.116,-7.404L37.116,-3.703L3.703,-3.703L3.703,-55.717L33.413,-55.717L33.413,-52.015L7.405,-52.015L7.405,-26.007L33.413,-26.007L33.413,-37.113L14.81,-37.113L14.81,-33.412L29.711,-33.412L29.711,-29.709L11.108,-29.709L11.108,-48.312L37.116,-48.312L37.116,-59.419L0,-59.419Z" style="fill:rgb(18,140,154);fill-rule:nonzero;"/>
                </g>
                <g transform="matrix(1,0,0,1,84.6153,167.839)">
                    <path d="M0,-59.419L0,-27.09L3.703,-20.77L3.703,-55.717L7.404,-55.717L7.404,-7.404L-23.909,-59.419L-33.413,-59.419L-33.413,0L-22.306,0L-22.306,-35.007L-1.445,0L3.07,0L-26.008,-48.312L-26.008,-3.703L-29.711,-3.703L-29.711,-55.717L-26.008,-55.717L7.528,0L11.108,0L11.108,-59.419L0,-59.419Z" style="fill:rgb(18,140,154);fill-rule:nonzero;"/>
                </g>
                <g transform="matrix(1,0,0,1,139.429,167.839)">
                    <path d="M0,-59.419L-10.294,-25.285L-8.398,-18.963L2.711,-55.717L6.745,-55.717L-8.602,-5.989L-24.563,-59.419L-36.212,-59.419L-18.127,0L-14.449,0L-31.42,-55.717L-27.127,-55.717L-10.475,0L-6.552,0L11.74,-59.419L0,-59.419Z" style="fill:rgb(18,140,154);fill-rule:nonzero;"/>
                </g>
                <g transform="matrix(1,0,0,1,157.761,167.839)">
                    <path d="M0,-59.419L0,0L11.108,0L11.108,-52.015L7.405,-52.015L7.405,-3.703L3.703,-3.703L3.703,-55.717L11.108,-55.717L11.108,-59.419L0,-59.419Z" style="fill:rgb(18,140,154);fill-rule:nonzero;"/>
                </g>
                <g transform="matrix(1,0,0,1,228.018,108.42)">
                    <path d="M0,59.419L-12.463,59.419L-27.287,33.412L-34.768,33.412L-34.768,59.419L-45.875,59.419L-45.875,0L-21.674,0C-18.122,0 -15.082,1.25 -12.553,3.747C-10.024,6.246 -8.76,9.272 -8.76,12.823C-8.76,16.376 -9.979,19.461 -12.417,22.079C-14.855,24.698 -17.851,26.008 -21.403,26.008L-38.47,26.008L-38.47,7.404L-24.563,7.404C-21.614,7.404 -19.477,7.917 -18.152,8.94C-16.828,9.964 -16.165,11.921 -16.165,14.811L-16.617,14.811C-16.617,12.343 -18.483,11.107 -22.216,11.107L-34.768,11.107L-34.768,22.306L-21.222,22.306C-18.693,22.306 -16.603,21.357 -14.946,19.461C-13.291,17.565 -12.463,15.353 -12.463,12.823C-12.463,10.355 -13.352,8.218 -15.126,6.411C-16.903,4.606 -19.025,3.702 -21.493,3.702L-42.173,3.702L-42.173,55.717L-38.47,55.717L-38.47,29.71L-25.556,29.71L-10.733,55.717L-6.364,55.717L-21.222,29.71C-17.009,29.71 -13.32,28.311 -10.16,25.511C-6.999,22.712 -5.419,19.205 -5.419,14.991L-5.058,14.991C-5.058,19.091 -5.89,22.74 -7.554,25.936C-9.219,29.133 -11.835,31.303 -15.404,32.448L0,59.419Z" style="fill:rgb(18,140,154);fill-rule:nonzero;"/>
                </g>
                <g transform="matrix(1,0,0,1,278.995,159.124)">
                    <path d="M0,-41.899C5.387,-35.788 8.082,-28.759 8.082,-20.813C8.082,-12.867 5.387,-5.882 0,0.137C-5.389,6.158 -11.997,9.166 -19.822,9.166C-27.71,9.166 -34.393,6.158 -39.87,0.137C-45.349,-5.882 -48.088,-12.867 -48.088,-20.813L-47.636,-20.813C-47.636,-13.107 -44.943,-6.801 -39.554,-1.895C-34.167,3.012 -27.588,5.464 -19.822,5.464C-13.02,5.464 -7.285,2.816 -2.619,-2.482C2.046,-7.779 4.38,-13.889 4.38,-20.813C4.38,-27.616 2.016,-33.74 -2.709,-39.19C-7.436,-44.638 -13.14,-47.363 -19.822,-47.363C-24.398,-47.363 -28.297,-46.008 -31.517,-43.299C-34.738,-40.59 -37.026,-37.307 -38.38,-33.456C-39.735,-29.602 -40.412,-25.448 -40.412,-20.994C-40.412,-15.576 -38.366,-11.03 -34.271,-7.358C-30.178,-3.685 -25.362,-1.85 -19.822,-1.85C-14.826,-1.85 -10.792,-3.731 -7.721,-7.494C-4.651,-11.255 -3.115,-15.696 -3.115,-20.813C-3.115,-25.628 -4.712,-29.993 -7.902,-33.907C-11.094,-37.819 -15.067,-39.777 -19.822,-39.777C-24.578,-39.777 -28.446,-37.849 -31.427,-33.997C-34.407,-30.144 -35.897,-25.749 -35.897,-20.813L-36.348,-20.813C-36.348,-23.642 -36.063,-26.322 -35.49,-28.85C-34.919,-31.378 -34.031,-33.801 -32.826,-36.119C-31.623,-38.436 -29.907,-40.274 -27.679,-41.628C-25.452,-42.983 -22.833,-43.661 -19.822,-43.661C-14.043,-43.661 -9.198,-41.342 -5.283,-36.706C-1.37,-32.07 0.587,-26.773 0.587,-20.813C0.587,-14.672 -1.31,-9.359 -5.103,-4.875C-8.895,-0.389 -13.803,1.852 -19.822,1.852C-26.505,1.852 -32.225,-0.299 -36.98,-4.604C-41.737,-8.908 -44.114,-14.371 -44.114,-20.994C-44.114,-26.11 -43.272,-30.896 -41.586,-35.351C-39.901,-39.807 -37.161,-43.539 -33.368,-46.549C-29.576,-49.559 -25.06,-51.065 -19.822,-51.065C-11.997,-51.065 -5.389,-48.008 0,-41.899" style="fill:rgb(18,140,154);fill-rule:nonzero;"/>
                </g>
                <g transform="matrix(1,0,0,1,342.343,108.42)">
                    <path d="M0,59.419L-3.579,59.419L-37.115,3.702L-40.818,3.702L-40.818,55.717L-37.115,55.717L-37.115,11.107L-8.036,59.419L-12.552,59.419L-33.413,24.412L-33.413,59.419L-44.52,59.419L-44.52,0L-35.018,0L-3.702,52.015L-3.702,3.702L-7.405,3.702L-7.405,38.649L-11.107,32.329L-11.107,0L0,0L0,59.419Z" style="fill:rgb(18,140,154);fill-rule:nonzero;"/>
                </g>
                <g transform="matrix(1,0,0,1,412.148,108.42)">
                    <path d="M0,59.419L-11.199,59.419L-11.199,34.044L-7.496,26.008L-7.496,55.717L-3.702,55.717L-3.702,8.432L-26.851,58.153L-44.611,25.736L-44.611,59.419L-55.719,59.419L-55.719,0L-46.127,0L-27.467,33.995L-11.92,0L-7.857,0L-27.182,41.985L-48.313,3.702L-52.015,3.702L-52.015,55.717L-48.313,55.717L-48.313,11.343L-26.834,50.33L-3.702,0L0,0L0,59.419Z" style="fill:rgb(18,140,154);fill-rule:nonzero;"/>
                </g>
                <g transform="matrix(1,0,0,1,466.962,108.42)">
                    <path d="M0,59.419L-40.818,59.419L-40.818,0L-3.702,0L-3.702,11.107L-29.711,11.107L-29.711,29.71L-11.108,29.71L-11.108,26.008L-26.009,26.008L-26.009,22.306L-7.405,22.306L-7.405,33.412L-33.413,33.412L-33.413,7.404L-7.405,7.404L-7.405,3.702L-37.115,3.702L-37.115,55.717L-3.702,55.717L-3.702,52.015L-33.413,52.015L-33.413,37.114L-29.711,37.114L-29.711,48.312L0,48.312L0,59.419Z" style="fill:rgb(18,140,154);fill-rule:nonzero;"/>
                </g>
                <g transform="matrix(1,0,0,1,521.867,108.42)">
                    <path d="M0,59.419L-3.579,59.419L-37.115,3.702L-40.818,3.702L-40.818,55.717L-37.115,55.717L-37.115,11.107L-8.036,59.419L-12.552,59.419L-33.413,24.412L-33.413,59.419L-44.52,59.419L-44.52,0L-35.018,0L-3.702,52.015L-3.702,3.702L-7.405,3.702L-7.405,38.649L-11.107,32.329L-11.107,0L0,0L0,59.419Z" style="fill:rgb(18,140,154);fill-rule:nonzero;"/>
                </g>
                <g transform="matrix(1,0,0,1,577.584,156.732)">
                    <path d="M0,-37.205L-14.809,-37.205L-14.809,-40.908L-3.702,-40.908L-3.702,-44.61L-44.611,-44.61L-44.611,-40.908L-26.008,-40.908L-26.008,7.404L-22.215,7.404L-22.215,-40.908L-18.512,-40.908L-18.512,11.107L-29.711,11.107L-29.711,-37.205L-48.223,-37.205L-48.223,-48.312L0,-48.312L0,-37.205Z" style="fill:rgb(18,140,154);fill-rule:nonzero;"/>
                </g>
            </g>
            <g transform="matrix(1,0,0,1,-1.29215,103.355)">
                <g transform="matrix(1,0,0,1,0,73.7428)">
                    <path d="M0,-68.399L9.738,-68.399L9.738,-63.531L0,-63.531L0,4.869L14.606,4.869L14.606,-53.793L9.738,-53.793L9.738,0.001L4.868,0.001L4.868,-58.662L14.606,-58.662L14.606,-73.268L0,-73.268L0,-68.399Z" style="fill:rgb(25,189,197);fill-rule:nonzero;"/>
                </g>
                <g transform="matrix(1,0,0,1,67.9216,36.0984)">
                    <path d="M0,6.889L4.868,15.202L4.868,-30.755L9.738,-30.755L9.738,32.776L-31.35,-35.624L-43.937,-35.624L-43.937,42.513L-29.331,42.513L-29.331,-3.443L-1.9,42.513L4.037,42.513L-34.2,-21.018L-34.2,37.645L-39.069,37.645L-39.069,-30.755L-34.2,-30.755L9.738,42.513L14.606,42.513L14.606,-35.624L0,-35.624L0,6.889Z" style="fill:rgb(25,189,197);fill-rule:nonzero;"/>
                </g>
                <g transform="matrix(1,0,0,1,136.198,36.0984)">
                    <path d="M0,6.889L4.868,15.202L4.868,-30.755L9.738,-30.755L9.738,32.776L-31.35,-35.624L-43.937,-35.624L-43.937,42.513L-29.331,42.513L-29.331,-3.443L-1.9,42.513L4.037,42.513L-34.2,-21.018L-34.2,37.645L-39.069,37.645L-39.069,-30.755L-34.2,-30.755L9.738,42.513L14.606,42.513L14.606,-35.624L0,-35.624L0,6.889Z" style="fill:rgb(25,189,197);fill-rule:nonzero;"/>
                </g>
                <g transform="matrix(1,0,0,1,197.32,79.2058)">
                    <path d="M0,-79.206C-21.731,-79.206 -31.943,-59.018 -31.943,-39.663C-31.943,-21.85 -17.218,-9.619 0,-9.619C16.387,-9.619 26.837,-23.988 26.837,-39.425C26.837,-54.388 15.794,-69.468 0,-69.468C-16.506,-69.468 -21.731,-53.2 -21.731,-39.425L-21.137,-39.425C-21.137,-51.538 -13.181,-64.362 0,-64.362C12.944,-64.362 21.969,-51.538 21.969,-39.425C21.969,-26.719 13.656,-14.487 0,-14.487C-14.131,-14.487 -27.075,-25.057 -27.075,-39.663C-27.075,-56.288 -18.999,-74.338 0,-74.338C18.168,-74.338 31.825,-56.762 31.825,-39.425C31.825,-21.85 18.406,-4.869 0,-4.869C-20.068,-4.869 -36.575,-18.762 -36.575,-39.425L-37.169,-39.425C-37.169,-19 -21.137,0 0,0C21.138,0 36.694,-19.119 36.694,-39.425C36.694,-59.731 21.138,-79.206 0,-79.206" style="fill:rgb(25,189,197);fill-rule:nonzero;"/>
                </g>
                <g transform="matrix(1,0,0,1,332.016,77.5916)">
                    <path d="M0,-45.124L19.357,11.639L14.132,11.639L7.482,-7.956L-23.275,-7.956L-30.044,11.639L-35.268,11.639L-11.756,-56.761L-6.531,-56.761L-10.449,-45.243L-1.068,-17.693L-14.724,-17.693L-10.449,-29.568L-13.181,-37.524L-21.612,-12.824L5.938,-12.824L-5.225,-45.124L0.238,-61.631L-15.318,-61.631L-41.918,16.507L-26.243,16.507L-19.474,-3.087L3.919,-3.087L10.57,16.507L26.363,16.507L2.732,-52.962L0,-45.124Z" style="fill:rgb(25,189,197);fill-rule:nonzero;"/>
                </g>
                <g transform="matrix(1,0,0,1,349.479,79.4929)">
                    <path d="M0,-48.926L24.343,-48.926L24.343,-53.794L4.75,-53.794L4.75,-58.663L63.412,-58.663L63.412,-53.794L29.212,-53.794L29.212,14.606L43.819,14.606L43.819,-44.057L39.069,-44.057L39.069,9.737L34.199,9.737L34.199,-48.926L68.28,-48.926L68.28,-63.532L0,-63.532L0,-48.926Z" style="fill:rgb(25,189,197);fill-rule:nonzero;"/>
                </g>
                <g transform="matrix(1,0,0,1,427.133,89.2293)">
                    <path d="M0,-68.399L9.738,-68.399L9.738,-63.531L0,-63.531L0,4.869L14.606,4.869L14.606,-53.793L9.738,-53.793L9.738,0.001L4.868,0.001L4.868,-58.662L14.606,-58.662L14.606,-73.268L0,-73.268L0,-68.399Z" style="fill:rgb(25,189,197);fill-rule:nonzero;"/>
                </g>
                <g transform="matrix(1,0,0,1,485.199,49.2114)">
                    <path d="M0,11.637L2.494,19.95L17.1,-28.381L22.325,-28.381L2.494,36.931L-18.763,-33.25L-34.081,-33.25L-10.569,44.887L-5.462,44.887L-27.55,-28.381L-22.325,-28.381L-0.238,44.887L5.225,44.887L28.975,-33.25L13.537,-33.25L0,11.637Z" style="fill:rgb(25,189,197);fill-rule:nonzero;"/>
                </g>
                <g transform="matrix(1,0,0,1,538.515,30.5666)">
                    <path d="M0,48.926L0,34.201L-4.868,34.201L-4.868,53.794L34.199,53.794L34.199,58.664L-9.738,58.664L-9.738,-9.736L29.331,-9.736L29.331,-4.868L-4.868,-4.868L-4.868,29.332L29.331,29.332L29.331,14.726L4.868,14.726L4.868,19.595L24.463,19.595L24.463,24.463L0,24.463L0,0L34.199,0L34.199,-14.606L-14.606,-14.606L-14.606,63.532L39.069,63.532L39.069,48.926L0,48.926Z" style="fill:rgb(25,189,197);fill-rule:nonzero;"/>
                </g>
                <g transform="matrix(1,0,0,1,272.595,33.9094)">
                    <path d="M0,26.939L2.494,35.252L17.1,-13.079L22.325,-13.079L2.494,52.233L-23.353,-33.25L-38.672,-33.25L-10.569,60.189L-5.462,60.189L-32.14,-28.381L-26.916,-28.381L-0.238,60.189L5.225,60.189L28.975,-17.948L13.537,-17.948L0,26.939Z" style="fill:rgb(25,189,197);fill-rule:nonzero;"/>
                </g>
            </g>
        </g>
    </g>
</svg>
