<?xml version="1.0" encoding="utf-8"?>
<!-- Generator: Adobe Illustrator 26.1.0, SVG Export Plug-In . SVG Version: 6.00 Build 0)  -->
<svg version="1.1" id="Layer_1" xmlns="http://www.w3.org/2000/svg" xmlns:xlink="http://www.w3.org/1999/xlink" x="0px" y="0px"
	 viewBox="0 0 32 32" enable-background="new 0 0 32 32" xml:space="preserve">
<g>
	<circle fill="#FFFFFF" cx="16" cy="16" r="16"/>
	<linearGradient id="SVGID_1_" gradientUnits="userSpaceOnUse" x1="16" y1="0" x2="16" y2="32">
		<stop  offset="0" style="stop-color:#2A406B"/>
		<stop  offset="1" style="stop-color:#2B5D6C"/>
	</linearGradient>
	<path fill="url(#SVGID_1_)" d="M16,1c8.3,0,15,6.7,15,15s-6.7,15-15,15S1,24.3,1,16S7.7,1,16,1 M16,0C7.2,0,0,7.2,0,16
		s7.2,16,16,16s16-7.2,16-16S24.8,0,16,0L16,0z"/>
</g>
<circle fill="#F2F2F2" cx="113.9" cy="16" r="14.9"/>
<linearGradient id="SVGID_00000077298113063636209880000001053199074283272606_" gradientUnits="userSpaceOnUse" x1="16" y1="-3.8222" x2="16" y2="28.9602">
	<stop  offset="0" style="stop-color:#2A406B"/>
	<stop  offset="1" style="stop-color:#2B5D6C"/>
</linearGradient>
<path fill="url(#SVGID_00000077298113063636209880000001053199074283272606_)" d="M30.6,16c0-1-0.1-2-0.3-2.9l-5.6-8.8
	c-2.3-1.7-5-2.7-8-2.8l-1.2,0c-2.9,0.1-5.6,1.1-7.8,2.7L1.8,13c-0.2,1-0.3,2-0.3,3c0,4.1,1.7,7.9,4.5,10.5L14.5,3
	c0,0-3.3,13.3-6.2,25.3c2.2,1.4,4.9,2.2,7.7,2.2c2.8,0,5.4-0.8,7.6-2.2L17.7,3L26,26.6C28.8,23.9,30.6,20.2,30.6,16z"/>
</svg>
