<?xml version="1.0" encoding="UTF-8" standalone="no"?><!DOCTYPE svg PUBLIC "-//W3C//DTD SVG 1.1//EN" "http://www.w3.org/Graphics/SVG/1.1/DTD/svg11.dtd"><svg width="100%" height="100%" viewBox="0 0 32 33" version="1.1" xmlns="http://www.w3.org/2000/svg" xmlns:xlink="http://www.w3.org/1999/xlink" xml:space="preserve" xmlns:serif="http://www.serif.com/" style="fill-rule:evenodd;clip-rule:evenodd;stroke-linejoin:round;stroke-miterlimit:2;"><g><path d="M8,0l16,0c4.4,0 8,3.6 8,8l0,17c0,4.4 -3.6,8 -8,8l-16,0c-4.4,0 -8,-3.6 -8,-8l0,-17c0,-4.4 3.6,-8 8,-8Z" style="fill:url(#_Linear1);"/><path d="M12.9,17.3l0.4,0l5.5,9.9c2.4,0 4.5,0.2 6.5,0.4l0,-22.2c-1.8,0.2 -3.9,0.2 -6.3,0.4l0,10.3l-0.4,0l-5.5,-10.3c-2.4,-0 -4.7,-0.2 -6.5,-0.4l-0,22.3c1.8,-0.2 3.9,-0.4 6.3,-0.4l-0,-10Z" style="fill:#fff;fill-rule:nonzero;"/></g><defs><linearGradient id="_Linear1" x1="0" y1="0" x2="1" y2="0" gradientUnits="userSpaceOnUse" gradientTransform="matrix(25.3733,25.0394,-25.0394,25.3733,4.13408,4.81643)"><stop offset="0" style="stop-color:#ec4899;stop-opacity:1"/><stop offset="1" style="stop-color:#ea580c;stop-opacity:1"/></linearGradient></defs></svg>