<?xml version="1.0" encoding="utf-8"?>
<!-- Generator: Adobe Illustrator 26.1.0, SVG Export Plug-In . SVG Version: 6.00 Build 0)  -->
<svg version="1.1" id="Layer_1" xmlns="http://www.w3.org/2000/svg" xmlns:xlink="http://www.w3.org/1999/xlink" x="0px" y="0px"
	 viewBox="0 0 32 32" style="enable-background:new 0 0 32 32;" xml:space="preserve">
<style type="text/css">
	.st0{fill:url(#SVGID_1_);}
	.st1{fill:#FFFFFF;}
</style>
<linearGradient id="SVGID_1_" gradientUnits="userSpaceOnUse" x1="16" y1="34" x2="16" y2="1" gradientTransform="matrix(1 0 0 -1 0 34)">
	<stop  offset="0" style="stop-color:#D97706"/>
	<stop  offset="0.1336" style="stop-color:#DD6C27"/>
	<stop  offset="0.3218" style="stop-color:#E35F50"/>
	<stop  offset="0.5065" style="stop-color:#E75570"/>
	<stop  offset="0.6843" style="stop-color:#EA4E87"/>
	<stop  offset="0.8522" style="stop-color:#EB4994"/>
	<stop  offset="1" style="stop-color:#EC4899"/>
</linearGradient>
<path class="st0" d="M16,0L16,0c8.8,0,16,7.2,16,16l0,0c0,8.8-7.2,16-16,16l0,0C7.2,32,0,24.8,0,16l0,0C0,7.2,7.2,0,16,0z"/>
<path class="st1" d="M12.9,16.8h0.5l5.5,9.8c2.4,0.1,4.6,0.2,6.5,0.4V5.1c-1.9,0.2-4,0.3-6.2,0.4v10.2h-0.5L13.2,5.4
	C10.8,5.4,8.6,5.2,6.7,5v22c1.8-0.2,3.9-0.3,6.2-0.4L12.9,16.8L12.9,16.8z"/>
</svg>
