<?xml version="1.0" encoding="utf-8"?>
<!-- Generator: Adobe Illustrator 25.0.1, SVG Export Plug-In . SVG Version: 6.00 Build 0)  -->
<svg version="1.1" id="Layer_1" xmlns="http://www.w3.org/2000/svg" xmlns:xlink="http://www.w3.org/1999/xlink" x="0px" y="0px"
	 viewBox="0 0 140.1 72" enable-background="new 0 0 140.1 72" xml:space="preserve">
<g>
	<path fill="#FFFFFF" d="M138.1,56.9l-3.7-22.3l5.6-30.4l-1.1-0.2C123.8,1.6,95.6,0,70.2,0h-0.2C44.6,0,16.3,1.6,1.2,3.9L0.1,4.1
		l5.7,30.4L2,56.9l-2,11L1.1,68c16,2.4,42.9,4,68.5,4h0.7c25.6,0,52.6-1.6,68.6-4l1.1-0.2L138.1,56.9z"/>
	<path fill="#A4353A" d="M137.1,57.7c-16.4,2.3-42.5,3.7-66.7,3.7h-0.7c-24.2,0-50.3-1.5-66.7-3.7L1.3,67c15.5,2.3,42.3,4,68.4,4H70
		h0h0.4c26.1,0,52.9-1.6,68.4-4L137.1,57.7z"/>
	<path fill="#231F20" d="M70.4,60.4c24.2,0,50.2-1.4,66.6-3.7l-3.7-22.1l5.5-29.5c-15-2.3-43.2-3.9-68.6-3.9h0h-0.2h0
		c-25.3,0-53.5,1.6-68.6,3.9l5.5,29.5L3.1,56.7c16.3,2.2,42.4,3.7,66.5,3.7H70.4z"/>
	<path fill="#FFFFFF" d="M116.9,41.1c0.1,0,0.1,0,0.2,0c0.1,0,0.1,0,0.2,0c0,0,0.1-0.1,0.1-0.1c0,0,0-0.1,0-0.2c0-0.1,0-0.1,0-0.2
		c0,0-0.1-0.1-0.1-0.1c0,0-0.1,0-0.1,0c-0.1,0-0.1,0-0.2,0h-0.4v0.6H116.9z M117.1,40.2c0.2,0,0.4,0,0.5,0.1
		c0.1,0.1,0.2,0.2,0.2,0.4c0,0.2-0.1,0.3-0.2,0.4c-0.1,0.1-0.2,0.1-0.4,0.2l0.6,0.9h-0.3l-0.6-0.9h-0.3v0.9h-0.3v-2H117.1z
		 M115.6,41.7c0.1,0.2,0.2,0.3,0.3,0.5c0.1,0.1,0.3,0.2,0.5,0.3c0.2,0.1,0.4,0.1,0.6,0.1c0.2,0,0.4,0,0.6-0.1
		c0.2-0.1,0.3-0.2,0.5-0.3c0.1-0.1,0.2-0.3,0.3-0.5c0.1-0.2,0.1-0.4,0.1-0.6c0-0.2,0-0.4-0.1-0.6c-0.1-0.2-0.2-0.3-0.3-0.5
		c-0.1-0.1-0.3-0.2-0.5-0.3c-0.2-0.1-0.4-0.1-0.6-0.1c-0.2,0-0.4,0-0.6,0.1c-0.2,0.1-0.3,0.2-0.5,0.3c-0.1,0.1-0.2,0.3-0.3,0.5
		c-0.1,0.2-0.1,0.4-0.1,0.6C115.5,41.4,115.6,41.6,115.6,41.7 M115.3,40.5c0.1-0.2,0.2-0.4,0.4-0.5c0.2-0.2,0.3-0.3,0.6-0.4
		c0.2-0.1,0.4-0.1,0.7-0.1c0.2,0,0.5,0,0.7,0.1c0.2,0.1,0.4,0.2,0.6,0.4c0.2,0.2,0.3,0.3,0.4,0.5c0.1,0.2,0.1,0.4,0.1,0.7
		c0,0.2,0,0.5-0.1,0.7c-0.1,0.2-0.2,0.4-0.4,0.5c-0.2,0.2-0.3,0.3-0.6,0.4c-0.2,0.1-0.4,0.1-0.7,0.1c-0.2,0-0.5,0-0.7-0.1
		c-0.2-0.1-0.4-0.2-0.6-0.4c-0.2-0.2-0.3-0.3-0.4-0.5c-0.1-0.2-0.1-0.4-0.1-0.7C115.2,40.9,115.2,40.7,115.3,40.5"/>
	<path fill="#929497" d="M29,49.3c-1.4,0-2.8-0.3-3.5-0.7v-1.1c0.6,0.5,2.1,1,3.5,1c1.6,0,2.6-0.5,2.6-1.1c0-1.6-6.2-0.4-6.2-3.1
		c0-1.3,1.8-1.8,3.5-1.8c1.2,0,2.5,0.2,3.1,0.6v1c-0.8-0.5-2-0.8-3.3-0.8c-0.7,0-2.2,0.2-2.2,1c0,1.7,6.2,0.5,6.2,3
		C32.7,48.7,30.8,49.3,29,49.3"/>
	<rect x="38.1" y="42.6" fill="#929497" width="1.1" height="6.4"/>
	<polygon fill="#929497" points="46.7,48.2 52.6,48.2 52.6,49 45.6,49 45.6,42.6 46.7,42.6 	"/>
	<polygon fill="#929497" points="59.2,47.6 62.7,42.6 64,42.6 59.2,49.4 54.4,42.6 55.7,42.6 	"/>
	<polygon fill="#929497" points="68.1,42.6 75.2,42.6 75.2,43.5 69.2,43.5 69.2,45.2 74.2,45.2 74.2,46.1 69.2,46.1 69.2,48.2 
		75.2,48.2 75.2,49 68.1,49 	"/>
	<path fill="#929497" d="M81.3,45.3h3.1c1.3,0,1.7-0.3,1.7-0.9c0-0.6-0.5-0.9-1.7-0.9h-3.1V45.3z M81.3,49h-1.1v-6.4h4.4
		c1.3,0,2.8,0.4,2.8,1.8c0,1-0.8,1.5-1.8,1.7l2.1,2.9h-1.3l-2-2.9h-3.1V49z"/>
	<path fill="#FFFFFF" d="M94.1,19.1c-2.2,1.6-2.4,2.2-1.2,2.3c0.9,0,1.6-0.6,2.9-1.5c1-0.7,1.1-1.4-0.1-1.4
		C95.1,18.6,95.2,18.4,94.1,19.1"/>
	<path fill="#FFFFFF" d="M36,24c-1.1-0.6-2.5-1.2-4.3-1.7c-1.7-0.5-2.8-0.9-3.3-1.1c-1.3-0.7-2-1.4-2-2.4c0-1.2,0.8-2.3,2.3-3.4
		c1.2-0.8,2.5-1.4,4.1-1.9c1.2-0.3,2.4-0.5,3.6-0.5c2.3,0,3.9,0.6,4.8,1.9C41,15,40.5,15.7,39.5,17c-0.8,1.1-1.2,1.7-1.2,1.9
		c0,0.4,0.5,0.6,1.6,0.6c0.3,0,0.6-0.1,0.7-0.3c0.8-1.4,1.2-2.5,1.5-3.4c0.2,0.4,0.5,0.8,0.6,1.1c0.2-0.1,0.3-0.4,0.3-0.9
		c0-0.3-0.6-1.3-0.6-1.3c0.3-1,0.3-1.3,0.4-1.7c0.1-0.3-0.1-0.5-0.3-0.6c-0.2-0.1-0.2,0.1-0.4,0.5c-0.3,0.6-0.5,0.9-0.5,0.9
		c-0.9-1.2-2.7-1.7-5.2-1.7c-2.6,0-5.2,0.7-7.7,1.9c-3.1,1.5-4.5,3.3-4.6,5.5c0,1.3,1.1,2.2,2.1,2.7c0.4,0.2,1,0.4,2.4,0.8
		c1.3,0.4,2,0.5,2.5,0.7c3.3,1.1,4.4,2.4,4.4,4.2c0,1.7-1.1,3.2-3.8,5c-2.1,1.5-4.2,2.5-6.4,3.3c-2.2,0.7-4.2,1.1-5.9,1.1
		c-1.4,0-2.2-0.1-3.2-0.6c-1.3-0.6-1.8-1.2-1.8-2.4c0-2,1.5-3.9,4.6-5.5c0.9-0.4,1.6-0.8,2.1-0.9c0.4-0.2,0.5-0.3,0.5-0.4
		c0-0.1-0.2-0.5-0.4-0.5c-0.3,0-0.8,0.2-1.4,0.5c-1.8,0.9-3.3,1.8-4.5,2.9c-1.8,1.5-2.6,2.9-2.6,4.3c0,1.5,1,2.7,2.9,3.5
		c1.5,0.6,3.2,0.8,5,0.8c2.6,0,5.2-0.6,7.8-1.7c2.5-1,4.7-2.2,6.6-3.6c2.7-2,4.1-3.8,4-5.6c0-0.4-0.1-0.8-0.3-1.2
		C38.4,25.7,37.4,24.8,36,24"/>
	<path fill="#FFFFFF" d="M108.2,41.8L108.2,41.8c-0.9,1-1.9,2.1-2.9,3.1c-1.9,1.7-4.3,2.9-5.9,3.2c-4.2,0.9-7.3-1.2-3.8-4.4
		c0.7-0.6,1.7-1.2,2.8-1.8c1.9-0.9,3.6-1.6,5.3-2.2c3-1.1,5.7-1.9,8-2.4C110.6,38.9,109.1,40.8,108.2,41.8 M112.9,31.5
		c-0.7,0.1-0.7-0.5,0-2c1.3-2.5,3-3,4.7-3c1.3,0,2.7,0.2,2.7,0.2C117.5,28.8,115.1,31.3,112.9,31.5 M134,34c-0.4,0-1-0.1-4.4,0
		c-2.2,0-4.4,0.2-6.6,0.4c0,0,0,0,0,0c-0.7,0.1-1.4,0.1-2.1,0.2c-1.7,0.2-3.4,0.4-5,0.6c-0.3,0-0.6,0.1-0.9,0.1
		c0.1-0.1,0.2-0.2,0.3-0.4c0.3-0.4,0.6-0.7,0.8-0.9c0,0,0,0,0,0c1.9-2.1,5.7-6,8.6-8.5c0.6-0.5-0.5-0.8-2-0.6
		c-0.2-0.1-0.6-0.2-0.6-0.2s-6.4-1.3-9.8,2.3c-1.9,1.7-8.4,7.4-12.4,7.6c-0.9,0,0.4-1.5,2.1-3.1c3.8-3.6,4.1-4.3,4.1-4.3
		s0.7-1.9-1.2-1.9c-0.7,0-2.6,0.2-4.1,0.9c-3.5,1.6-6.3,3.4-6.3,3.4l3.5-4.3c0,0,1.3-1.3-0.2-1.1c-1,0.8-1.8,1.5-3.1,2.7
		c-2.7,1.9-8,5.9-10.1,5.9c-0.9,0-1.7,0-1.7-0.4c0-0.5,0.8-1.7,1.5-2.2c1.3-1.3,3-2.7,5.2-4.4c0.6-0.4,1.7-1.2,0.6-1.4
		c-1.1-0.2-1.7,0-2.4,0.5c-2.6,2.1-4.6,3.6-5.8,4.9c-2.8,1.7-6.9,4-8,4c-1.1,0-1.5-1.7,5.4-8.6l15.4-14.8c0,0,1.7-1.8,1.5-2.3
		c-0.3-0.8-0.4-1.7-3.4,1c-4.3,3.9-11.4,10.7-16.4,16.4c-0.9,1.1-1.8,2.1-2.5,3.1c-3,4-4.3,6.8-1.4,6.8c1.8,0,4.9-1.5,7.7-3.2
		c-0.2,0.4-0.2,0.8-0.2,1.3c0,0.7,1,1.3,2.5,1.3c2,0,4.9-1.5,8.2-3.6c-0.6,0.7-1.1,1.3-1.5,1.8c-0.5,0.6-0.8,1-0.8,1
		s-0.3,0.6,0.1,0.8c0.5,0.3,1.4,0.8,3.7-1.3c3.4-3.5,7.6-6.4,9.6-6.4c0.8,0,1,0.4,0.5,1c-1.5,1.4-4.9,4.1-5.3,5.6
		c-0.5,1.9,1.4,2,2.6,2c2.6,0,7.3-3,10.9-5.5c-0.2,0.5-0.4,0.9-0.5,1.2c-0.2,1.3,0.8,1.9,1.8,2c1.2,0.1,2.5-0.2,3.7-1.3l-2.3,3h0
		c-0.1,0.2-0.2,0.3-0.4,0.5c-2.9,0.6-5.8,1.4-9.3,2.7l0,0c-1.2,0.5-2.5,0.9-3.7,1.5c0,0,0,0,0,0c-1.7,0.7-3.3,1.5-4.7,2.3
		c-5.8,3.5-3,8.8,4.6,6.9c0.1,0,0.2-0.1,0.3-0.1c0.1,0,0.2,0,0.3-0.1c0.1,0,0.2-0.1,0.3-0.1c0,0,0,0,0,0c0.1,0,0.1,0,0.2-0.1
		c2.6-0.9,5.2-3,7-4.7c0.7-0.7,1.2-1.2,1.5-1.6c1.3-1.6,3.2-4,4.7-5.9c0.8-0.1,1.5-0.3,2.1-0.4l0,0c0.9-0.1,1.9-0.3,2.9-0.4
		c0.5-0.1,0.9-0.1,1.2-0.1c1.6-0.2,3.4-0.4,5.2-0.5c5.3-0.4,8.1-0.3,8.1-0.3C133.4,34.7,134.3,34,134,34"/>
	<path fill="#FFFFFF" d="M53.5,30.7l0-0.4c0,0,0-0.3,0.3-0.8c0.6-1.1,3.1-2.9,4.3-2.9c0,0,0.7,0,0.8,0.1c0.1,0.1,0.3,0.3,0.2,0.4
		c-0.3,0.5-2.7,2-4.3,3C54.3,30.4,53.8,30.7,53.5,30.7L53.5,30.7z M72.6,27.7C72.6,27.7,72.6,27.7,72.6,27.7
		C72.6,27.7,72.6,27.7,72.6,27.7C72.6,27.7,72.6,27.7,72.6,27.7c0.1,0,0.1,0,0.1,0c0.2,0,0.4-0.1,0.5-0.2c0.1-0.2,1-1,1.1-1.2
		c0.1-0.2,0.4-0.3,0.4-0.4c0,0,0.1-0.1,0-0.1c-0.2-0.4-0.8-0.6-2.3-0.3c-4,0.8-7,3.8-7,3.8c1.1-1.4,3.7-5.1,3.7-5.1
		c0.3-0.6-1.8-0.4-2.3,0.5c-0.7,1.4-1.6,2.7-2.5,3.8c-3.4,2.9-6.8,4.5-9.9,4.5c-0.5,0-1-0.2-1.1-0.5c0-0.1-0.1-0.3-0.1-0.4
		c1.4-0.6,2.7-1.2,3.7-1.7c2-0.9,4.1-2.4,3.6-4.6c-0.2-0.7-0.6-0.8-1.3-0.9c-0.2,0-0.5,0-0.7,0c-0.1,0-0.1,0-0.2,0
		c-0.7,0.1-1.5,0.4-2.2,0.7c-0.6,0.3-1.2,0.7-1.8,1.1c-1.5,1.1-2.7,2.4-3.3,3.6c-0.2,0.5-0.4,1.1-0.4,1.6c-3.2,1.3-6.9,2.7-8.6,2.8
		c-0.3,0-0.4-0.1-0.4-0.3c-0.2-0.9,0.7-4.1,4.9-8.1c0.3,0,1.7-0.1,2.6-0.1c0,0,2.5-0.1,4.7-0.6c0.2,0,1-0.6,1.1-0.7
		c0-0.1,0-0.1,0-0.2c-0.3,0-0.6,0-0.9,0c-0.6,0-4.7,0-6.1-0.1l3.2-3.4c0,0,3.2-2.9,4.5-4.2c0.4-0.4-0.2-0.6-0.5-0.7
		c-0.6-0.1-3.1,1.8-6.3,4.7c-1.8,1.6-3.3,3.4-3.4,3.4c-0.7-0.1-1.4-0.2-2.1-0.4c-0.2-0.1-0.5-0.1-0.8-0.2c-0.9-0.3-2.7-1-2.8-1
		c-0.1,0-0.6,0-0.6,0.3c0,0.9,1.3,2.2,1.3,2.3c0.1,0.1,0.2,0.1,0.2,0.1c0.1,0,0.2,0,0.2,0.1c1.3,0.3,3.1,0.6,3.1,0.5
		c-3,3.3-5.1,7-4.2,9.2c0,0,0,0.1,0,0.1c0,0,0,0,0,0.1c0.4,0.7,1.6,0.6,2.1,0.5c2.3-0.5,5.7-1.7,8.8-3c0.3,0.9,1,1.5,2,1.6
		c3,0.1,6-1.1,8.4-2.5c-0.5,0.5-1,1.1-1,1.7c0,0-0.8,3.6,2.6,0.4c0.9-0.8,2.2-2.6,2.2-2.6C67.7,29.3,69.1,27.4,72.6,27.7"/>
	<path fill="#FFFFFF" d="M17.1,63.7l0.9,0.1c0,0,0.1,0,0.1,0c0.4,0,0.6-0.2,0.6-0.5c0-0.2,0-0.3-0.1-0.4c-0.1-0.1-0.3-0.2-0.6-0.2
		l-0.9-0.1L17.1,63.7z M16.9,66.1l-0.8-0.1l0.4-4.3l1.6,0.1c0.6,0,1,0.2,1.3,0.5c0.2,0.2,0.3,0.5,0.3,0.9c-0.1,0.7-0.6,1.1-1.6,1.1
		c-0.1,0-0.2,0-0.2,0L17,64.3L16.9,66.1z"/>
	<path fill="#FFFFFF" d="M25,64.2l0.9,0.1c0,0,0,0,0.1,0c0.6,0,0.7-0.2,0.7-0.5c0-0.3-0.1-0.5-0.7-0.6l-0.9-0.1L25,64.2z M27.6,67
		l-0.9-0.1l0-0.1c0-0.1,0-0.1,0-0.2c0-0.2-0.1-0.4-0.1-0.6c0-0.1,0-0.1,0-0.2c0-0.3,0-0.5-0.2-0.7C26.2,65,26.1,65,25.9,65
		c0,0-0.1,0-0.1,0L25,64.9l-0.1,1.9L24,66.7l0.3-4.3l1.7,0.1c1.1,0.1,1.6,0.5,1.6,1.2c0,0.5-0.3,0.8-0.7,1c0.3,0.2,0.4,0.5,0.4,0.9
		l0,0.2c0,0.4,0.1,0.7,0.2,1L27.6,67z"/>
	<polygon fill="#FFFFFF" points="35.7,67.4 32.6,67.3 32.8,63 35.9,63.1 35.8,63.8 33.6,63.7 33.6,64.8 35.7,64.9 35.6,65.6 
		33.5,65.5 33.5,66.6 35.7,66.8 	"/>
	<polygon fill="#FFFFFF" points="46.3,67.9 45.5,67.9 45.6,64.5 44.2,67.8 43.4,67.8 42.3,64.4 42.1,67.7 41.3,67.7 41.5,63.4 
		42.8,63.4 43.9,66.7 45.3,63.5 46.5,63.6 	"/>
	
		<rect x="50.3" y="65.5" transform="matrix(2.682799e-02 -0.9996 0.9996 2.682799e-02 -14.8299 116.6077)" fill="#FFFFFF" width="4.3" height="0.8"/>
	<path fill="#FFFFFF" d="M60.5,68.3L60.5,68.3c-0.7,0-1.2-0.2-1.5-0.5c-0.3-0.3-0.4-0.8-0.4-1.3l0-2.6l0.8,0l0,2.7
		c0,0.6,0.4,1,1.1,1h0c0.7,0,1.1-0.4,1.1-1l0-2.7l0.8,0l0,2.6c0,0.5-0.2,1-0.5,1.3C61.6,68.2,61.1,68.3,60.5,68.3"/>
	<polygon fill="#FFFFFF" points="73,68.3 72.2,68.3 72.2,65 70.9,68.3 70.1,68.3 68.8,65 68.8,68.3 68,68.3 68,64 69.3,64 
		70.6,67.3 71.8,64 73,64 	"/>
	<polygon fill="#FFFFFF" points="84.6,68.2 84.5,63.9 85.8,63.9 87.1,67.1 88.3,63.8 89.5,63.8 89.6,68.1 88.8,68.1 88.7,64.8 
		87.5,68.2 86.8,68.2 85.4,64.9 85.5,68.2 	"/>
	<polygon fill="#FFFFFF" points="95.2,67.9 95.1,63.6 98.1,63.5 98.1,64.2 95.9,64.3 95.9,65.4 98.1,65.3 98.1,66 96,66 96,67.2 
		98.3,67.1 98.3,67.8 	"/>
	<path fill="#FFFFFF" d="M105.5,64l-0.6,1.7l1.4-0.1L105.5,64z M103.4,67.6l1.8-4.4l0.8,0l2.2,4.2l-0.9,0l-0.5-1l-2,0.1l-0.4,1.1
		L103.4,67.6z"/>
	<polygon fill="#FFFFFF" points="113.5,67 113.3,63.3 111.8,63.5 111.7,62.8 115.6,62.5 115.6,63.2 114.1,63.3 114.4,66.9 	"/>
	<path fill="#FFFFFF" d="M122,66.4c-0.9,0-1.5-0.4-1.5-1.3l0-0.1l0.8-0.1l0,0.1c0,0.4,0.3,0.6,0.8,0.6c0.1,0,0.1,0,0.2,0
		c0.2,0,0.5-0.1,0.7-0.2c0.2-0.1,0.3-0.3,0.3-0.5c0-0.1,0-0.4-0.7-0.5c-0.1,0-0.1,0-0.2,0c-0.8-0.1-1.9-0.2-2-1.1
		c0-0.3,0.1-0.6,0.3-0.9c0.3-0.3,0.8-0.6,1.5-0.6c0.1,0,0.2,0,0.2,0c0.9,0,1.4,0.4,1.5,1.1l0,0.1l-0.8,0.1l0-0.1
		c-0.1-0.4-0.4-0.5-0.7-0.5c0,0-0.1,0-0.1,0c-0.3,0-0.6,0.1-0.8,0.3c-0.1,0.1-0.1,0.2-0.1,0.3c0,0.3,0.2,0.4,0.6,0.4
		c0.1,0,0.1,0,0.2,0c0.2,0,0.3,0.1,0.5,0.1c0.7,0.1,1.6,0.2,1.6,1.1c0,0.5-0.1,0.8-0.5,1.1c-0.4,0.3-0.9,0.4-1.3,0.4
		C122.1,66.4,122,66.4,122,66.4"/>
</g>
</svg>
