<?xml version="1.0" encoding="UTF-8" standalone="no"?>
<!DOCTYPE svg PUBLIC "-//W3C//DTD SVG 1.1//EN" "http://www.w3.org/Graphics/SVG/1.1/DTD/svg11.dtd">
<svg width="100%" height="100%" viewBox="0 0 32 32" version="1.1" xmlns="http://www.w3.org/2000/svg" xmlns:xlink="http://www.w3.org/1999/xlink" xml:space="preserve" xmlns:serif="http://www.serif.com/" style="fill-rule:evenodd;clip-rule:evenodd;stroke-linejoin:round;stroke-miterlimit:2;">
    <path d="M16,0C24.8,0 32,7.2 32,16C32,24.8 24.8,32 16,32C7.2,32 0,24.8 0,16C0,7.2 7.2,0 16,0Z" style="fill:url(#_Radial1);fill-rule:nonzero;"/>
    <path d="M16,0C24.8,0 32,7.2 32,16C32,24.8 24.8,32 16,32C7.2,32 0,24.8 0,16C0,7.2 7.2,0 16,0ZM16,0.436C24.56,0.436 31.564,7.44 31.564,16C31.564,24.56 24.56,31.564 16,31.564C7.44,31.564 0.436,24.56 0.436,16C0.436,7.44 7.44,0.436 16,0.436Z"/>
    <g transform="matrix(1.46046,0,0,1.46046,-7.75969,-4.4282)">
        <g transform="matrix(0.132232,0,0,0.132232,21.4825,15.3898)">
            <path d="M0,-26.618C-1.873,-28.663 -4.414,-30.525 -5.16,-32.885C-7.215,-33.71 -8.239,-34.828 -8.793,-36.07C-14.802,-41.633 -0.41,-59.259 -2.953,-69.811C-11.91,-72.879 -62.15,-83.841 -62.15,-83.841C-63.56,-75.385 -90.234,4.421 -91.218,8.891C-92.864,12.34 -94.148,19.749 -96.136,21.324C-96.952,21.752 -83.277,28.467 -65.009,54.721C-63.939,57.223 -56.858,56.293 -56.698,56.015C-45.561,57.178 -33.974,54.739 -19.28,56.677C-16.11,56.264 -16.321,55.952 -12.378,56.288C-10.298,57.118 -10.187,56.383 -8.268,56.6C-5.609,54.001 -7.168,55.518 -5.271,53.127C-6.905,51.719 -3.258,48.848 -2.759,46.842C-2.123,45.735 -1.49,44.629 -0.85,43.519C-2.002,42.372 1.383,36.464 2.956,36.874C4.546,34.108 6.134,31.337 7.715,28.569C9.028,27.384 9.571,24.683 10.724,22.309C12.629,18.987 14.02,16.484 15.925,13.163C17.564,11.462 21.023,4.183 21.179,2.969C22.799,-0.171 15.313,-6.294 15.038,-6.451L0,-26.618Z" style="fill:rgb(208,124,58);fill-rule:nonzero;"/>
        </g>
        <g transform="matrix(0.132232,0,0,0.132232,19.4413,7.92781)">
            <path d="M0,5.489C-1.78,4.141 1.737,1.48 2.511,1.247C4.295,2.593 0.773,5.255 0,5.489M-6.719,3.807C-7.805,3.163 -8.897,2.521 -9.985,1.874C-9.279,-0.105 -8.093,-0.041 -7.154,-1.037C-4.854,-0.021 -5.176,1.723 -6.719,3.807M5.964,0.995C2.38,-2.306 0.227,0.486 -2.577,0.529C-5.349,-3.787 -11.149,-4.536 -13.751,0.792C-12.974,10.025 -5.117,2.864 -0.69,8.52C2.28,7.543 5.735,5.316 5.964,0.995" style="fill-rule:nonzero;"/>
        </g>
        <g transform="matrix(0.132232,0,0,0.132232,17.9632,11.9577)">
            <path d="M0,5.077C9.074,20.539 27.845,-0.559 9.294,-3.176C4.376,-3.912 3.526,3.397 7.04,5.833C8.483,7.036 9.994,6.961 11.06,5.642C12.347,3.982 11.609,1.568 8.105,0.369C11.31,-4.485 18.592,2.951 12.844,7.539C9.728,9.084 9.038,9.601 6.828,8.664C5.774,8.297 4.558,7.449 3.881,7.038C-4.846,-0.986 11.694,-15.462 17.645,-0.528C16.734,-13.978 -3.203,-7.58 0,5.077" style="fill-rule:nonzero;"/>
        </g>
        <g transform="matrix(0.132232,0,0,0.132232,17.1503,10.5008)">
            <path d="M0,19.672C7.524,15.711 -0.27,3.628 -7.997,5.753C-14.604,8.026 -8.517,14.297 -7.363,11.692C-6.35,4.816 1.091,10.148 1.533,13.77C-0.038,23.606 -11.454,13.694 -12.127,12.706C-16.351,5.915 -11.29,-0.411 -5.059,0.699C0.544,2.455 -0.508,6.056 3.732,8.194C2.4,-2.115 -11.096,-3.934 -15.103,2.777C-19.55,10.22 -8.804,23.065 0,19.672" style="fill-rule:nonzero;"/>
        </g>
        <g transform="matrix(0.132232,0,0,0.132232,19.7982,15.5326)">
            <path d="M0,-13.745C-5.418,-4.968 8.919,6.29 15.698,-6.749C14.41,-11.394 6.825,-14.522 4.206,-7.817C4.58,-5.962 8.117,-3.869 9.92,-4.435C13.308,-7.268 5.28,-6.932 8.666,-9.764C10.699,-9.057 14.243,-9.094 13.057,-6.016C10.253,-0.247 0.564,-4.092 1.028,-11.018C2.685,-18.55 15.666,-18.99 18.52,-9.663C18.159,-19.975 3.886,-20.035 0,-13.745" style="fill-rule:nonzero;"/>
        </g>
        <g transform="matrix(0.132232,0,0,0.132232,16.8918,12.8826)">
            <path d="M0,17.36C4.202,22.001 13.307,20.324 14.697,11.153C12.489,7.532 7.918,6.934 4.708,7.54C2.916,8.765 3.825,13.372 5.085,13.584C6.631,14.094 7.645,12.993 8.962,11.875C8.285,9.401 6.643,13.41 4.7,10.556C3.268,6.161 11.194,9.344 11.581,9.829C11.969,10.312 11.963,12.05 11.663,12.554C11.498,12.934 11.044,14.243 10.815,14.535C9.094,18.531 4.224,16.742 1.613,15.628C-3.059,4.507 12.397,2.525 16.2,8.607C11.164,-4.641 -7.524,9.052 0,17.36" style="fill-rule:nonzero;"/>
        </g>
        <g transform="matrix(-0.00530916,-0.132125,-0.132125,0.00530916,19.3421,15.0987)">
            <path d="M-18.263,-20.251C-19.333,-10.184 -15.057,7.957 -14.68,19.067C-14.823,21.299 -18.275,20.781 -18.263,19.151C-20.967,6.327 -21.559,-6.675 -23.005,-19.258C-22.875,-24.006 -17.846,-23.658 -18.263,-20.251" style="fill-rule:nonzero;"/>
        </g>
        <g transform="matrix(-0.0816828,0.103986,0.103986,0.0816828,20.6154,19.8708)">
            <path d="M15.789,-31.324C22.682,-29.005 31.134,-27.418 39.441,-25.534C31.921,-11.991 21.648,-3.714 15.789,5.339C8.35,3.17 -0.627,2.138 -9.51,1.033C-1.608,-9.522 7.059,-21.797 15.789,-31.324" style="fill-rule:nonzero;"/>
        </g>
        <g transform="matrix(0.132232,0,0,0.132232,15.7549,7.036)">
            <path d="M0,7.198C0.87,1.776 7.153,3.999 7.725,7.186C5.87,10.255 3.117,9.494 0,7.198M-15.569,3.715C-13.157,1.044 -10.491,-0.561 -7.157,0.672C-7.624,1.511 -6.549,1.923 -6.026,2.486C-8.092,7.635 -11.59,6.705 -15.569,3.715M-3.075,3.087C-4.395,-3.394 -14.317,-6.125 -18.336,0.937C-18.669,1.501 -19.001,2.066 -19.339,2.635C-18.528,3.355 -18.624,4.325 -18.71,5.298C-12.413,10.153 -7.549,8.939 -3.262,5.266C-3.54,11.977 6.877,13.323 9.546,5.97C8.473,0.249 0.005,-0.796 -3.075,3.087" style="fill-rule:nonzero;"/>
        </g>
        <g transform="matrix(0.132232,0,0,0.132232,24.082,11.6916)">
            <path d="M0,33.37C-8.27,49.692 -20.793,66.902 -28,84.398C-46.174,80.789 -62.212,86.246 -80.238,83.287C-76.396,65.757 -64.067,49.917 -57.818,32.366C-50.696,33.642 -30.819,33.309 -15.541,33.218C-17.891,33.082 -20.257,32.877 -22.656,32.542C-22.634,32.524 -22.618,32.515 -22.596,32.496C-20.246,32.819 -17.927,33.023 -15.621,33.156C-10.5,33.449 -5.465,33.368 -0.433,33.293C-0.315,33.296 -0.193,33.302 -0.08,33.307C0.234,33.324 0.517,33.345 0.8,33.365C0.964,33.395 1.136,33.42 1.295,33.451C0.908,33.423 0.465,33.394 0,33.37M-114.203,49.43C-109.871,43.434 -110.986,41.784 -101.58,22.517C-94.223,2.013 -90.871,-10.494 -88.645,-17.969C-77.252,-8.363 -64.101,22.956 -62.024,26.436C-62.276,27.216 -61.706,27.77 -62.213,28.616C-61.661,30.357 -62.393,32.455 -63.594,34.68C-64.013,38.347 -66.744,42.648 -68.494,46.684C-70.62,48.928 -68.562,50.013 -70.689,52.258C-74.992,61.965 -80.31,71.956 -83.503,81.354C-94.281,70.865 -102.26,59.6 -114.203,49.43M-79.883,-52.016C-74.071,-56.159 -72.312,-49.422 -65.748,-48.688C-65.471,-49.499 -59.011,-46.815 -58.485,-46.568C-56.888,-47.655 -28.889,-40.619 -24.157,-39.417C-22.706,-31.539 -29.124,-21.483 -32.511,-12.261C-50.773,-16.234 -68.373,-17.405 -87.577,-25.364C-86.15,-29.777 -81.698,-47.492 -79.883,-52.016M-6.266,21.608C-4.843,23.34 -4.14,25.274 -1.555,26.689C0.312,27.587 0.627,28.918 -0.615,30.682C-3.06,29.253 -4.696,31.249 -7.019,30.332C-9.894,29.072 -12.088,30.684 -14.744,30.346C-16.331,31.456 -18.26,31.103 -20.046,31.356C-20.179,31.351 -20.308,31.344 -20.436,31.339C-20.504,31.351 -20.573,31.373 -20.641,31.389C-35.384,30.776 -50.855,30.894 -57.128,29.336C-63.387,12.861 -74.033,-2.394 -80.418,-18.838C-72.11,-17.583 -64.549,-15.855 -56.811,-14.034C-49.35,-12.279 -39.532,-12.166 -33.201,-9.229C-23.648,-4.807 -13.747,12.938 -6.266,21.608M-0.676,21.476C-0.949,21.315 -1.223,21.154 -1.495,20.992C-3.022,20.235 -2.601,18.936 -4.254,18.213L-8.003,13.374C-8.713,12.168 -9.663,11.028 -10.689,9.91L-17.377,1.277C-19.212,-0.814 -21.719,-2.721 -22.402,-5.136C-24.454,-5.984 -25.454,-7.125 -25.979,-8.401C-31.882,-14.093 -23.96,-23.623 -22.272,-31.423C-22.106,-31.709 -21.938,-31.991 -21.769,-32.272C-22.466,-34.918 -19.449,-38.593 -19.697,-41.36C-28.635,-44.512 -82.493,-57.269 -82.493,-57.269C-84.145,-48.623 -112.435,43.801 -116.302,49.098C-120.082,52.475 -118.231,50.691 -100.445,73.864C-97.373,78.921 -90.544,85.945 -84.384,88.293C-78.223,90.639 -48.638,84.629 -27.851,88.029C-25.097,88.109 -25.781,85.484 -22.778,79.874C-19.687,73.671 0.489,38.783 2.407,35.558C8.601,28.399 0.172,26.678 -0.676,21.476" style="fill-rule:nonzero;"/>
        </g>
    </g>
    <defs>
        <radialGradient id="_Radial1" cx="0" cy="0" r="1" gradientUnits="userSpaceOnUse" gradientTransform="matrix(16.6123,25.7521,-25.7521,16.6123,12.0321,7.0647)"><stop offset="0" style="stop-color:rgb(40,170,225);stop-opacity:1"/><stop offset="1" style="stop-color:rgb(0,43,147);stop-opacity:1"/></radialGradient>
    </defs>
</svg>
