<?xml version="1.0" encoding="UTF-8" standalone="no"?>
<!DOCTYPE svg PUBLIC "-//W3C//DTD SVG 1.1//EN" "http://www.w3.org/Graphics/SVG/1.1/DTD/svg11.dtd">
<svg width="100%" height="100%" viewBox="0 0 32 32" version="1.1" xmlns="http://www.w3.org/2000/svg" xmlns:xlink="http://www.w3.org/1999/xlink" xml:space="preserve" xmlns:serif="http://www.serif.com/" style="fill-rule:evenodd;clip-rule:evenodd;stroke-linejoin:round;stroke-miterlimit:2;">
    <g transform="matrix(1.94112,0,0,1.94112,-31.2215,-29.4491)">
        <circle cx="24.327" cy="23.414" r="8.243" style="fill:url(#_Linear1);"/>
        <path d="M24.327,15.171C28.876,15.171 32.57,18.865 32.57,23.414C32.57,27.963 28.876,31.657 24.327,31.657C19.778,31.657 16.084,27.963 16.084,23.414C16.084,18.865 19.778,15.171 24.327,15.171ZM24.327,15.48C28.706,15.48 32.261,19.035 32.261,23.414C32.261,27.793 28.706,31.347 24.327,31.347C19.948,31.347 16.393,27.793 16.393,23.414C16.393,19.035 19.948,15.48 24.327,15.48Z"/>
    </g>
    <g transform="matrix(1.12352,0,0,1.12352,-1.5687,-2.35928)">
        <g transform="matrix(1,0,0,1,0.309043,-0.337138)">
            <path d="M11.088,20.914C10.017,20.486 9.045,19.513 8.479,18.234C6.988,14.866 8.991,10.384 9.921,8.612L9.933,8.588C10.435,7.633 10.438,7.619 10.301,7.115C9.461,4.035 7.449,4.459 5.979,4.767C5.798,4.806 5.626,4.841 5.472,4.867C4.495,5.026 4.341,4.336 4.283,4.077C4.239,3.881 4.207,3.628 4.355,3.402C4.473,3.22 4.677,3.103 4.978,3.045C9.808,2.1 11.265,5.149 11.745,6.151L12,6.664C12.187,7.043 12.268,7.206 12.744,7.533C13.013,7.547 13.361,7.523 13.84,7.518C15.506,7.499 16.46,7.371 18.914,7.733C20.527,7.973 20.826,9.214 20.956,9.997C21.116,10.957 20.673,15.73 20.562,16.123C20.451,16.517 19.498,16.486 18.729,16.332C18.107,16.207 18.341,16.191 18.384,15.815C18.482,14.972 18.901,12.752 18.865,11.977C18.828,11.203 18.422,10.673 16.983,10.674C16.316,10.674 15.972,10.655 15.814,10.7C16.932,13.232 16.627,16.474 15.863,18.152C15.429,19.105 14.949,19.769 14.465,20.225C14.474,20.342 14.495,20.506 14.515,20.767C14.697,23.182 16.618,25.121 16.876,25.428C17.134,25.737 18.115,26.594 18.149,25.781C18.235,23.751 18.155,23.35 17.534,21.819C17.271,21.169 16.803,21.64 16.649,22.09C15.221,22.668 14.964,21.08 15.966,20.386C17.566,19.587 19.817,19.525 20.001,19.562C20.186,19.599 20.383,19.574 20.42,19.869C20.596,21.277 19.988,26.82 19.416,28.88C18.843,30.941 17.619,29.384 17.558,28.733C16.796,28.708 16.961,28.836 16.162,28.518C13.707,27.535 12.189,23.276 11.71,21.996C11.562,21.603 11.323,21.225 11.088,20.914ZM11.966,13.309C11.671,13.069 11.398,12.805 11.16,12.522C11.134,12.493 11.113,12.466 11.101,12.453C11.037,12.384 10.91,12.268 10.781,12.293C10.664,12.316 10.55,12.447 10.476,12.643L10.476,12.643C9.702,15.398 9.799,17.81 10.751,18.605C11.371,19.122 11.951,19.336 12.478,19.241C13.03,19.141 13.534,18.698 13.977,17.923C14.616,16.806 14.903,15.456 14.939,14.694C14.289,14.604 13.561,14.336 12.874,13.937C12.52,13.76 12.198,13.553 11.966,13.309ZM12.7,12.419C13.094,12.763 13.508,12.856 13.805,12.813C14.07,12.775 14.268,12.629 14.349,12.411C14.489,12.031 14.28,11.482 13.774,10.906C13.121,10.164 12.479,9.863 12.137,10.139C11.909,10.323 11.828,10.729 11.949,11.201C12.034,11.343 12.11,11.478 12.184,11.611C12.363,11.929 12.514,12.198 12.7,12.419Z" style="fill-rule:nonzero;stroke:black;stroke-width:0.89px;"/>
        </g>
        <g transform="matrix(1,0,0,1,0.309043,-0.337138)">
            <path d="M11.088,20.914C10.017,20.486 9.045,19.513 8.479,18.234C6.988,14.866 8.991,10.384 9.921,8.612L9.933,8.588C10.435,7.633 10.438,7.619 10.301,7.115C9.461,4.035 7.449,4.459 5.979,4.767C5.798,4.806 5.626,4.841 5.472,4.867C4.495,5.026 4.341,4.336 4.283,4.077C4.239,3.881 4.207,3.628 4.355,3.402C4.473,3.22 4.677,3.103 4.978,3.045C9.808,2.1 11.265,5.149 11.745,6.151L12,6.664C12.187,7.043 12.268,7.206 12.744,7.533C13.013,7.547 13.361,7.523 13.84,7.518C15.506,7.499 16.46,7.371 18.914,7.733C20.527,7.973 20.826,9.214 20.956,9.997C21.116,10.957 20.673,15.73 20.562,16.123C20.451,16.517 19.498,16.486 18.729,16.332C18.107,16.207 18.341,16.191 18.384,15.815C18.482,14.972 18.901,12.752 18.865,11.977C18.828,11.203 18.422,10.673 16.983,10.674C16.316,10.674 15.972,10.655 15.814,10.7C16.932,13.232 16.627,16.474 15.863,18.152C15.429,19.105 14.949,19.769 14.465,20.225C14.474,20.342 14.495,20.506 14.515,20.767C14.697,23.182 16.618,25.121 16.876,25.428C17.134,25.737 18.115,26.594 18.149,25.781C18.235,23.751 18.155,23.35 17.534,21.819C17.271,21.169 16.803,21.64 16.649,22.09C15.221,22.668 14.964,21.08 15.966,20.386C17.566,19.587 19.817,19.525 20.001,19.562C20.186,19.599 20.383,19.574 20.42,19.869C20.596,21.277 19.988,26.82 19.416,28.88C18.843,30.941 17.619,29.384 17.558,28.733C16.796,28.708 16.961,28.836 16.162,28.518C13.707,27.535 12.189,23.276 11.71,21.996C11.562,21.603 11.323,21.225 11.088,20.914ZM11.966,13.309C11.671,13.069 11.398,12.805 11.16,12.522C11.134,12.493 11.113,12.466 11.101,12.453C11.037,12.384 10.91,12.268 10.781,12.293C10.664,12.316 10.55,12.447 10.476,12.643L10.476,12.643C9.702,15.398 9.799,17.81 10.751,18.605C11.371,19.122 11.951,19.336 12.478,19.241C13.03,19.141 13.534,18.698 13.977,17.923C14.616,16.806 14.903,15.456 14.939,14.694C14.289,14.604 13.561,14.336 12.874,13.937C12.52,13.76 12.198,13.553 11.966,13.309ZM12.7,12.419C13.094,12.763 13.508,12.856 13.805,12.813C14.07,12.775 14.268,12.629 14.349,12.411C14.489,12.031 14.28,11.482 13.774,10.906C13.121,10.164 12.479,9.863 12.137,10.139C11.909,10.323 11.828,10.729 11.949,11.201C12.034,11.343 12.11,11.478 12.184,11.611C12.363,11.929 12.514,12.198 12.7,12.419Z" style="fill:white;fill-rule:nonzero;"/>
        </g>
    </g>
    <defs>
        <linearGradient id="_Linear1" x1="0" y1="0" x2="1" y2="0" gradientUnits="userSpaceOnUse" gradientTransform="matrix(6.41177,13.9669,-13.9669,6.41177,21.7651,15.2146)"><stop offset="0" style="stop-color:rgb(227,29,56);stop-opacity:1"/><stop offset="1" style="stop-color:rgb(154,0,21);stop-opacity:1"/></linearGradient>
    </defs>
</svg>
