<?xml version="1.0" encoding="utf-8"?>
<!-- Generator: Adobe Illustrator 26.1.0, SVG Export Plug-In . SVG Version: 6.00 Build 0)  -->
<svg version="1.1" id="Layer_1" xmlns="http://www.w3.org/2000/svg" xmlns:xlink="http://www.w3.org/1999/xlink" x="0px" y="0px"
	 viewBox="0 0 32 32" enable-background="new 0 0 32 32" xml:space="preserve">
<circle fill="#005CB9" cx="16" cy="15.8" r="16"/>
<g>
	<path fill="#FFFFFF" d="M16,4c3.3,0,6.3,1.4,8.4,3.7h2C24,4.5,20.2,2.5,16,2.5s-8,2-10.4,5.2h2C9.7,5.4,12.7,4,16,4z"/>
	<path fill="#FFFFFF" d="M16,27c-2.8,0-5.4-1-7.4-2.7H6.4c2.4,2.6,5.8,4.2,9.6,4.2s7.2-1.6,9.6-4.2h-2.2C21.4,26,18.8,27,16,27z"/>
</g>
<g>
	<path fill="#FFFFFF" d="M21,7.7v16.6h-4.3v-7h-1.3v7H11V7.7h4.3v5.9h1.3V7.7H21z"/>
</g>
</svg>
