<?xml version="1.0" encoding="UTF-8" standalone="no"?>
<!DOCTYPE svg PUBLIC "-//W3C//DTD SVG 1.1//EN" "http://www.w3.org/Graphics/SVG/1.1/DTD/svg11.dtd">
<svg width="100%" height="100%" viewBox="0 0 43 43" version="1.1" xmlns="http://www.w3.org/2000/svg" xmlns:xlink="http://www.w3.org/1999/xlink" xml:space="preserve" xmlns:serif="http://www.serif.com/" style="fill-rule:evenodd;clip-rule:evenodd;stroke-linejoin:round;stroke-miterlimit:2;">
    <g transform="matrix(0.0209375,0,0,0.0209375,-0.106667,-0.106667)">
        <g id="Layer-1" serif:id="Layer 1">
            <g transform="matrix(-1.17157e-13,4445.05,4445.05,1.17157e-13,1030,-2741.29)">
                <path d="M0.849,-0.216C0.968,-0.216 1.065,-0.119 1.065,0C1.065,0.119 0.968,0.216 0.849,0.216C0.729,0.216 0.632,0.119 0.632,0C0.632,-0.119 0.729,-0.216 0.849,-0.216Z" style="fill:url(#_Linear1);fill-rule:nonzero;"/>
            </g>
            <g transform="matrix(1,0,0,1,1185.82,1041.76)">
                <path d="M0,313.188L208.007,-231.298L428.248,313.189L0,313.188ZM302.835,-558.602L229.421,-558.602L-186.594,582.372C-187.328,584.428 -188.061,586.447 -188.794,588.484L-539.331,19.532L-208.967,-335.302C-141.671,-408.716 -71.316,-479.071 63.276,-479.071L63.277,-549.425L-456.739,-549.426L-456.739,-479.073C-343.559,-479.072 -288.499,-466.836 -288.499,-427.07C-288.499,-372.009 -319.088,-335.303 -380.267,-268.007L-826.87,236.713L-826.868,-341.421C-826.868,-442.365 -793.219,-479.072 -649.45,-479.072L-649.45,-549.427L-864.434,-549.427C-968.651,-401.853 -1029.9,-221.768 -1029.9,-27.366C-1029.9,187.593 -954.995,385.027 -829.929,540.374L-829.929,349.894L-673.924,178.595L-426.153,585.431C-386.387,652.728 -340.504,695.552 -340.504,756.731C-340.504,793.438 -398.623,802.614 -478.155,802.614L-478.155,806.786C-466.743,811.641 -455.191,816.226 -443.544,820.62C-377.695,845.46 -308.21,862.876 -236.08,871.79L-1.47,870.458C28.768,866.375 58.529,860.804 87.744,853.815L87.744,802.615C60.039,802.615 36.534,800.769 16.083,797.059C-53.243,784.485 -86.917,750.159 -125.366,690.921C-124.316,632.203 -63.943,511.003 -30.589,395.779L455.779,395.78C484.07,457.078 513.955,530.46 536.348,593.163C590.928,535.118 637.932,469.883 675.8,399.017L302.835,-558.602Z" style="fill:white;fill-rule:nonzero;"/>
            </g>
            <g transform="matrix(1,0,0,1,1182.12,2019.86)">
                <path d="M0,-64.142C23.112,-59.95 49.677,-57.863 80.988,-57.863L80.987,0C83.659,-0.64 86.325,-1.293 88.989,-1.953L88.989,-61.32C55.121,-61.32 25.688,-62.233 0,-64.142" style="fill:white;fill-rule:nonzero;"/>
            </g>
            <g transform="matrix(1,0,0,1,1024,2048)">
                <path d="M0,-2048C-565.539,-2048 -1024,-1589.54 -1024,-1024C-1024,-458.461 -565.539,0 0,0C565.539,0 1024,-458.461 1024,-1024C1024,-1589.54 565.539,-2048 0,-2048M0,-1888C116.71,-1888 229.843,-1865.18 336.259,-1820.17C387.42,-1798.53 436.777,-1771.74 482.959,-1740.54C528.743,-1709.61 571.803,-1674.08 610.94,-1634.94C650.078,-1595.8 685.605,-1552.74 716.537,-1506.96C747.737,-1460.78 774.529,-1411.42 796.168,-1360.26C841.178,-1253.84 864,-1140.71 864,-1024C864,-907.29 841.178,-794.157 796.168,-687.741C774.529,-636.58 747.737,-587.223 716.537,-541.041C685.605,-495.257 650.078,-452.197 610.94,-413.06C571.803,-373.922 528.743,-338.395 482.959,-307.463C436.777,-276.263 387.42,-249.471 336.259,-227.832C229.843,-182.822 116.71,-160 0,-160C-116.71,-160 -229.843,-182.822 -336.259,-227.832C-387.42,-249.471 -436.777,-276.263 -482.959,-307.463C-528.743,-338.395 -571.803,-373.922 -610.94,-413.06C-650.078,-452.197 -685.605,-495.257 -716.537,-541.041C-747.737,-587.223 -774.529,-636.58 -796.168,-687.741C-841.178,-794.157 -864,-907.29 -864,-1024C-864,-1140.71 -841.178,-1253.84 -796.168,-1360.26C-774.529,-1411.42 -747.737,-1460.78 -716.537,-1506.96C-685.605,-1552.74 -650.078,-1595.8 -610.94,-1634.94C-571.803,-1674.08 -528.743,-1709.61 -482.959,-1740.54C-436.777,-1771.74 -387.42,-1798.53 -336.259,-1820.17C-229.843,-1865.18 -116.71,-1888 0,-1888" style="fill:rgb(12,79,110);fill-rule:nonzero;"/>
            </g>
        </g>
    </g>
    <defs>
        <linearGradient id="_Linear1" x1="0" y1="0" x2="1" y2="0" gradientUnits="userSpaceOnUse" gradientTransform="matrix(8.99878e-11,-1,-1,-8.99878e-11,0.848506,0.848506)"><stop offset="0" style="stop-color:rgb(0,174,239);stop-opacity:1"/><stop offset="0.6" style="stop-color:rgb(0,174,239);stop-opacity:1"/><stop offset="0.9" style="stop-color:rgb(0,147,198);stop-opacity:1"/><stop offset="1" style="stop-color:rgb(12,79,110);stop-opacity:1"/></linearGradient>
    </defs>
</svg>
