<?xml version="1.0" encoding="utf-8"?>
<!-- Generator: Adobe Illustrator 25.0.1, SVG Export Plug-In . SVG Version: 6.00 Build 0)  -->
<svg version="1.1" id="Layer_1" xmlns="http://www.w3.org/2000/svg" xmlns:xlink="http://www.w3.org/1999/xlink" x="0px" y="0px"
	 viewBox="0 0 250.55 154.55" enable-background="new 0 0 250.55 154.55" xml:space="preserve">
<rect fill="#939598" width="250.55" height="154.55"/>
<g>
	<path d="M85.22,70.05c6.86,0,10.5-4.55,10.5-14.18l0-18.6c0-9.63-3.64-14.18-10.5-14.18l-9.86,0l0,41.04
		c0,2.41-1.02,4.29-4.39,4.29v1.63h4.23H85.22z M82.01,29.72h2.3c3.54,0,4.77,1.63,4.77,6.57l0,20.55c0,4.94-1.23,6.57-4.77,6.57
		h-2.3L82.01,29.72z"/>
	<path d="M105.89,59.64h7.29l1.18,10.41h5.79H125l16.6,0l0,0h21.86l0-7.02h-10.45l0-39.94h-6.64l0,34.28v6.44
		c0,3.95-1.65,4.22-4.59,4.6c-3.48-0.19-5.47-0.47-5.47-4.6l0-40.72h-6.59l0.05,34.28l0,6.44c0,3.94-1.64,4.22-4.57,4.59
		c-3.41-0.19-4.81-0.48-5.43-4.59l-6.11-40.72h-8.25l-7.13,46.96h6.22L105.89,59.64z M109.48,32.46h0.11l2.62,20.16h-5.36
		L109.48,32.46z"/>
	<path d="M171.59,63.81c-0.16,4.03-1.71,4.23-4.82,4.62l0,1.63h11.47l0-19.51l8.04-27.45h-6.75l-4.45,17.89h-0.11l-4.66-17.89h-6.75
		l8.04,27.45V63.81z"/>
	<path d="M66.34,79.34c0-15.09-5.71-22.22-16.46-22.22H43.4c-5.03-5.88-9.04-11.42-8.42-29.04c-8.19,8.52-3.37,25.29-0.56,32.9
		v60.47c0,3.77-1.6,6.73-6.89,6.73v2.55h6.64h15.7c10.75,0,16.46-7.14,16.46-22.22V79.34z M55.93,110.02c0,7.75-1.93,10.3-7.48,10.3
		h-3.61v-52.8h3.61c5.54,0,7.48,2.55,7.48,10.3V110.02z"/>
	<path d="M78.18,106.78h9.86v-8.08h-9.86V84.8h13c-0.06,0-0.06-0.9-0.06-2.09c0-2.39,0.06-5.98,0.06-5.98H70.54v40.98v5.83
		c0,4.64-1.97,4.86-5.48,5.31v1.87h26.8v-8.08H78.18V106.78z"/>
	<path d="M128.28,123.76l0.06-10.77V76.72h-10.1l-5.42,31.56h-0.12l-5.17-31.56H97.23v46.81c0,4.64-1.72,4.86-5.24,5.31v1.87
		c0,0,5.11,0,5.05,0.22h6.84v-42.4h0.12l6.9,42.17h3.7l6.9-42.17h0.12v42.17h7.21c0.06,0.22,6.22,0.22,6.22,0.22v-1.87
		C130.75,128.84,128.28,128.69,128.28,123.76z"/>
	<path d="M145.83,75.98c-8.01,0-11.7,6.21-11.7,13.83v27.82c0,7.63,3.7,13.83,11.7,13.83s11.7-6.21,11.7-13.83V89.81
		C157.53,82.18,153.84,75.98,145.83,75.98z M149.89,117.4c0,4.04-0.99,5.98-4.07,5.98s-4.07-1.94-4.07-5.98V90.03
		c0-4.04,0.99-5.98,4.07-5.98s4.07,1.94,4.07,5.98V117.4z"/>
	<path d="M185.95,123.76V76.72h-6.9v30.88h-0.12l-9.3-30.88h-7.08v53.99h6.9V97.96l9.86,32.75h6.65c0.25,0.22,6.78,0.22,6.78,0.22
		v-1.87C188.41,128.84,185.95,128.69,185.95,123.76z"/>
	<path d="M202.55,75.98c0-4.44,1.79-7,5.03-7c2.27,0,5.2,1.58,5.6,7.68l9.34-1.28c-0.48-5.23-1.98-9.4-4.49-12.44
		c2.82-8.12,6.64-23.45-1.07-31.46c0.56,15.67-2.56,21.79-6.79,27.09c-0.8-0.14-1.61-0.23-2.42-0.23c-9.9,0-14.77,7.39-14.77,17.74
		c0,20.4,20.7,24.14,20.7,38.24c0,4.24-2.6,6.5-6.09,6.5c-3.84,0-5.72-3.05-6.3-9.22c1.75-0.76,3.47-1.41,4.22-1.38
		c1.32,0.05-9.65-3.28-12.06-8.55c0.48,6.79-5.5,15.93-5.5,15.93c1.81-0.88,3.24-1.54,4.38-2.05c1.26,8.91,5.85,15.91,14.76,15.91
		c9.42,0,15.91-6.5,15.91-18.23C223.01,93.91,202.55,88.1,202.55,75.98z"/>
</g>
</svg>
