<?xml version="1.0" encoding="UTF-8" standalone="no"?><!DOCTYPE svg PUBLIC "-//W3C//DTD SVG 1.1//EN" "http://www.w3.org/Graphics/SVG/1.1/DTD/svg11.dtd">
<svg width="100%" height="100%" viewBox="0 0 2267 1000" version="1.1" xmlns="http://www.w3.org/2000/svg" xmlns:xlink="http://www.w3.org/1999/xlink" xml:space="preserve" xmlns:serif="http://www.serif.com/" style="fill-rule:evenodd;clip-rule:evenodd;stroke-miterlimit:10;"><g><g id="Art"><g><path d="M1247.71,150.236c-15.081,13.353 -20.108,41.315 -32.989,58.909c-22.779,-24.035 -46.657,-46.656 -72.263,-67.078c-11.781,2.828 -22.621,6.755 -32.675,12.41c-9.582,-5.812 -20.422,-10.211 -32.36,-13.51c-25.921,19.794 -50.27,41.63 -74.148,64.879c-11.782,-17.594 -16.337,-46.028 -31.261,-59.538c-173.9,-39.272 -322.98,-66.135 -494.681,-109.335c3.77,13.353 4.556,35.817 33.932,73.204c0.314,0.315 13.51,3.142 13.824,16.338c0.314,0.314 14.452,0.628 16.651,15.081c0.315,0.314 14.139,-1.257 18.223,12.41c3.456,-1.257 13.353,-4.084 19.165,10.211c3.77,-1.257 12.41,-3.456 18.223,8.326c0.314,-0 13.353,-6.127 21.364,7.069l0.314,0.314l0.315,-0.314c3.77,-2.199 11.782,-5.498 20.107,5.498l0.315,0.314l0.314,0c1.885,-1.571 11.782,-8.326 21.678,4.87c1.885,-1.571 11.782,-8.326 21.051,4.084c3.141,-2.513 11.467,-7.383 21.05,3.771c2.513,-2.2 11.468,-8.64 21.679,3.456c1.885,-1.885 11.467,-9.269 22.307,3.456c1.885,-1.571 11.467,-9.583 22.307,3.456c1.885,-1.571 11.467,-9.583 22.307,3.456c2.513,-2.2 11.467,-8.955 21.992,3.456c3.456,-2.514 11.782,-6.755 21.365,4.555c2.827,-2.199 11.467,-7.697 21.05,4.085c3.142,-2.2 12.41,-7.384 21.679,6.126c10.211,2.514 20.422,5.184 30.633,8.326c-40.687,-3.142 -71.634,-0.942 -113.892,-6.441c-37.388,-17.908 -139.968,-21.364 -268.941,-44.771c4.085,9.583 9.269,20.736 25.606,24.978c16.338,4.398 158.192,20.736 158.192,20.736l-164.318,-13.824c1.257,4.398 9.582,21.364 24.035,22.307c14.452,1.257 155.678,14.452 155.678,14.452l-157.249,-8.954c1.885,5.498 6.126,20.108 29.062,21.679c16.337,0.942 142.325,11.153 142.325,11.153l-143.268,-4.084c3.142,9.897 10.525,19.165 27.491,22.621c16.966,3.77 106.823,-3.77 169.188,-2.199c24.977,0.628 13.353,-14.453 50.269,-8.326c11.468,1.571 46.342,6.441 67.392,11.782c0,-0 -2.199,3.142 -13.509,9.268c-59.852,30.319 -90.799,-4.084 -172.33,-3.456c-50.269,2.828 -74.461,24.349 -84.986,40.687c31.732,63.936 128.815,37.702 206.261,15.081c28.748,-3.456 61.108,1.256 81.53,7.069c-68.492,19.165 -146.409,30.633 -215.215,49.484c20.422,79.017 132.114,49.798 199.82,19.165c-37.387,18.537 -74.775,36.759 -107.45,52.154c41.629,66.764 108.707,-0.314 151.279,0.629c-27.805,14.452 -57.181,27.176 -78.075,51.526c50.27,-3.771 407.025,1.256 457.294,6.126c-20.422,-24.977 -49.484,-38.33 -76.975,-54.039c42.572,0.314 107.451,68.806 151.279,3.77c-32.361,-16.652 -69.12,-35.503 -106.194,-55.296c67.078,32.36 177.514,64.878 200.449,-13.51c-68.178,-20.422 -146.095,-34.246 -213.959,-55.296c20.422,-5.499 53.097,-9.269 81.531,-4.87c76.975,24.663 172.958,53.411 206.575,-9.583c-9.897,-16.966 -33.303,-38.959 -83.73,-43.2c-81.844,-2.828 -113.263,30.633 -172.329,-1.257c-11.153,-6.441 -13.353,-9.582 -13.353,-9.582c21.051,-4.399 56.553,-8.64 67.707,-9.583c37.387,-5.498 24.977,9.583 50.269,9.583c62.051,0.314 151.907,9.896 169.188,6.755c16.965,-3.456 24.977,-12.097 28.119,-22.307l-143.268,0.314c0,-0 126.616,-6.755 142.64,-7.069c22.778,-0.629 27.491,-15.081 29.69,-20.736l-158.191,4.398c-0,0 141.382,-9.582 155.992,-10.211c14.452,-0.628 23.092,-16.966 24.663,-21.993l-164.632,9.269c0,-0 142.325,-12.41 158.662,-16.338c16.652,-4.084 22.307,-14.452 26.549,-24.349c-129.758,19.794 -232.181,20.422 -269.883,37.388c-42.258,4.555 -73.205,1.571 -114.206,3.77c10.211,-2.828 20.736,-5.184 30.947,-7.383c9.583,-13.353 18.851,-7.698 21.993,-5.498c9.897,-11.468 18.537,-5.499 21.364,-3.142c9.583,-11.782 18.223,-6.441 21.365,-4.085c10.839,-11.782 19.793,-4.87 21.993,-2.827c11.467,-12.725 20.422,-4.399 22.307,-2.828c11.467,-12.724 20.422,-4.399 22.307,-2.513c11.153,-12.411 20.107,-4.556 22.307,-2.828c10.525,-11.782 19.479,-5.184 21.993,-2.828c9.896,-11.153 18.222,-5.498 21.364,-3.142c9.897,-12.096 19.479,-5.184 21.364,-3.77c9.897,-13.038 19.794,-6.126 21.679,-4.398l0.314,0.314l0.314,-0.314c8.64,-11.154 16.966,-7.384 20.108,-4.87l0.314,0.314l0.314,-0.314c8.326,-13.039 21.365,-6.441 21.365,-6.441c6.126,-11.782 14.767,-9.268 18.537,-7.697c6.126,-13.824 16.023,-11.154 19.479,-9.583c4.556,-13.824 18.223,-11.782 18.537,-11.782c2.513,-14.452 16.652,-14.452 16.966,-14.452c0.628,-13.51 14.138,-15.709 14.452,-16.024c30.319,-36.445 32.047,-59.223 35.817,-72.262c-176.257,38.174 -325.965,60.323 -501.75,95.198Z" style="fill-rule:nonzero;stroke:#000;stroke-width:32.35px;"/><path d="M1247.71,150.236c-15.081,13.353 -20.108,41.315 -32.989,58.909c-22.779,-24.035 -46.657,-46.656 -72.263,-67.078c-11.781,2.828 -22.621,6.755 -32.675,12.41c-9.582,-5.812 -20.422,-10.211 -32.36,-13.51c-25.921,19.794 -50.27,41.63 -74.148,64.879c-11.782,-17.594 -16.337,-46.028 -31.261,-59.538c-173.9,-39.272 -322.98,-66.135 -494.681,-109.335c3.77,13.353 4.556,35.817 33.932,73.204c0.314,0.315 13.51,3.142 13.824,16.338c0.314,0.314 14.452,0.628 16.651,15.081c0.315,0.314 14.139,-1.257 18.223,12.41c3.456,-1.257 13.353,-4.084 19.165,10.211c3.77,-1.257 12.41,-3.456 18.223,8.326c0.314,-0 13.353,-6.127 21.364,7.069l0.314,0.314l0.315,-0.314c3.77,-2.199 11.782,-5.498 20.107,5.498l0.315,0.314l0.314,0c1.885,-1.571 11.782,-8.326 21.678,4.87c1.885,-1.571 11.782,-8.326 21.051,4.084c3.141,-2.513 11.467,-7.383 21.05,3.771c2.513,-2.2 11.468,-8.64 21.679,3.456c1.885,-1.885 11.467,-9.269 22.307,3.456c1.885,-1.571 11.467,-9.583 22.307,3.456c1.885,-1.571 11.467,-9.583 22.307,3.456c2.513,-2.2 11.467,-8.955 21.992,3.456c3.456,-2.514 11.782,-6.755 21.365,4.555c2.827,-2.199 11.467,-7.697 21.05,4.085c3.142,-2.2 12.41,-7.384 21.679,6.126c10.211,2.514 20.422,5.184 30.633,8.326c-40.687,-3.142 -71.634,-0.942 -113.892,-6.441c-37.388,-17.908 -139.968,-21.364 -268.941,-44.771c4.085,9.583 9.269,20.736 25.606,24.978c16.338,4.398 158.192,20.736 158.192,20.736l-164.318,-13.824c1.257,4.398 9.582,21.364 24.035,22.307c14.452,1.257 155.678,14.452 155.678,14.452l-157.249,-8.954c1.885,5.498 6.126,20.108 29.062,21.679c16.337,0.942 142.325,11.153 142.325,11.153l-143.268,-4.084c3.142,9.897 10.525,19.165 27.491,22.621c16.966,3.77 106.823,-3.77 169.188,-2.199c24.977,0.628 13.353,-14.453 50.269,-8.326c11.468,1.571 46.342,6.441 67.392,11.782c0,-0 -2.199,3.142 -13.509,9.268c-59.852,30.319 -90.799,-4.084 -172.33,-3.456c-50.269,2.828 -74.461,24.349 -84.986,40.687c31.732,63.936 128.815,37.702 206.261,15.081c28.748,-3.456 61.108,1.256 81.53,7.069c-68.492,19.165 -146.409,30.633 -215.215,49.484c20.422,79.017 132.114,49.798 199.82,19.165c-37.387,18.537 -74.775,36.759 -107.45,52.154c41.629,66.764 108.707,-0.314 151.279,0.629c-27.805,14.452 -57.181,27.176 -78.075,51.526c50.27,-3.771 112.478,10.21 155.364,-4.399c-71.948,-132.742 1.257,-294.861 78.074,-355.498c75.09,62.365 144.21,226.683 68.492,357.54c42.258,16.023 104.937,3.77 155.05,8.64c-20.422,-24.977 -49.484,-38.33 -76.975,-54.039c42.572,0.314 107.45,68.806 151.279,3.77c-32.361,-16.652 -69.12,-35.503 -106.194,-55.296c67.078,32.361 177.513,64.878 200.449,-13.51c-68.178,-20.422 -146.095,-34.246 -213.959,-55.296c20.422,-5.499 53.097,-9.269 81.531,-4.87c76.975,24.663 172.957,53.411 206.575,-9.583c-9.897,-16.966 -33.303,-38.959 -83.73,-43.2c-81.844,-2.828 -113.263,30.633 -172.329,-1.257c-11.154,-6.44 -13.353,-9.582 -13.353,-9.582c21.05,-4.399 56.553,-8.64 67.706,-9.583c37.388,-5.498 24.978,9.583 50.27,9.583c62.051,0.314 151.907,9.896 169.187,6.755c16.966,-3.456 24.978,-12.096 28.12,-22.307l-143.268,0.314c0,-0 126.616,-6.755 142.639,-7.069c22.779,-0.629 27.491,-15.081 29.691,-20.736l-157.563,4.555c-0,0 141.382,-9.582 155.992,-10.211c14.452,-0.628 23.092,-16.966 24.663,-21.992l-165.26,9.268c-0,-0 142.325,-12.41 158.662,-16.338c16.652,-4.084 22.307,-14.452 26.549,-24.349c-129.758,19.794 -232.182,20.422 -269.883,37.388c-42.258,4.556 -73.205,1.571 -114.206,3.77c10.211,-2.827 20.736,-5.184 30.947,-7.383c9.583,-13.353 18.851,-7.698 21.993,-5.498c9.897,-11.468 18.537,-5.499 21.364,-3.142c9.583,-11.782 18.223,-6.441 21.365,-4.085c10.839,-11.781 19.793,-4.869 21.993,-2.827c11.467,-12.725 20.421,-4.399 22.307,-2.828c11.467,-12.724 20.421,-4.398 22.307,-2.513c11.153,-12.411 20.107,-4.556 22.307,-2.828c10.525,-11.782 19.479,-5.184 21.992,-2.828c9.897,-11.153 18.223,-5.498 21.365,-3.141c9.897,-12.096 19.479,-5.184 21.364,-3.771c9.897,-13.038 19.794,-6.126 21.679,-4.398l0.314,0.314l0.314,-0.314c8.64,-11.154 16.966,-7.383 20.108,-4.87l0.314,0.314l0.314,-0.314c8.326,-13.039 21.365,-6.441 21.365,-6.441c6.126,-11.782 14.766,-9.268 18.537,-7.697c6.126,-13.824 16.023,-11.154 19.479,-9.583c4.556,-13.824 18.222,-11.782 18.537,-11.782c2.513,-14.452 16.651,-14.452 16.966,-14.452c0.628,-13.51 14.138,-15.709 14.452,-16.023c30.319,-36.446 32.047,-59.224 35.817,-72.263c-175.943,37.86 -325.651,60.009 -501.436,94.884Z" style="fill:#28aae1;fill-rule:nonzero;"/></g><path d="M1258.24,265.227c-6.441,-7.384 -15.709,-14.139 -18.537,-22.621c-7.383,-3.142 -11.153,-6.755 -13.039,-11.468c-21.678,-19.794 30.319,-83.416 21.051,-121.432c-32.047,-11.153 -212.702,-50.269 -212.702,-50.269c-4.87,30.319 -101.01,317.168 -104.309,333.191c-5.812,12.41 -10.525,38.959 -17.594,44.771c-3.142,1.571 46.028,25.606 111.849,119.861c4.084,9.268 29.376,5.498 30.004,4.556c40.216,4.084 81.845,-4.556 134.628,2.513c11.468,-1.257 10.525,-2.513 24.977,-1.257c7.384,3.142 8.012,0.314 14.453,1.257c9.582,-9.268 4.084,-4.084 10.839,-12.41c-5.812,-4.87 7.069,-15.395 9.269,-22.621c2.199,-4.085 4.555,-8.012 6.754,-11.782c-4.084,-4.085 8.012,-25.292 13.825,-23.721c5.812,-9.897 11.467,-19.794 16.965,-30.005c4.556,-4.084 6.441,-14.138 10.84,-22.307c6.755,-11.781 11.782,-21.05 18.851,-32.989c5.812,-6.126 18.222,-32.361 18.851,-36.759c5.812,-11.468 -21.051,-32.989 -22.307,-33.932l-54.668,-72.576Z" style="fill:#fc840d;fill-rule:nonzero;"/><g><path d="M1223.99,161.703c-13.039,-11.781 -20.736,-1.885 -30.633,-1.57c-9.897,-15.395 -30.633,-18.223 -40.215,0.942c2.827,32.989 30.947,7.383 46.97,27.805c10.839,-3.613 23.25,-11.782 23.878,-27.177Zm-45.4,9.897c-4.084,-2.199 -7.697,-4.555 -11.781,-6.755c2.513,-7.069 6.755,-6.755 10.211,-10.525c8.325,3.77 7.069,9.897 1.57,17.28Zm24.35,6.127c-6.441,-4.87 6.44,-14.453 9.268,-15.081c6.284,4.87 -6.441,14.138 -9.268,15.081Z" style="fill-rule:nonzero;"/><path d="M1162.57,285.806c32.675,55.61 100.067,-20.108 33.304,-29.691c-17.595,-2.827 -20.737,23.407 -8.012,32.361c5.184,4.399 10.525,4.085 14.452,-0.628c4.556,-6.127 1.885,-14.453 -10.525,-19.165c11.782,-17.28 37.702,9.268 16.966,25.606c-11.468,5.498 -13.51,7.383 -21.679,4.084c-4.084,-1.257 -8.325,-4.399 -10.525,-5.812c-31.261,-28.748 28.12,-80.902 49.484,-27.177c-3.299,-48.07 -74.933,-24.978 -63.465,20.422Z" style="fill-rule:nonzero;"/><path d="M1140.26,298.844c27.177,-14.452 -1.257,-57.809 -28.748,-49.955c-23.72,8.326 -1.885,30.633 2.2,21.365c3.77,-24.664 30.318,-5.499 32.046,7.383c-5.498,35.503 -46.656,-0.314 -49.169,-4.084c-15.081,-24.35 3.142,-47.285 25.291,-43.201c20.108,6.441 16.338,19.48 31.576,26.863c-4.556,-37.074 -53.411,-43.514 -67.707,-19.479c-15.552,27.177 23.093,73.204 54.511,61.108Z" style="fill-rule:nonzero;"/><path d="M1212.52,315.182c-19.479,31.575 32.047,72.262 56.553,24.977c-4.555,-16.651 -31.732,-27.805 -41.001,-4.084c1.257,6.441 14.139,14.138 20.422,12.096c12.096,-10.211 -16.652,-8.954 -4.398,-19.165c7.069,2.513 20.107,2.513 15.709,13.51c-9.897,20.736 -44.771,6.755 -43.2,-17.909c6.126,-27.177 52.468,-28.747 62.679,4.87c-1.571,-36.445 -52.783,-36.759 -66.764,-14.295Z" style="fill-rule:nonzero;"/><path d="M1133.51,355.083c15.081,16.652 47.913,10.839 52.783,-22.307c-8.012,-13.039 -24.349,-15.081 -35.817,-13.039c-6.441,4.399 -3.142,21.051 1.257,21.993c5.498,1.885 9.268,-2.199 13.824,-6.126c-2.514,-8.954 -8.326,5.498 -15.081,-4.556c-5.184,-15.709 23.093,-4.398 24.978,-2.513c1.256,1.571 1.256,8.011 0.314,9.582c-0.629,1.257 -2.199,6.127 -3.142,7.069c-6.127,14.453 -23.721,8.012 -32.989,4.085c-16.966,-40.216 38.644,-46.971 52.468,-24.978c-18.379,-48.227 -85.772,1.1 -58.595,30.79Z" style="fill-rule:nonzero;"/><path d="M1275.52,415.563c-35.817,5.184 -101.638,-7.383 -141.697,-7.069c-8.011,0.943 -5.498,13.353 0.315,13.039c46.342,7.697 93.312,8.011 138.711,11.782c16.966,-1.728 14.767,-19.637 2.671,-17.752Z" style="fill-rule:nonzero;"/><path d="M1110.88,457.507c-8.954,24.663 -22.778,51.84 -36.131,79.645c54.982,8.954 101.324,-1.885 139.969,1.571c10.525,-25.92 27.491,-53.725 43.828,-80.902c-47.285,-0.628 -101.01,-3.299 -147.666,-0.314Z" style="fill-rule:nonzero;"/><path d="M1091.56,144.738c-4.556,-23.093 -40.53,-32.99 -54.668,-7.698c-1.257,1.885 -2.514,4.084 -3.77,6.127c3.142,2.513 2.513,6.126 2.199,9.582c22.621,17.28 40.215,13.039 55.61,0c-1.256,24.035 36.446,29.062 46.028,2.514c-4.084,-20.736 -34.403,-24.35 -45.399,-10.525Zm-44.771,2.513c8.64,-9.583 18.222,-15.395 30.318,-11.153c-1.571,3.141 2.2,4.398 4.085,6.44c-7.541,18.851 -20.265,15.238 -34.403,4.713Zm55.767,12.567c3.142,-19.793 25.606,-11.782 27.491,0c-6.441,10.84 -16.337,8.012 -27.491,0Z" style="fill-rule:nonzero;"/><path d="M1326.57,337.489c-1.257,-0.629 -1.885,-1.257 -3.142,-1.571c-5.498,-2.828 -4.085,-7.383 -9.897,-9.897l-13.51,-17.28c-2.513,-4.398 -6.126,-8.64 -9.582,-12.41l-24.035,-30.947c-6.441,-7.383 -15.395,-14.453 -17.909,-22.778c-7.383,-3.142 -11.153,-7.07 -13.038,-11.782c-21.365,-20.422 7.069,-54.668 13.352,-82.788c0.629,-1.256 1.257,-1.885 1.885,-3.141c-2.513,-9.269 8.326,-22.622 7.384,-32.675c-32.047,-11.468 -225.741,-57.182 -225.741,-57.182c-5.812,30.947 -107.45,363.196 -121.746,382.361c-13.51,12.096 -6.755,5.812 56.867,88.914c11.154,18.222 35.503,43.514 57.81,51.84c22.307,8.64 128.501,-13.353 203.277,-0.943c9.896,0.315 7.383,-9.268 18.222,-29.376c11.154,-22.307 83.73,-147.666 90.799,-159.29c22.307,-26.078 -8.326,-32.204 -10.996,-51.055Zm-20.108,0.628c5.184,6.441 7.697,13.353 16.966,18.223c6.441,3.456 7.697,8.011 3.456,14.452c-8.954,-5.184 -14.453,1.885 -22.778,-1.257c-10.211,-4.398 -18.223,1.257 -27.491,0c-5.813,4.085 -12.725,2.828 -19.166,3.771l-1.256,-0c-0.315,-0 -0.629,-0 -0.943,0.314c-53.097,-2.199 -108.707,-1.571 -131.171,-7.383c-22.307,-59.224 -60.795,-114.206 -83.73,-173.272c30.004,4.398 56.867,10.839 84.986,16.966c26.863,6.44 62.052,6.44 84.987,16.965c33.775,16.338 68.963,79.96 96.14,111.221Zm-264.699,-264.699c21.05,-14.767 27.177,9.268 50.897,11.782c1.257,-3.142 24.35,6.441 25.921,7.697c5.812,-4.084 106.508,21.365 123.159,25.606c5.184,28.12 -17.908,64.565 -30.318,97.554c-65.822,-14.452 -128.815,-18.537 -197.936,-46.97c5.813,-15.709 21.836,-79.646 28.277,-95.669Zm-123.16,364.766c15.395,-21.678 11.782,-27.491 45.399,-96.611c26.549,-73.833 38.331,-118.604 46.342,-145.781c40.687,34.56 87.972,147.038 95.669,159.605c-0.942,2.828 1.257,4.556 -0.628,7.698c1.885,6.44 -0.629,13.824 -4.87,21.993c-1.257,13.352 -11.468,28.747 -17.594,43.2c-7.698,8.011 -0.314,11.782 -8.012,19.793c-15.395,34.875 -34.56,70.691 -46.028,104.309c-38.958,-37.388 -67.706,-77.76 -110.278,-114.206Zm410.323,-57.809c-30.004,58.752 -74.776,120.489 -100.696,183.483c-65.193,-13.039 -122.845,6.44 -187.724,-4.085c13.824,-62.993 58.124,-119.861 80.588,-182.854c25.606,4.555 96.925,3.456 151.907,3.142c-8.64,-0.629 -16.965,-1.257 -25.605,-2.514l0.314,-0.314c8.64,1.257 16.966,1.885 24.977,2.513c18.537,1.257 36.446,0.943 54.668,0.629l1.571,-0c1.257,-0 2.514,-0 3.456,0.314c0.628,-0 1.257,0.314 1.571,0.314c-1.885,-0.314 -3.456,-0.628 -5.027,-0.628Z" style="fill-rule:nonzero;"/></g><g><path d="M2001.28,763.05c-1.257,-4.085 -7.384,-16.966 -27.177,-16.966c-1.257,-0 -2.514,-0 -4.084,0.314c-2.514,0.314 -4.87,0.314 -7.384,0.314c-3.456,0 -6.441,-0.314 -9.897,-0.314l0,-0.628c-0.314,-1.885 -5.184,-47.285 -11.467,-69.749c-0.629,-1.885 -1.257,-4.084 -1.571,-6.127c-4.556,-19.793 -11.468,-46.656 -51.84,-54.982c-4.085,-0.942 -8.012,-1.256 -12.096,-1.256c-11.782,-0 -25.92,3.142 -38.959,10.839c4.556,-8.954 7.069,-18.851 3.142,-27.805c-4.085,-8.326 -11.782,-13.353 -21.993,-13.353c-1.571,0 -3.456,0 -4.556,0.314c-1.885,0.314 -4.084,0.629 -5.812,1.257c-4.084,0.943 -8.012,1.257 -11.154,1.257c-2.199,-0 -3.77,-0.629 -4.398,-0.943c-3.77,-1.571 -9.269,-5.812 -14.767,-9.268c-11.153,-7.384 -17.908,-12.096 -24.977,-13.824l-0.315,-0c-3.141,-0.943 -7.697,-1.885 -12.41,-1.885c-9.268,-0 -16.966,4.084 -21.364,11.467c-8.012,13.039 -0.314,27.491 2.827,33.304c5.813,11.153 5.813,11.782 6.127,24.663c0,4.87 0.314,11.154 0.628,19.479c0.315,6.441 0.315,11.782 -0.314,16.024c-0.942,-2.514 -1.571,-4.87 -2.199,-7.069c-1.257,-5.184 -1.885,-10.526 -2.199,-15.395c-0.315,-4.87 -0.943,-9.583 -2.2,-14.453c-3.456,-10.839 -12.096,-17.28 -22.778,-17.28c-2.199,0 -4.398,0.314 -6.441,0.943c-3.77,0.942 -7.383,2.199 -11.467,3.456c-8.012,2.513 -18.223,5.812 -24.978,5.812c-1.885,0 -6.126,-1.257 -9.268,-2.513c-5.813,-2.2 -12.411,-4.399 -20.108,-4.399c-9.583,0 -17.908,4.084 -24.349,11.468c-0.314,0.314 -0.629,0.628 -0.629,0.942c-3.456,4.399 -10.21,15.081 -8.954,26.549c-3.77,2.513 -25.606,16.966 -31.732,31.261c-0.629,1.257 -1.257,2.828 -2.2,4.399c-4.084,7.697 -9.582,18.222 -12.724,39.587c-0.942,5.498 -0.628,12.096 0.943,19.165c-3.456,1.885 -6.441,4.87 -8.012,8.64l-5.184,11.467l-5.812,-80.273l10.21,-1.571c9.269,-1.257 16.338,-9.583 16.338,-19.165c0,-3.142 -0.943,-12.096 -1.571,-19.794c-0.628,-5.184 -1.257,-9.268 -2.199,-12.41c-2.514,-10.839 -8.012,-15.395 -13.039,-17.594l0.629,-0.629c5.498,-4.084 8.325,-11.153 7.069,-17.908c-1.257,-6.755 -5.499,-12.725 -11.782,-15.081c-0,0 -10.839,-4.399 -24.664,-10.839c-5.498,-2.514 -11.467,-4.085 -17.594,-4.085c-16.966,0 -31.575,8.955 -34.246,10.84c-4.555,3.141 -7.697,7.697 -8.64,13.038c-0.942,5.184 0.629,10.84 4.085,15.081l7.069,9.268l-1.257,-0.314c-2.199,-0.942 -4.399,-1.256 -6.441,-1.256c-2.827,-0 -5.812,0.628 -8.326,1.885c-4.555,2.199 -8.325,6.44 -9.896,11.153c-8.955,25.92 -8.955,26.234 -8.955,30.005c0,2.199 0,3.456 1.257,7.383c-13.51,-10.839 -26.863,-19.794 -36.759,-27.177c-5.813,-4.084 -12.411,-8.64 -14.139,-10.211c-4.398,-4.084 -12.724,-9.582 -24.977,-17.28c1.571,0.314 3.456,0.314 4.87,0.314c14.452,0 30.318,-5.498 45.713,-16.966c7.384,-5.184 22.622,-16.337 19.166,-32.675c-2.828,-13.038 -14.453,-16.966 -22.622,-19.165c4.399,-11.468 11.154,-26.234 16.024,-31.261l5.184,-0c4.87,-0 20.736,-0 27.805,-12.724c4.87,-8.326 4.084,-18.223 -1.885,-29.062c-7.698,-13.51 -22.307,-24.035 -31.261,-30.319c-1.571,-1.257 -3.771,-2.514 -4.085,-3.142c-6.126,-5.184 -13.51,-8.012 -21.05,-8.012c-10.211,0 -18.851,5.184 -24.349,14.139c-0.629,-0 -1.257,-0.314 -1.571,-0.314c-1.885,-0.315 -4.084,-0.315 -6.127,-0.315c-16.966,0 -52.154,8.012 -83.415,19.48c-30.319,10.839 -69.749,29.376 -87.343,54.982c-10.211,15.08 -13.51,32.046 -9.583,48.855c4.085,16.966 17.595,41.629 59.852,65.822l0.629,0.314c137.769,77.76 157.562,110.278 159.919,115.776c8.64,18.851 4.084,37.388 -2.2,47.285c-2.199,3.456 -8.011,11.467 -16.651,11.467c-6.441,0 -13.824,0.629 -22.621,1.257c-10.84,0.943 -22.779,1.257 -34.875,1.257c-16.652,-0 -29.376,-1.571 -37.702,-4.556c-8.954,-3.77 -9.268,-7.069 -9.268,-9.582c-1.885,-26.863 2.199,-38.017 6.126,-47.599c2.2,-5.813 4.399,-11.782 5.184,-19.479c1.257,-10.84 1.571,-22.779 -6.44,-32.047c-4.556,-5.184 -11.154,-8.012 -17.909,-8.012c-10.211,0 -21.05,5.813 -36.759,19.794c-21.679,19.165 -36.76,36.131 -46.342,52.782c-19.794,33.932 -12.096,59.224 -2.514,74.462c14.453,22.621 33.618,33.303 50.584,43.2c12.724,7.069 24.663,14.138 34.56,25.606c25.92,30.319 47.284,47.284 58.909,53.097c3.456,1.571 6.441,2.513 10.211,2.513c10.84,0 17.594,-6.755 24.978,-14.452c8.011,-8.326 20.422,-20.736 44.771,-35.503c29.376,-17.594 52.468,-35.817 69.748,-54.039l1.571,26.234c-8.954,6.755 -12.724,13.353 -12.724,21.05c-0,9.269 4.084,16.024 29.062,34.56c3.456,2.514 7.383,4.085 11.782,4.085c5.498,-0 11.153,-2.514 14.766,-6.755c40.216,-47.599 89.228,-102.895 101.01,-110.593c7.698,-3.456 12.41,-11.153 11.782,-19.479l0,-0.942c14.453,-2.828 31.261,-11.468 45.714,-32.99c2.827,-4.084 5.184,-8.64 7.697,-13.038c4.085,9.268 7.698,17.594 10.525,24.035c-32.361,36.131 -32.989,48.541 -33.303,52.468c-0.314,4.556 -1.257,18.851 8.012,29.062c4.084,4.085 10.839,9.269 22.307,9.269c2.827,-0 5.498,-0.315 8.64,-0.943c1.256,-0.314 3.77,-0.628 8.954,-0.628c6.441,-0 14.452,0.628 21.678,0.942c6.127,0.314 11.782,0.943 15.71,0.943c3.141,-0 5.498,-0.314 7.697,-0.629l4.084,0c21.993,0 27.492,-14.452 28.748,-20.736c0.629,-3.141 2.2,-8.325 3.77,-13.51c2.514,-9.268 4.085,-15.394 4.556,-19.165c0,-0.628 0.628,-2.199 0.943,-4.398c2.199,8.011 4.869,15.709 8.954,22.778l0.628,1.257c13.353,24.663 29.691,55.296 64.565,55.296c19.165,-0 39.901,-9.268 64.879,-29.376c68.334,-58.752 78.702,-81.845 72.262,-99.753Zm-686.804,-174.843c-20.422,-12.41 -41.63,-25.606 -51.212,-32.989c-1.257,-1.257 -1.571,-1.571 -1.571,-2.2c0.628,-1.256 4.084,-9.582 26.863,-23.406c19.165,-11.782 32.675,-17.594 39.901,-17.594c1.257,-0 1.257,0.314 1.257,0.314c0.314,0.314 1.256,1.256 2.513,4.555c7.697,27.491 -12.41,49.17 -13.824,50.584c-3.77,3.77 -5.498,8.326 -5.498,13.51c-0,2.356 0.628,4.712 1.571,7.226Z" style="fill-rule:nonzero;"/><path d="M1051.97,789.284c-4.085,-13.51 -8.64,-30.004 -11.154,-39.587c0.314,-0 0.314,-0 0.629,-0.314c8.325,-3.77 20.736,-9.269 24.977,-22.307c4.399,-14.453 0.314,-34.246 -24.977,-46.028c-4.085,-1.571 -7.384,-3.142 -10.84,-4.084l0,-1.571c-0.314,-14.453 -0.942,-30.319 -4.555,-41.63c-8.64,-24.977 -36.446,-32.989 -39.587,-33.617c-1.257,-0.314 -2.514,-0.629 -4.085,-0.629l-1.571,0c-9.268,0 -38.016,5.499 -65.821,15.395c-22.307,7.698 -39.273,16.966 -51.526,27.177c-0,-9.268 -0.314,-15.395 -0.314,-15.395c-0,-3.77 -1.257,-6.755 -3.142,-9.896l-15.709,-25.292c-3.77,-5.813 -9.897,-9.269 -16.338,-9.269c-2.199,0 -4.398,0.315 -6.441,1.257l-31.575,11.782c-0.942,0.314 -1.257,0.628 -2.199,0.943l-39.587,20.421l-1.571,-6.126c-1.257,-5.184 -4.556,-9.583 -9.583,-12.096l-15.709,-8.64c-2.828,-1.571 -6.127,-2.199 -9.268,-2.199c-2.828,-0 -5.499,0.628 -8.012,1.57l-10.211,4.556c-0.943,-0.942 -1.571,-1.257 -2.828,-2.199c-1.885,-1.257 -20.421,-12.41 -39.587,-12.41c-3.141,-0 -6.126,0.314 -8.954,0.942c-1.257,-5.498 -2.199,-10.525 -3.142,-14.138c8.326,-9.583 19.48,-22.307 21.679,-24.978c4.87,-6.44 5.812,-15.395 2.199,-22.621c-4.084,-7.697 -11.782,-12.096 -21.05,-12.096c-6.441,0 -13.51,2.199 -21.679,6.441c-6.44,3.456 -37.702,10.211 -62.679,14.452c-10.525,1.571 -17.28,11.782 -15.709,22.307l11.467,74.147l-7.069,-6.126l-4.87,-32.989c-0.942,-5.184 -3.77,-9.583 -7.697,-12.725c-3.456,-2.513 -7.069,-3.77 -11.468,-3.77c-1.257,0 -2.199,0 -3.456,0.314l-10.525,1.571c-9.268,1.571 -16.023,9.583 -16.023,19.165l-0,19.48l-43.515,-24.978c-2.199,-1.257 -4.555,-2.199 -7.069,-2.513c13.51,-5.813 26.863,-11.468 29.376,-12.411c5.184,-2.199 9.269,-6.44 10.84,-11.781c4.084,-13.039 -1.571,-30.319 -20.422,-37.702c-8.954,-3.456 -17.594,-9.897 -22.307,-16.338c-1.571,-2.828 -3.77,-12.41 -4.87,-19.165c-2.199,-11.468 -4.556,-23.093 -9.268,-32.989c-7.698,-15.709 -19.48,-23.721 -34.561,-23.721c-9.582,-0 -19.793,3.456 -28.747,6.755c-29.062,11.782 -32.99,34.246 -37.702,63.308c-0.629,2.827 -1.257,5.812 -1.571,9.268c-4.87,28.748 1.257,121.432 4.084,162.747c-3.456,0.314 -6.755,0.314 -10.525,0.314l-0.628,0c-0.629,-1.257 -1.257,-2.828 -1.885,-4.084c-4.399,-7.698 -11.782,-12.411 -20.108,-12.411c-5.498,0 -9.897,1.886 -13.353,3.457c-0.628,0.314 -1.257,0.628 -2.199,0.942c-14.767,6.441 -14.453,24.035 -14.138,31.733c0.314,7.697 1.256,16.965 2.199,26.234c0.942,7.383 1.571,15.081 1.885,19.793c0.942,27.806 19.793,29.376 23.407,29.376c9.582,0 16.023,-6.126 18.536,-8.954c3.142,-3.456 4.556,-7.697 4.87,-12.41l0.314,-11.782l9.269,-1.571l-6.755,74.776c-13.51,-8.012 -19.794,-8.012 -22.307,-8.012c-4.085,0 -8.326,1.257 -11.782,3.456c-8.954,5.498 -13.824,12.41 -14.767,20.736c-0.628,5.498 0.315,13.824 8.326,21.993c1.571,1.571 1.571,1.571 3.77,6.755l0.315,0.628c0.314,0.943 0.628,2.2 0.942,3.771c1.257,6.126 4.556,22.307 21.993,24.977l0.314,0c4.399,0.943 7.069,1.257 14.453,6.755c11.467,8.954 61.737,46.028 63.936,47.913c3.456,2.513 7.383,4.084 11.782,4.084c4.555,0 9.268,-1.571 13.352,-5.184c11.468,-10.525 21.365,-34.246 3.142,-56.553c-9.268,-11.467 -10.525,-22.307 -10.525,-22.307l0,1.257c0,-1.257 -0.314,-4.084 -9.897,-120.803l3.771,6.126c3.77,5.813 9.896,9.269 16.651,9.269l1.257,-0l14.452,69.434l-5.184,4.085c-4.555,3.77 -7.383,8.954 -7.697,14.766c-0.314,5.813 2.199,11.782 6.441,15.081l35.817,31.261c3.77,3.142 8.325,4.556 12.724,4.556c4.399,-0 9.268,-1.571 12.724,-4.556l8.64,-7.383l12.725,13.824c3.456,3.77 7.697,5.812 12.724,6.441c0.629,-0 13.039,1.256 30.633,1.256c54.982,0 92.056,-9.268 109.964,-27.491c1.571,-1.571 3.142,-3.77 4.085,-5.812c0.314,-0.628 4.555,-11.154 9.268,-27.177c4.084,0.314 8.64,0.628 13.824,0.628l6.127,0c1.256,0 2.199,-0.314 3.456,-0.628l27.805,-6.126c6.755,-1.257 12.41,-6.441 14.452,-13.353c0.629,-1.885 0.943,-3.77 0.943,-5.498c11.467,1.57 23.092,3.77 28.433,4.084c1.571,0.314 3.142,0.314 4.556,0.314c7.383,0 14.138,-2.513 19.165,-7.069c4.085,3.456 8.012,5.184 10.839,6.441l0.943,0.314c4.399,1.885 9.897,3.142 28.119,3.142c7.698,-0 16.338,-0.314 23.721,-0.314c5.498,-0 10.211,-0.315 13.51,-0.315l1.571,0c1.257,0 3.77,0.315 5.498,0.315l1.257,-0c-1.885,2.199 -4.084,4.555 -6.127,7.383c-8.325,10.211 -23.72,29.376 -27.805,32.675c-0.942,0.628 -1.571,1.257 -2.827,2.199c-9.897,7.384 -24.978,18.851 -24.978,35.817c-0,5.184 1.571,15.081 12.41,23.093c13.824,10.21 33.304,11.153 49.17,11.781c5.498,0.315 12.724,0.629 15.395,1.257c3.456,0.943 11.153,3.77 18.851,6.441c21.364,7.383 50.897,17.28 69.434,19.793l1.885,0.315c8.64,1.256 21.365,2.827 34.56,2.827c26.549,0 45.086,-6.441 56.553,-19.793c6.441,-7.384 13.51,-21.051 10.526,-42.572c-6.441,-32.989 -18.694,-76.504 -28.905,-111.378Zm-46.342,81.531c-0.314,-0.315 -0.943,-0.629 -1.257,-0.943c-21.679,-15.081 -60.48,-61.109 -63.936,-72.576c-0.629,-3.456 -1.571,-6.441 -2.828,-8.64c13.353,-3.456 27.177,-7.069 37.702,-9.897c13.667,34.874 26.077,72.576 30.319,92.056Zm-629.309,-333.192c0,1.257 -0.314,2.2 -0.628,3.456c-0,-2.199 -0.314,-4.398 -0.314,-6.44c-0.315,-10.211 0.314,-17.909 1.256,-23.093c0.629,8.483 0.314,18.223 -0.314,26.077Zm43.829,56.396c-5.499,22.307 -6.127,31.261 -5.813,35.503c0,1.257 -0.314,3.456 -0.628,6.441c-1.257,-0.314 -2.514,-0.629 -4.085,-0.629l-9.268,-0.628l-1.257,-0c-8.325,-0 -15.709,5.184 -18.222,13.039c-1.257,-17.595 -2.514,-40.216 -3.77,-62.052c4.869,4.399 12.096,8.012 21.05,8.012c4.084,0 7.697,-0.628 11.782,-1.885c3.142,-1.257 7.697,-2.828 13.51,-5.184c-1.414,2.199 -2.357,4.713 -3.299,7.383Zm81.53,88.757l65.507,38.644l-5.498,45.086l-4.084,-6.441c-4.87,-8.012 -6.441,-9.897 -8.955,-12.096c-4.869,-4.084 -11.153,-6.127 -16.965,-6.127c-8.326,0 -16.652,4.085 -22.622,10.84c-0.942,0.942 -2.513,2.827 -4.084,5.498c-5.812,-36.445 -11.782,-76.032 -12.724,-82.787c-0.629,-4.399 -1.885,-9.897 -1.885,-9.897c-0.472,6.755 5.341,13.51 11.31,17.28Z" style="fill-rule:nonzero;"/></g><g id="Layer_3"><g><path d="M1332.07,580.824c-0,2.827 20.108,21.992 55.924,-3.771c35.503,-25.291 -22.778,-9.896 -14.452,-31.575c8.326,-21.679 21.05,-56.239 36.445,-55.296c15.395,0.942 23.721,-0 16.338,-12.725c-7.069,-12.724 -25.292,-23.72 -30.947,-28.119c-5.498,-4.556 -14.453,-6.441 -18.223,5.498c-3.77,11.782 -0.942,7.069 -19.165,4.556c-18.223,-2.828 -130.386,24.663 -157.877,65.821c-27.491,41.001 22.778,75.09 43.514,86.715c21.051,11.782 150.651,84.986 168.874,125.045c18.222,40.215 -4.556,85.614 -36.446,85.614c-31.732,0 -120.489,15.71 -123.473,-30.318c-3.456,-45.714 9.582,-54.04 11.467,-70.063c1.885,-16.338 0.943,-30.319 -29.376,-3.77c-30.319,26.548 -67.863,67.078 -45.399,101.952c22.621,34.874 57.181,35.503 83.729,67.078c26.549,30.947 45.714,44.771 52.783,48.542c7.069,3.77 14.453,-18.223 61.109,-46.342c46.342,-28.12 114.205,-79.332 89.228,-135.885c-24.664,-56.553 -103.209,-100.381 -115.777,-112.163c-12.567,-11.782 -88.285,-53.411 -110.278,-71.32c-18.537,-16.965 -4.87,-36.759 27.805,-56.552c38.331,-23.407 62.68,-30.005 72.262,-2.2c12.568,38.331 -18.065,69.278 -18.065,69.278Z" style="fill:#fc840d;fill-rule:nonzero;"/><path d="M1534.09,665.182c-0,-3.456 -2.2,-32.361 -5.499,-32.361c-3.299,-0 -12.096,8.954 -12.096,8.954l0,3.77l-11.153,3.77l-0,-33.931l20.108,-15.395c-0,-0 -11.154,-4.399 -25.606,-11.154c-14.453,-6.441 -33.304,5.498 -33.304,5.498l15.709,20.108l0,30.319l-31.261,-11.154c0,0 -7.697,22.779 -7.697,23.721c-0,0.943 12.096,30.005 12.096,30.005l12.096,-0l-1.257,-20.108l15.709,-0l6.441,221.656c-0,0 -13.353,7.698 -13.353,11.154c0,3.456 21.365,18.851 21.365,18.851c-0,-0 93.626,-111.535 108.079,-115.777l-48.856,-39.273l-36.759,78.703l-12.096,-172.644l27.334,-4.712Z" style="fill:#fc840d;fill-rule:nonzero;"/><g><path d="M1658.19,682.148c-13.353,-21.365 -38.016,-24.978 -56.867,-14.453c-0.943,0.629 -20.108,13.824 -23.721,22.307c-3.77,8.64 -10.211,15.709 -13.824,39.587c-1.571,11.782 5.812,39.587 21.364,46.028c15.395,6.441 44.771,14.452 67.393,-19.793c19.165,-28.591 19.165,-52.469 5.655,-73.676Zm-15.709,39.43c-0,2.827 -4.085,16.651 -5.184,20.421c-1.257,4.085 -8.955,12.725 -13.353,15.71c-4.556,3.141 -12.41,-2.2 -16.338,-5.813c-4.084,-3.77 -0.314,-15.709 0,-22.778c0.315,-7.069 -4.084,-38.33 -3.141,-39.587c2.827,-5.184 3.141,-3.456 9.582,0.628c6.441,4.085 11.154,6.755 16.652,4.87c5.498,-1.885 1.571,-11.153 5.498,-1.885c3.77,9.268 6.284,26.077 6.284,28.434Z" style="fill:#fc840d;fill-rule:nonzero;"/></g><path d="M1615.93,636.12c0,-0 -11.467,14.766 0,16.651c11.468,1.571 41.315,6.755 43.829,13.353c2.827,6.127 49.955,115.148 49.955,115.148c-0,0 -35.817,38.645 -37.074,50.27c-0.942,11.467 1.571,19.479 15.709,16.651c14.139,-2.827 47.599,1.885 53.726,0.629c6.126,-1.257 15.709,2.199 17.594,-5.813c1.571,-8.011 7.069,-26.234 8.012,-31.732c0.942,-5.184 14.138,-60.795 17.594,-96.611c3.77,-35.817 17.594,-78.075 27.491,-89.857c9.582,-11.467 14.767,-24.663 3.77,-22.778c-10.996,1.885 -22.307,4.87 -32.675,-0.314c-10.525,-5.184 -29.062,-20.108 -35.817,-21.993c-6.755,-1.571 -20.108,-5.184 -9.582,14.767c10.525,19.95 6.755,21.05 8.954,51.84c1.571,30.633 -6.755,37.073 -3.77,60.794c3.77,23.721 -5.499,30.633 -5.499,44.457c0,13.51 -12.724,-6.441 -14.452,-30.319c-1.571,-23.72 -11.468,-40.686 -16.652,-59.537c-5.184,-18.851 0,-35.503 -10.525,-32.675c-10.525,2.827 -27.491,9.582 -41.315,9.582c-14.924,0.157 -29.69,-13.667 -39.273,-2.513Z" style="fill:#fc840d;fill-rule:nonzero;"/><g><path d="M1971.9,765.092c-21.051,1.571 -36.131,-3.456 -52.469,-1.257c-18.223,1.885 -32.989,-8.011 -33.932,-1.257c-0.942,6.755 21.051,26.863 24.349,37.074c3.456,9.897 -0.314,14.138 -13.509,20.736c-13.51,6.441 -24.664,15.081 -33.618,11.782c-13.353,-4.556 -16.966,-12.41 -16.966,-12.41c0,-0 -3.77,-77.446 1.257,-76.661c4.87,0.943 86.4,4.556 86.4,4.556c0,-0 -4.87,-45.714 -10.839,-67.078c-5.498,-21.051 -6.755,-40.53 -38.645,-46.971c-16.651,-3.77 -45.085,4.085 -57.809,28.748c-12.411,24.663 -15.081,46.342 -15.081,46.342l-12.41,-3.456c-0,0 -7.698,21.993 -6.755,22.621c5.184,6.755 11.467,5.184 11.467,5.184c1.257,1.571 -8.64,54.668 10.84,90.799c19.479,35.817 37.388,71.634 101.01,21.05c75.875,-60.951 77.76,-81.216 56.71,-79.802Zm-100.382,-97.24c12.41,-0.628 19.479,0.943 22.307,17.909c2.828,16.966 0,31.732 0,31.732l-40.529,-4.084c-0.315,0.471 5.969,-45.243 18.222,-45.557Z" style="fill:#fc840d;fill-rule:nonzero;"/></g></g><g><path d="M392.976,915.586c-0,-0 -52.155,-38.645 -63.308,-47.599c-11.154,-8.954 -17.28,-9.583 -23.093,-10.839c-5.812,-0.943 -5.184,-9.269 -7.697,-16.024c-2.513,-6.755 -3.456,-9.582 -8.326,-14.452c-4.87,-4.87 -3.456,-8.954 3.142,-12.725c6.441,-4.084 40.215,23.093 40.215,23.093l12.725,-133.371l-49.798,9.583l-0.629,27.491c0,-0 -7.697,8.954 -8.325,-8.326c-0.629,-16.966 -7.698,-57.181 -1.886,-59.224c5.813,-2.513 8.955,-4.869 11.154,-0.628c2.513,4.399 -5.812,13.039 11.782,14.138c17.28,0.943 38.644,-1.885 38.644,-1.885c0,0 -11.782,-143.267 -5.812,-177.199c5.812,-33.932 6.441,-49.484 27.177,-57.496c20.736,-8.325 30.947,-8.954 38.644,7.07c7.698,16.023 8.955,44.456 16.024,54.667c7.069,10.211 19.793,18.851 31.575,23.093c11.782,4.398 8.954,13.51 8.954,13.51c0,-0 -47.598,20.422 -59.223,24.349c-11.782,4.084 -16.024,-5.184 -16.024,-5.184c0,-0 5.184,-11.154 7.07,-28.434c1.885,-17.28 1.885,-66.449 -9.583,-63.936c-11.468,2.514 -30.947,7.069 -29.69,59.224c1.256,51.526 8.326,148.922 8.326,148.922l32.36,0.629l2.828,-29.691l9.268,0.629l10.84,67.078l-10.84,5.184l-15.395,-24.978l-26.548,-0.628c-0,-0 12.724,148.923 12.724,150.651c0,1.256 1.571,17.594 14.767,33.617c12.724,16.024 -2.042,29.691 -2.042,29.691Z" style="fill:#fc840d;fill-rule:nonzero;"/><path d="M494.3,814.576c-0,-0 28.119,-28.748 30.318,-29.062c0,-0 -0.314,-4.085 -2.199,-18.537c0,-0.314 6.755,-9.268 14.138,-3.77c0.629,0.628 4.556,7.383 4.556,7.383l15.709,22.778l-10.525,11.468l-11.782,3.77l-66.764,58.438l-35.817,-31.261l5.185,-4.084l12.096,4.084c-0,0 -14.453,-201.391 -15.081,-206.575c-0.943,-5.184 5.184,-30.005 5.184,-30.005l47.913,27.805l0.314,12.097c-0,-0 -0.314,2.513 -4.556,0.942c-4.398,-1.571 -14.452,-4.87 -14.452,-4.87c-0,0 3.142,29.376 4.555,43.2c1.1,13.039 21.208,136.199 21.208,136.199Z" style="fill:#fc840d;fill-rule:nonzero;"/><path d="M511.58,587.893l-0,78.074l76.661,45.085l-17.281,139.026c0,0 -28.747,11.468 -32.046,11.468l-26.863,0l4.399,13.039c-0,-0 97.239,7.697 125.045,-20.736c-0,-0 -24.35,-36.446 -24.35,-82.788c0,-18.222 1.571,-211.288 1.571,-211.288c0,0 24.349,-27.805 26.863,-31.261c2.513,-3.77 -2.514,-6.755 -15.709,0c-13.039,6.755 -68.492,16.652 -68.492,16.652l19.479,125.987l-52.154,-45.085l-6.127,-40.215l-10.996,2.042Z" style="fill:#fc840d;fill-rule:nonzero;"/><path d="M645.893,598.732c0,0 9.269,21.364 10.525,41.943c1.257,20.579 1.257,122.061 0,125.359c-1.256,3.771 -5.812,35.503 -4.555,42.572c1.256,7.069 35.502,6.127 35.502,6.127l27.805,-6.127l-26.548,-27.177c0,0 -16.337,-151.907 -14.767,-158.191c1.257,-6.126 6.755,-15.709 6.755,-15.709c0,0 -19.636,-11.939 -34.717,-8.797Z" style="fill:#fc840d;fill-rule:nonzero;"/><path d="M695.534,623.395l0,-9.582l15.709,-7.069l15.709,8.64l7.698,29.376l61.108,-31.261l31.576,-11.782l15.709,25.291c-0,0 1.257,119.861 0.943,120.49c-0.315,0.628 14.766,21.364 32.989,38.016c18.537,16.652 -1.257,11.468 -12.41,11.153c-11.154,-0.314 -54.04,1.571 -59.538,-0.942c-5.498,-2.514 -11.782,-4.399 -9.897,-15.709c1.571,-11.468 5.812,-41.63 6.127,-52.155c0.314,-10.525 2.513,-60.794 3.456,-67.078c0.942,-6.126 1.885,-8.64 -5.499,-8.954c-7.383,-0.314 -46.342,18.851 -51.526,21.679c-5.184,2.827 0.315,13.038 4.556,35.502c4.084,22.621 8.954,51.84 9.583,53.726c0.628,1.885 4.555,16.023 5.184,16.965c0.942,0.943 7.383,-0.314 8.011,0.943c0.629,0.943 2.2,15.395 -10.525,13.824c-12.41,-1.571 -51.212,-7.383 -51.84,-8.64c-0.628,-1.257 -0.943,-1.571 -0.943,-24.349c0,-22.307 -9.268,-91.427 -8.325,-100.382c1.256,-8.64 1.571,-23.406 1.571,-26.234c0.471,-2.828 -1.886,-2.513 -9.426,-11.468Z" style="fill:#fc840d;fill-rule:nonzero;"/><g><path d="M1059.67,899.876c-7.383,-49.955 -41.315,-148.608 -39.901,-157.877c1.885,-9.268 24.349,-11.153 27.491,-20.736c3.142,-9.582 -3.77,-17.594 -14.452,-22.778c-11.154,-5.184 -14.139,-1.571 -19.166,-0.942c-4.869,0.628 -0.942,-40.687 -6.44,-57.496c-5.499,-16.023 -26.235,-21.364 -26.235,-21.364c-9.582,-0.629 -89.856,18.222 -104.151,56.238c-14.139,38.017 -16.966,75.719 1.256,83.73c18.223,8.012 22.307,19.794 48.856,12.725c26.863,-6.441 59.852,-15.71 59.852,-15.71c-0,0 47.913,117.348 38.016,133.057c-9.583,15.709 -11.154,11.782 -31.733,-3.142c-20.736,-14.452 -67.863,-65.821 -71.633,-84.672c-3.771,-18.851 -16.966,7.069 -24.978,15.395c-8.012,8.64 -38.016,47.598 -46.342,54.353c-8.64,6.441 -30.004,20.108 -16.023,30.633c14.138,10.525 44.457,6.127 58.124,9.583c13.51,3.77 61.737,22.621 85.615,25.606c23.877,3.77 89.227,13.667 81.844,-36.603Zm-89.228,-179.555c-7.383,-0 -20.736,11.153 -27.491,11.153c0,0 -9.582,-20.107 -11.153,-40.529c-1.257,-20.108 24.977,-39.273 30.004,-34.246c4.87,4.87 12.096,37.702 12.725,46.97c0.785,8.954 3.299,16.652 -4.085,16.652Z" style="fill:#fc840d;fill-rule:nonzero;"/></g></g></g></g></g></svg>