<?xml version="1.0" encoding="utf-8"?>
<!-- Generator: Adobe Illustrator 25.0.1, SVG Export Plug-In . SVG Version: 6.00 Build 0)  -->
<svg version="1.1" id="cox" xmlns="http://www.w3.org/2000/svg" xmlns:xlink="http://www.w3.org/1999/xlink" x="0px" y="0px"
	 viewBox="0 0 279 112" enable-background="new 0 0 279 112" xml:space="preserve">
<path fill="#00AAF4" d="M57.2,92.2c-20,0-36.3-16.3-36.3-36.3s16.3-36.3,36.3-36.3c6.5,0,12.9,1.7,18.4,5c3.6,2.2,4.8,6.8,2.7,10.5
	c-2.2,3.6-6.8,4.8-10.5,2.7c-3.2-1.9-6.9-2.9-10.6-2.9c-11.5,0-20.9,9.4-20.9,20.9s9.4,20.9,20.9,20.9c3.8,0,7.4-1,10.6-2.9
	c3.6-2.2,8.3-0.9,10.5,2.7c2.2,3.6,0.9,8.3-2.7,10.5C70.1,90.5,63.7,92.2,57.2,92.2L57.2,92.2z"/>
<linearGradient id="SVGID_1_" gradientUnits="userSpaceOnUse" x1="-195.5686" y1="-64.8521" x2="-133.1894" y2="-2.4745" gradientTransform="matrix(0.8221 0 0 0.8221 262.8266 83.6072)">
	<stop  offset="0.12" style="stop-color:#00AAF4"/>
	<stop  offset="0.88" style="stop-color:#00D258"/>
</linearGradient>
<path fill="url(#SVGID_1_)" d="M127.7,92.2c-20,0-36.3-16.3-36.3-36.3s16.3-36.3,36.3-36.3S164,35.9,164,55.9S147.6,92.2,127.7,92.2
	L127.7,92.2z M127.7,35c-11.5,0-20.9,9.4-20.9,20.9s9.4,20.9,20.9,20.9s20.9-9.4,20.9-20.9S139.2,35,127.7,35L127.7,35z"/>
<path fill="#00D258" d="M218.5,56L238,33.9c2.8-3.2,2.5-8-0.7-10.8s-8-2.5-10.8,0.7l-18.3,20.7l-18.3-20.7
	c-2.8-3.2-7.6-3.5-10.8-0.7s-3.5,7.6-0.7,10.8L197.9,56l-19.5,22.1c-2.8,3.2-2.5,8,0.7,10.8s8,2.5,10.8-0.7l18.3-20.7l18.3,20.7
	c2.8,3.2,7.6,3.5,10.8,0.7c3.2-2.8,3.5-7.6,0.7-10.8L218.5,56z"/>
<path fill="#00D258" d="M251.8,77.6c1.1,0,2.1,0.3,3.1,0.8s1.8,1.3,2.3,2.3c0.6,1,0.8,2,0.8,3.1s-0.3,2.1-0.8,3.1s-1.3,1.8-2.3,2.3
	s-2,0.8-3.1,0.8c-1.1,0-2.1-0.3-3.1-0.8c-1-0.6-1.8-1.3-2.3-2.3c-0.6-1-0.8-2-0.8-3.1s0.3-2.1,0.8-3.1c0.6-1,1.3-1.8,2.3-2.3
	C249.7,77.9,250.8,77.6,251.8,77.6L251.8,77.6z M251.8,78.7c-0.9,0-1.7,0.2-2.6,0.7c-0.8,0.4-1.5,1.1-2,1.9
	c-0.5,0.8-0.7,1.7-0.7,2.6c0,0.9,0.2,1.8,0.7,2.6s1.1,1.5,1.9,1.9c0.8,0.5,1.7,0.7,2.6,0.7s1.8-0.2,2.6-0.7c0.8-0.5,1.5-1.1,1.9-1.9
	c0.5-0.8,0.7-1.7,0.7-2.6c0-0.9-0.2-1.8-0.7-2.6s-1.1-1.5-2-1.9C253.5,78.9,252.7,78.7,251.8,78.7L251.8,78.7z M249.3,87.4v-6.7h2.3
	c0.8,0,1.2,0.1,1.5,0.2c0.4,0.1,0.5,0.3,0.7,0.6c0.2,0.3,0.3,0.6,0.3,1c0,0.8-0.1,1.5-1.2,2l2,2.9h-1.2c-0.8-1.1-1.8-2.7-1.8-2.7
	h-1.4v2.7H249.3z M250.4,83.8h1.3c0.6,0,1.1-0.2,1.2-0.5c0.2-0.2,0.2-0.5,0.2-0.8c0-0.2-0.1-0.4-0.2-0.5c-0.1-0.2-0.3-0.3-0.5-0.4
	c-0.2-0.1-0.4-0.1-0.9-0.1h-1.2L250.4,83.8z"/>
</svg>
