<?xml version="1.0" encoding="UTF-8" standalone="no"?>
<!DOCTYPE svg PUBLIC "-//W3C//DTD SVG 1.1//EN" "http://www.w3.org/Graphics/SVG/1.1/DTD/svg11.dtd">
<svg width="100%" height="100%" viewBox="0 0 575 375" version="1.1" xmlns="http://www.w3.org/2000/svg" xmlns:xlink="http://www.w3.org/1999/xlink" xml:space="preserve" xmlns:serif="http://www.serif.com/" style="fill-rule:evenodd;clip-rule:evenodd;stroke-linejoin:round;stroke-miterlimit:2;">
    <g transform="matrix(0.804362,0,0,0.804362,75.5242,33.4146)">
        <g>
            <path d="M422.6,285.2L422.6,201.5L372.9,201.5L372.9,299.3L422.6,285.2Z" style="fill:rgb(139,3,4);fill-rule:nonzero;"/>
            <path d="M267.2,201.5L313.5,201.5C327.5,204.8 339.2,212.2 346.9,221.5C353,228.9 355.8,236.2 356.9,244.2C358.6,256.8 357.5,273.7 350.7,284.8C339.1,303.7 311.9,314.1 266.5,314.1L210,314.1L258.5,285.3L269.8,285.3C289.5,285.3 299.5,280.7 304.8,274.9C311,268.1 314.2,254.5 310.3,245.5C309.4,243.1 308.1,240.7 306.4,238.4C297.3,226.3 282.5,223.6 268.4,223.6L267.4,223.6L267.4,201.5L267.2,201.5Z" style="fill:rgb(139,3,4);fill-rule:nonzero;"/>
            <path d="M98.4,285C98.4,201.1 98.4,201.5 98.4,201.4L255.1,201.4L255,276.6L255,277.8L206.4,306.7L206.4,223.5L147,223.5L147,299.1L98.4,285Z" style="fill:rgb(139,3,4);fill-rule:nonzero;"/>
            <path d="M442.6,115.6L442.6,123.8L444.5,124.5C449.6,126.3 455.6,128.5 466.6,132.9C467.2,133.1 467.5,133.4 467.6,133.4C468.2,133.7 469.1,133.9 470.1,133.7C470.2,133.7 479.1,132.6 482.9,132.9C486.2,133 490.2,133.2 491.9,133.5C498.6,134.6 505.6,137.8 508.9,143.3C509.3,144.1 508.8,145.8 508.2,146.7C507.1,148.3 505.9,150 504.8,151.6C504.4,152.3 504.5,153 505.1,153.5C506.9,154.7 508.5,156.2 509.7,158L511.3,160.7C511.8,161.6 512,162.6 512.1,163.7L511.6,176.6L511.4,177.5C510.7,179.4 508.6,181.2 506.6,181.4C504.9,181.6 501.4,180.7 499.2,180.1C497.9,179.7 496.7,179.1 495.6,178.2L490.1,172.5C489.2,172.1 488.2,171.9 487.2,171.9L484.3,172.4C483.7,172.6 483.3,172.9 483.2,173.5C483,174.5 484.4,176.3 484.8,177.1L485.2,178.6C485.8,181.4 486.8,184.1 488.2,186.5C491.3,191.8 497.8,201.5 502.4,205.8C502.4,205.8 505.4,208.2 506.3,208.9C507.2,209.6 509.3,211.2 513.5,212.3C514.7,212.7 515.7,213.1 515.7,213.1C516.3,213.4 517.3,214.1 518.1,214.8C519.5,216.2 519,217.2 518.9,217.7C518.1,222.1 515.6,227.4 513.4,231C512.9,231.8 512.3,232.5 511.5,233C510.4,233.7 509.2,234.2 507.9,234.5C495.5,236.3 492.8,234.8 492.7,236.2C492.5,237.9 494,241.9 493.6,243.7C493.4,244.5 492.8,245.2 491.6,245.2C489.8,245.6 487.5,245.5 486.8,245.5C481.4,245.3 463.7,244.6 463.7,244.6C462.7,244.6 460.6,245.3 458.7,245.8C455.8,247.2 453.9,245.2 453.3,244.9C451.2,243.8 448.8,242.7 446.5,242.7L442.1,243.1L442.1,251L446.3,250.6C447.9,250.6 449.6,252 451,252.7C451,252.7 453.2,253.6 453.9,253.9C454.6,254.2 456.8,254.9 458.9,253.9C459.7,253.7 461.4,253.1 462.5,252.8C463.2,252.5 464,252.4 464.8,252.5C465.6,252.5 488.4,253.5 488.4,253.5C491.4,253.5 494.3,252.9 497,251.9C499.8,250.8 501.9,247.9 501.6,244.8C501.6,244.8 501.6,244.5 501.5,244.1C501.4,243.7 501.4,243.2 502.7,243.1C503.6,243 505.2,242.9 505.2,242.9C510.3,242.6 515.4,240.9 518.8,236.8C522,233 524.5,227.1 525.9,221.6C527.7,214.6 526.4,213.2 525.9,212.4C524.8,210.4 522.1,207 517.2,205.4C514.6,204.4 510.4,202.7 508.3,200.5C508.1,200.3 507.9,200.2 507.7,200C504.3,196.2 501.1,192.2 498.2,188C504.8,189.8 509.5,189.7 514.1,185.7C516.3,183.8 518.6,180.7 519,177.7L519.6,163.6C519.2,159 517.3,154.7 514.2,151.4C516.5,147.7 517.5,143.3 515.3,139.5C512.7,135 508.6,131.4 503.8,129.3C498.5,126.7 492.7,125.3 486.8,125.2C481,125 475.2,125.2 469.4,125.8C461.1,122.5 453.3,118.8 442.6,115.6Z" style="fill:rgb(86,86,86);fill-rule:nonzero;"/>
            <path d="M82.3,354.1C81.5,351.2 80.5,348.4 79.3,345.7C78.6,343.9 77.9,342.1 77.2,340.3C76.6,338.8 76.1,337.3 75.7,335.8C75.3,334.5 75,333.2 74.9,331.9C74.8,331 74.8,330.1 74.9,329.5C75,329 75.1,328.6 75.1,328.2L75.6,326.7C76.6,324.8 77.5,322.8 78.2,320.8C78.9,319 79.5,317.1 80,315.2C80.9,311.6 81.6,308 82.1,304.4C82.3,302.4 82.5,299.7 82.6,298.6L82.7,296.8L82.6,296.6C80.8,294.1 79.6,291.1 79.2,288C79.2,288 78.7,284 77.2,284C76.2,284 75.9,285.4 75.7,286.6C75.5,288.4 75.3,291.4 75.1,294.7C74.9,298 74.7,301.3 74.4,303.5C73.9,307.2 72.5,316.7 68.6,323.7L67.6,326.4C67.6,326.7 67.3,328 67.3,328C66.1,333.6 69.1,341 71.5,347L72.2,348.7C73.3,351.2 74.2,353.8 74.9,356.4C75.9,359.8 74.5,364.8 71.3,366.5C70.3,366.8 69.1,367 67.7,367C64.2,367 60.2,366 56.4,364.2C55.9,363.8 55.4,363.3 54.7,362.7C52.3,360.3 51.2,358.1 50.2,355.9C49.6,354.7 49.1,353.6 48.4,352.5C46.7,350 45.2,349 44,348.4C43.5,348.1 43,347.8 42.8,347.5C41.1,345.5 41.9,342.6 42.8,339.5C43.3,337.9 43.7,336.3 43.9,334.8L44.6,328.6C44.5,325.9 45.6,324.2 46.5,322.9C46.8,322.5 47,322.1 47.2,321.8C47.7,320.8 48.1,319.7 48.3,318.5C48.8,316.3 48.2,310.8 47.7,306.2C47.3,303.2 47.1,300.2 46.9,297.2L46.9,296.9C45.3,283.6 42.6,279.7 39.6,275.2C37.3,271.8 34.7,267.9 32.2,258.7C32,258 31.8,257.4 31.6,256.6C29.9,250.9 27.8,243.8 22.4,238.9C19.7,235.4 17.6,231 16.2,225.9C10.3,209.8 11.4,189.6 19.1,170.4C19.7,169 20.2,168.2 20.5,167.8C20.7,167.5 20.8,167.4 20.8,167.2C20.8,166.8 20.7,166.4 20.5,166.1C19.9,165.3 18.4,165.2 16.6,165C14.8,164.8 12.8,164.6 11.5,163.8C9.3,162.6 8.1,161.1 7.9,159.2C7.4,155 12,150.4 12.1,150.4C16.3,147 21.3,145 25,145C26.6,145 27.9,145.4 28.7,146.1C29.6,147.2 30.4,147.9 30.9,148.2C31.9,148.9 33,148.7 33.7,147.7C33.8,147.6 42.9,141 56.2,133.9C69.2,126.9 78.8,123.2 78.9,123.2L79.3,123L79.3,122.5C79.4,115.5 79.4,115.5 79.2,115.3L78.9,115L78.5,115.2C77.4,115.6 51,126.2 32.1,139.5C29.8,138.4 26.8,137.8 23.8,137.8C21.3,137.8 18.8,138.2 16.8,139C13.4,140.3 10.1,142.2 7.3,144.5C6.9,144.8 6.5,145.2 6,145.8C3.9,148.1 2.3,150.6 1.3,153.2C0.8,154.6 0.4,156.1 0.3,157.6C-0.1,161.8 1.6,165.8 4.8,168.7C5.7,169.5 6.7,170.2 7.8,170.8C8.7,171.3 9.5,171.7 10.5,172C4.5,189.1 3.2,205.8 6.9,221.5C7.5,223.9 8.1,226.2 9,228.5C9.8,231.2 10.8,233.8 12,236.4C13.2,239 14.7,241.5 16.4,243.8C16.7,244.2 17,244.5 17.3,244.8C18.3,245.7 19.2,246.7 19.9,247.9C20.7,249.1 21.3,250.3 21.8,251.6C22.4,253.1 23,254.7 23.5,256.2C24,257.8 24.5,259.4 25,261C25.5,262.9 26.1,264.8 26.7,266.7C27.4,268.6 28.1,270.5 29,272.3C29.9,274.1 30.8,275.8 31.9,277.5C32.4,278.3 32.9,279 33.4,279.8C34.8,281.9 35.7,283.3 36.6,285.4C37.1,286.7 37.5,288 37.9,289.3C38.3,290.8 38.6,292.3 38.8,293.8C39,295.1 39.2,296.4 39.4,297.8C39.5,299.4 39.6,301 39.8,302.6C39.9,304.2 40.1,305.7 40.3,307.3C40.9,311.8 41.1,315 41.1,316.8L41.1,317C41,317.5 40.8,318 40.6,318.5C40.6,318.6 40.5,318.7 40.4,318.7C39.4,320 38.7,321.5 38.1,323L38,323.1C37.4,324.8 37.1,326.6 37.1,328.4L36.5,334.2C36.5,334.6 36.4,335.1 36.3,335.5C36.1,336.1 36,336.7 35.8,337.3C34.9,340.4 34.1,343.2 34.5,346.3C34.9,349.9 36.9,353 39.8,354.8L40.8,355.4C41.1,355.6 41.4,355.8 41.6,356C41.9,356.3 42.1,356.6 42.3,356.9C42.6,357.3 42.8,357.8 43.1,358.3L44,360.2C44.7,361.7 45.6,363.2 46.6,364.7C48.1,366.8 49.8,368.6 51.9,370.4C52.3,370.8 52.8,371.1 53.3,371.3C56.2,372.7 59.3,373.7 62.5,374.4C64.3,374.8 66.1,374.9 67.9,374.9C68.9,374.9 69.8,374.8 70.7,374.7C71.4,374.6 73.6,374.3 75.1,373.5C78.5,371.7 81.1,368.5 82.3,364.5C82.8,362.9 83.1,361.2 83.2,359.5C82.9,357.4 82.7,355.7 82.3,354.1Z" style="fill:rgb(86,86,86);fill-rule:nonzero;"/>
            <path d="M130.2,315.2L122.2,312.9C122.2,312.9 122.7,314.7 123.2,316.6C125.1,324.1 125.7,326.9 128.6,331.3C132.6,338 145.8,342.3 141,353C140.2,355.3 138.1,356 135.8,356.2C124.7,356 127,353.5 122.4,350.2C120.7,348.7 117.6,345.9 117.6,345.9C117.1,345.6 115.5,345.3 114.9,345.4C112.2,345.9 110.3,345.7 108.5,344.1C105.7,340.3 102.7,341.7 100.3,315.1C100,312.1 99.7,309.1 99.4,306.4L92.7,304.5C92.4,304.4 92.1,304.3 91.8,304.2C93,313.1 95,328.6 96,335.3C96.6,342.6 102.7,351 109,353C109.7,353.2 110.5,353.4 111.3,353.5C116.2,353.7 114.9,353.6 117.1,355.3C117.6,355.8 118.2,356.3 118.5,356.6C122.2,360.5 121.3,361.5 130.1,363.6C132.4,364 134.6,364.1 136.5,364.2C140.7,364.4 144.5,362.3 146.6,358.9C147,358.2 148.6,355 148.9,351.2C151.3,337.7 138.4,334.9 133.6,324.9C132.3,322.2 131.3,319.3 130.2,315.2Z" style="fill:rgb(86,86,86);fill-rule:nonzero;"/>
            <path d="M98.4,108.2L98.4,192.8L255.1,192.8L255,117.6L255,116.4L206.4,87.5L206.4,170.7L147,170.7L147,94L98.4,108.2Z" style="fill:rgb(86,86,86);fill-rule:nonzero;"/>
            <path d="M98.4,183L98.4,192.7L255.1,192.7L255.1,183L98.4,183Z" style="fill:rgb(139,139,139);fill-rule:nonzero;"/>
            <rect x="98.4" y="174.6" width="156.7" height="7.3" style="fill:rgb(139,139,139);fill-rule:nonzero;"/>
            <path d="M98.4,166.5L98.4,171.7L255,171.7L255,166.5L206.3,166.5L206.3,170.7L146.9,170.7L146.9,166.5L98.4,166.5Z" style="fill:rgb(139,139,139);fill-rule:nonzero;"/>
            <rect x="98.4" y="158.8" width="48.5" height="3.2" style="fill:rgb(139,139,139);fill-rule:nonzero;"/>
            <path d="M255,162.1L255,158.8L206.3,158.8L206.3,162.1L255,162.1Z" style="fill:rgb(139,139,139);fill-rule:nonzero;"/>
            <path d="M98.4,151.9C98.4,153.5 98.4,153.9 98.4,153.4L147,153.4L147,151.9L98.4,151.9Z" style="fill:rgb(139,139,139);fill-rule:nonzero;"/>
            <path d="M255,153.4L255,151.9L206.3,151.9L206.3,153.4L255,153.4Z" style="fill:rgb(139,139,139);fill-rule:nonzero;"/>
            <path d="M98.4,142.1L98.4,142.7L147,142.7L147,142.1L98.4,142.1Z" style="fill:rgb(139,139,139);fill-rule:nonzero;"/>
            <path d="M255,142.7L255,142.1L206.3,142.1L206.3,142.7L255,142.7Z" style="fill:rgb(139,139,139);fill-rule:nonzero;"/>
            <path d="M422.6,109L422.6,192.7L372.9,192.7L372.9,94.9L422.6,109Z" style="fill:rgb(86,86,86);fill-rule:nonzero;"/>
            <path d="M422.6,183L422.6,192.7L372.9,192.7L373,183L422.6,183Z" style="fill:rgb(139,139,139);fill-rule:nonzero;"/>
            <path d="M422.6,181.9L373,181.9L373,174.6L422.6,174.6L422.6,181.9Z" style="fill:rgb(139,139,139);fill-rule:nonzero;"/>
            <path d="M422.6,171.7L373,171.7L373,166.5L422.6,166.5L422.6,171.7Z" style="fill:rgb(139,139,139);fill-rule:nonzero;"/>
            <path d="M422.6,162.1L373,162.1L373,158.8L422.6,158.8L422.6,162.1Z" style="fill:rgb(139,139,139);fill-rule:nonzero;"/>
            <path d="M422.6,153.4L373,153.4L373,151.9L422.6,151.9L422.6,153.4Z" style="fill:rgb(139,139,139);fill-rule:nonzero;"/>
            <path d="M422.6,142.7L373,142.7L373,142.1L422.6,142.1L422.6,142.7Z" style="fill:rgb(139,139,139);fill-rule:nonzero;"/>
            <path d="M267.2,201.5L267.2,211.2L335.6,211.2C329.3,206.8 321.8,203.4 313.5,201.5L267.2,201.5Z" style="fill:rgb(196,22,28);fill-rule:nonzero;"/>
            <path d="M267.2,212.3L267.2,219.6L345.2,219.6C342.8,217 340.1,214.5 337.1,212.3L267.2,212.3Z" style="fill:rgb(196,22,28);fill-rule:nonzero;"/>
            <path d="M267.2,222.6L267.2,223.7L268.2,223.7C276.5,223.7 284.9,224.6 292.3,227.8L351.2,227.8C350.2,226.1 349,224.4 347.7,222.6L267.2,222.6Z" style="fill:rgb(196,22,28);fill-rule:nonzero;"/>
            <path d="M300.1,232.2C301.4,233.2 302.6,234.2 303.7,235.4L354.9,235.4C354.5,234.3 354.1,233.2 353.6,232.2L300.1,232.2Z" style="fill:rgb(196,22,28);fill-rule:nonzero;"/>
            <path d="M307.9,240.8C308.2,241.3 308.5,241.8 308.7,242.3L356.5,242.3C356.4,241.8 356.3,241.3 356.2,240.8L307.9,240.8Z" style="fill:rgb(196,22,28);fill-rule:nonzero;"/>
            <path d="M311.8,251.5C311.8,251.7 311.8,251.9 311.9,252.1L357.6,252.1L357.6,251.5L311.8,251.5Z" style="fill:rgb(196,22,28);fill-rule:nonzero;"/>
            <path d="M422.6,211.2L422.6,201.5L372.9,201.5L373,211.2L422.6,211.2Z" style="fill:rgb(196,22,28);fill-rule:nonzero;"/>
            <path d="M422.6,212.3L373,212.3L373,219.6L422.6,219.6L422.6,212.3Z" style="fill:rgb(196,22,28);fill-rule:nonzero;"/>
            <path d="M422.6,222.6L373,222.6L373,227.7L422.6,227.7L422.6,222.6Z" style="fill:rgb(196,22,28);fill-rule:nonzero;"/>
            <path d="M422.6,232.2L373,232.2L373,235.4L422.6,235.4L422.6,232.2Z" style="fill:rgb(196,22,28);fill-rule:nonzero;"/>
            <path d="M422.6,240.8L373,240.8L373,242.3L422.6,242.3L422.6,240.8Z" style="fill:rgb(196,22,28);fill-rule:nonzero;"/>
            <path d="M422.6,251.5L373,251.5L373,252.1L422.6,252.1L422.6,251.5Z" style="fill:rgb(196,22,28);fill-rule:nonzero;"/>
            <path d="M98.4,211.2L98.4,201.5L255.1,201.5L255.1,211.2L98.4,211.2Z" style="fill:rgb(196,22,28);fill-rule:nonzero;"/>
            <rect x="98.4" y="212.3" width="156.7" height="7.3" style="fill:rgb(196,22,28);fill-rule:nonzero;"/>
            <path d="M98.4,227.7L98.4,222.5L255,222.5L255,227.7L206.3,227.7L206.3,223.5L146.9,223.5L146.9,227.7L98.4,227.7Z" style="fill:rgb(196,22,28);fill-rule:nonzero;"/>
            <rect x="98.4" y="232.2" width="48.5" height="3.2" style="fill:rgb(196,22,28);fill-rule:nonzero;"/>
            <path d="M255,232.2L255,235.4L206.3,235.4L206.3,232.2L255,232.2Z" style="fill:rgb(196,22,28);fill-rule:nonzero;"/>
            <path d="M98.4,242.3C98.4,240.7 98.4,240.3 98.4,240.8L147,240.8L147,242.3L98.4,242.3Z" style="fill:rgb(196,22,28);fill-rule:nonzero;"/>
            <path d="M255,240.8L255,242.3L206.3,242.3L206.3,240.8L255,240.8Z" style="fill:rgb(196,22,28);fill-rule:nonzero;"/>
            <path d="M98.4,252.1L98.4,251.5L147,251.5L147,252.1L98.4,252.1Z" style="fill:rgb(196,22,28);fill-rule:nonzero;"/>
            <path d="M255,251.5L255,252.1L206.3,252.1L206.3,251.5L255,251.5Z" style="fill:rgb(196,22,28);fill-rule:nonzero;"/>
            <path d="M267.2,192.7L313.5,192.7C327.5,189.4 339.2,182 346.9,172.7C353,165.3 355.8,158 356.9,150C358.6,137.4 357.5,120.5 350.7,109.4C339.1,90.5 311.9,80.1 266.5,80.1L210,80.1L258.5,108.9L269.8,108.9C289.5,108.9 299.5,113.5 304.8,119.3C311,126.1 314.2,139.7 310.3,148.7C309.4,151.1 308.1,153.5 306.4,155.8C297.3,167.9 282.5,170.6 268.4,170.6L267.4,170.6L267.4,192.7L267.2,192.7Z" style="fill:rgb(86,86,86);fill-rule:nonzero;"/>
            <path d="M267.2,192.7L267.2,183L335.6,183C329.3,187.4 321.8,190.8 313.5,192.7L267.2,192.7Z" style="fill:rgb(139,139,139);fill-rule:nonzero;"/>
            <path d="M267.2,181.9L267.2,174.6L345.2,174.6C342.8,177.2 340.1,179.7 337.1,181.9L267.2,181.9Z" style="fill:rgb(139,139,139);fill-rule:nonzero;"/>
            <path d="M267.2,171.7L267.2,170.6L268.2,170.6C276.5,170.6 284.9,169.7 292.3,166.5L351.2,166.5C350.2,168.2 349,169.9 347.7,171.7L267.2,171.7Z" style="fill:rgb(139,139,139);fill-rule:nonzero;"/>
            <path d="M300.1,162.1C301.4,161.1 302.6,160.1 303.7,158.9L354.9,158.9C354.5,160 354.1,161.1 353.6,162.1L300.1,162.1Z" style="fill:rgb(139,139,139);fill-rule:nonzero;"/>
            <path d="M307.9,153.4C308.2,152.9 308.5,152.4 308.7,151.9L356.5,151.9C356.4,152.4 356.3,152.9 356.2,153.4L307.9,153.4Z" style="fill:rgb(139,139,139);fill-rule:nonzero;"/>
            <path d="M311.8,142.7C311.8,142.5 311.8,142.3 311.9,142.1L357.6,142.1L357.6,142.7L311.8,142.7Z" style="fill:rgb(139,139,139);fill-rule:nonzero;"/>
            <g>
                <path d="M138.4,53.6C135.6,54.3 132.8,55 130,55.7C131.4,48.3 132.8,40.9 134.1,33.5L134.3,33.5C135.6,40.2 137,46.9 138.4,53.6ZM117.5,79.5C120.3,78.7 123.2,77.8 126,77.1C126.8,72.7 127.7,68.3 128.5,64C132.3,63 136.2,62.1 140,61.1C140.8,65.1 141.6,68.8 142.5,72.7C145.3,72.1 148.1,71.4 150.9,70.7C146.5,52.2 142.2,33.9 137.8,15.6C135.5,16.2 133.1,16.9 130.8,17.5C126.3,38.1 121.9,58.9 117.5,79.5Z" style="fill:rgb(196,22,28);fill-rule:nonzero;"/>
                <path d="M185.6,5.7C182.7,6.2 179.8,6.7 176.8,7.2C174.6,21.1 172.4,35.2 170.1,49.1L169.9,49.1C167.7,35.9 165.5,22.8 163.3,9.7C160.4,10.3 157.4,11 154.5,11.6C158.5,30.2 162.4,48.8 166.3,67.4C168.7,66.9 171.2,66.5 173.6,66C177.7,45.9 181.7,25.7 185.6,5.7Z" style="fill:rgb(196,22,28);fill-rule:nonzero;"/>
                <path d="M197.8,62.2C206,61.2 212.7,60.5 222.3,59.6L222.3,51.2C216.9,51.6 211.5,52.2 206,52.7L206,35.6C210.7,35.1 215.4,34.6 220.2,34.2L220.2,26.3C215.5,26.7 210.8,27.2 206,27.7L206,10.6C211.4,10 216.8,9.5 222.3,9.1L222.3,1.2C214.2,1.9 206.4,2.7 197.8,3.8L197.8,62.2Z" style="fill:rgb(196,22,28);fill-rule:nonzero;"/>
                <path d="M243.9,8C245.3,8 246.7,7.9 248.1,7.9C254.1,7.8 255.1,11 255.1,16.9C255.1,22.7 254.2,26 248.5,26.1C247,26.1 245.4,26.2 243.9,26.2L243.9,8ZM235.7,58.8C238.4,58.7 241.2,58.6 243.9,58.5L243.9,33.6C245.5,33.5 247.2,33.5 248.8,33.5C251.3,41.7 253.9,50 256.4,58.2L265.1,58.2C262.2,49.3 259.2,40.5 256.3,31.6C261.5,28.6 263.4,23.7 263.4,17C263.4,5.7 258.7,-0.1 249,0C244.1,0.1 240.2,0.3 235.9,0.5C235.7,19.9 235.7,39.4 235.7,58.8Z" style="fill:rgb(196,22,28);fill-rule:nonzero;"/>
                <path d="M277.2,58.5C279.9,58.6 282.7,58.7 285.4,58.9L285.4,41.4C286.9,38.7 288.3,35.9 289.8,33.2C292.9,42 296,51 299.2,59.8C302.1,60 305,60.3 307.9,60.6C303.5,48.5 299.1,36.4 294.6,24.4C298.3,16.9 302,9.5 305.8,2.1C303.1,1.8 300.3,1.6 297.6,1.4C293.6,10 289.6,18.5 285.6,27.2L285.4,27.2L285.4,0.7C282.7,0.6 279.9,0.4 277.2,0.3L277.2,58.5Z" style="fill:rgb(196,22,28);fill-rule:nonzero;"/>
                <path d="M315.2,61.4C317.9,61.7 320.7,62.1 323.4,62.4C324.2,58.3 325,54.3 325.8,50.2C329.5,50.7 333.3,51.3 337.1,51.9C337.9,56.2 338.8,60.6 339.6,64.9C342.4,65.4 345.1,65.8 347.9,66.3C343.6,46.1 339.3,25.9 335,5.8C332.7,5.5 330.4,5.1 328.1,4.8C323.8,23.6 319.5,42.5 315.2,61.4ZM335.6,43.7C332.8,43.3 330.1,42.9 327.3,42.5C328.6,35.6 330,28.8 331.3,22L331.5,22C332.9,29.3 334.2,36.5 335.6,43.7Z" style="fill:rgb(196,22,28);fill-rule:nonzero;"/>
                <path d="M359.5,68.6C362.3,69.2 365.1,69.8 367.9,70.4L367.9,34.9L368.1,34.9C370.8,43.9 373.6,52.8 376.3,61.8C377.7,62.1 379.1,62.5 380.5,62.8C383.3,55.1 386.1,47.5 388.8,39.8L389,39.8L389,75.6C391.8,76.3 394.6,77.2 397.5,77.9L397.5,19.6C394.8,18.9 392,18 389.2,17.3C385.6,26.7 382.1,35.8 378.5,45.2L378.3,45.2C374.7,34.1 371.1,23 367.5,12C364.8,11.4 362.1,10.8 359.5,10.3L359.5,68.6Z" style="fill:rgb(196,22,28);fill-rule:nonzero;"/>
                <path d="M79,92.6C81.9,91.6 84.8,90.4 87.7,89.5L87.7,63C91.3,61.8 94.8,60.7 98.4,59.6L98.4,85.8C101,84.9 104.1,83.8 107,83L107,24.7C104.1,25.6 101.3,26.6 98.4,27.5L98.4,52.2C94.9,53.3 91.3,54.5 87.7,55.6L87.7,31.1C84,32.4 81.9,33.3 79,34.3L79,92.6Z" style="fill:rgb(196,22,28);fill-rule:nonzero;"/>
                <path d="M413.1,82.6C416,83.5 418.8,84.5 421.7,85.4L421.7,62.6C423.2,63.1 424.6,63.5 426.1,64C432.4,66.1 436.3,65.1 438.7,62.1C440.7,59.6 441.2,56.3 441.2,51.3C441.2,44.4 440.3,40.4 437.3,36.3C434.3,32.3 430.8,30.2 426.1,28.7C421.8,27.3 417.5,25.8 413.2,24.5C413.1,43.8 413.1,63.2 413.1,82.6ZM421.7,35C423.2,35.5 424.7,35.9 426.2,36.4C433,38.6 433,43.1 433,48.6C433,54.4 432.9,58.4 425.9,56.1C424.5,55.7 423.1,55.2 421.8,54.8C421.7,48.2 421.7,41.6 421.7,35Z" style="fill:rgb(196,22,28);fill-rule:nonzero;"/>
            </g>
            <g>
                <path d="M162.3,364.7C164.8,365.1 167.3,365.8 169.8,366.2C176.8,367.1 179.8,364.4 179.8,358.3L179.8,356.4C179.8,352.8 178.7,350.6 176.1,349.1C178.5,348 179.8,346.8 179.8,343.2L179.8,341.9C179.8,338.9 178.7,335.8 175.8,333.9C174.4,332.9 173.1,332.4 167.2,331.3C165.5,330.9 163.9,330.6 162.2,330.3C162.3,341.8 162.3,353.2 162.3,364.7ZM167.8,350.1C168.6,350.2 169.4,350.3 170.2,350.4C174.1,350.9 174.8,352.8 174.8,356.3C174.8,359.7 174.5,361.9 170.1,361.4C169.3,361.3 168.5,361.1 167.7,361C167.8,357.3 167.8,353.8 167.8,350.1ZM167.8,336.2C168.6,336.3 169.3,336.4 170,336.5C173.6,337 174.8,338.7 174.8,341.8C174.8,345 173.9,346.5 170.2,346.1C169.4,346 168.6,345.9 167.7,345.8C167.8,342.6 167.8,339.4 167.8,336.2Z" style="fill:rgb(196,22,28);fill-rule:nonzero;"/>
                <path d="M194.6,340.4C195.5,340.5 196.4,340.6 197.2,340.7C200.9,341.1 201.5,343 201.5,346.5C201.5,350 201,351.8 197.5,351.5C196.5,351.4 195.6,351.3 194.6,351.2L194.6,340.4ZM189.5,369.6C191.2,369.8 192.9,370.1 194.6,370.3L194.6,355.6C195.6,355.7 196.6,355.8 197.6,355.9C199.2,361 200.8,366.2 202.4,371.3C204.2,371.5 205.9,371.7 207.6,371.9C205.8,366.5 204,360.8 202.2,355.4C205.4,354 206.5,351.3 206.5,347.3C206.5,340.6 203.6,336.9 197.7,336.3C195,336 192.2,335.6 189.5,335.3L189.5,369.6Z" style="fill:rgb(196,22,28);fill-rule:nonzero;"/>
                <path d="M214.7,364.7C214.7,370.3 218.9,373.5 222.8,373.8C226.7,374 230.8,371.5 230.8,365.8L230.8,347.5C230.8,341.9 226.7,338.8 222.8,338.6C218.9,338.3 214.7,340.8 214.7,346.5L214.7,364.7ZM219.5,346.8C219.5,344.4 221,343.4 222.8,343.5C224.5,343.6 226,344.8 226,347.2L226,365.5C226,367.9 224.5,368.9 222.8,368.8C221.1,368.7 219.5,367.5 219.5,365.1L219.5,346.8Z" style="fill:rgb(196,22,28);fill-rule:nonzero;"/>
                <path d="M254.4,347.7C254.4,343.9 251.3,340 246.6,339.9C241.2,339.7 238.6,343.7 238.6,349C238.6,353.3 239.7,356.2 243.7,358.1C244.8,358.6 245.9,359.1 247,359.7C249.3,360.7 249.7,361.3 249.7,365C249.7,368.2 249.5,370.1 246.3,370.1C243.9,370 243,368.3 243,366.5L243,364.9C241.4,364.8 239.9,364.8 238.3,364.7L238.3,366.5C238.3,371.2 241.8,374.8 246.3,375C252.3,375.1 254.4,370.8 254.4,365C254.4,359.9 253.6,357.2 249.5,355.4C248.3,354.9 247.1,354.3 245.9,353.8C243.5,352.7 243.2,351.8 243.2,349.1C243.2,346.8 243.8,344.8 246.4,344.9C248.8,345 249.7,346.7 249.7,349L249.7,350.1C251.3,350.1 252.8,350.2 254.4,350.2L254.4,347.7Z" style="fill:rgb(196,22,28);fill-rule:nonzero;"/>
                <rect x="261.8" y="369.9" width="4.7" height="5" style="fill:rgb(196,22,28);fill-rule:nonzero;"/>
                <path d="M287.8,374.1C289.4,374 291,373.9 292.5,373.8L292.5,339.3C290.9,339.4 289.3,339.5 287.8,339.6L287.8,374.1Z" style="fill:rgb(196,22,28);fill-rule:nonzero;"/>
                <path d="M301.3,373.1C302.9,373 304.5,372.9 306.1,372.7L306.1,352L306.2,352C308.7,358.7 311.2,365.1 313.7,371.8C315.3,371.7 316.8,371.4 318.4,371.2L318.4,336.8C316.7,337 315.1,337.2 313.4,337.3L313.4,358.3L313.3,358.3C310.8,351.6 308.4,344.8 305.9,338C304.3,338.1 302.8,338.3 301.2,338.4C301.3,350.1 301.3,361.5 301.3,373.1Z" style="fill:rgb(196,22,28);fill-rule:nonzero;"/>
                <path d="M344.2,358C342.4,358.2 340.7,358.4 338.9,358.7L338.9,360.4C338.9,363.1 337,364.1 335.6,364.3C333.3,364.6 332.4,363.1 332.4,361.2L332.4,343.7C332.4,341.4 333,339.6 335.6,339.3C337.6,339.1 338.8,340.5 338.8,342.5L338.8,344.1C340.6,343.9 342.3,343.7 344.1,343.4L344.1,341.5C344.1,336.7 340.5,333.8 335.6,334.4C330.6,335 327.2,338.8 327.2,343.3L327.2,362.2C327.2,368.5 331.7,369.8 335.7,369.3C340.4,368.7 344.1,364.5 344.1,360.3C344.2,359.4 344.2,358.7 344.2,358Z" style="fill:rgb(196,22,28);fill-rule:nonzero;"/>
                <path d="M353.1,365.7C354.9,365.4 356.8,364.9 358.6,364.7L358.6,359.7C356.8,360 354.9,360.5 353.1,360.7L353.1,365.7Z" style="fill:rgb(196,22,28);fill-rule:nonzero;"/>
            </g>
            <path d="M414,308.5L406,310.8C406.1,311.8 406.3,312.7 406.4,313.5C407.2,318 408.5,322.4 410,326.7L412.7,332.8C413.6,334.9 415.8,338 417.7,339.4C417.7,339.4 418.3,339.8 419.2,340.4C420.2,341 425.6,344 427.9,348.3C428.2,349.2 427.5,349.5 427.2,349.6C424.6,351 420.1,351.2 417.5,350.9L412.4,350.1L410.8,349.6L410,349.1L409.7,349L407.2,348.9C406.3,348.8 404.3,347.4 404,346.5C403.7,345.4 403.2,344.3 402.6,343.3L402.6,343.2C401.5,342.1 400.4,341 399.5,339.8L399,339.5L398.7,339.4C397.1,339.2 396.4,341 396.4,342.2C396.4,342.2 396.9,348.1 397.2,351.9C397.4,358.4 398.1,357 400.5,359.9C405.8,364.7 408.6,370.2 409.5,372C410,374.8 408.7,374.7 408.6,374.8C404.9,375.9 399.1,374.8 395.8,373.7L392,372.3L388.4,370.5L387.8,370.1L387,369.4L386.8,369.2L386.3,369L383.6,368.2C383.2,368.1 382.9,367.8 382.6,367.6C379.6,364.8 380.6,364.9 379.9,361.1L377.4,350.7C376.4,346.7 374.8,342.8 372.8,339.2L372.8,339.1C368.4,332 365,324.2 362.8,316.2C360,314.5 357.6,312.1 355.8,309.1C354.6,310.2 353.4,311.2 352.2,312.2L354.2,315.2C356.5,324.6 360.2,333.5 365,341.9C368.5,348.2 370.9,355.1 371.9,362.2C372.7,369.2 376.3,375.1 383.1,376.4C384.7,377.5 386.5,378.4 388.4,379.2C395.5,382.1 405.3,384.6 412.3,382.1C415.9,380.8 418.3,377.5 418.3,373.6C418.3,369 412.5,361.1 409.1,357.2C415.7,359.3 427.3,359.7 433.3,355.2C437.3,352.2 437.5,347.6 435,343.9C433.5,341.7 428.8,336.7 426.6,335.1L422.6,332.6C421.9,332.1 420.4,329.7 419.8,328.6C417.3,323.3 415.5,317.8 414.5,312C414.2,311 414.1,309.8 414,308.5Z" style="fill:rgb(86,86,86);fill-rule:nonzero;"/>
        </g>
    </g>
</svg>
