<?xml version="1.0" encoding="utf-8"?>
<!-- Generator: Adobe Illustrator 25.0.1, SVG Export Plug-In . SVG Version: 6.00 Build 0)  -->
<svg version="1.1" id="wesley-medical-center" xmlns="http://www.w3.org/2000/svg" xmlns:xlink="http://www.w3.org/1999/xlink"
	 x="0px" y="0px" viewBox="0 0 279 112" enable-background="new 0 0 279 112" xml:space="preserve">
<path id="wes-logo" fill="#B5121B" d="M43.1,84.3c-1.3-2.5-3.4-12.6,1.8-22.1s8.6-17.6,9.6-24.1c0.9-6.6-0.9-8.7-0.2-10.2
	c0.9-1.9,6.5,4.7,12.4,6.2c5.6,1.3,3.9,17.9-4.5,35.6c-3.7,7.7-0.3,14.8,4.5,15c0,0-4.3-5.5,0.3-16.4c4.6-10.8,8.5-14.1,6.5-30.8
	c0,0-1-2.7,3.3,0.1l7.5,4.8c0,0,2.5,0.9,3.2,4.2c5.4,23-8,35.9-8,35.9c-16.2,17.4-31.6,6.9-31.6,6.9C20.9,101.3,14,71,22.3,53.8
	s9.2-17.7,10.5-24.1c0.9-4.4-2.1-9.9-0.2-10.2c1.7-0.3,9.9,5.1,13.7,6.2c6.1,1.7,3.8,17.7-3.7,31.2c0,0-5.5,8.6-4.4,17.5
	C38.1,74.4,38.1,84.9,43.1,84.3z"/>
<g id="wesley">
	<path d="M119.6,68.4l-5.8-19.1l-5.7,19.1h-2.4l-7.2-23.1c-0.4-1.2-0.9-3-1.6-4c-0.7-0.9-1.7-1.1-2.7-1.4v-1.3H105v1.3
		c-1.2,0.1-2.8,0.3-2.8,2.1c0,0.6,0.2,1.2,0.4,1.8l5.6,18.6l4.6-16.5c-0.9-3.2-1.5-5.1-4.6-6v-1.3h10.9v1.3
		c-1.3,0.3-2.9,0.2-2.9,2.1c0,0.6,0.2,1,0.3,1.5l5.6,18.9l5.1-17.7c0.2-0.7,0.4-1.3,0.4-2.1c0-2.1-1.7-2.6-3.2-2.8v-1.3h9.9v1.3
		c-3.2,0.1-3.7,2.5-4.6,5.3l-7.5,23.1h-2.6V68.4z"/>
	<path d="M159.7,46.4l-1.3,0.6c-3.2-4.5-6.5-6.6-11.7-6.6c-1.1,0-3,0-3.9,0.8c-1,0.8-1,2.1-1,3.4v6.7h2.7c4,0,4.7-1,5.2-5.4h1.3V59
		h-1.3c-0.1-1.4-0.3-2.7-1-3.8c-1-1.7-2.5-1.8-4.3-1.8h-2.6v8.7c0,0.9,0.1,2.3,0.6,3.1c0.8,1.2,2.8,1.3,4,1.3c6.1,0,9.7-2.8,13.3-8
		l1.3,0.6l-3.6,9.3h-23.1v-1.3h0.4c1.1-0.1,2.2-0.2,2.8-1.4c0.5-1,0.4-2.9,0.4-4.1V45.4c0-2.9,0.3-5.2-3-5.5h-0.6v-1.3H157
		L159.7,46.4z"/>
	<path d="M182.1,54.8c0.7,0.7,1.2,1.4,1.5,2.3c0.3,0.8,0.5,1.8,0.5,2.9c0,2.6-1,4.8-3.1,6.5s-4.7,2.5-7.7,2.5
		c-1.4,0-2.8-0.2-4.3-0.6c-1.4-0.4-2.6-0.9-3.7-1.5l-1,1.5h-1.8l-0.3-10.2h1.8c0.4,1.3,0.8,2.4,1.3,3.4s1.2,1.9,2,2.8
		c0.8,0.8,1.7,1.5,2.7,2s2.2,0.7,3.6,0.7c1,0,1.9-0.1,2.7-0.4s1.4-0.6,1.9-1.1s0.8-1,1.1-1.6c0.2-0.6,0.3-1.3,0.3-2.1
		c0-1.2-0.4-2.3-1.1-3.3c-0.7-1-1.8-1.8-3.2-2.3c-1-0.4-2.1-0.8-3.3-1.2c-1.3-0.4-2.3-0.9-3.3-1.2c-1.8-0.8-3.2-1.7-4.2-3
		c-1-1.2-1.5-2.8-1.5-4.8c0-1.1,0.2-2.2,0.7-3.1c0.5-1,1.2-1.8,2.1-2.6c0.9-0.7,1.9-1.3,3.1-1.7c1.2-0.4,2.4-0.6,3.7-0.6
		c1.5,0,2.8,0.2,3.9,0.6c1.2,0.4,2.2,0.9,3.2,1.5l0.9-1.4h1.8l0.2,9.8h-1.8c-0.3-1.1-0.7-2.2-1.1-3.2c-0.4-1-0.9-2-1.6-2.8
		c-0.6-0.8-1.4-1.5-2.3-1.9c-0.9-0.5-2.1-0.7-3.4-0.7c-1.4,0-2.6,0.4-3.6,1.3c-1,0.8-1.5,1.9-1.5,3.1c0,1.3,0.3,2.3,1,3.2
		c0.6,0.8,1.6,1.5,2.8,2.1c1.1,0.5,2.2,0.9,3.2,1.3c1.1,0.4,2.1,0.7,3.1,1.1c0.9,0.4,1.8,0.8,2.6,1.2
		C180.8,53.7,181.5,54.2,182.1,54.8z"/>
	<path d="M205.6,68.4h-20.5v-1.3h0.4c1,0,2.1-0.2,2.7-1.4c0.5-1,0.4-2.9,0.4-4.1V45.4c0-2.9,0.3-5.2-2.9-5.5h-0.5v-1.3h11.2v1.3
		h-0.5c-1.1,0.1-2.3,0.2-2.9,1.4c-0.5,1.1-0.4,2.9-0.4,4.1v17c0,0.8,0,2.3,0.4,3c0.5,1,2.1,1.2,3,1.2c5.2,0,9.1-3.7,11.8-8.2
		l1.1,0.6L205.6,68.4z"/>
	<path d="M233.2,46.4l-1.3,0.6c-3.2-4.5-6.5-6.6-11.7-6.6c-1.1,0-3,0-3.9,0.8c-1,0.8-1,2.1-1,3.4v6.7h2.7c4,0,4.7-1,5.2-5.4h1.3V59
		h-1.3c-0.1-1.4-0.3-2.7-1-3.8c-1-1.7-2.5-1.8-4.3-1.8h-2.6v8.7c0,0.9,0.1,2.3,0.6,3.1c0.8,1.2,2.8,1.3,4,1.3c6.1,0,9.7-2.8,13.3-8
		l1.3,0.6l-3.6,9.3h-23.1v-1.3h0.4c1.1-0.1,2.2-0.2,2.8-1.4c0.5-1,0.4-2.9,0.4-4.1V45.4c0-2.9,0.3-5.2-3-5.5h-0.6v-1.3h22.7
		L233.2,46.4z"/>
	<path d="M247.8,61.5c0,3.1-0.1,5.6,3.3,5.6h0.8v1.3h-12.3v-1.3h0.8c1.1-0.1,2.4-0.2,3-1.4c0.5-1,0.4-2.9,0.4-4.1V56l-6.3-11.2
		c-1.4-2.6-2.1-4.2-4.9-4.9v-1.3h11.2v1.3c-1,0.2-3,0.3-3,1.8c0,0.7,0.5,1.5,0.8,2.1l5.4,9.5l5.3-9.1c0.4-0.7,0.8-1.4,0.8-2.3
		c0-1.5-1.8-1.7-2.8-2v-1.3h9.9v1.3c-3.4,0.6-4.3,2.4-6.1,5.3l-6.3,10.9V61.5z"/>
</g>
<g id="medical-center">
	<path d="M94.5,72.5h5.8l5.2,13.8l4.8-13.8h5.9v0.9h-1.5c-0.5,0-0.9,0.1-1,0.2c-0.2,0.1-0.3,0.4-0.3,0.8v13.8c0,0.3,0.1,0.5,0.3,0.6
		c0.2,0.1,0.6,0.2,1.1,0.2h1.3v1h-8v-0.9h1.5c0.4,0,0.7-0.1,0.9-0.2c0.2-0.2,0.3-0.4,0.3-0.6V73.4L105.3,90h-0.8l-6.2-16.5v12.7
		c0,0.8,0.1,1.3,0.3,1.7c0.2,0.4,0.5,0.7,0.8,0.9c0.4,0.2,0.9,0.3,1.7,0.4V90h-6.6v-0.9c1.1-0.1,1.8-0.3,2.2-0.7
		c0.4-0.4,0.6-1.1,0.6-2.1v-12c0-0.3-0.1-0.5-0.3-0.7s-0.5-0.2-1-0.2h-1.5V72.5z"/>
	<path d="M128.2,84.1h-8.5c0,1.8,0.4,3.1,1,3.8c0.7,0.8,1.6,1.3,2.8,1.3c1.7,0,3-0.9,4-2.8l0.8,0.4c-1.2,2.4-3,3.6-5.3,3.6
		c-1.6,0-2.9-0.6-4-1.7s-1.6-2.6-1.6-4.4c0-1.9,0.5-3.5,1.6-4.7s2.4-1.8,3.9-1.8c1.1,0,2.1,0.3,3,0.9c0.8,0.6,1.5,1.4,1.9,2.5
		C128,81.9,128.2,82.9,128.2,84.1z M119.7,83.2h5.1c0.3,0,0.5-0.1,0.7-0.3c0.2-0.2,0.3-0.6,0.3-1.1c0-0.9-0.3-1.7-0.9-2.4
		c-0.6-0.6-1.3-1-2-1c-0.9,0-1.6,0.4-2.2,1.2C120,80.5,119.7,81.6,119.7,83.2z"/>
	<path d="M136,71.2l4.6-0.2v16.2c0,0.6,0.1,1.1,0.4,1.4c0.2,0.3,0.6,0.4,1.1,0.4h0.8v1h-4l-0.3-2.4c-0.5,0.9-1,1.5-1.7,1.9
		s-1.4,0.7-2.2,0.7c-1.3,0-2.5-0.6-3.4-1.7s-1.4-2.6-1.4-4.5c0-2,0.6-3.6,1.8-4.8c1-0.9,2.1-1.4,3.3-1.4c0.8,0,1.4,0.2,2,0.6
		s1.1,1,1.6,1.7v-6.7c0-0.4-0.1-0.6-0.4-0.8c-0.3-0.2-0.7-0.3-1.3-0.3H136V71.2z M135.2,78.8c-0.9,0-1.6,0.4-2.2,1.1
		c-0.5,0.8-0.8,2-0.8,3.8c0,1.9,0.3,3.3,0.8,4.1c0.5,0.8,1.3,1.2,2.1,1.2c0.9,0,1.7-0.4,2.4-1.3s1-2.2,1-3.9c0-1.6-0.3-2.9-1-3.8
		C136.9,79.2,136.1,78.8,135.2,78.8z"/>
	<path d="M143.1,78.1l4.7-0.1v10.2c0,0.3,0.1,0.5,0.2,0.6c0.2,0.2,0.4,0.3,0.7,0.3h1.3V90h-6.7v-1h1.3c0.4,0,0.6-0.1,0.8-0.3
		c0.2-0.2,0.3-0.4,0.3-0.8v-7.5c0-0.5-0.1-0.8-0.4-1.1c-0.3-0.2-0.7-0.4-1.2-0.4h-1L143.1,78.1L143.1,78.1z M146.4,71
		c0.4,0,0.7,0.1,1,0.4s0.4,0.6,0.4,1s-0.1,0.7-0.4,1c-0.3,0.3-0.6,0.4-1,0.4s-0.7-0.1-1-0.4s-0.4-0.6-0.4-1s0.1-0.7,0.4-1
		C145.7,71.2,146,71,146.4,71z"/>
	<path d="M159.8,86.4l0.8,0.2c-0.7,2.4-2.1,3.6-4.4,3.6c-1.6,0-3-0.5-4-1.6s-1.6-2.5-1.6-4.3c0-2.1,0.6-3.7,1.7-4.9
		c1.1-1.2,2.5-1.7,4-1.7c1.2,0,2.1,0.3,2.9,1c0.8,0.6,1.1,1.4,1.1,2.1c0,0.5-0.1,0.9-0.4,1.2c-0.3,0.3-0.6,0.5-1,0.5s-0.7-0.1-1-0.4
		s-0.4-0.6-0.4-0.9c0-0.4,0.1-0.7,0.4-1.1c0.1-0.2,0.2-0.3,0.2-0.4c0-0.2-0.2-0.5-0.5-0.7s-0.8-0.3-1.3-0.3c-1,0-1.8,0.4-2.3,1.1
		c-0.8,1.1-1.1,2.5-1.1,4.3c0,1.7,0.3,3,1,3.8c0.7,0.9,1.5,1.3,2.6,1.3C158,89.2,159.1,88.3,159.8,86.4z"/>
	<path d="M174,88.7l0.5,0.7c-0.6,0.6-1.3,0.9-2,0.9c-0.6,0-1.1-0.2-1.4-0.5s-0.7-0.9-1-1.6c-0.8,0.8-1.5,1.4-2.1,1.7
		c-0.6,0.3-1.3,0.4-2.2,0.4c-1.2,0-2.1-0.3-2.8-0.8s-0.9-1.2-0.9-2c0-1.2,0.7-2.3,2.2-3.1c1.4-0.8,3.4-1.4,5.8-1.6V81
		c0-0.6-0.3-1.2-0.8-1.6c-0.5-0.5-1.2-0.7-2-0.7c-0.7,0-1.4,0.2-1.9,0.5c-0.4,0.2-0.6,0.5-0.6,0.7c0,0.1,0.1,0.3,0.3,0.6
		c0.2,0.3,0.4,0.6,0.4,0.9c0,0.4-0.1,0.7-0.4,0.9c-0.2,0.2-0.6,0.4-1,0.4s-0.8-0.1-1.1-0.4s-0.4-0.7-0.4-1.1c0-0.8,0.5-1.6,1.4-2.3
		c0.9-0.7,2.2-1,3.7-1c1.4,0,2.5,0.3,3.2,0.9s1.1,1.4,1.1,2.2v6.5c0,0.6,0.1,1,0.3,1.3s0.4,0.4,0.7,0.4
		C173.3,89.1,173.6,88.9,174,88.7z M169.8,83.7c-2.1,0.3-3.7,0.8-4.6,1.4c-0.7,0.5-1,1.2-1,2.2c0,0.6,0.2,1.2,0.5,1.5
		s0.8,0.6,1.4,0.6c1,0,1.9-0.4,2.6-1.1c0.7-0.8,1.1-1.7,1.1-2.8V83.7z"/>
	<path d="M179.6,71v17.2c0,0.2,0.1,0.4,0.2,0.5c0.2,0.2,0.5,0.3,0.8,0.3h1.3v1h-6.7v-1h1.2c0.4,0,0.7-0.1,0.9-0.3
		c0.2-0.2,0.3-0.4,0.3-0.8V73.5c0-0.4-0.1-0.7-0.3-0.9c-0.3-0.3-0.7-0.4-1.2-0.4H175v-0.9L179.6,71z"/>
	<path d="M201.6,73.8l0.8-1.7h0.7l0.3,7h-0.8c-0.5-2-1.2-3.4-2-4.4c-1-1.2-2.1-1.8-3.5-1.8c-1.5,0-2.7,0.7-3.6,2
		c-0.9,1.3-1.4,3.5-1.4,6.6c0,2.6,0.5,4.6,1.6,6c0.9,1.2,2.2,1.7,3.8,1.7c1.4,0,2.6-0.5,3.6-1.4s1.6-2.3,1.9-4.1h0.8
		c-0.2,2.1-1,3.7-2.1,4.8c-1.2,1.1-2.7,1.7-4.5,1.7c-1.5,0-2.8-0.4-4-1.1s-2.2-1.8-2.9-3.2c-0.7-1.4-1.1-2.9-1.1-4.5
		c0-1.7,0.4-3.4,1.1-4.9c0.8-1.5,1.7-2.7,2.9-3.4c1.2-0.8,2.4-1.2,3.8-1.2c0.8,0,1.5,0.1,2.2,0.4S200.8,73.2,201.6,73.8z"/>
	<path d="M215.5,84.5h-7.9c0,1.7,0.4,2.9,0.9,3.6c0.7,0.8,1.5,1.2,2.6,1.2c1.5,0,2.8-0.9,3.7-2.6l0.8,0.3c-1.1,2.2-2.8,3.4-5,3.4
		c-1.5,0-2.7-0.5-3.7-1.6s-1.5-2.4-1.5-4.1c0-1.8,0.5-3.2,1.5-4.4c1-1.1,2.2-1.7,3.7-1.7c1.1,0,2,0.3,2.8,0.8
		c0.8,0.6,1.4,1.3,1.8,2.4C215.4,82.5,215.5,83.4,215.5,84.5z M207.6,83.7h4.8c0.3,0,0.5-0.1,0.7-0.3c0.2-0.2,0.2-0.5,0.2-1
		c0-0.9-0.3-1.6-0.8-2.2s-1.2-0.9-1.9-0.9c-0.8,0-1.5,0.4-2.1,1.1C207.9,81.1,207.6,82.2,207.6,83.7z"/>
	<path d="M216.5,78.9l3.7-0.2c0.1,0.7,0.3,1.5,0.3,2.4c0.5-0.8,1.1-1.4,1.8-1.8s1.4-0.6,2.3-0.6c0.7,0,1.3,0.1,1.8,0.4
		s0.9,0.7,1.2,1.4c0.3,0.6,0.4,1.3,0.4,2.1V88c0,0.4,0.1,0.7,0.3,0.9c0.2,0.2,0.5,0.3,0.9,0.3h0.8V90h-5.8v-0.9h0.6
		c0.5,0,0.9-0.1,1.1-0.2c0.2-0.2,0.3-0.4,0.3-0.7v-4.7c0-1-0.2-1.8-0.5-2.3c-0.4-0.7-1.1-1.1-2-1.1s-1.6,0.4-2.2,1.1
		c-0.6,0.7-0.9,1.6-0.9,2.8v4c0,0.4,0.1,0.7,0.3,0.9c0.2,0.2,0.5,0.3,0.9,0.3h0.8V90h-5.9v-0.9h0.8c0.4,0,0.7-0.1,0.9-0.2
		c0.2-0.2,0.3-0.4,0.3-0.6v-7.1c0-0.5-0.1-0.8-0.4-1.1c-0.3-0.2-0.6-0.4-1.1-0.4h-0.6v-0.8H216.5z"/>
	<path d="M233.5,74.4h0.8v4.5h3.6V80h-3.6v7.1c0,0.6,0.1,1.1,0.4,1.4c0.3,0.3,0.7,0.5,1.1,0.5c0.5,0,1-0.2,1.4-0.7s0.6-1.3,0.7-2.5
		h0.8c0,1.5-0.4,2.6-1,3.3c-0.6,0.7-1.4,1.1-2.4,1.1c-0.9,0-1.6-0.2-2.1-0.7s-0.8-1.2-0.8-2V80h-1.9v-0.8c0.9-0.1,1.5-0.5,2-1.1
		C233.1,77.2,233.4,76,233.5,74.4z"/>
	<path d="M249.6,84.5h-7.9c0,1.7,0.4,2.9,0.9,3.6c0.7,0.8,1.5,1.2,2.6,1.2c1.5,0,2.8-0.9,3.7-2.6l0.8,0.3c-1.1,2.2-2.8,3.4-5,3.4
		c-1.5,0-2.7-0.5-3.7-1.6s-1.5-2.4-1.5-4.1c0-1.8,0.5-3.2,1.5-4.4c1-1.1,2.2-1.7,3.7-1.7c1.1,0,2,0.3,2.8,0.8
		c0.8,0.6,1.4,1.3,1.8,2.4C249.5,82.5,249.6,83.4,249.6,84.5z M241.7,83.7h4.8c0.3,0,0.5-0.1,0.7-0.3c0.2-0.2,0.2-0.5,0.2-1
		c0-0.9-0.3-1.6-0.8-2.2s-1.2-0.9-1.9-0.9c-0.8,0-1.5,0.4-2.1,1.1C242,81.1,241.7,82.2,241.7,83.7z"/>
	<path d="M250.4,78.9l4-0.2v4.5c0.4-1.5,0.9-2.6,1.5-3.3c0.6-0.8,1.3-1.1,2.2-1.1c0.6,0,1.1,0.2,1.4,0.5c0.4,0.4,0.5,0.9,0.5,1.5
		c0,0.5-0.1,0.9-0.4,1.2c-0.2,0.3-0.5,0.4-0.9,0.4s-0.6-0.1-0.9-0.4c-0.2-0.2-0.3-0.6-0.3-1c0-0.3,0.1-0.5,0.2-0.7s0.2-0.3,0.2-0.4
		s-0.1-0.2-0.2-0.2c-0.3,0-0.7,0.2-1.1,0.6c-0.6,0.5-1,1.3-1.3,2.2c-0.5,1.4-0.7,2.6-0.7,3.4v2.4c0,0.3,0.1,0.5,0.3,0.6
		s0.5,0.2,1,0.2h1.4V90h-6.9v-0.9h1.1c0.4,0,0.6-0.1,0.8-0.2s0.3-0.3,0.3-0.5v-7.1c0-0.5-0.1-0.9-0.3-1.2c-0.2-0.2-0.6-0.4-1-0.4h-1
		L250.4,78.9L250.4,78.9z"/>
</g>
</svg>
