<?xml version="1.0" encoding="UTF-8" standalone="no"?><!DOCTYPE svg PUBLIC "-//W3C//DTD SVG 1.1//EN" "http://www.w3.org/Graphics/SVG/1.1/DTD/svg11.dtd"><svg width="100%" height="100%" viewBox="0 0 2267 1000" version="1.1" xmlns="http://www.w3.org/2000/svg" xmlns:xlink="http://www.w3.org/1999/xlink" xml:space="preserve" xmlns:serif="http://www.serif.com/" style="fill-rule:evenodd;clip-rule:evenodd;stroke-linejoin:round;stroke-miterlimit:2;"><g><g id="mfi"><g opacity="0.35"><g><path d="M1636.07,441.005l-4.341,-12.136l61.618,-47.876c22.474,20.235 55.813,35.74 95.689,35.74c16.669,-0 33.339,-4.05 33.339,-14.836c-0,-26.303 -173.976,-4.719 -173.976,-113.957c-0,-47.196 50.021,-86.305 131.942,-86.305c44.217,0 79.019,2.7 111.627,23.604l14.511,14.824l-52.192,62.712c-26.108,-18.204 -55.106,-31.01 -83.372,-31.01c-18.133,0 -22.474,5.388 -22.474,12.125c-0,20.235 93.518,3.38 137.734,47.207c12.329,12.137 28.279,36.41 28.279,59.344c-0,60.682 -48.57,96.41 -128.308,96.41c-64.52,0 -117.444,-19.554 -150.076,-45.846m-102.932,-140.929c0,-14.825 -14.499,-21.573 -29.729,-21.573l-55.082,-0l-0,43.827l55.082,-0c15.23,-0 29.729,-6.749 29.729,-22.254m-11.609,181.388l-13.755,-14.167l-26.108,-72.138l-32.62,0l0,86.974l-89.896,-0l-14.487,-14.836l14.487,-262.293l158.77,-8.099c76.836,0 110.907,56.644 103.663,118.676c-5.804,43.158 -39.143,57.994 -48.582,62.712l63.801,103.171l-115.273,-0Zm-353.756,-202.292l-32.62,97.102l65.959,0l-33.339,-97.102Zm68.141,202.961l-18.84,-14.836l-5.804,-17.524l-99.311,0l-10.877,32.36l-93.518,-0l-21.035,-14.836l128.32,-262.293l93.518,-14.167l19.572,14.167l109.469,277.129l-101.494,-0Zm-481.357,-0l-14.499,-14.836l14.499,-262.293l210.229,-14.167l15.219,14.167l-0,72.818l-135.552,0l0,27.653l117.443,-14.167l15.219,14.167l-0,72.818l-132.662,0l0,30.341l120.333,-14.155l15.951,14.155l-0,73.499l-226.18,-0Zm-130.479,-0l-14.499,-14.836l14.499,-151.716l-66.691,166.552l-39.888,-0l-14.486,-14.836l-57.996,-157.104l5.792,171.94l-89.884,-0l-14.499,-14.836l6.524,-271.061l118.162,-5.399l14.499,14.167l52.192,132.831l52.192,-141.599l110.187,-5.399l13.78,14.167l-0,277.129l-89.884,-0Zm1293.27,293.995l-8.682,-8.768l-18.133,12.806l8.694,8.779c0,0 1.451,1.339 2.183,2.019c2.171,1.35 4.341,2.7 7.256,2.7c6.511,-0 11.596,-4.719 11.596,-10.787c0,-3.38 -2.914,-6.749 -2.914,-6.749m-154.404,-35.728c-0,-31.702 44.948,-51.937 79.019,-51.937c28.998,-0 34.79,34.401 34.79,34.401l-31.888,13.475c0,0 -4.353,-14.836 -18.852,-14.836c-15.938,0 -23.925,11.467 -23.925,25.623c-0,25.633 17.401,25.633 33.351,25.633c12.316,0 20.303,-6.748 23.193,-14.847l13.78,-2.007l14.487,14.155c-6.524,13.486 -30.437,29.672 -59.435,29.672c-38.424,-0 -64.52,-27.653 -64.52,-59.332m-36.973,56.632l-15.219,-13.486l-25.376,-37.09l-0,50.576l-33.339,0l-15.231,-13.486l15.231,-87.654l18.84,-14.836l4.353,2.019l49.29,61.362l-0,-48.545l18.12,-14.836l15.231,14.836l-0.012,101.14l-31.888,0Zm-143.527,0l-14.511,-13.486l14.511,-109.908l26.083,-14.155l14.512,14.155l-0,123.394l-40.595,0Zm-81.922,16.175l-14.511,-14.825c0,-0 0.732,-11.467 1.451,-14.167c1.464,-5.399 -5.072,-18.873 1.464,-19.554c6.524,-0.669 24.644,18.885 24.644,26.972c0.72,8.099 -4.353,16.186 -13.048,21.574m-708.257,-82.267c0,-5.388 -5.085,-8.076 -10.877,-8.076l-20.303,0l-0,16.174l20.303,0c5.792,0 10.877,-2.018 10.877,-8.098m-3.633,66.092l-15.219,-13.486l0,-17.535l-12.328,-0l-0,31.021l-33.34,0l-15.23,-13.486l15.23,-87.654l48.57,-14.836c37.693,3.369 51.472,36.409 43.497,56.633c-4.353,10.786 -16.681,16.866 -16.681,16.866l25.376,42.477l-39.875,0Zm652.443,-66.092c0,-5.388 -5.073,-8.076 -10.877,-8.076l-20.304,0l0,16.174l20.304,0c5.804,0 10.877,-2.018 10.877,-8.098m-3.621,66.092l-15.231,-13.486l-0,-17.535l-12.329,-0l0,31.021l-33.339,0l-15.218,-13.486l15.218,-87.654l48.57,-14.836c37.693,3.369 51.472,36.409 43.497,56.633c-4.353,10.786 -16.682,16.866 -16.682,16.866l25.377,42.477l-39.863,0Zm-166.745,0l-14.487,-13.486l14.487,-87.654l68.885,-14.836l14.487,14.836l0,26.972l-50.021,0l0,10.106l34.071,-14.824l14.499,14.824l0,26.973l-49.289,-0l-0,11.467l35.522,-14.836l14.487,14.836l-0,25.622l-82.641,0Zm-109.456,0l-14.499,-13.486l14.499,-10.117l42.046,-50.565l-42.046,0l-14.499,-14.166l14.499,-12.806l71.044,-14.167l15.218,14.167l0,24.261l-42.046,50.576l28.279,-14.155l14.487,14.155l-0,26.303l-86.982,0Zm-55.826,0l-14.499,-13.486l14.499,-87.654l18.853,-14.836l14.499,14.836l-0,101.14l-33.352,0Zm-95.688,0l-14.499,-13.486l14.499,-87.654l18.852,-14.836l14.499,14.836l-0,75.518l27.547,-14.836l13.767,14.836l0,25.622l-74.665,0Zm-58.728,0l-14.487,-13.486l14.487,-87.654l18.852,-14.836l14.511,14.836l0,101.14l-33.363,0Zm-81.909,0l-14.499,-13.486l14.499,-60.682l-29.718,0l-14.499,-14.836l7.975,-18.204l84.08,-8.768l14.511,14.836l0,26.972l-28.998,0l0,74.168l-33.351,0Zm-247.203,0l-14.499,-13.486l14.499,-87.654l68.873,-14.836l14.499,14.836l0,26.972l-50.021,0l0,10.106l34.071,-14.824l14.499,14.824l0,26.973l-49.301,-0l-0,11.467l35.522,-14.836l14.499,14.836l-0,25.622l-82.641,0Zm-260.97,0l-14.499,-12.147l-0,-277.13l1559.32,0l14.511,14.836l0,72.819l-1469.45,-0l-0,27.652l118.163,-14.155l14.511,14.155l-0.012,72.83l-132.662,-0l-0,101.14l-89.884,0Z" style="fill:#1c3f52;fill-rule:nonzero;"/></g></g><g><path d="M346.413,784.889l0,-277.129l1559.33,-0l-0,73.499l-1469.44,-0l-0,27.641l132.649,0l0,72.819l-132.649,-0l-0,103.17l-89.897,0Z" style="fill:#1c3f52;fill-rule:nonzero;"/></g><g><path d="M607.386,783.547l0,-102.501l83.372,0.011l0,26.973l-50.021,-0l0,10.106l49.29,-0l-0,26.972l-49.29,-0l0,11.467l50.021,0l0,26.972l-83.372,0Z" style="fill:#1c3f52;fill-rule:nonzero;"/></g><g><path d="M777.751,716.79c0,-5.399 -5.085,-8.098 -10.877,-8.098l-20.303,-0l-0,16.185l20.303,0c5.792,0 10.877,-2.688 10.877,-8.087m-4.353,66.762l-15.218,-32.371l-12.329,-0l0,32.371l-33.351,-0l-0,-102.49l58.728,-0c25.364,-0 39.863,16.174 39.863,35.048c-0,17.535 -10.865,26.972 -19.572,31.021l20.303,36.421l-38.424,-0Z" style="fill:#1c3f52;fill-rule:nonzero;"/></g><g><path d="M854.589,783.548l-0,-75.517l-29.73,-0l0,-26.973l92.067,0l0,26.973l-28.998,-0l0,75.517l-33.339,0Z" style="fill:#1c3f52;fill-rule:nonzero;"/></g><g><rect x="936.503" y="681.056" width="33.339" height="102.49" style="fill:#1c3f52;"/></g><g><path d="M995.23,783.548l0,-102.49l33.34,0l-0,75.518l42.058,0l-0,26.972l-75.398,0Z" style="fill:#1c3f52;fill-rule:nonzero;"/></g><g><rect x="1090.92" y="681.056" width="33.351" height="102.49" style="fill:#1c3f52;"/></g><g><path d="M1146.74,783.549l-0,-24.284l42.046,-50.576l-42.046,0l-0,-26.972l85.543,0l-0,24.284l-42.058,50.576l43.509,-0l0,26.972l-86.994,0Z" style="fill:#1c3f52;fill-rule:nonzero;"/></g><g><path d="M1256.2,783.548l0,-102.49l83.373,0l-0,26.973l-50.034,-0l0,10.106l49.302,-0l0,26.972l-49.302,-0l0,11.467l50.034,0l-0,26.972l-83.373,0Z" style="fill:#1c3f52;fill-rule:nonzero;"/></g><g><path d="M1426.57,716.79c-0,-5.399 -5.085,-8.098 -10.89,-8.098l-20.291,-0l-0,16.185l20.291,0c5.805,0 10.89,-2.688 10.89,-8.087m-4.354,66.762l-15.218,-32.371l-12.329,-0l0,32.371l-33.351,-0l-0,-102.49l58.728,-0c25.364,-0 39.863,16.174 39.863,35.048c-0,17.535 -10.865,26.972 -19.572,31.021l20.303,36.421l-38.424,-0Z" style="fill:#1c3f52;fill-rule:nonzero;"/></g><g><path d="M1486,798.379l-7.963,-6.068c3.622,-1.35 8.695,-6.069 9.414,-9.437c-0.719,-0 -1.451,0.669 -2.89,0.669c-5.085,-0 -9.438,-3.369 -9.438,-9.448c-0,-6.069 5.073,-10.106 10.877,-10.106c6.524,-0 12.329,4.718 12.329,12.816c1.451,8.757 -3.622,16.175 -12.329,21.574" style="fill:#1c3f52;fill-rule:nonzero;"/></g><g><rect x="1567.92" y="659.482" width="40.595" height="124.063" style="fill:#1c3f52;"/></g><g><path d="M1710.74,783.548l-40.595,-51.925l0,51.925l-33.351,0l-0,-102.49l34.058,0l38.437,48.546l-0,-48.546l33.339,0l-0,102.49l-31.888,0Z" style="fill:#1c3f52;fill-rule:nonzero;"/></g><g><path d="M1762.21,732.972c0,-31.691 26.096,-52.595 60.167,-52.595c28.998,0 43.497,15.505 50.021,29.672l-28.998,12.136c-2.902,-8.098 -11.597,-14.835 -21.023,-14.835c-15.95,-0 -26.827,11.467 -26.827,25.622c-0,14.155 10.877,25.623 26.827,25.623c10.158,-0 18.121,-6.749 21.023,-14.836l28.998,12.136c-6.524,13.486 -21.023,29.672 -50.021,29.672c-34.071,-0 -60.167,-21.585 -60.167,-52.595" style="fill:#1c3f52;fill-rule:nonzero;"/></g><g><path d="M1888.34,774.101c-0,-6.068 5.073,-10.787 11.597,-10.787c6.524,0 11.596,4.719 11.596,10.787c0,6.068 -5.072,10.787 -11.596,10.787c-5.073,-0 -11.597,-4.719 -11.597,-10.787" style="fill:#1c3f52;fill-rule:nonzero;"/></g><g><path d="M609.567,467.302l0,-166.552l-66.69,166.552l-39.876,-0l-66.69,-166.552l-0,166.552l-89.897,-0l0,-276.46l124.687,-0l52.191,132.831l52.204,-132.831l124.687,-0l-0,276.46l-90.616,-0Z" style="fill:#1c3f52;fill-rule:nonzero;"/></g><g><path d="M739.328,467.302l0,-276.46l225.448,-0l0,72.818l-135.564,0l0,27.653l132.674,-0l0,72.818l-132.674,0l0,30.352l135.564,0l0,72.819l-225.448,-0Z" style="fill:#1c3f52;fill-rule:nonzero;"/></g><g><path d="M1153.27,273.106l-29.73,89.004l58.728,0l-28.998,-89.004Zm64.52,194.194l-10.89,-32.36l-107.273,-0l-10.877,32.36l-102.225,-0l109.48,-276.46l113.078,-0l109.468,276.46l-100.761,-0Z" style="fill:#1c3f52;fill-rule:nonzero;"/></g><g><path d="M1518.63,285.246c0,-14.835 -14.499,-21.573 -29.73,-21.573l-55.093,0l-0,43.816l55.093,-0c15.231,-0 29.73,-6.738 29.73,-22.243m-10.877,182.057l-41.314,-86.985l-32.632,0l-0,86.985l-89.885,0l0,-276.459l158.746,-0c69.605,-0 107.297,43.157 107.297,95.072c0,47.876 -29.717,72.818 -53.642,83.616l53.642,97.771l-102.212,0Z" style="fill:#1c3f52;fill-rule:nonzero;"/></g><g><path d="M1632.44,428.194l47.119,-62.032c22.474,20.224 55.813,35.729 95.701,35.729c16.669,-0 33.339,-4.038 33.339,-14.825c-0,-26.303 -166.013,0.67 -166.013,-108.569c-0,-47.196 42.046,-91.704 123.235,-91.704c48.582,0 92.067,12.817 126.138,38.44l-47.838,59.332c-26.096,-18.205 -59.447,-27.641 -87.714,-27.641c-18.12,-0 -22.474,5.387 -22.474,12.136c0,26.303 165.282,4.049 165.282,106.539c-0,60.682 -48.558,96.422 -128.321,96.422c-63.788,0.669 -107.273,-16.855 -138.454,-43.827" style="fill:#1c3f52;fill-rule:nonzero;"/></g></g></g></svg>