<?xml version="1.0" encoding="UTF-8" standalone="no"?>
<!DOCTYPE svg PUBLIC "-//W3C//DTD SVG 1.1//EN" "http://www.w3.org/Graphics/SVG/1.1/DTD/svg11.dtd">
<svg width="100%" height="100%" viewBox="0 0 547 208" version="1.1" xmlns="http://www.w3.org/2000/svg" xmlns:xlink="http://www.w3.org/1999/xlink" xml:space="preserve" xmlns:serif="http://www.serif.com/" style="fill-rule:evenodd;clip-rule:evenodd;stroke-linejoin:round;stroke-miterlimit:2;">
    <g id="Artboard1" transform="matrix(1,0,0,1,-14.1307,254.889)">
        <rect x="14.131" y="-254.889" width="547" height="208" style="fill:none;"/>
        <g transform="matrix(0.718873,0,0,0.718873,-0.660249,-283.683)">
            <g transform="matrix(0.849899,0,0,0.849899,27.4617,71.0225)">
                <g>
                    <g transform="matrix(4.16667,0,0,4.16667,235.468,72.5246)">
                        <path d="M0,27.282L0.001,10.354L-13.982,-11.385L-35.828,-11.385L-50.05,10.231L-50.051,27.28C-50.051,31.537 -47.681,35.262 -44.198,37.216L-27.437,-8.946C-27.437,-8.946 -34.026,17.798 -39.161,38.64C-38.996,38.647 -38.833,38.666 -38.667,38.666L-11.385,38.667C-11.298,38.667 -11.213,38.655 -11.126,38.653L-22.325,-8.919L-6.07,37.336C-2.469,35.419 0,31.627 0,27.282" style="fill:url(#_Linear1);fill-rule:nonzero;"/>
                    </g>
                    <g transform="matrix(4.16667,0,0,4.16667,68.1971,21.9654)">
                        <path d="M0,51.547L0.47,51.567C0.565,51.573 0.661,51.58 0.758,51.58L29.48,51.581C29.518,51.581 29.555,51.578 29.592,51.576C29.641,51.572 29.689,51.569 29.738,51.568L30.172,51.558C31.746,51.464 33.246,51.057 34.642,50.345L34.823,50.243C38.589,48.238 40.929,44.364 40.929,40.134L40.93,22.438L40.929,22.31L40.93,11.419C40.93,5.106 35.794,-0.03 29.482,-0.03L4.041,-0.038L3.742,-0.032L0.76,-0.032C-2.285,-0.032 -5.157,1.163 -7.326,3.331C-9.495,5.5 -10.689,8.372 -10.689,11.416L-10.69,40.132C-10.69,44.258 -8.434,48.086 -4.803,50.122L-4.501,50.292C-3.104,51.022 -1.593,51.443 0,51.547M29.313,52.661L29.313,52.657L0.758,52.656C0.644,52.656 0.531,52.65 0.419,52.642L0.214,52.636C-1.762,52.55 -3.626,52.023 -5.33,51.068L-5.631,50.899L-5.63,50.886C-9.424,48.62 -11.766,44.531 -11.766,40.132L-11.765,11.416C-11.765,8.084 -10.458,4.943 -8.086,2.57C-5.714,0.199 -2.573,-1.108 0.759,-1.108L3.448,-1.107L3.747,-1.114L29.482,-1.106C36.388,-1.106 42.006,4.513 42.005,11.419L42.005,40.134C42.005,44.665 39.554,48.82 35.589,51.051L35.589,51.055L35.329,51.2C33.605,52.117 31.734,52.606 29.765,52.651L29.574,52.655C29.543,52.656 29.512,52.657 29.48,52.657L29.313,52.661Z" style="fill:url(#_Linear2);fill-rule:nonzero;"/>
                    </g>
                </g>
            </g>
            <g transform="matrix(0.981853,0,0,0.981853,2.01974,0.475175)">
                <g transform="matrix(3.92487,0,0,3.65068,0.286902,72.8749)">
                    <g opacity="0.35">
                        <g transform="matrix(1,0,0,1,172.875,36.9986)">
                            <path d="M0,-10.759L-0.356,-11.829L4.697,-16.05C6.54,-14.266 9.274,-12.899 12.544,-12.899C13.911,-12.899 15.278,-13.256 15.278,-14.207C15.278,-16.526 1.011,-14.623 1.011,-24.254C1.011,-28.415 5.113,-31.863 11.831,-31.863C15.457,-31.863 18.311,-31.625 20.985,-29.782L22.175,-28.475L17.895,-22.946C15.754,-24.551 13.376,-25.68 11.058,-25.68C9.571,-25.68 9.215,-25.205 9.215,-24.611C9.215,-22.827 16.884,-24.313 20.51,-20.449C21.521,-19.379 22.829,-17.239 22.829,-15.217C22.829,-9.867 18.846,-6.717 12.307,-6.717C7.016,-6.717 2.676,-8.441 0,-10.759M-8.441,-23.184C-8.441,-24.491 -9.63,-25.086 -10.879,-25.086L-15.396,-25.086L-15.396,-21.222L-10.879,-21.222C-9.63,-21.222 -8.441,-21.817 -8.441,-23.184M-9.393,-7.192L-10.521,-8.441L-12.662,-14.801L-15.337,-14.801L-15.337,-7.133L-22.709,-7.133L-23.897,-8.441L-22.709,-31.566L-9.689,-32.28C-3.388,-32.28 -0.594,-27.286 -1.188,-21.817C-1.664,-18.012 -4.398,-16.704 -5.172,-16.288L0.06,-7.192L-9.393,-7.192ZM-38.403,-25.027L-41.078,-16.466L-35.669,-16.466L-38.403,-25.027ZM-32.815,-7.133L-34.36,-8.441L-34.836,-9.986L-42.98,-9.986L-43.872,-7.133L-51.541,-7.133L-53.266,-8.441L-42.743,-31.566L-35.074,-32.815L-33.469,-31.566L-24.492,-7.133L-32.815,-7.133ZM-72.289,-7.133L-73.478,-8.441L-72.289,-31.566L-55.049,-32.815L-53.801,-31.566L-53.801,-25.146L-64.917,-25.146L-64.917,-22.708L-55.286,-23.957L-54.038,-22.708L-54.038,-16.288L-64.917,-16.288L-64.917,-13.613L-55.049,-14.861L-53.741,-13.613L-53.741,-7.133L-72.289,-7.133ZM-82.989,-7.133L-84.178,-8.441L-82.989,-21.817L-88.458,-7.133L-91.729,-7.133L-92.917,-8.441L-97.673,-22.292L-97.198,-7.133L-104.569,-7.133L-105.758,-8.441L-105.223,-32.339L-95.533,-32.815L-94.344,-31.566L-90.064,-19.855L-85.784,-32.339L-76.748,-32.815L-75.618,-31.566L-75.618,-7.133L-82.989,-7.133ZM23.066,18.787L22.354,18.014L20.867,19.143L21.58,19.917C21.58,19.917 21.699,20.035 21.759,20.095C21.937,20.214 22.115,20.333 22.354,20.333C22.888,20.333 23.305,19.917 23.305,19.382C23.305,19.084 23.066,18.787 23.066,18.787M10.404,15.637C10.404,12.842 14.09,11.058 16.884,11.058C19.262,11.058 19.737,14.091 19.737,14.091L17.122,15.279C17.122,15.279 16.765,13.971 15.576,13.971C14.269,13.971 13.614,14.982 13.614,16.23C13.614,18.49 15.041,18.49 16.349,18.49C17.359,18.49 18.014,17.895 18.251,17.181L19.381,17.004L20.569,18.252C20.034,19.441 18.073,20.868 15.695,20.868C12.544,20.868 10.404,18.43 10.404,15.637M7.372,20.63L6.124,19.441L4.043,16.171L4.043,20.63L1.309,20.63L0.06,19.441L1.309,11.713L2.854,10.405L3.211,10.583L7.253,15.993L7.253,11.713L8.739,10.405L9.988,11.713L9.987,20.63L7.372,20.63ZM-4.398,20.63L-5.588,19.441L-4.398,9.751L-2.259,8.503L-1.069,9.751L-1.069,20.63L-4.398,20.63ZM-11.116,22.056L-12.306,20.749C-12.306,20.749 -12.246,19.738 -12.187,19.5C-12.067,19.024 -12.603,17.836 -12.067,17.776C-11.532,17.717 -10.046,19.441 -10.046,20.154C-9.987,20.868 -10.403,21.581 -11.116,22.056M-69.197,14.803C-69.197,14.328 -69.614,14.091 -70.089,14.091L-71.754,14.091L-71.754,15.517L-70.089,15.517C-69.614,15.517 -69.197,15.339 -69.197,14.803M-69.495,20.63L-70.743,19.441L-70.743,17.895L-71.754,17.895L-71.754,20.63L-74.488,20.63L-75.737,19.441L-74.488,11.713L-70.505,10.405C-67.414,10.702 -66.284,13.615 -66.938,15.398C-67.295,16.349 -68.306,16.885 -68.306,16.885L-66.225,20.63L-69.495,20.63ZM-15.991,14.803C-15.991,14.328 -16.407,14.091 -16.883,14.091L-18.548,14.091L-18.548,15.517L-16.883,15.517C-16.407,15.517 -15.991,15.339 -15.991,14.803M-16.288,20.63L-17.537,19.441L-17.537,17.895L-18.548,17.895L-18.548,20.63L-21.282,20.63L-22.53,19.441L-21.282,11.713L-17.299,10.405C-14.208,10.702 -13.078,13.615 -13.732,15.398C-14.089,16.349 -15.1,16.885 -15.1,16.885L-13.019,20.63L-16.288,20.63ZM-29.962,20.63L-31.15,19.441L-29.962,11.713L-24.313,10.405L-23.125,11.713L-23.125,14.091L-27.227,14.091L-27.227,14.982L-24.433,13.675L-23.244,14.982L-23.244,17.36L-27.286,17.36L-27.286,18.371L-24.373,17.063L-23.185,18.371L-23.185,20.63L-29.962,20.63ZM-38.938,20.63L-40.127,19.441L-38.938,18.549L-35.49,14.091L-38.938,14.091L-40.127,12.842L-38.938,11.713L-33.112,10.464L-31.864,11.713L-31.864,13.852L-35.312,18.311L-32.993,17.063L-31.805,18.311L-31.805,20.63L-38.938,20.63ZM-43.516,20.63L-44.705,19.441L-43.516,11.713L-41.97,10.405L-40.781,11.713L-40.781,20.63L-43.516,20.63ZM-51.363,20.63L-52.552,19.441L-51.363,11.713L-49.817,10.405L-48.628,11.713L-48.628,18.371L-46.369,17.063L-45.24,18.371L-45.24,20.63L-51.363,20.63ZM-56.179,20.63L-57.367,19.441L-56.179,11.713L-54.633,10.405L-53.443,11.713L-53.443,20.63L-56.179,20.63ZM-62.896,20.63L-64.085,19.441L-62.896,14.091L-65.333,14.091L-66.522,12.783L-65.868,11.178L-58.973,10.405L-57.783,11.713L-57.783,14.091L-60.161,14.091L-60.161,20.63L-62.896,20.63ZM-83.168,20.63L-84.357,19.441L-83.168,11.713L-77.52,10.405L-76.331,11.713L-76.331,14.091L-80.433,14.091L-80.433,14.982L-77.639,13.675L-76.45,14.982L-76.45,17.36L-80.493,17.36L-80.493,18.371L-77.58,17.063L-76.391,18.371L-76.391,20.63L-83.168,20.63ZM-104.569,20.63L-105.758,19.559L-105.758,-4.874L22.115,-4.874L23.305,-3.566L23.305,2.854L-97.198,2.854L-97.198,5.292L-87.508,4.044L-86.318,5.292L-86.319,11.713L-97.198,11.713L-97.198,20.63L-104.569,20.63Z" style="fill:url(#_Linear3);fill-rule:nonzero;"/>
                        </g>
                    </g>
                </g>
                <g transform="matrix(3.92487,0,0,3.65068,263.71,190.153)">
                    <path d="M0,24.433L0,0L127.874,0L127.874,6.48L7.372,6.48L7.372,8.917L18.25,8.917L18.25,15.337L7.372,15.337L7.372,24.433L0,24.433Z" style="fill:url(#_Linear4);fill-rule:nonzero;"/>
                </g>
                <g transform="matrix(3.92487,0,0,3.65068,347.707,245.927)">
                    <path d="M0,9.037L0,0L6.837,0.001L6.837,2.379L2.735,2.379L2.735,3.27L6.777,3.27L6.777,5.648L2.735,5.648L2.735,6.659L6.837,6.659L6.837,9.037L0,9.037Z" style="fill:url(#_Linear5);fill-rule:nonzero;"/>
                </g>
                <g transform="matrix(3.92487,0,0,3.65068,402.541,267.42)">
                    <path d="M0,-2.736C0,-3.212 -0.417,-3.45 -0.892,-3.45L-2.557,-3.45L-2.557,-2.023L-0.892,-2.023C-0.417,-2.023 0,-2.26 0,-2.736M-0.357,3.15L-1.605,0.296L-2.616,0.296L-2.616,3.15L-5.351,3.15L-5.351,-5.886L-0.535,-5.886C1.545,-5.886 2.734,-4.46 2.734,-2.796C2.734,-1.25 1.843,-0.418 1.129,-0.061L2.794,3.15L-0.357,3.15Z" style="fill:url(#_Linear6);fill-rule:nonzero;"/>
                </g>
                <g transform="matrix(3.92487,0,0,3.65068,427.272,245.931)">
                    <path d="M0,9.036L0,2.378L-2.438,2.378L-2.438,0L5.112,0L5.112,2.378L2.734,2.378L2.734,9.036L0,9.036Z" style="fill:url(#_Linear7);fill-rule:nonzero;"/>
                </g>
                <g transform="matrix(3.92487,0,0,3.65068,0.286902,222.409)">
                    <rect x="115.507" y="6.443" width="2.734" height="9.036" style="fill:url(#_Linear8);"/>
                </g>
                <g transform="matrix(3.92487,0,0,3.65068,472.539,245.931)">
                    <path d="M0,9.036L0,0L2.734,0L2.734,6.658L6.183,6.658L6.183,9.036L0,9.036Z" style="fill:url(#_Linear9);fill-rule:nonzero;"/>
                </g>
                <g transform="matrix(3.92487,0,0,3.65068,0.286902,222.409)">
                    <rect x="128.17" y="6.443" width="2.735" height="9.036" style="fill:url(#_Linear10);"/>
                </g>
                <g transform="matrix(3.92487,0,0,3.65068,521.304,246.143)">
                    <path d="M0,8.978L0,6.837L3.448,2.378L0,2.378L0,0L7.015,0L7.015,2.141L3.566,6.6L7.134,6.6L7.134,8.978L0,8.978Z" style="fill:url(#_Linear11);fill-rule:nonzero;"/>
                </g>
                <g transform="matrix(3.92487,0,0,3.65068,556.536,245.931)">
                    <path d="M0,9.036L0,0L6.837,0L6.837,2.378L2.734,2.378L2.734,3.269L6.777,3.269L6.777,5.647L2.734,5.647L2.734,6.658L6.837,6.658L6.837,9.036L0,9.036Z" style="fill:url(#_Linear12);fill-rule:nonzero;"/>
                </g>
                <g transform="matrix(3.92487,0,0,3.65068,611.369,267.42)">
                    <path d="M0,-2.736C0,-3.212 -0.417,-3.45 -0.893,-3.45L-2.557,-3.45L-2.557,-2.023L-0.893,-2.023C-0.417,-2.023 0,-2.26 0,-2.736M-0.357,3.15L-1.605,0.296L-2.616,0.296L-2.616,3.15L-5.351,3.15L-5.351,-5.886L-0.535,-5.886C1.545,-5.886 2.734,-4.46 2.734,-2.796C2.734,-1.25 1.843,-0.418 1.129,-0.061L2.794,3.15L-0.357,3.15Z" style="fill:url(#_Linear13);fill-rule:nonzero;"/>
                </g>
                <g transform="matrix(3.92487,0,0,3.65068,630.499,272.623)">
                    <path d="M0,3.032L-0.653,2.497C-0.356,2.378 0.06,1.962 0.119,1.665C0.06,1.665 0,1.724 -0.118,1.724C-0.535,1.724 -0.892,1.427 -0.892,0.891C-0.892,0.356 -0.476,0 0,0C0.535,0 1.011,0.416 1.011,1.13C1.13,1.902 0.714,2.556 0,3.032" style="fill:url(#_Linear14);fill-rule:nonzero;"/>
                </g>
                <g transform="matrix(3.92487,0,0,3.65068,0.286902,215.465)">
                    <rect x="167.287" y="6.443" width="3.329" height="10.938" style="fill:url(#_Linear15);"/>
                </g>
                <g transform="matrix(3.92487,0,0,3.65068,702.833,245.931)">
                    <path d="M0,9.036L-3.329,4.458L-3.329,9.036L-6.064,9.036L-6.064,0L-3.271,0L-0.119,4.28L-0.119,0L2.615,0L2.615,9.036L0,9.036Z" style="fill:url(#_Linear16);fill-rule:nonzero;"/>
                </g>
                <g transform="matrix(3.92487,0,0,3.65068,719.399,262.64)">
                    <path d="M0,0C0,-2.794 2.14,-4.637 4.934,-4.637C7.312,-4.637 8.501,-3.27 9.036,-2.021L6.658,-0.951C6.42,-1.665 5.707,-2.259 4.934,-2.259C3.626,-2.259 2.734,-1.248 2.734,0C2.734,1.248 3.626,2.259 4.934,2.259C5.767,2.259 6.42,1.664 6.658,0.951L9.036,2.021C8.501,3.21 7.312,4.637 4.934,4.637C2.14,4.637 0,2.734 0,0" style="fill:url(#_Linear17);fill-rule:nonzero;"/>
                </g>
                <g transform="matrix(0,3.65068,3.92487,0,763.73,272.406)">
                    <path d="M0.951,-0.951C0.416,-0.951 -0,-0.535 -0,0C-0,0.535 0.416,0.951 0.951,0.951C1.486,0.951 1.902,0.535 1.902,0C1.902,-0.416 1.486,-0.951 0.951,-0.951" style="fill:url(#_Linear18);fill-rule:nonzero;"/>
                </g>
                <g transform="matrix(3.92487,0,0,3.65068,348.409,88.1494)">
                    <path d="M0,24.374L0,9.69L-5.469,24.374L-8.739,24.374L-14.208,9.69L-14.208,24.374L-21.58,24.374L-21.58,0L-11.355,0L-7.075,11.711L-2.794,0L7.431,0L7.431,24.374L0,24.374Z" style="fill:url(#_Linear19);fill-rule:nonzero;"/>
                </g>
                <g transform="matrix(3.92487,0,0,3.65068,390.174,88.1494)">
                    <path d="M0,24.374L0,0L18.488,0L18.488,6.42L7.371,6.42L7.371,8.858L18.251,8.858L18.251,15.278L7.371,15.278L7.371,17.954L18.488,17.954L18.488,24.374L0,24.374Z" style="fill:url(#_Linear20);fill-rule:nonzero;"/>
                </g>
                <g transform="matrix(3.92487,0,0,3.65068,523.405,150.652)">
                    <path d="M0,-9.868L-2.438,-2.021L2.378,-2.021L0,-9.868ZM5.291,7.253L4.398,4.4L-4.399,4.4L-5.291,7.253L-13.674,7.253L-4.696,-17.121L4.577,-17.121L13.554,7.253L5.291,7.253Z" style="fill:url(#_Linear21);fill-rule:nonzero;"/>
                </g>
                <g transform="matrix(3.92487,0,0,3.65068,641.001,146.747)">
                    <path d="M0,-7.728C0,-9.036 -1.189,-9.63 -2.438,-9.63L-6.956,-9.63L-6.956,-5.767L-2.438,-5.767C-1.189,-5.767 0,-6.361 0,-7.728M-0.892,8.323L-4.28,0.654L-6.956,0.654L-6.956,8.323L-14.327,8.323L-14.327,-16.051L-1.309,-16.051C4.399,-16.051 7.49,-12.246 7.49,-7.669C7.49,-3.448 5.053,-1.249 3.091,-0.297L7.49,8.323L-0.892,8.323Z" style="fill:url(#_Linear22);fill-rule:nonzero;"/>
                </g>
                <g transform="matrix(3.92487,0,0,3.65068,677.632,101.168)">
                    <path d="M0,17.36L3.864,11.891C5.707,13.674 8.441,15.041 11.712,15.041C13.079,15.041 14.446,14.685 14.446,13.734C14.446,11.415 0.832,13.793 0.832,4.162C0.832,0.001 4.28,-3.923 10.938,-3.923C14.922,-3.923 18.488,-2.793 21.282,-0.534L17.359,4.697C15.219,3.092 12.484,2.26 10.166,2.26C8.68,2.26 8.323,2.735 8.323,3.33C8.323,5.649 21.877,3.687 21.877,12.723C21.877,18.073 17.895,21.224 11.354,21.224C6.123,21.283 2.557,19.738 0,17.36" style="fill:url(#_Linear23);fill-rule:nonzero;"/>
                </g>
            </g>
        </g>
    </g>
    <defs>
        <linearGradient id="_Linear1" x1="0" y1="0" x2="1" y2="0" gradientUnits="userSpaceOnUse" gradientTransform="matrix(4.16127e-15,-67.9587,67.9587,4.16127e-15,66.0678,39.8059)"><stop offset="0" style="stop-color:rgb(47,95,111);stop-opacity:1"/><stop offset="1" style="stop-color:rgb(11,36,58);stop-opacity:1"/></linearGradient>
        <linearGradient id="_Linear2" x1="0" y1="0" x2="1" y2="0" gradientUnits="userSpaceOnUse" gradientTransform="matrix(4.16127e-15,-67.9587,67.9587,4.16127e-15,106.213,51.9401)"><stop offset="0" style="stop-color:rgb(47,95,111);stop-opacity:1"/><stop offset="1" style="stop-color:rgb(11,36,58);stop-opacity:1"/></linearGradient>
        <linearGradient id="_Linear3" x1="0" y1="0" x2="1" y2="0" gradientUnits="userSpaceOnUse" gradientTransform="matrix(3.82394e-15,-67.14,62.4496,4.11114e-15,-53.7029,19.2435)"><stop offset="0" style="stop-color:rgb(47,95,111);stop-opacity:1"/><stop offset="1" style="stop-color:rgb(11,36,58);stop-opacity:1"/></linearGradient>
        <linearGradient id="_Linear4" x1="0" y1="0" x2="1" y2="0" gradientUnits="userSpaceOnUse" gradientTransform="matrix(3.82394e-15,-67.14,62.4496,4.11114e-15,52.0557,24.1171)"><stop offset="0" style="stop-color:rgb(47,95,111);stop-opacity:1"/><stop offset="1" style="stop-color:rgb(11,36,58);stop-opacity:1"/></linearGradient>
        <linearGradient id="_Linear5" x1="0" y1="0" x2="1" y2="0" gradientUnits="userSpaceOnUse" gradientTransform="matrix(3.82394e-15,-67.14,62.4496,4.11114e-15,30.6545,8.8394)"><stop offset="0" style="stop-color:rgb(47,95,111);stop-opacity:1"/><stop offset="1" style="stop-color:rgb(11,36,58);stop-opacity:1"/></linearGradient>
        <linearGradient id="_Linear6" x1="0" y1="0" x2="1" y2="0" gradientUnits="userSpaceOnUse" gradientTransform="matrix(3.82394e-15,-67.14,62.4496,4.11114e-15,16.6836,2.95201)"><stop offset="0" style="stop-color:rgb(47,95,111);stop-opacity:1"/><stop offset="1" style="stop-color:rgb(11,36,58);stop-opacity:1"/></linearGradient>
        <linearGradient id="_Linear7" x1="0" y1="0" x2="1" y2="0" gradientUnits="userSpaceOnUse" gradientTransform="matrix(3.82394e-15,-67.14,62.4496,4.11114e-15,10.3825,8.83831)"><stop offset="0" style="stop-color:rgb(47,95,111);stop-opacity:1"/><stop offset="1" style="stop-color:rgb(11,36,58);stop-opacity:1"/></linearGradient>
        <linearGradient id="_Linear8" x1="0" y1="0" x2="1" y2="0" gradientUnits="userSpaceOnUse" gradientTransform="matrix(3.82394e-15,-67.14,62.4496,4.11114e-15,119.172,15.2815)"><stop offset="0" style="stop-color:rgb(47,95,111);stop-opacity:1"/><stop offset="1" style="stop-color:rgb(11,36,58);stop-opacity:1"/></linearGradient>
        <linearGradient id="_Linear9" x1="0" y1="0" x2="1" y2="0" gradientUnits="userSpaceOnUse" gradientTransform="matrix(3.82394e-15,-67.14,62.4496,4.11114e-15,-1.15092,8.83831)"><stop offset="0" style="stop-color:rgb(47,95,111);stop-opacity:1"/><stop offset="1" style="stop-color:rgb(11,36,58);stop-opacity:1"/></linearGradient>
        <linearGradient id="_Linear10" x1="0" y1="0" x2="1" y2="0" gradientUnits="userSpaceOnUse" gradientTransform="matrix(3.82394e-15,-67.14,62.4496,4.11114e-15,119.172,15.2815)"><stop offset="0" style="stop-color:rgb(47,95,111);stop-opacity:1"/><stop offset="1" style="stop-color:rgb(11,36,58);stop-opacity:1"/></linearGradient>
        <linearGradient id="_Linear11" x1="0" y1="0" x2="1" y2="0" gradientUnits="userSpaceOnUse" gradientTransform="matrix(3.82394e-15,-67.14,62.4496,4.11114e-15,-13.5755,8.78024)"><stop offset="0" style="stop-color:rgb(47,95,111);stop-opacity:1"/><stop offset="1" style="stop-color:rgb(11,36,58);stop-opacity:1"/></linearGradient>
        <linearGradient id="_Linear12" x1="0" y1="0" x2="1" y2="0" gradientUnits="userSpaceOnUse" gradientTransform="matrix(3.82394e-15,-67.14,62.4496,4.11114e-15,-22.5521,8.83831)"><stop offset="0" style="stop-color:rgb(47,95,111);stop-opacity:1"/><stop offset="1" style="stop-color:rgb(11,36,58);stop-opacity:1"/></linearGradient>
        <linearGradient id="_Linear13" x1="0" y1="0" x2="1" y2="0" gradientUnits="userSpaceOnUse" gradientTransform="matrix(3.82394e-15,-67.14,62.4496,4.11114e-15,-36.5228,2.95201)"><stop offset="0" style="stop-color:rgb(47,95,111);stop-opacity:1"/><stop offset="1" style="stop-color:rgb(11,36,58);stop-opacity:1"/></linearGradient>
        <linearGradient id="_Linear14" x1="0" y1="0" x2="1" y2="0" gradientUnits="userSpaceOnUse" gradientTransform="matrix(3.82394e-15,-67.14,62.4496,4.11114e-15,-41.3968,1.52679)"><stop offset="0" style="stop-color:rgb(47,95,111);stop-opacity:1"/><stop offset="1" style="stop-color:rgb(11,36,58);stop-opacity:1"/></linearGradient>
        <linearGradient id="_Linear15" x1="0" y1="0" x2="1" y2="0" gradientUnits="userSpaceOnUse" gradientTransform="matrix(3.82394e-15,-67.14,62.4496,4.11114e-15,119.172,17.1836)"><stop offset="0" style="stop-color:rgb(47,95,111);stop-opacity:1"/><stop offset="1" style="stop-color:rgb(11,36,58);stop-opacity:1"/></linearGradient>
        <linearGradient id="_Linear16" x1="0" y1="0" x2="1" y2="0" gradientUnits="userSpaceOnUse" gradientTransform="matrix(3.82394e-15,-67.14,62.4496,4.11114e-15,-59.8265,8.83831)"><stop offset="0" style="stop-color:rgb(47,95,111);stop-opacity:1"/><stop offset="1" style="stop-color:rgb(11,36,58);stop-opacity:1"/></linearGradient>
        <linearGradient id="_Linear17" x1="0" y1="0" x2="1" y2="0" gradientUnits="userSpaceOnUse" gradientTransform="matrix(3.82394e-15,-67.14,62.4496,4.11114e-15,-64.0473,4.26135)"><stop offset="0" style="stop-color:rgb(47,95,111);stop-opacity:1"/><stop offset="1" style="stop-color:rgb(11,36,58);stop-opacity:1"/></linearGradient>
        <linearGradient id="_Linear18" x1="0" y1="0" x2="1" y2="0" gradientUnits="userSpaceOnUse" gradientTransform="matrix(-67.14,3.82394e-15,4.11114e-15,62.4496,1.58623,-75.3422)"><stop offset="0" style="stop-color:rgb(47,95,111);stop-opacity:1"/><stop offset="1" style="stop-color:rgb(11,36,58);stop-opacity:1"/></linearGradient>
        <linearGradient id="_Linear19" x1="0" y1="0" x2="1" y2="0" gradientUnits="userSpaceOnUse" gradientTransform="matrix(3.82394e-15,-67.14,62.4496,4.11114e-15,30.4756,52.0581)"><stop offset="0" style="stop-color:rgb(47,95,111);stop-opacity:1"/><stop offset="1" style="stop-color:rgb(11,36,58);stop-opacity:1"/></linearGradient>
        <linearGradient id="_Linear20" x1="0" y1="0" x2="1" y2="0" gradientUnits="userSpaceOnUse" gradientTransform="matrix(3.82394e-15,-67.14,62.4496,4.11114e-15,19.8345,52.0581)"><stop offset="0" style="stop-color:rgb(47,95,111);stop-opacity:1"/><stop offset="1" style="stop-color:rgb(11,36,58);stop-opacity:1"/></linearGradient>
        <linearGradient id="_Linear21" x1="0" y1="0" x2="1" y2="0" gradientUnits="userSpaceOnUse" gradientTransform="matrix(3.82394e-15,-67.14,62.4496,4.11114e-15,-14.1108,34.9373)"><stop offset="0" style="stop-color:rgb(47,95,111);stop-opacity:1"/><stop offset="1" style="stop-color:rgb(11,36,58);stop-opacity:1"/></linearGradient>
        <linearGradient id="_Linear22" x1="0" y1="0" x2="1" y2="0" gradientUnits="userSpaceOnUse" gradientTransform="matrix(3.82394e-15,-67.14,62.4496,4.11114e-15,-44.0726,36.0069)"><stop offset="0" style="stop-color:rgb(47,95,111);stop-opacity:1"/><stop offset="1" style="stop-color:rgb(11,36,58);stop-opacity:1"/></linearGradient>
        <linearGradient id="_Linear23" x1="0" y1="0" x2="1" y2="0" gradientUnits="userSpaceOnUse" gradientTransform="matrix(3.82394e-15,-67.14,62.4496,4.11114e-15,-53.4056,48.492)"><stop offset="0" style="stop-color:rgb(47,95,111);stop-opacity:1"/><stop offset="1" style="stop-color:rgb(11,36,58);stop-opacity:1"/></linearGradient>
    </defs>
</svg>
