<?xml version="1.0" encoding="UTF-8" standalone="no"?>
<!DOCTYPE svg PUBLIC "-//W3C//DTD SVG 1.1//EN" "http://www.w3.org/Graphics/SVG/1.1/DTD/svg11.dtd">
<svg width="100%" height="100%" viewBox="0 0 481 243" version="1.1" xmlns="http://www.w3.org/2000/svg" xmlns:xlink="http://www.w3.org/1999/xlink" xml:space="preserve" xmlns:serif="http://www.serif.com/" style="fill-rule:evenodd;clip-rule:evenodd;stroke-linejoin:round;stroke-miterlimit:2;">
    <g transform="matrix(1,0,0,1,-47.0406,-66.2809)">
        <g transform="matrix(0.270616,0,0,0.270616,-148.562,-197.061)">
            <g transform="matrix(4.16667,0,0,4.16667,635.431,887.869)">
                <path d="M363.85,189.8L348.16,189.8C321.29,211.32 280.72,225.04 235.4,225.04C190.08,225.04 149.51,211.31 122.64,189.8L106.95,189.8C112.35,195.06 118.47,200.02 125.29,204.62C154.77,224.52 193.88,235.47 235.4,235.47C276.92,235.47 316.02,224.51 345.51,204.62C352.33,200.02 358.46,195.05 363.85,189.8Z" style="fill:rgb(28,94,172);fill-rule:nonzero;"/>
            </g>
            <g transform="matrix(4.16667,0,0,4.16667,635.431,887.869)">
                <path d="M122.64,66.13C149.51,44.62 190.08,30.89 235.4,30.89C280.72,30.89 321.29,44.62 348.16,66.13L363.85,66.13C358.45,60.88 352.33,55.91 345.51,51.31C316.03,31.41 276.92,20.46 235.4,20.46C193.88,20.46 154.78,31.42 125.29,51.31C118.47,55.91 112.35,60.88 106.95,66.13L122.64,66.13Z" style="fill:rgb(28,94,172);fill-rule:nonzero;"/>
            </g>
            <g transform="matrix(4.16667,0,0,4.16667,635.431,887.869)">
                <path d="M78.8,78.84L78.8,175.55L53.65,175.55L53.65,134.93L46.12,134.93L46.12,175.55L20.97,175.55L20.97,78.84L46.12,78.84L46.12,113.43L53.65,113.43L53.65,78.84L78.8,78.84Z" style="fill:rgb(28,94,172);fill-rule:nonzero;"/>
            </g>
            <g transform="matrix(4.16667,0,0,4.16667,635.431,887.869)">
                <path d="M142.48,78.84L124.14,140.55L124.14,175.55L100.84,175.55L100.84,140.55L83.16,78.84L106.26,78.84C109.87,97.72 111.91,110.42 112.37,116.95C113.76,106.63 116.1,93.93 119.37,78.84L142.48,78.84Z" style="fill:rgb(28,94,172);fill-rule:nonzero;"/>
            </g>
            <g transform="matrix(4.16667,0,0,4.16667,635.431,887.869)">
                <path d="M200.06,108.11L176.7,108.11L176.7,100.94C176.7,97.59 176.4,95.46 175.8,94.55C175.2,93.63 174.21,93.18 172.81,93.18C171.3,93.18 170.15,93.8 169.38,95.03C168.6,96.27 168.21,98.14 168.21,100.65C168.21,103.88 168.65,106.31 169.52,107.94C170.35,109.57 172.72,111.55 176.63,113.85C187.82,120.49 194.87,125.95 197.78,130.21C200.69,134.47 202.14,141.34 202.14,150.82C202.14,157.71 201.33,162.79 199.72,166.05C198.11,169.32 194.99,172.05 190.37,174.26C185.75,176.47 180.37,177.57 174.24,177.57C167.51,177.57 161.77,176.3 157.01,173.75C152.25,171.2 149.13,167.96 147.66,164.01C146.19,160.07 145.45,154.47 145.45,147.22L145.45,140.89L168.81,140.89L168.81,152.66C168.81,156.28 169.14,158.61 169.8,159.65C170.46,160.69 171.62,161.2 173.29,161.2C174.96,161.2 176.21,160.54 177.02,159.23C177.84,157.92 178.24,155.96 178.24,153.38C178.24,147.69 177.46,143.96 175.91,142.21C174.32,140.46 170.39,137.53 164.14,133.43C157.89,129.29 153.75,126.28 151.71,124.41C149.68,122.54 148,119.95 146.66,116.64C145.33,113.33 144.66,109.11 144.66,103.98C144.66,96.57 145.61,91.16 147.5,87.73C149.39,84.31 152.45,81.63 156.67,79.7C160.89,77.77 165.99,76.8 171.96,76.8C178.49,76.8 184.06,77.86 188.66,79.97C193.26,82.08 196.31,84.74 197.8,87.94C199.29,91.15 200.04,96.59 200.04,104.28L200.04,108.11L200.06,108.11Z" style="fill:rgb(28,94,172);fill-rule:nonzero;"/>
            </g>
            <g transform="matrix(4.16667,0,0,4.16667,635.431,887.869)">
                <path d="M210.04,78.84L235.37,78.84C242.22,78.84 247.48,79.38 251.17,80.45C254.85,81.53 257.62,83.08 259.47,85.11C261.32,87.14 262.58,89.6 263.23,92.49C263.89,95.38 264.22,99.85 264.22,105.9L264.22,114.32C264.22,120.49 263.58,124.99 262.31,127.82C261.04,130.65 258.7,132.82 255.29,134.33C251.88,135.84 247.43,136.6 241.94,136.6L235.19,136.6L235.19,175.55L210.04,175.55L210.04,78.84ZM235.18,95.39L235.18,120C235.9,120.04 236.51,120.06 237.03,120.06C239.34,120.06 240.94,119.49 241.84,118.36C242.74,117.23 243.19,114.87 243.19,111.28L243.19,103.33C243.19,100.02 242.67,97.87 241.64,96.88C240.6,95.88 238.45,95.39 235.18,95.39Z" style="fill:rgb(28,94,172);fill-rule:nonzero;"/>
            </g>
            <g transform="matrix(4.16667,0,0,4.16667,635.431,887.869)">
                <path d="M271.43,78.84L313.37,78.84L313.37,98.19L296.58,98.19L296.58,116.53L312.29,116.53L312.29,134.93L296.58,134.93L296.58,156.2L315.04,156.2L315.04,175.55L271.43,175.55L271.43,78.84Z" style="fill:rgb(28,94,172);fill-rule:nonzero;"/>
            </g>
            <g transform="matrix(4.16667,0,0,4.16667,635.431,887.869)">
                <path d="M381.01,120.95L355.85,120.95L355.85,104.14C355.85,99.25 355.58,96.2 355.04,94.99C354.5,93.78 353.32,93.17 351.49,93.17C349.42,93.17 348.1,93.91 347.55,95.38C346.99,96.85 346.71,100.04 346.71,104.94L346.71,149.86C346.71,154.56 346.99,157.63 347.55,159.06C348.11,160.49 349.36,161.21 351.31,161.21C353.18,161.21 354.41,160.49 354.98,159.05C355.56,157.61 355.85,154.24 355.85,148.93L355.85,136.77L381,136.77L381,140.54C381,150.55 380.29,157.65 378.88,161.84C377.47,166.03 374.34,169.7 369.5,172.85C364.66,176 358.7,177.58 351.61,177.58C344.24,177.58 338.17,176.25 333.39,173.58C328.61,170.91 325.45,167.22 323.89,162.5C322.34,157.78 321.56,150.68 321.56,141.2L321.56,112.94C321.56,105.97 321.8,100.74 322.28,97.26C322.76,93.78 324.18,90.42 326.55,87.19C328.92,83.96 332.2,81.43 336.41,79.57C340.61,77.72 345.44,76.79 350.9,76.79C358.31,76.79 364.42,78.22 369.24,81.09C374.06,83.95 377.22,87.52 378.74,91.8C380.25,96.07 381.01,102.73 381.01,111.75L381.01,120.95Z" style="fill:rgb(28,94,172);fill-rule:nonzero;"/>
            </g>
            <g transform="matrix(4.16667,0,0,4.16667,635.431,887.869)">
                <path d="M447.48,135.47C447.48,145.19 447.25,152.07 446.79,156.11C446.33,160.15 444.9,163.85 442.49,167.19C440.08,170.54 436.82,173.1 432.72,174.9C428.62,176.69 423.84,177.59 418.38,177.59C413.2,177.59 408.55,176.74 404.43,175.05C400.31,173.36 396.99,170.82 394.48,167.43C391.97,164.05 390.48,160.36 390,156.38C389.52,152.4 389.28,145.43 389.28,135.47L389.28,118.92C389.28,109.2 389.51,102.32 389.97,98.28C390.43,94.24 391.86,90.54 394.27,87.2C396.68,83.85 399.93,81.29 404.04,79.49C408.14,77.7 412.92,76.8 418.38,76.8C423.56,76.8 428.21,77.65 432.33,79.34C436.45,81.03 439.77,83.57 442.28,86.96C444.79,90.35 446.28,94.03 446.76,98.01C447.24,101.99 447.48,108.96 447.48,118.92L447.48,135.47ZM422.33,103.69C422.33,99.19 422.08,96.31 421.58,95.06C421.08,93.81 420.06,93.18 418.5,93.18C417.19,93.18 416.18,93.69 415.48,94.7C414.78,95.72 414.43,98.71 414.43,103.69L414.43,148.85C414.43,154.47 414.66,157.93 415.12,159.24C415.58,160.55 416.64,161.21 418.32,161.21C420.03,161.21 421.13,160.45 421.61,158.94C422.09,157.43 422.33,153.82 422.33,148.13L422.33,103.69Z" style="fill:rgb(28,94,172);fill-rule:nonzero;"/>
            </g>
        </g>
    </g>
</svg>
