<?xml version="1.0" encoding="UTF-8" standalone="no"?>
<!DOCTYPE svg PUBLIC "-//W3C//DTD SVG 1.1//EN" "http://www.w3.org/Graphics/SVG/1.1/DTD/svg11.dtd">
<svg width="100%" height="100%" viewBox="0 0 575 375" version="1.1" xmlns="http://www.w3.org/2000/svg" xmlns:xlink="http://www.w3.org/1999/xlink" xml:space="preserve" xmlns:serif="http://www.serif.com/" style="fill-rule:evenodd;clip-rule:evenodd;stroke-linejoin:round;stroke-miterlimit:2;">
    <g id="tile-wichita" transform="matrix(0.452667,0,0,0.452667,15.8997,46.1725)">
        <g>
            <g>
                <path d="M56.6,185L119.6,185L119.6,129.2L0.7,129.2L0.7,248.1L56.6,248.1L56.6,185Z" style="fill:rgb(238,64,54);fill-rule:nonzero;"/>
                <path d="M284.8,413.3L223.5,413.3L223.5,470.8L342.4,470.8L342.4,351.9L284.8,351.9L284.8,413.3Z" style="fill:rgb(190,30,45);fill-rule:nonzero;"/>
                <path d="M223.5,129.2L223.5,185L284.8,185L284.8,248.1L342.4,248.1L342.4,129.2L223.5,129.2Z" style="fill:rgb(0,165,81);fill-rule:nonzero;"/>
                <path d="M56.6,413.3L56.6,351.9L0.7,351.9L0.7,470.8L119.6,470.8L119.6,413.3L56.6,413.3Z" style="fill:rgb(139,197,63);fill-rule:nonzero;"/>
            </g>
            <g>
                <g>
                    <path d="M136.4,267.8L160.5,267.8L171.8,303.8L183.2,267.8L207.1,267.8L188.2,320L199.6,350.2L227.9,267.6L256,267.6L211.3,379.8L189.4,379.8L171.6,335.8L153.8,379.8L132,379.8L87.3,267.6L115.3,267.6L143.8,350.2L154.9,320L136.4,267.8Z" style="fill:rgb(128,128,128);fill-rule:nonzero;"/>
                </g>
                <rect x="84.4" y="220.2" width="174.7" height="25" style="fill:rgb(128,128,128);"/>
            </g>
        </g>
        <g>
            <path d="M556.1,159.2L507.9,159.2L507.9,285L478.5,285L478.5,159.2L430.2,159.2L430.2,133.4L556.3,133.4L556.1,159.2Z" style="fill:rgb(128,128,128);fill-rule:nonzero;"/>
            <path d="M572.2,157.6L572.2,129.1L600.8,129.1L600.8,157.6L572.2,157.6ZM572.2,285L572.2,173.1L600.8,173.1L600.8,285L572.2,285Z" style="fill:rgb(128,128,128);fill-rule:nonzero;"/>
            <path d="M625.7,129.2L654.4,129.2L654.4,247.8C654.4,256.1 658.6,260.8 666.1,260.8C669.2,260.8 673.8,259.5 677.5,258.1L681.3,280.9C673.6,284.7 662.4,286.7 653.9,286.7C636.1,286.7 625.7,276.7 625.7,259.2L625.7,129.2Z" style="fill:rgb(128,128,128);fill-rule:nonzero;"/>
            <path d="M687,229.6C687,197.7 709.7,171.1 746.1,171.1C782.5,171.1 804.3,198.2 804.3,228.5C804.3,232.3 804,235.7 803.7,238L717.4,238C719,255.5 732.1,266 747.1,266C758.5,266 769.9,260.1 773.5,250.8L798.1,257.7C790,274.8 770.7,287 746,287C709.8,287.2 687,260.6 687,229.6ZM774.8,219.6C773.2,202.9 761.2,191.9 745.5,191.9C730.2,191.9 718,203 716.7,219.6L774.8,219.6Z" style="fill:rgb(128,128,128);fill-rule:nonzero;"/>
            <path d="M495.1,317.7L522.2,317.7L539.3,367.9L556.4,317.7L583.8,317.7L558,386.5L577.2,434.8L620.1,317L652,317L590.4,468.6L565.8,468.6L539.5,405.1L513.2,468.6L488.5,468.6L427,317L458.9,317L501.9,434.8L520.7,386.5L495.1,317.7Z" style="fill:rgb(128,128,128);fill-rule:nonzero;"/>
            <path d="M664.5,341.3L664.5,312.8L693.1,312.8L693.1,341.3L664.5,341.3ZM664.5,468.6L664.5,356.8L693.1,356.8L693.1,468.6L664.5,468.6Z" style="fill:rgb(128,128,128);fill-rule:nonzero;"/>
            <path d="M766.3,354.9C790.7,354.9 808.4,366.3 816.8,383.5L788.8,391.9C784.1,383.8 775.5,379.1 766,379.1C749.6,379.1 736.7,392.7 736.7,412.6C736.7,432.3 750,446.4 766,446.4C776.3,446.4 785.9,440.6 789.3,433.1L817.3,441.5C809.6,458.2 791,470.4 766.5,470.4C730.2,470.4 707.4,443.3 707.4,412.4C707.5,381.7 729.9,354.9 766.3,354.9Z" style="fill:rgb(128,128,128);fill-rule:nonzero;"/>
            <path d="M935.6,468.6L907,468.6L907,405.9C907,388.4 900,380.1 888.2,380.1C877.7,380.1 864.6,389.6 860.2,403.4L860.2,468.8L831.6,468.8L831.6,313L860.2,313L860.2,377.6C868.5,363.2 883.5,354.9 900.4,354.9C929.2,354.9 935.6,377 935.6,398.9L935.6,468.6Z" style="fill:rgb(128,128,128);fill-rule:nonzero;"/>
            <path d="M960.1,341.3L960.1,312.8L988.7,312.8L988.7,341.3L960.1,341.3ZM960.1,468.6L960.1,356.8L988.7,356.8L988.7,468.6L960.1,468.6Z" style="fill:rgb(128,128,128);fill-rule:nonzero;"/>
            <path d="M1081.4,462.8C1073.7,466.2 1061.7,470.5 1049.5,470.5C1033.7,470.5 1020.6,462.8 1020.6,443L1020.6,378.7L1006,378.7L1006,356.6L1020.5,356.6L1020.5,320.3L1049,320.3L1049,356.6L1072.6,356.6L1072.6,378.7L1049,378.7L1049,433.3C1049,441.3 1053.8,444.3 1059.9,444.3C1065.8,444.3 1072.1,441.6 1075.5,440.2L1081.4,462.8Z" style="fill:rgb(128,128,128);fill-rule:nonzero;"/>
            <path d="M1088.1,435.5C1088.1,414.2 1107.8,399.4 1135.7,399.4C1145.7,399.4 1155.7,401 1163.1,404.2L1163.1,397.8C1163.1,383.1 1154.7,374.6 1138.1,374.6C1126.2,374.6 1114.9,378.8 1103.1,387.1L1094.3,369C1108.8,359.5 1124.2,354.6 1140.8,354.6C1172.7,354.6 1191.6,371 1191.6,400.6L1191.6,435.5C1191.6,441.4 1193.8,443.8 1199.3,443.9L1199.3,468.3C1194,469.4 1189,469.9 1185.7,469.9C1175.1,469.6 1169.4,464.6 1167.9,456.6L1167.3,450.5C1157.3,463.5 1142.6,470.5 1126.3,470.5C1104.7,470.8 1088.1,455.6 1088.1,435.5ZM1158.3,440.5C1161.3,438.2 1163,435.2 1163,432.4L1163,419.6C1156.1,416.9 1147.7,415.4 1140.3,415.4C1125.6,415.4 1115.1,422.9 1115.1,433.2C1115.1,442.7 1123.4,449.9 1134.3,449.9C1144.1,449.9 1153.5,446.3 1158.3,440.5Z" style="fill:rgb(128,128,128);fill-rule:nonzero;"/>
        </g>
    </g>
</svg>
