<?xml version="1.0" encoding="utf-8"?>
<!-- Generator: Adobe Illustrator 25.0.1, SVG Export Plug-In . SVG Version: 6.00 Build 0)  -->
<svg version="1.1" id="Layer_1" xmlns="http://www.w3.org/2000/svg" xmlns:xlink="http://www.w3.org/1999/xlink" x="0px" y="0px"
	 viewBox="0 0 579.55 780.92" enable-background="new 0 0 579.55 780.92" xml:space="preserve">
<g id="Layer_5">
</g>
<g id="Layer_4">
</g>
<g id="Layer_3">
</g>
<g id="Layer_2_1_">
</g>
<g id="Layer_1_1_">
	<g>
		<path d="M522.69,426.76l-26.86-0.77l-8.09-0.23l-5.65-5.79c-0.18-0.19-0.36-0.36-0.51-0.5c-2.79-2.6-6.42-4.03-10.23-4.03
			c-0.19,0-0.37,0-0.56,0.01l-13.47,0.5c-0.29,0.01-0.58,0.03-0.87,0.06l-5.31,0.5l-4.85-2.21c-1.97-0.9-4.05-1.35-6.21-1.35
			c-0.19,0-0.38,0-0.57,0.01l-5.06,0.19l-4.01,0.15l-3.76-1.4c-1.68-0.63-3.45-0.95-5.25-0.95h-46.42c-6.59,0-12.5,4.41-14.38,10.71
			l-5.09,17.14l-17.6-3.15c-0.92-0.16-1.82-0.25-2.68-0.25H321.8c-0.95,0-1.9,0.09-2.81,0.26l-6.79,1.28l-6.13-3.18
			c-0.96-0.5-2.01-0.9-3.11-1.19l-5.3-1.38l-3.86-3.89l-15.91-16.06c-2.84-2.86-6.62-4.44-10.66-4.44l0,0
			c-3.93,0-7.64,1.51-10.46,4.25l-14.96,14.55l-10.14,9.86L219,429.17c-2.1-1.04-4.43-1.59-6.74-1.59h-0.15l-13.6,0.17
			c-1.67,0.02-3.31,0.31-4.87,0.87l-5.91,2.12l-6.06-1.64c-1.27-0.34-2.59-0.52-3.9-0.52c-0.2,0-0.39,0-0.59,0.01l-2.38,0.09
			l-7.19,0.28l-5.72-4.37c-6.13-4.68-13.77-7.16-22.08-7.16c-0.23,0-0.47,0.01-0.69,0.02c-8.79,0.41-16.65,3.42-22.71,8.71
			l-9.13,7.98l-11.3-4.41c-6.81-2.66-17.32-3.9-35.15-4.14h-0.28c-8.01,0-14.7,6.55-14.92,14.6L42.3,563.13
			c-0.22,8.25,6.3,15.15,14.55,15.4l16.73,0.5c5.67,0.17,5.95,0.17,6.34,0.17c4.18,0,8.17-0.55,11.87-1.65l27.06-7.99l-1.43,28.18
			c-0.07,1.41-0.11,2.63-0.11,3.74c0,0.12,0,0.23,0,0.35l1.49,65.94v0.03v0.03c0.29,14.29,3.2,25.16,8.9,33.23
			c6.74,9.54,16.73,14.58,28.89,14.58c5.54,0,10.69-1.14,15.31-3.37l10.09-4.89l9.43,6.06c5.89,3.78,13.31,5.86,20.9,5.86
			c0.19,0,0.39,0,0.58-0.01c3.97-0.15,7.82-0.86,11.42-2.1l5.79-1.99l5.91,1.59c1.16,0.31,2.35,0.49,3.53,0.52l12.98,0.33
			c0.16,0,0.3,0.01,0.43,0.01c0.86,0,1.74-0.08,2.6-0.23l6.51-1.15l5.92,2.96c1.93,0.97,4.01,1.5,6.17,1.58l11.17,0.4l3.44,0.12
			l3.2,1.27c1.62,0.64,3.34,0.99,5.11,1.04l12.14,0.33c0.14,0,0.28,0.01,0.41,0.01c1.91,0,3.77-0.36,5.55-1.06l6.3-2.51l6.53,1.84
			c1.2,0.34,2.44,0.53,3.69,0.56l12.64,0.33c0.12,0,0.26,0,0.41,0c4.86,0,9.44-2.39,12.26-6.38l13.01-18.44l16.74,15.13
			c1.88,1.7,5.08,3.74,9.65,3.86l12.98,0.33c0.16,0,0.3,0.01,0.43,0.01c0.86,0,1.74-0.08,2.6-0.23l6.51-1.15l5.92,2.96
			c1.93,0.97,4.01,1.5,6.17,1.58l13.81,0.5c0.16,0.01,0.36,0.01,0.55,0.01c5.97,0,11.36-3.54,13.75-9.01
			c2.16-4.96,1.48-10.72-1.78-15.02l-3.63-4.8l-0.38-6.01c-0.09-1.47-0.16-3.42-0.21-5.79c-0.05-2.45-0.08-5.87-0.08-10.14
			c0-5.44-0.29-10.63-0.85-15.41c-0.04-0.35-0.09-0.72-0.14-1.08l-0.82-5.62l2.26-5.21c0.77-1.79,1.46-3.69,2.03-5.66
			c2.03-6.92,3.01-15.02,3.01-24.75c0-4.36-0.22-8.26-0.68-11.93l-3.34-26.61l26.46,4.39c0.7,0.12,1.34,0.18,1.95,0.21l36.43,1.33
			c0.18,0.01,0.37,0.01,0.55,0.01c3.82,0,7.45-1.44,10.24-4.04c2.9-2.71,4.63-6.54,4.75-10.5l0.5-16.3
			c0.12-3.77-1.18-7.42-3.65-10.27l-9.32-10.77l7.13-12.33c1.24-2.14,1.93-4.57,2.01-7.03l0.5-15.64c0.07-2.23-0.33-4.38-1.2-6.39
			l-4.67-10.85l7.24-9.33c1.91-2.46,2.99-5.41,3.12-8.54l0.67-15.81c0.17-3.98-1.29-7.94-4.01-10.86
			C530.52,428.61,526.68,426.87,522.69,426.76z"/>
	</g>
	<g>
		<path fill="#FFFFFF" d="M103.86,471.03c0-14.08-4.16-23.07-12.48-26.95c-4.44-2.11-14.7-3.27-30.78-3.49l-3.33,122.94
			c7.43,0.22,13,0.39,16.72,0.5c3.71,0.11,5.68,0.17,5.91,0.17c15.86,0,23.79-11.09,23.79-33.27c0-13.2-4.1-22.9-12.31-29.11
			C99.71,494.49,103.86,484.23,103.86,471.03z M89.22,538.49c-0.44,2.83-1.28,4.99-2.5,6.49s-2.91,2.47-5.07,2.91
			c-2.16,0.44-4.96,0.67-8.4,0.67h-2.33l1-39.93c3.55,0.11,6.49,0.44,8.82,1s4.16,1.55,5.49,2.99s2.27,3.33,2.83,5.66
			c0.55,2.33,0.83,5.27,0.83,8.82C89.89,531.86,89.67,535.66,89.22,538.49z M78.41,493.49h-2.99c-0.44-0.11-1.06-0.17-1.83-0.17
			h-1.16l0.83-36.93c2.88,0.22,5.41,0.44,7.57,0.67c2.16,0.22,3.94,0.86,5.32,1.91c1.39,1.06,2.41,2.72,3.08,4.99s1,5.46,1,9.57
			C90.22,486.83,86.28,493.49,78.41,493.49z"/>
		<path fill="#FFFFFF" d="M162.42,527.93l0.33-64.55v-1.33c-0.22-9.65-2.36-17-6.4-22.04c-4.05-5.05-9.57-7.57-16.55-7.57
			c-7.21,0.33-12.73,3.11-16.55,8.32c-3.83,5.21-5.8,12.53-5.91,21.96l-0.5,66.71c0.11,21.07,7.93,31.61,23.46,31.61
			C154.94,560.48,162.31,549.44,162.42,527.93z M133.23,542.98c-1.83-2.72-2.74-6.18-2.74-10.4l0.5-71.04
			c0-4.1,0.77-7.65,2.33-10.65c1.55-2.99,3.71-4.49,6.49-4.49c2.55,0,4.71,1.33,6.49,3.99c1.77,2.66,2.66,6.1,2.66,10.31l-0.17,71.2
			c-0.44,4.22-1.36,7.79-2.75,10.73s-3.52,4.41-6.4,4.41C137.19,547.06,135.06,545.7,133.23,542.98z"/>
		<polygon fill="#FFFFFF" points="194.36,565.69 194.36,514.62 212.33,442.58 198.69,442.75 188.37,492.82 177.73,443.58 
			164.75,444.08 181.05,517.11 180.89,565.69 		"/>
		<polygon fill="#FFFFFF" points="260.41,444.74 274.05,444.74 274.05,439.75 285.03,439.75 267.23,421.79 249.1,439.42 
			260.41,439.42 		"/>
		<polygon fill="#FFFFFF" points="272.89,516.28 259.41,515.95 259.41,530.26 272.89,530.26 		"/>
		<polygon fill="#FFFFFF" points="273.05,494.82 259.58,494.65 259.58,508.96 273.05,508.96 		"/>
		<polygon fill="#FFFFFF" points="273.88,452.06 260.24,451.9 259.91,466.2 273.55,466.2 		"/>
		<polygon fill="#FFFFFF" points="258.91,549.22 272.39,549.22 272.72,538.74 258.91,538.74 		"/>
		<polygon fill="#FFFFFF" points="273.39,473.53 259.91,473.19 259.91,487.5 273.39,487.5 		"/>
		<polygon fill="#FFFFFF" points="300.34,494.15 322.63,570.02 335.27,570.02 335.27,450.4 321.8,450.4 321.8,529.26 299.17,447.07 
			287.03,447.07 287.03,572.18 300.34,572.18 		"/>
		<polygon fill="#FFFFFF" points="390.84,530.42 390.84,535.75 379.69,535.75 397.66,553.55 415.79,535.75 404.48,535.75 
			404.48,530.42 		"/>
		<polygon fill="#FFFFFF" points="391,523.27 404.48,523.27 404.48,441.58 421.78,441.58 421.45,425.94 375.03,425.94 
			375.03,441.58 391,441.58 		"/>
		<polygon fill="#FFFFFF" points="457.88,430.94 459.54,478.85 441.91,479.35 440.08,427.94 426.94,428.44 430.93,547.89 
			444.24,547.56 442.41,494.82 460.04,494.15 462.04,550.39 475.35,550.05 471.36,430.44 		"/>
		<polygon fill="#FFFFFF" points="521.6,457.55 522.26,441.75 487.33,440.75 483.5,563.86 519.93,565.19 520.43,548.89 
			497.31,548.06 498.81,507.8 516.61,508.46 517.11,492.82 499.14,492.16 500.47,456.72 		"/>
		<path fill="#FFFFFF" d="M178.9,651.55l-13.31,0.33c0.22,1.33,0.36,3,0.42,4.99c0.05,2,0.08,5.21,0.08,9.65
			c0,12.98-3.05,19.46-9.15,19.46c-2.55,0-4.66-1.05-6.32-3.16s-2.61-5.82-2.83-11.15l-2.16-71.2c0-9.09,2.99-13.64,8.98-13.64
			c5.66,0,8.48,5.82,8.48,17.47c0,2.77-0.06,5.24-0.17,7.4c-0.11,2.16-0.22,3.97-0.33,5.41l13.64-0.33
			c0.22-1.77,0.33-3.66,0.33-5.66s0-4.6,0-7.82c0-5.99-0.56-10.95-1.66-14.89c-1.11-3.94-2.64-7.12-4.57-9.57
			c-1.94-2.44-4.19-4.16-6.74-5.16s-5.27-1.5-8.15-1.5c-7.65,0-13.42,2.61-17.3,7.82s-5.82,12.37-5.82,21.46l1.5,66.05
			c0.22,11.09,2.27,19.38,6.16,24.87c3.88,5.49,9.43,8.24,16.64,8.24c15.08,0,22.63-13.14,22.63-39.43c0-2.77-0.03-4.8-0.08-6.07
			C179.09,653.86,179.01,652.66,178.9,651.55z"/>
		<path fill="#FFFFFF" d="M211.83,575.69c-7.21,0.33-12.73,3.11-16.55,8.32c-3.83,5.21-5.8,12.53-5.91,21.96l-0.5,66.71
			c0.11,21.07,7.93,31.61,23.46,31.61c14.64-0.56,22.01-11.59,22.13-33.11l0.33-64.55v-1.33c-0.22-9.65-2.36-17-6.4-22.04
			C224.34,578.21,218.82,575.69,211.83,575.69z M220.82,675.18c-0.44,4.22-1.36,7.79-2.75,10.73s-3.52,4.41-6.4,4.41
			c-2.44,0-4.58-1.36-6.41-4.08c-1.83-2.72-2.74-6.18-2.74-10.4l0.5-71.04c0-4.1,0.77-7.65,2.33-10.65
			c1.55-2.99,3.71-4.49,6.49-4.49c2.55,0,4.71,1.33,6.49,3.99c1.77,2.66,2.66,6.1,2.66,10.31L220.82,675.18z"/>
		<path fill="#FFFFFF" d="M282.04,692.06c-0.22-1.27-0.39-2.77-0.5-4.49s-0.19-3.91-0.25-6.57c-0.06-2.66-0.08-6.16-0.08-10.48
			c0-4.88-0.25-9.43-0.75-13.64s-1.91-7.71-4.24-10.48c3.77-3.22,6.46-7.57,8.07-13.06c1.61-5.49,2.41-12.34,2.41-20.55
			c0-5.88-0.47-10.87-1.41-14.97s-2.39-7.4-4.33-9.9c-1.94-2.5-4.44-4.33-7.49-5.49s-6.63-1.8-10.73-1.91l-19.8-0.33l-2.99,122.11
			l12.98,0.33l1.5-52.4l9.32,0.33c2,2.44,3.27,5.88,3.83,10.31c0.55,4.44,0.83,8.93,0.83,13.48c0,2.22-0.03,4.3-0.08,6.24
			c-0.06,1.94-0.08,3.69-0.08,5.24c0,3.88,0.58,7.51,1.75,10.9c1.16,3.38,2.75,6.41,4.74,9.07l13.81,0.5
			c-2.66-2.66-4.49-5.99-5.49-9.98C282.59,694.75,282.26,693.34,282.04,692.06z M272.72,622.19c-0.33,2.83-1,5.3-2,7.4
			c-1,2.11-2.47,3.77-4.41,4.99s-4.52,1.83-7.74,1.83c-0.56,0-1.14,0-1.75,0s-1.19-0.05-1.75-0.17l0.83-40.26
			c2.55,0,4.91,0.08,7.07,0.25s3.99,0.78,5.49,1.83c1.5,1.06,2.66,2.75,3.49,5.07c0.83,2.33,1.25,5.66,1.25,9.98
			C273.22,616.34,273.06,619.36,272.72,622.19z"/>
		<polygon fill="#FFFFFF" points="333.11,666.86 312.81,584.01 300.84,584.01 297.51,708.62 309.65,708.95 311.65,630.59 
			312.15,630.43 332.11,707.78 344.76,708.12 347.92,588.67 335.44,588.17 		"/>
		<polygon fill="#FFFFFF" points="370.04,636.75 387.68,636.75 387.68,620.94 369.71,620.94 369.71,585.51 390.67,585.51 
			390.67,569.87 355.9,569.87 355.9,693.14 393.5,693.14 393.5,676.67 370.04,676.67 		"/>
	</g>
	<path fill="#FFFFFF" d="M439.93,696.32c-0.46-1.57-0.8-2.98-1.02-4.26c-0.22-1.27-0.39-2.77-0.5-4.49s-0.19-3.91-0.25-6.57
		c-0.06-2.66-0.08-6.16-0.08-10.48c0-4.88-0.25-9.43-0.75-13.64s-1.91-7.71-4.24-10.48c3.77-3.22,6.46-7.57,8.07-13.06
		s2.41-12.34,2.41-20.55c0-5.88-0.47-10.87-1.41-14.97s-2.39-7.4-4.33-9.9c-1.94-2.5-4.44-4.33-7.49-5.49s-6.63-1.8-10.73-1.91
		l-19.8-0.33l-2.99,122.11l12.98,0.33l1.5-52.4l9.32,0.33c2,2.44,3.27,5.88,3.83,10.31c0.55,4.44,0.83,8.93,0.83,13.48
		c0,2.22-0.03,4.3-0.08,6.24c-0.06,1.94-0.08,3.69-0.08,5.24c0,3.88,0.58,7.51,1.75,10.9c1.16,3.38,2.75,6.41,4.74,9.07l13.81,0.5
		C442.76,703.64,440.93,700.31,439.93,696.32z M429.6,622.19c-0.33,2.83-1,5.3-2,7.4c-1,2.11-2.47,3.77-4.41,4.99
		s-4.52,1.83-7.74,1.83c-0.56,0-1.14,0-1.75,0s-1.19-0.05-1.75-0.17l0.83-40.26c2.55,0,4.91,0.08,7.07,0.25
		c2.16,0.17,3.99,0.78,5.49,1.83c1.5,1.06,2.66,2.75,3.49,5.07c0.83,2.33,1.25,5.66,1.25,9.98
		C430.1,616.34,429.93,619.36,429.6,622.19z"/>
	<g>
		<path stroke="#000000" stroke-width="22" stroke-miterlimit="10" d="M382.19,226.07c-4.76-12.1-12.38-10.48-15.27-9.33
			c-0.27-0.38-0.54-0.76-0.82-1.13c0.56,0.06,1.07-0.02,1.54-0.22c0.82-0.18,1.49-0.49,2-0.79c6.19-3.74,5.27-16.87,3.91-23.29
			c-0.15-0.71-0.34-1.5-0.59-2.41c-2.3-8.45-7.78-19.38-16.3-32.48c-5.36-8.24-11.89-17.3-19.43-26.94
			c-5.21-6.66-10.89-13.6-16.9-20.61c-4.61-5.39-9.35-10.75-14.08-15.93c-5.34-5.85-9.47-10.17-12.01-12.76l-0.55-0.57
			c-9.55-9.81-12.11-11.58-14.52-11.64h-0.09h-0.09c-3.93,0.09-13.36,9.46-16.15,12.33c-2.57,2.64-6.77,7.03-12.17,12.95
			c-4.83,5.3-9.64,10.75-14.3,16.21c-6.1,7.14-11.88,14.22-17.19,21.04c-7.7,9.9-14.33,19.18-19.7,27.57
			c-8.56,13.39-13.85,24.41-15.72,32.76l-0.03,0.1c-0.03,0.12-0.06,0.24-0.08,0.36c-1.35,6.42-2.28,19.55,3.91,23.29
			c0.48,0.29,1.13,0.58,1.9,0.76c0.47,0.22,0.99,0.31,1.55,0.26c-0.27,0.36-0.53,0.73-0.8,1.1c-2.94-1.15-10.48-2.65-15.21,9.36
			c-2.4,6.09-13.16,36.9-12.22,47.2c0.3,3.24,3.31,4.28,4.05,4.47c1.82,0.47,3.71,0.83,5.33,1.1c0.16,5.91,0.76,11.02,1.43,15.01
			c2.19,13.17,4.41,22.26,14.68,28.19c5.71,3.57,12.24,4.44,17.48,5.13c1.07,0.14,2.09,0.28,3.05,0.43
			c0.41,0.93,1.21,3.11,2.37,7.97c0.99,5.48,8.15,9.18,12.96,10.06c4.59,0.84,6.4-0.98,7.07-2.14c1.04-1.8,1.35-3.72,1.13-7.84
			c4.3,12.27,9.74,24.69,15.45,35.24c3.39,6.26,11.1,9.35,17.88,9.35c1.53,0,3.01-0.16,4.38-0.47c4.22-0.96,6.83-3.44,6.99-6.69
			c0-0.12,0.38-11.34,1.5-28.9c1.12,17.56,1.5,28.79,1.5,28.95c0.16,3.2,2.77,5.68,6.99,6.64c7.47,1.7,18.11-1.21,22.27-8.88
			c5.71-10.55,11.16-22.97,15.45-35.24c-0.22,4.12,0.09,6.05,1.13,7.84c0.67,1.16,2.48,2.98,7.07,2.14
			c4.81-0.88,11.97-4.58,12.96-10.06c1.16-4.86,1.96-7.04,2.37-7.97c0.96-0.15,1.99-0.29,3.05-0.43c5.24-0.7,11.77-1.56,17.39-5.08
			c10.36-5.99,12.57-15.07,14.76-28.24c0.66-3.99,1.27-9.1,1.43-15c1.64-0.27,3.56-0.64,5.41-1.11c0.74-0.19,3.76-1.23,4.05-4.47
			C395.35,262.98,384.59,232.17,382.19,226.07z"/>
		
			<radialGradient id="SVGID_1_" cx="209.3738" cy="319.163" r="154.3547" gradientTransform="matrix(0.814 0 0 -1.324 107.3418 701.058)" gradientUnits="userSpaceOnUse">
			<stop  offset="0" style="stop-color:#FFFFFF"/>
			<stop  offset="0.0897" style="stop-color:#F2F2F2"/>
			<stop  offset="0.2556" style="stop-color:#D0D0D0"/>
			<stop  offset="0.4796" style="stop-color:#989898"/>
			<stop  offset="0.7497" style="stop-color:#4C4C4C"/>
			<stop  offset="1" style="stop-color:#000000"/>
		</radialGradient>
		<path fill="url(#SVGID_1_)" d="M369.45,224.31c-44.98-58.97-136.96-59.29-181.76,0c-18.5,24.49-13.44,53.39-11.15,67.14
			s4.43,21.02,13.32,26.16c6.67,4.17,14.69,4.28,20.56,5.34c0,0,1.13-0.54,3.68,10.11c0.9,5.5,12.94,9.83,14.56,7.03
			c0.78-1.35,1.01-3.05,0.59-8.39c-0.28-3.55-1.41-8.33,0.87-8.15c1.19,0.09,2.98,3.16,4.15,6.62c4.25,12.59,9.89,25.83,16.15,37.39
			c5.31,9.8,23.39,9.61,23.69,3.51c0,0,0.41-12.43,1.69-31.95c0.76-11.64,2.77-13.32,2.77-13.32s2,1.68,2.77,13.32
			c1.28,19.52,1.69,31.95,1.69,31.95c0.3,6.1,18.38,6.29,23.69-3.51c6.26-11.56,11.9-24.8,16.15-37.39
			c1.17-3.46,2.95-6.53,4.15-6.62c2.28-0.17,1.15,4.6,0.87,8.15c-0.42,5.34-0.19,7.04,0.59,8.39c1.62,2.8,13.66-1.53,14.56-7.03
			c2.54-10.65,3.68-10.11,3.68-10.11c5.87-1.06,13.89-1.17,20.56-5.34c8.9-5.14,11.03-12.41,13.32-26.16
			C382.89,277.7,388.07,248.71,369.45,224.31z"/>
		
			<radialGradient id="SVGID_2_" cx="280.1922" cy="561.0982" r="47.1629" gradientTransform="matrix(1 0 0 -1 0 780)" gradientUnits="userSpaceOnUse">
			<stop  offset="0" style="stop-color:#6D6E70"/>
			<stop  offset="1" style="stop-color:#231F20"/>
		</radialGradient>
		<path fill="url(#SVGID_2_)" d="M313.89,221.97c-0.15-0.16-0.7,1.87-0.81,1.75c-1.5-1.82-10.82-9.84-13.9-11.37
			c-1.89-0.94-5.1-4.11-8-5.59c0.92-0.78,0.72-0.11,1.74-0.21c1.71-0.86,3.74-0.91,5.38-0.89c1.91,0.03,2.96-0.51,4.39-0.3
			c2.71,0.39,4.02-0.75,4.06-1.66c0.16-3.76,0.48-5.52-1.96-7.07c-0.76-0.48-3.87-0.1-4.33-0.48c-2.98-2.53-9.43-2.41-11.35-1.68
			c-0.42,0.16-1.64,0.62-11.14,8.3c-1.2-0.9-2.9-1.94-5.18-2.78c-3.65-1.35-3.91-1.43-7.06-2.15l-0.89-0.2
			c-1.13-0.26-1.84-0.72-2.67-1.25c-1.34-0.86-3-1.92-5.79-1.7c-4.46,0.36-9.13,2.92-9.45,5.25c-0.13,0.92-0.47,3.02,0.62,5.02
			c1.47,2.59,6.29,1.3,8.02,0.91c2.78-0.63,4.55,0.71,8.92,1.79c-1.4,0.86-1.71,3.74-3.44,4.89c-9.32,6.16-13.93,11.33-14.5,12
			c-3.71,3.98-3.11,7.46-2.42,9.18c1.37,3.42,5.05,5.37,7.98,5.53c4.57,0.24,14.59-0.36,18.28-8.86c2.55-5.55,6.82-12.18,9.4-14.82
			c3.73,2.11,9.61,12.27,12.98,22.69c0.89,2.75,3.46,4.46,5.73,5.12c0.72,0.21,2.05,0.4,2.77,0.4c3.56,0,7.53-2.34,10.47-4.23
			c0.59-0.38,4.98-2.16,4.77-5.19C316.3,231.07,318.26,226.82,313.89,221.97z"/>
		<circle stroke="#000000" stroke-width="1.6279" stroke-miterlimit="10" cx="276.95" cy="280.01" r="21.98"/>
		<g opacity="0.08">
			<path fill="#FFFFFF" d="M269.08,272.77c0,8.34,6.76,15.11,15.11,15.11c4.36,0,8.28-1.86,11.04-4.82c0.13-0.88,0.22-1.78,0.22-2.7
				c0-10.41-8.44-18.85-18.85-18.85c-0.92,0-1.81,0.09-2.7,0.22C270.94,264.49,269.08,268.41,269.08,272.77z"/>
		</g>
		<path stroke="#000000" stroke-miterlimit="10" d="M364.33,239.14c6.84,19.62,4.01,37.99-7.33,38.65
			c-11.57,0.67-25.02-12.13-29.63-32.47c-4.08-17.98-0.97-36.31,8.44-36.31C345.06,209,358.26,221.73,364.33,239.14z"/>
		<path opacity="0.4" fill="#FFFFFF" enable-background="new    " d="M339.88,245.52c0,0-0.91-7-4.84-7.07
			c-3.41-0.06-1.88,2.49-0.78,6.28c0.54,1.85,1.6,2.06,2.14,2.24C336.95,247.15,339.83,247.43,339.88,245.52z"/>
		<path stroke="#000000" stroke-miterlimit="10" d="M192.27,241.73c-6.84,19.62-4.01,37.99,7.33,38.65
			c11.57,0.67,25.02-12.13,29.63-32.47c4.08-17.98,0.97-36.31-8.44-36.31C211.53,211.6,198.34,224.32,192.27,241.73z"/>
		<path stroke="#000000" stroke-miterlimit="10" d="M373.55,191.31c-0.15-0.71-0.34-1.5-0.59-2.41c-2.3-8.45-7.78-19.38-16.3-32.48
			c-5.36-8.24-11.89-17.3-19.43-26.94c-5.21-6.66-10.89-13.6-16.9-20.61c-4.61-5.38-9.35-10.75-14.08-15.93
			c-5.34-5.85-9.47-10.17-12.01-12.76l-0.55-0.57c-9.55-9.81-12.11-11.58-14.52-11.64h-0.09h-0.09
			c-3.93,0.09-13.36,9.46-16.15,12.33c-2.57,2.64-6.77,7.03-12.17,12.95c-4.83,5.3-9.64,10.75-14.3,16.21
			c-6.1,7.14-11.88,14.22-17.19,21.04c-7.7,9.9-14.33,19.18-19.7,27.57c-8.56,13.39-13.85,24.41-15.72,32.76l-0.03,0.1
			c-0.03,0.12-0.06,0.24-0.08,0.36c-1.35,6.42-2.28,19.55,3.91,23.29c0.48,0.29,1.13,0.58,1.9,0.76c0.64,0.29,1.36,0.36,2.16,0.16
			c1.64-0.15,5.21-9.24,6.93-11.64c32.96-45.75,117.55-51.24,160.5,3.53c0,0,3.38,0.68,5.32,3.17c1.22,1.72,2.61,5.08,3.23,4.82
			c0.82-0.18,1.49-0.49,2-0.79C375.83,210.86,374.9,197.73,373.55,191.31z"/>
		<g opacity="0.1">
			<path fill="#F2F2F2" d="M290.4,81.52c-3.52-3.61-9.65-9.8-11.31-9.84l0,0l0,0c-1.66,0.04-8.59,6.28-12.34,9.95
				c2.69-0.94,7.42-2.34,11.97-2.34C283.25,79.3,287.81,80.62,290.4,81.52z"/>
			<path fill="#F2F2F2" d="M365.63,179.76c-2.99-6.55-7.16-13.8-12.04-21.3c-2.07-3.18-4.26-6.39-6.53-9.61
				c-10.07-6.83-30.34-15.79-67.93-15.79c-38.27,0-59.88,10.42-70.75,18.35c0,0-2.02,2.78-5.79,8.68
				c-4.46,6.98-8.28,13.71-11.06,19.83c9.97-7.53,37.81-24.34,87.64-24.34C328.63,155.58,355.77,172.15,365.63,179.76z"/>
			<path fill="#F2F2F2" d="M329.84,123.51c-1.06-1.26-2.12-2.49-3.15-3.71c-5.4-6.3-10.58-12.16-15.35-17.42
				c-5.21-2.53-16.52-6.92-31.99-6.92c-15.6,0-27.61,4.26-33.17,6.81c-4.98,5.5-10.42,11.64-16.08,18.26c-1.12,1.32-2.25,2.66-3.4,4
				c7.1-3.45,23.67-9.55,52.42-9.55C305.19,114.97,321.56,119.99,329.84,123.51z"/>
		</g>
		<g>
			<path d="M187.25,192.1c-2.11,10.01-3.61,35.33,4.27,26.79c42.35-45.92,114.96-53.52,168.59-5.33
				c8.65,7.77,11.97-11.45,9.86-21.45c-0.15-0.71-0.34-1.45-0.54-2.2c-0.85-3.12-2.15-6.53-3.8-10.14
				c-9.86-7.61-36.99-24.18-86.47-24.18c-49.83,0-77.67,16.81-87.64,24.34c-1.94,4.26-3.38,8.22-4.16,11.75
				C187.32,191.82,187.28,191.96,187.25,192.1z"/>
		</g>
		<path opacity="0.4" fill="#FFFFFF" enable-background="new    " d="M219.87,245.52c0,0,0.91-7,4.84-7.07
			c3.41-0.06,1.88,2.49,0.78,6.28c-0.54,1.85-1.6,2.06-2.14,2.24C222.79,247.15,219.91,247.43,219.87,245.52z"/>
		<path stroke="#000000" stroke-miterlimit="10" d="M313.47,221.49c-0.15-0.16-0.28-0.31-0.39-0.44c-1.5-1.82-10.82-9.84-13.9-11.37
			c-1.89-0.94-5.63-2.82-8.53-4.3c0.92-0.78,1.33-1.17,2.33-1.57c1.45-0.64,3.4-0.5,5.04-0.48c1.91,0.03,3.72,0.05,5.15-0.12
			c2.6-0.31,3.32-1.85,3.52-2.73c0.59-2.58-1.71-4.04-4.14-5.59c-0.76-0.48-1.62-1.03-2.07-1.42c-2.98-2.53-9.43-2.41-11.35-1.68
			c-0.42,0.16-1.64,0.62-11.14,8.3c-1.2-0.9-2.9-1.94-5.18-2.78c-3.65-1.35-3.91-1.43-7.06-2.15l-0.89-0.2
			c-1.13-0.26-1.84-0.72-2.67-1.25c-1.34-0.86-3-1.92-5.79-1.7c-4.46,0.36-9.13,5.59-9.45,7.91c-0.13,0.92,0.17,1.85,0.8,2.54
			c1.19,1.29,1.97,1.66,4.26,1.38s5.45-0.41,7.1,0.01c1.64,0.42,2.67,1.37,6.67,3c-1.4,0.86-2.97,1.87-4.7,3.01
			c-9.32,6.16-13.93,11.33-14.5,12c-3.71,3.98-3.11,7.46-2.42,9.18c1.37,3.42,5.05,5.37,7.98,5.53c4.57,0.24,13.25-1.61,16.94-10.11
			c3.1-5.23,8.07-10.61,10.64-13.25c1.95,1.38,3.62,2.72,3.99,3.23l0.33,0.53c1.49,2.39,6.04,9.64,10.16,18.48
			c1.22,2.62,2.99,4.29,5.25,4.94c0.72,0.21,1.44,0.3,2.16,0.3c3.56,0,7.1-2.27,10.04-4.16c0.59-0.38,2.26-1.51,2.26-1.51
			C317.64,232.17,317.84,226.34,313.47,221.49z"/>
	</g>
</g>
</svg>
