<?xml version="1.0" encoding="utf-8"?>
<!-- Generator: Adobe Illustrator 25.0.1, SVG Export Plug-In . SVG Version: 6.00 Build 0)  -->
<svg version="1.1" id="freddys" xmlns="http://www.w3.org/2000/svg" xmlns:xlink="http://www.w3.org/1999/xlink" x="0px" y="0px"
	 viewBox="0 0 279 112" enable-background="new 0 0 279 112" xml:space="preserve">
<path fill="#E51A38" d="M18.7,68.8c0.2-0.2,0.2-0.4,0.2-0.6c0.5-2.3,1.8-3.8,4.1-4.5c1.3-0.3,2.5-0.3,3.8,0.2c1.2,0.5,2,1.3,2.5,2.5
	c0.1,0.3,0.1,0.4-0.2,0.5c-1.3,0.6-2.2,1.6-2.3,3c-0.2,2.1,1.4,3.8,3.5,3.9c2.2,0.1,4.1-0.6,5.8-2.1c1.2-1.1,2.1-2.3,2.9-3.7
	c1.3-2.3,2.3-4.7,3.2-7.2c1.3-3.6,2.4-7.4,3.6-11c0-0.1,0-0.2,0.1-0.3c-0.6-0.1-1.1,0.1-1.7,0.2c-1.3,0.3-2.6,0.9-3.6,1.7
	c-1.3,1.1-2,2.4-2.1,4c0,0.5,0,0.5-0.5,0.5c-0.7,0-1.4-0.1-2.1-0.4c-1.3-0.6-1.9-1.7-2.1-3.1c-0.2-2.2,0.6-4,2.3-5.4
	c1.2-1,2.7-1.6,4.3-1.9c2.2-0.4,4.4-0.5,6.7-0.5c0.6,0,0.5,0.1,0.8-0.5c0.9-2.2,1.9-4.4,3.2-6.5c1.2-1.9,2.6-3.7,4.5-5.1
	c2.8-2.1,5.9-2.9,9.3-2.6c0.6,0,1.2,0.1,1.7,0.3c0.4,0.1,0.8,0.3,0.9,0.8s-0.3,0.8-0.7,1c-3.2,1.6-5.2,4.3-6.5,7.5
	c-0.6,1.5-1.1,3.1-1.5,4.6c-0.1,0.4-0.1,0.4,0.3,0.4c1.4-0.1,2.7-0.2,4-0.5c1.3-0.4,2.3-1.1,2.9-2.3c0.2-0.4,0.5-0.9,0.7-1.3
	c0.1-0.3,0.3-0.5,0.5-0.7c0.5-0.6,1.3-0.4,1.7,0.3c0.2,0.3,0.2,0.7,0.3,1c0.1,4.3-0.8,8.4-3.2,12.1c-0.2,0.3-0.4,0.5-0.6,0.8
	c-0.3,0.2-0.6,0.4-1,0.4c-0.5,0-0.9-0.3-1.1-0.8c-0.1-0.4-0.1-0.8-0.1-1.2c0-1.4-0.7-2.3-2.1-2.7c-1.1-0.3-2.1-0.3-3.2-0.4
	c-0.3,0-0.3,0.2-0.4,0.4c-0.3,1-0.5,2.1-0.8,3.1c-1.2,4.3-2.7,8.5-5,12.4c-1.8,3.2-4.1,6-7,8.2c-3.2,2.5-6.8,4-10.8,4.5
	c-2.9,0.3-5.7,0.2-8.5-0.7c-1.7-0.5-3.3-1.4-4.5-2.7c-1-1-1.7-2.2-2-3.7c0-0.2-0.1-0.5-0.2-0.7C18.7,69.5,18.7,69.1,18.7,68.8z"/>
<path fill="#E51A38" d="M89.4,17.3c0.6,0.4,0.7,0.6,0.6,1.4c-0.4,2.3-1.5,4.1-3.3,5.5c-2.1,1.7-4.5,2.7-7.1,3.2
	c-3.2,0.5-6.4,0.7-9.6,0.6c-4.3-0.1-8.5-0.6-12.6-1.4c-2.7-0.5-5.5-0.8-8.2-0.9c-2.1-0.1-4.2-0.1-6.2,0.2c-1.6,0.2-3.1,0.5-4.6,1.2
	c-0.8,0.4-1.6,0.8-2.2,1.5c-0.9,0.9-1.3,2.1-1.3,3.4c0.1,2,2.5,3.9,4.6,2.9c0.3-0.2,0.5-0.1,0.8,0.1c0.7,0.6,1.1,1.3,1.2,2.2
	c0.4,3-1.5,5.3-4.9,5c-2-0.2-3.5-1.2-4.7-2.8c-1.1-1.4-1.7-3.1-1.8-4.9c-0.3-5.2,1.7-9.4,5.9-12.5c2.2-1.6,4.7-2.6,7.4-3.3
	c2.9-0.7,5.8-1.1,8.8-1.2c0.5,0,1-0.1,1.5-0.1c0.8,0,1.7,0,2.5,0c0.5,0,1,0.1,1.5,0.1c3.2,0.1,6.3,0.4,9.5,0.9
	c3.6,0.5,7.1,1.1,10.7,1.4c2,0.2,4,0.2,5.9,0c1.6-0.2,3.1-0.7,4.4-1.7c0.3-0.2,0.6-0.4,0.8-0.6C89,17.3,89.2,17.3,89.4,17.3z"/>
<path fill="#E51A38" d="M209.5,66.6c-2,1.7-4.3,2.9-6.9,3.3c-3,0.6-5.8-0.2-8.1-2.2c-0.9-0.8-1.6-1.9-2-3.1c0-0.1-0.1-0.3-0.2-0.5
	c-0.2,0.1-0.4,0.3-0.5,0.5c-1,1.2-2,2.3-3.2,3.2c-1.9,1.4-3.9,2.2-6.3,2.2c-2.8,0-5-1.1-6.8-3.2c-0.1-0.1-0.2-0.3-0.4-0.4
	c-0.1,0.1-0.3,0.3-0.4,0.5c-1.6,1.6-3.4,2.7-5.7,3.1c-4.2,0.7-9.1-1-11.4-5.7c-0.1-0.2-0.1-0.4-0.3-0.5c-0.4,0.5-0.9,1.1-1.3,1.6
	c-1.2,1.4-2.5,2.6-4.1,3.4c-2.6,1.4-5.3,1.7-8,0.7c-1.4-0.5-2.5-1.4-3.5-2.5c-0.1-0.2-0.3-0.3-0.4-0.5c0,0,0,0-0.1,0
	c-2.7,3-6,4.2-10,3.5c-3.9-0.8-6.6-3.1-8.1-6.8c-0.2,0.1-0.3,0.3-0.4,0.4c-2.3,2.7-5.1,4.8-8.5,5.9c-2.6,0.8-5.2,1-7.8,0.3
	c-2.9-0.8-5-2.5-6.5-5.1c-0.1-0.2-0.1-0.4-0.3-0.5c-0.2,0.1-0.3,0.3-0.4,0.4c-1.3,1.6-2.8,3-4.6,4.1c-1.3,0.8-2.7,1.3-4.2,1.5
	c-3.5,0.4-7.7-1.4-8.9-6.2c-0.4-1.8-0.4-3.6-0.1-5.4c0.7-4,2.1-7.8,3.9-11.4c0.1-0.1,0.1-0.2,0.2-0.3c0,0,0,0,0-0.1
	s-0.1-0.1-0.2-0.1c-2,0-3.9,0-5.9,0c-0.2,0-0.4,0-0.5,0.3c-0.3,3.1-1.1,6.2-2.1,9.2c-0.8,2.2-1.7,4.4-2.8,6.4
	c-1.2,2.1-2.7,3.9-4.5,5.4c-2.1,1.6-4.5,2.4-7.1,2.2c-2.5-0.2-4.6-1.9-5.1-4.7c-0.2-1.3,0-2.5,0.4-3.7c0.7,0.3,1.4,0.5,2.1,0.6
	c2,0.3,3.8,0,5.5-0.9c1.4-0.7,2.6-1.7,3.7-2.9c2.4-2.8,4.3-6,5-9.7c0.5-2.3,0.6-4.7,0.5-7.1c-0.1-1.2-0.2-2.5-0.4-3.7
	c-0.1-0.9,0.6-1.5,1.5-1.1c0.3,0.1,0.5,0.3,0.7,0.5s0.5,0.5,0.6,0.8c0.9,1.3,2.1,2,3.6,2.2c1,0.2,2,0.2,3,0.2c2.7,0,5.5-0.1,8.2-0.2
	c0.6,0,1.3-0.1,1.9,0.1c0.2,0,0.5,0.1,0.7,0.1c1.4,0.4,2,1.4,1.8,2.9c-0.1,0.8-0.4,1.6-0.8,2.4c-1.8,4.1-3.5,8.2-5.1,12.4
	c-0.3,0.8-0.6,1.7-0.7,2.6c-0.1,0.7-0.1,1.3,0.1,2c0.3,0.9,0.9,1.5,1.9,1.5c0.7,0.1,1.4-0.1,2.1-0.4c1.3-0.5,2.5-1.3,3.6-2.2
	c0.5-0.4,0.9-0.8,1.3-1.2c0.2-0.2,0.2-0.3,0.2-0.6c-0.4-5.3,1.2-10.1,4.4-14.3c1.6-2.2,3.7-3.9,6.2-5c2.4-1,4.8-1.1,7.2-0.2
	c2.4,0.9,3.7,2.8,3.8,5.3c0.1,2.3-0.5,4.5-1.6,6.5c-1.8,3.2-4.2,5.7-7.4,7.5c-0.6,0.4-1.3,0.7-2,0.9c-0.2,0.1-0.3,0.2-0.2,0.4
	c0.1,0.4,0.2,0.8,0.4,1.2c0.8,1.9,2.4,2.7,4.4,2.4c1.3-0.2,2.4-0.7,3.5-1.3c1.9-1.1,3.5-2.6,5-4.2c0.2-0.2,0.2-0.4,0.2-0.6
	c0.1-4.8,1.6-9.1,4.5-12.9c1.7-2.1,3.7-3.8,6.2-4.9c2.3-1,4.7-1.1,7.1-0.4c2.4,0.7,3.9,2.2,4.6,4.6c0,0.2,0.1,0.3,0.1,0.5
	c0,0,0,0,0,0.1c0.2-0.2,0.2-0.4,0.3-0.5c1.5-3.6,3-7.2,4.6-10.7c0.4-1,0.8-2.1,1.4-3.1c0.3-0.5,0.5-0.9,0.8-1.3
	c0.7-0.9,1.5-1.3,2.6-1.3c2.5,0,5.1,0,7.6,0c0.1,0,0.3,0,0.4,0c0.9,0.2,1.1,0.8,0.7,1.5c-0.2,0.3-0.4,0.6-0.8,0.7
	c-1.1,0.6-1.9,1.5-2.5,2.6c-0.7,1.2-1.3,2.5-1.8,3.8c-1.1,2.6-2.2,5.1-3.3,7.7c-2.1,5-4.2,9.9-6.3,14.9c-0.3,0.6-0.5,1.3-0.5,2
	c-0.1,1.7,0.9,2.8,2.5,3.1c0.9,0.1,1.7,0,2.5-0.5c1.8-1.1,3.2-2.5,4.5-4.1c0.1-0.2,0.2-0.3,0.2-0.5c-0.3-3.4,0.5-6.6,1.9-9.7
	c1.2-2.7,2.9-5.1,5.2-7c1.8-1.5,3.8-2.5,6-2.9c1.8-0.3,3.5-0.1,5.2,0.5c2.1,0.8,3.4,2.3,4,4.4c0.1,0.2,0.1,0.3,0.1,0.5
	c0,0,0,0,0.1,0.1c0.5-1.1,0.9-2.1,1.3-3.2c1.4-3.4,2.9-6.7,4.3-10c0.3-0.8,0.7-1.5,1.2-2.2c0.7-1.1,1.7-1.6,3-1.6c2.4,0,4.8,0,7.2,0
	c0.3,0,0.5,0,0.8,0.1c0.7,0.2,0.9,0.7,0.6,1.3c-0.2,0.4-0.4,0.7-0.8,0.9c-1.4,0.8-2.3,2-3,3.3c-0.8,1.5-1.4,3.1-2.1,4.7
	c-2.9,6.9-5.9,13.8-8.8,20.7c-0.3,0.6-0.5,1.2-0.6,1.8c-0.4,1.9,0.8,3.4,2.7,3.5c0.8,0.1,1.5-0.1,2.2-0.5c1.7-1.1,3.1-2.5,4.4-4
	c0.1-0.1,0.2-0.2,0.3-0.3c0.4-0.4,0.5-0.8,0.6-1.4c0.3-1.4,0.7-2.7,1.2-4c1.1-3,2.3-5.9,3.7-8.8c0.4-0.7,0.7-1.5,1.1-2.2
	c0.4-0.7,0.8-1.3,1.4-1.9c0.7-0.7,1.5-1,2.5-1c2.2,0,4.3,0,6.5,0c0.3,0,0.6,0,0.9,0.1c0.8,0.2,1.1,0.9,0.6,1.6
	c-0.2,0.3-0.4,0.5-0.7,0.7c-0.8,0.7-1.5,1.5-2.1,2.4c-1.4,2.2-2.3,4.7-3.3,7.1c-0.6,1.6-1.2,3.1-1.9,4.7c-0.4,1-0.6,2-0.6,3.1
	c0,0.4,0.1,0.8,0.2,1.2c0.4,1.6,1.7,2.5,3.4,2.4c1.4-0.1,2.5-0.6,3.5-1.6c0.9-0.9,1.6-1.9,2.1-3.1c1.8-4.5,3.9-8.9,5.7-13.4
	c0.3-0.8,0.6-1.6,1-2.3c0.3-0.5,0.6-1,1-1.5c0.8-1,1.8-1.5,3.2-1.5c2.1,0,4.3,0,6.4,0c0.4,0,0.7,0,1.1,0.1c0.7,0.2,1,0.8,0.6,1.5
	c-0.2,0.3-0.4,0.6-0.7,0.8c-1,0.7-1.7,1.6-2.3,2.6c-1,1.7-1.7,3.5-2.5,5.3c-3,7.2-6,14.4-9.1,21.6c-1.5,3.7-3.7,6.9-6.8,9.4
	c-2.3,1.9-4.9,3.3-7.8,4.2c-2.8,0.9-5.8,1.5-8.7,1.8c-4.9,0.6-9.8,0.7-14.7,0.7c-39.5,0-79,0-118.6,0c-2.2,0-4.4,0-6.7,0.1
	c-3.3,0.1-6.7,0.4-9.9,1.4c-2.7,0.8-5.2,2.1-7.3,4.1c-0.4,0.4-0.9,0.6-1.4,0.5c-0.7-0.2-1.1-0.7-0.9-1.4c0.4-2.2,1.3-4.2,2.5-6.1
	c1.9-2.8,4.4-5,7.4-6.7s6.2-2.8,9.6-3.4c2.4-0.4,4.8-0.6,7.2-0.6c38.7,0,77.4,0,116.1,0c4.1,0,8.3,0,12.4,0c2.8,0,5.5-0.1,8.3-0.5
	c1.7-0.2,3.3-0.5,5-1c4.1-1.3,7-3.9,8.7-7.8c0.3-0.7,0.2-1.3,0.1-1.3C209.8,66.3,209.6,66.5,209.5,66.6z M176.9,50.3
	c0-0.8-0.1-1.5-0.5-2.2c-0.7-1.4-2.1-2.2-3.7-2c-0.8,0.1-1.4,0.5-2,1c-0.8,0.7-1.3,1.5-1.8,2.4c-1.2,2.1-2,4.3-2.6,6.6
	c-0.3,1.4-0.6,2.8-0.4,4.2c0.1,0.8,0.2,1.6,0.6,2.3c0.4,0.8,1.1,1.2,2,1.4c1.3,0.2,2.5-0.1,3.5-1.1c0.6-0.6,1-1.2,1.4-2
	c1.2-2.8,2.3-5.6,3.2-8.5C176.7,51.7,176.8,51,176.9,50.3z M130.5,59.4c0,1,0.1,1.9,0.5,2.8c0.4,0.9,1.1,1.5,2.1,1.7
	c1.3,0.2,2.5-0.1,3.5-1.1c0.6-0.6,1.1-1.3,1.4-2.1c0.3-0.8,0.7-1.6,1-2.5c0.8-2,1.6-4,2.2-6.1c0.4-1.5,0.4-2.9-0.3-4.3
	c-0.7-1.3-1.8-1.9-3.3-1.8c-0.9,0-1.6,0.5-2.3,1.1c-0.8,0.7-1.3,1.5-1.8,2.4c-1.1,1.9-1.9,4-2.5,6.1
	C130.8,56.8,130.5,58.1,130.5,59.4z M107.6,56.6c0.2,0.1,0.3,0,0.4-0.1c1.3-0.7,2.6-1.6,3.6-2.8c1.6-1.7,2.8-3.7,3.3-6
	c0.2-0.8,0.2-1.5-0.1-2.3c-0.3-0.6-0.8-0.9-1.4-0.7c-0.4,0.1-0.7,0.3-1,0.6c-1.1,1-1.9,2.2-2.6,3.5c-1,1.9-1.6,3.9-2,6
	C107.7,55.4,107.5,56,107.6,56.6z"/>
<path fill="#E51A38" d="M204.9,88.7c0.2-0.2,0.4-0.2,0.6-0.3c4.8-2.1,8.6-5.5,11.4-10c0.3-0.5,0.6-1,0.8-1.5
	c0.2-0.4,0.4-0.5,0.8-0.5c0.2,0,0.3,0,0.5,0c5.7,0,11.4,0,17.2,0c2.8,0,5.6,0,8.4-0.2c2.7-0.2,5.4-0.5,8-1.4
	c2.2-0.8,4.2-1.9,5.8-3.7c0.2-0.2,0.4-0.5,0.7-0.6c0.7-0.3,1.3,0,1.4,0.8c0.1,0.5,0,0.9-0.1,1.4c-0.7,3.4-2.5,6.2-4.9,8.6
	c-2.5,2.5-5.6,4.1-8.9,5.3c-2.6,0.9-5.2,1.5-8,1.8c-1.9,0.2-3.8,0.3-5.6,0.3c-9.1,0-18.2,0-27.3,0C205.3,88.7,205.1,88.7,204.9,88.7
	z"/>
<path fill="#E51A38" d="M242.9,51.2c-0.2,0.4-0.4,0.8-0.6,1.1c-1,2.1-1.9,4.2-2.8,6.3c-1.1,2.3-2.3,4.6-3.7,6.7
	c-0.6,1-1.4,1.9-2.2,2.7c-1.7,1.6-3.6,2.3-5.9,2.1c-2.3-0.2-4.6-2-5.1-4.5c-0.2-1.1-0.2-2.2,0.2-3.3c0.1-0.4,0.1-0.4,0.5-0.2
	c2.1,0.8,4.1,0.7,6.2-0.3c1.8-0.9,3.3-2.3,4.6-3.9c0.6-0.8,1.2-1.6,1.6-2.4c1.9-3.3,3.4-6.7,4.9-10.1c0.7-1.7,1.5-3.3,2.7-4.7
	c0.2-0.3,0.5-0.5,0.7-0.7s0.5-0.3,0.8-0.4c0.7-0.2,1.2,0.2,1.3,0.9c0,0.5,0.1,1.1,0.2,1.6c0.2,1,0.6,1.9,1.3,2.7
	c1.1,1.3,2.3,2.6,3.4,3.9c1.4,1.7,2.7,3.4,3.7,5.4c0.9,1.7,1.5,3.5,1.7,5.4c0.3,4.6-1.7,8.7-6.5,10.7c-2.4,1-4.9,1.2-7.4,0.5
	c-1.2-0.4-2.3-0.9-3.1-1.9c-1.2-1.3-1.6-2.8-0.9-4.5c0.4-1,1.2-1.7,2.4-1.9c1.1-0.2,2.2,0.4,2.5,1.3c0.1,0.2,0.2,0.4,0,0.7
	c-0.5,1.1,0.2,2.2,1.4,2.3c0.8,0.1,1.5-0.2,2.1-0.7c0.9-0.8,1.3-1.7,1.5-2.9c0.2-1.6-0.1-3.2-0.7-4.7
	C246.4,55.6,244.8,53.4,242.9,51.2z"/>
<path fill="#E51A38" d="M243.7,30.4c0,1.6-0.5,3-1.4,4.3c-0.8,1.2-1.8,2.1-2.9,2.9c-0.8,0.6-1.7,1.1-2.6,1.6
	c-0.4,0.2-0.9,0.4-1.3,0.4c-0.9,0.1-1.5-0.6-1.2-1.5c0.1-0.3,0.3-0.6,0.5-0.9c0.3-0.4,0.5-0.7,0.8-1.1c0.8-1.2,1.1-2.5,0.8-3.9
	c-0.4-1.7-1.8-2.8-3.5-2.7c-0.5,0-0.6,0-0.6-0.6c0-1.5,0.6-2.7,1.8-3.7c2.3-1.9,5.8-1.3,7.6,0.4C243,27.1,243.7,28.6,243.7,30.4z"/>
</svg>
