<?xml version="1.0" encoding="UTF-8" standalone="no"?><!DOCTYPE svg PUBLIC "-//W3C//DTD SVG 1.1//EN" "http://www.w3.org/Graphics/SVG/1.1/DTD/svg11.dtd"><svg width="100%" height="100%" viewBox="0 0 2267 1000" version="1.1" xmlns="http://www.w3.org/2000/svg" xmlns:xlink="http://www.w3.org/1999/xlink" xml:space="preserve" xmlns:serif="http://www.serif.com/" style="fill-rule:evenodd;clip-rule:evenodd;stroke-linejoin:round;stroke-miterlimit:2;"><g><g id="mob"><g><g><g><path d="M2024.62,634.285c-0.914,-0.182 -8.59,-2.185 -29.061,-15.659c-0.183,-1.093 -0.549,-2.367 -0.732,-3.459c6.58,2.366 13.16,5.644 19.374,9.832c5.666,3.824 9.139,6.919 11.15,9.468c-0.182,0 -0.548,-0.182 -0.731,-0.182m-265.206,-42.972c-3.107,2.732 -9.321,3.097 -12.795,3.097c-4.569,-0 -10.052,-0.729 -16.084,-2.004c-17.546,-3.641 -29.975,-10.196 -37.286,-19.118c-9.139,-11.108 -17.363,-28.587 -24.491,-51.53c-5.301,-16.751 5.848,-33.685 18.46,-46.43c0.731,0.91 1.462,1.82 2.741,2.732c53.736,50.435 67.992,75.198 70.369,87.034c3.29,15.841 1.462,24.034 -0.914,26.219m-641.174,-54.623c-7.31,7.647 -17.729,11.47 -31.803,11.47l-3.473,0c-14.622,-0.728 -24.121,-4.187 -28.332,-10.378c-4.566,-6.919 -10.963,-21.304 -14.618,-51.165c-2.378,-18.209 10.964,-44.246 37.65,-73.925c45.694,43.881 52.639,68.826 53.004,79.751c0.183,20.575 -4.021,35.507 -12.428,44.247m-415.086,27.858c-1.093,-5.463 -4.018,-10.561 -8.402,-14.203c-4.757,-4.005 -9.505,-7.829 -14.253,-11.835c4.201,-3.277 8.584,-6.555 12.968,-9.832c7.501,-1.821 15.174,-3.824 22.665,-5.463c-4.201,13.838 -8.585,27.677 -12.978,41.333m-79.869,-26.22c-0.729,1.275 -1.458,2.367 -2.197,3.642c-4.019,6.737 -9.496,16.751 -17.543,31.318c-12.978,23.67 -25.773,23.67 -30.703,23.67c-2.014,0 -4.201,-0.182 -6.398,-0.546c-18.646,-3.095 -31.441,-12.199 -40.026,-28.405c-4.94,-9.468 -9.687,-25.855 7.673,-57.537c13.525,-24.763 27.97,-39.148 42.77,-42.425c1.275,-0.182 2.561,-0.365 3.836,-0.365c6.58,0 20.651,3.825 44.42,27.858c-0.921,11.654 -1.65,23.307 -2.561,34.96c-0.183,2.732 0.182,5.28 0.729,7.83m-290.427,50.072c-4.758,20.393 -12.978,36.053 -25.408,48.07c-12.249,11.835 -26.867,19.3 -44.774,22.76c-5.487,1.093 -10.235,1.639 -14.081,1.639c-1.093,0 -2.005,-0.182 -2.743,-0.182c-0.911,-3.824 -2.005,-12.382 0.182,-29.497c1.103,-8.922 10.791,-31.683 62.519,-84.668c12.421,9.468 28.142,25.127 24.305,41.878m1790.64,65.003c-6.215,-23.852 -18.278,-48.251 -36.922,-74.835c-19.373,-27.495 -46.241,-48.798 -80.055,-63.728c-14.439,-6.192 -29.061,-9.469 -43.135,-9.469c-6.031,-0 -12.063,0.547 -17.911,1.639c-13.16,-33.32 -31.255,-76.474 -54.102,-130.552c-3.839,-9.105 -12.794,-15.113 -22.664,-15.113l-0.182,0c-9.87,0 -18.644,5.826 -22.665,14.748c-7.494,17.298 -15.353,35.142 -23.578,53.35c-2.559,5.827 -2.741,12.2 -0.731,18.208c8.407,24.035 15.536,44.792 21.567,62.819c-18.277,-33.322 -45.327,-75.018 -83.893,-129.097c-4.57,-6.555 -12.063,-10.378 -20.106,-10.378l-1.827,0c-1.279,0 -2.559,0.182 -3.838,0.546c-0.731,-1.638 -1.828,-3.278 -2.925,-4.734c-4.752,-6.009 -11.88,-9.286 -19.374,-9.286c-1.827,-0 -3.656,0.182 -5.483,0.547c-50.08,11.107 -87.914,30.407 -112.772,57.355c-26.32,28.587 -35.824,63.728 -27.416,101.602c2.376,10.742 4.935,21.121 7.859,30.953c-14.257,-35.141 -28.513,-70.83 -42.221,-106.517c-11.88,-66.643 -23.395,-134.195 -34.545,-201.018c-1.461,-8.922 -7.676,-16.388 -16.266,-19.302c-2.559,-0.91 -5.301,-1.273 -8.043,-1.273c-6.031,-0 -12.062,2.185 -16.632,6.372c-19.374,17.48 -39.479,36.053 -61.412,56.628c-4.387,4.188 -7.128,9.832 -7.677,15.84c-0.548,7.284 -1.279,14.75 -1.828,22.033c-11.331,-26.22 -22.481,-52.804 -33.265,-79.206c-3.472,-8.194 -11.149,-14.02 -20.105,-15.112c-1.096,-0.183 -2.01,-0.183 -2.924,-0.183c-7.86,0 -15.353,3.824 -20.106,10.379c-17.18,24.034 -32.716,45.884 -47.886,66.824c-4.204,5.826 -5.667,13.292 -4.022,20.211c5.667,23.489 11.515,46.977 17.364,70.466c-0.914,-1.093 -1.827,-2.367 -2.741,-3.642c-4.753,-6.373 -12.064,-10.015 -19.923,-10.015l-0.548,0c-8.042,0.182 -15.353,4.37 -19.923,10.925c-3.838,5.645 -7.494,11.107 -11.331,16.752c-12.978,-33.139 -31.62,-71.194 -56.295,-114.894c-4.387,-7.83 -12.612,-12.563 -21.568,-12.563l-0.182,-0c-3.108,-0 -6.032,0.546 -8.774,1.638c-0.365,-0.546 -0.73,-0.91 -1.096,-1.275c-4.753,-4.733 -10.967,-7.1 -17.364,-7.1c-4.021,-0 -8.042,0.91 -11.698,2.913c-53.375,28.951 -94.676,60.815 -122.828,94.682c-29.974,36.234 -44.409,73.925 -42.951,111.98c0.182,3.46 0.364,6.737 0.546,10.015c-0.546,-0.183 -1.093,-0.364 -1.64,-0.546c-2.196,-0.547 -4.566,-0.91 -6.762,-0.91c-6.215,-0 -12.249,2.185 -16.814,6.555c-20.287,18.936 -39.297,36.598 -57.944,53.713c-1.275,1.275 -2.551,2.55 -3.472,4.006c-3.837,-0.911 -7.491,-1.274 -11.51,-1.274c-11.519,-0 -23.95,3.459 -38.204,10.742c6.763,-22.032 13.342,-44.064 19.922,-66.095c9.87,-2.549 19.74,-5.099 29.61,-7.466c4.383,-1.093 8.412,-3.277 11.52,-6.373c24.123,-24.035 48.802,-48.615 75.486,-75.563c7.673,-7.465 9.314,-19.119 4.383,-28.587c-4.383,-8.193 -12.795,-13.292 -21.936,-13.292c-1.458,-0 -2.743,0.182 -4.201,0.364c-18.646,3.095 -37.283,6.373 -56.111,10.015c9.687,-26.402 19.375,-52.804 28.88,-79.024c3.473,-9.832 0.365,-20.939 -7.865,-27.494c-4.565,-3.642 -10.052,-5.462 -15.529,-5.462c-4.575,-0 -9.141,1.274 -13.16,3.823c-22.847,14.203 -46.251,29.133 -71.649,45.52c-4.758,2.914 -8.23,7.466 -10.053,12.747c-7.318,21.485 -14.627,42.97 -22.118,64.274c-3.654,0.182 -7.309,0.546 -11.145,0.911c2.551,-18.755 4.93,-37.509 7.491,-56.082c1.458,-10.378 -3.837,-20.393 -13.16,-25.127c-3.655,-1.821 -7.491,-2.731 -11.338,-2.731c-6.023,0 -12.056,2.185 -16.814,6.555c-19.557,18.208 -38.012,35.141 -56.111,51.711c-0.547,0.546 -1.094,1.092 -1.64,1.639c-14.081,-8.558 -29.974,-12.746 -47.163,-12.746c-3.472,-0 -6.944,0.182 -10.416,0.546c-33.811,3.278 -63.42,18.208 -88.464,44.428c-22.665,23.67 -42.587,58.812 -60.677,107.064c-5.669,-28.587 -16.268,-59.177 -31.624,-91.222c-3.837,-8.012 -11.692,-13.293 -20.469,-14.021l-2.014,-0c-5.841,-0 -11.328,2.003 -15.711,5.644c-3.108,-1.275 -6.398,-2.003 -9.688,-2.003c-5.304,0 -10.599,1.64 -14.992,5.098c-120.999,92.498 -183.69,161.872 -197.214,218.499c-5.295,23.124 -21.927,93.953 23.212,126.728c20.104,14.567 42.04,22.032 65.434,22.032c8.777,0 17.735,-1.092 26.866,-3.277c30.349,-7.283 64.706,-26.402 101.807,-56.628c29.791,-24.217 51.728,-54.624 65.252,-90.13c0.547,1.275 1.093,2.549 1.65,3.641c14.435,30.227 38.923,53.715 72.743,69.374c14.435,6.737 29.792,10.196 45.695,10.196c23.941,0 48.793,-7.829 73.654,-22.578c25.409,-15.295 45.331,-36.234 59.766,-62.635c-4.019,12.38 -8.038,24.762 -12.057,37.143c-3.481,10.379 0.547,21.85 9.678,28.042c13.17,8.922 26.512,18.025 40.036,27.13c4.201,2.913 9.131,4.37 13.889,4.37c6.58,-0 13.16,-2.55 17.907,-7.648c31.806,-33.503 58.673,-50.437 79.688,-50.437c7.501,0 30.166,0 59.593,52.44c3.655,6.737 10.235,11.107 17.726,12.381c1.275,0.182 2.561,0.364 3.836,0.364c6.216,0 12.249,-2.367 17.371,-6.918c17.543,-16.206 35.998,-33.139 54.462,-50.437c6.762,-6.373 9.323,-16.023 6.762,-24.945c-1.641,-5.827 -3.29,-11.654 -5.113,-17.48c1.094,1.093 2.187,2.185 3.472,3.278c31.068,28.404 62.874,42.788 94.491,42.788l4.935,0c31.438,-1.638 64.886,-16.386 99.247,-44.063c11.697,-9.468 21.385,-20.212 29.244,-32.593c16.998,28.223 33.996,56.081 51.177,83.393c4.204,6.555 11.332,10.925 19.192,11.472l1.645,-0c7.31,-0 14.256,-3.278 19.556,-8.922c17.546,-20.758 35.641,-42.243 55.198,-65.732c3.29,-3.641 5.117,-8.193 5.666,-13.11c2.01,-20.211 4.204,-40.422 6.214,-60.633c3.839,7.101 10.967,12.018 19.192,12.746c0.73,0.182 1.644,0.182 2.375,0.182c8.225,-0 15.902,-4.006 20.472,-10.743c10.601,-15.477 21.019,-30.954 31.254,-46.067c14.622,56.81 29.792,113.437 45.328,168.972c2.559,9.104 10.235,16.023 19.74,17.662c1.279,0.182 2.742,0.365 4.02,0.365c8.043,-0 15.719,-4.007 20.289,-10.743c15.17,-21.85 30.706,-44.429 47.887,-69.556c3.29,-4.734 4.57,-10.196 4.203,-15.658c13.343,27.858 30.158,50.435 49.898,67.552c35.459,30.407 69.454,47.705 101.074,51.165c4.57,0.546 9.322,0.728 13.891,0.728c26.685,-0 53.553,-8.376 79.69,-24.035c20.471,-12.563 33.082,-30.408 37.834,-53.35c3.656,25.674 7.859,59.177 11.88,102.694c0.732,9.286 6.763,17.116 15.354,20.575c2.924,1.275 6.032,1.821 9.139,1.821c5.849,-0 11.698,-2.003 16.449,-6.191c14.44,-12.564 28.514,-24.399 41.856,-35.505c31.803,17.298 56.477,27.311 73.841,29.861c5.301,0.91 10.601,1.275 15.536,1.275c29.975,-0 46.79,-14.203 55.564,-26.22c14.073,-19.301 17.363,-43.518 10.053,-72.105" style="fill:#001c35;fill-rule:nonzero;"/></g><g><path d="M342.901,578.75c-5.118,22.578 -14.988,40.968 -29.061,54.625c-14.074,13.655 -30.889,22.395 -51.543,26.402c-6.396,1.274 -12.063,2.003 -16.815,2.003c-4.021,-0 -11.331,-0.547 -13.525,-4.188c-2.559,-4.007 -6.031,-14.567 -2.741,-40.787c2.376,-19.118 24.491,-49.708 67.261,-93.408c0.365,-0.364 0.73,-0.91 1.096,-1.274c2.377,-3.095 4.569,-6.191 6.763,-9.286c0.549,2.549 2.193,4.916 4.204,6.555c19.008,13.291 40.21,34.231 34.361,59.358m39.48,-173.705l-0.915,-0c-3.655,-0 -7.127,1.638 -9.138,4.733c-1.828,2.732 -3.473,5.28 -5.301,7.83c-0.365,-2.367 -1.462,-4.37 -3.29,-6.008c-2.192,-2.004 -4.935,-3.097 -7.676,-3.097c-2.376,0 -4.752,0.912 -6.763,2.368c-116.792,89.402 -179.668,158.229 -192.279,210.851c-13.342,57.355 -7.494,94.135 17.913,112.708c17.728,12.745 37.102,19.3 57.391,19.3c7.676,0 15.535,-0.91 23.76,-3.095c28.513,-6.737 60.864,-24.945 96.505,-53.896c36.372,-29.497 60.316,-68.827 70.734,-116.714c10.053,-45.339 -0.913,-103.787 -31.802,-168.79c-1.645,-3.46 -5.119,-5.827 -9.139,-6.19" style="fill:#5ba2dd;fill-rule:nonzero;"/></g><g><path d="M635.524,527.039c-1.828,2.368 -3.655,5.463 -5.849,9.286c-3.837,6.737 -9.504,16.57 -17.364,30.954c-11.331,20.758 -25.405,30.772 -42.769,30.772c-2.741,0 -5.666,-0.182 -8.59,-0.728c-22.847,-3.824 -39.114,-15.295 -49.715,-35.324c-10.235,-19.3 -7.676,-42.243 7.677,-70.465c15.718,-28.587 33.082,-45.157 51.908,-49.345c2.193,-0.546 4.387,-0.728 6.763,-0.728c16.084,0 35.641,12.381 58.305,36.781c-0.914,13.655 -2.011,27.312 -2.925,40.968c-0.182,2.913 0.731,5.644 2.559,7.829m300.482,-25.491c-1.096,-3.641 -4.021,-6.555 -7.676,-7.648c-1.098,-0.181 -2.011,-0.363 -3.108,-0.363c-2.741,-0 -5.483,0.91 -7.493,2.913c-20.472,18.936 -39.479,36.598 -58.123,53.714c-3.29,2.913 -4.386,7.465 -3.108,11.471c0.184,0.546 0.367,1.274 0.549,1.82c-6.214,-4.551 -13.525,-6.918 -21.75,-6.918c-16.267,-0 -36.555,9.468 -62.326,29.133c11.15,-36.235 22.298,-72.833 33.082,-109.25c12.429,-3.276 25.04,-6.372 37.286,-9.468c2.011,-0.545 3.656,-1.456 5.118,-2.913c24.126,-24.035 48.8,-48.797 75.485,-75.564c3.474,-3.277 4.204,-8.558 2.011,-12.745c-2.011,-3.825 -5.848,-6.01 -9.87,-6.01c-0.548,0 -1.279,0 -1.827,0.183c-26.32,4.37 -53.005,9.286 -79.69,14.567c12.794,-33.685 25.222,-67.735 37.469,-101.602c1.645,-4.552 0.182,-9.468 -3.473,-12.381c-2.01,-1.639 -4.57,-2.367 -6.945,-2.367c-2.011,-0 -4.021,0.545 -5.849,1.638c-22.665,14.202 -46.06,29.134 -71.465,45.52c-2.194,1.457 -3.839,3.46 -4.57,5.827c-8.225,24.217 -16.632,48.615 -25.04,72.65c-7.859,0.729 -15.901,1.275 -23.76,2.004c-3.656,0.181 -6.763,2.185 -8.591,5.28c-2.193,3.459 -4.204,7.101 -6.397,10.561c3.838,-29.315 7.859,-58.63 11.698,-87.946c0.731,-4.734 -1.645,-9.104 -5.849,-11.289c-1.645,-0.91 -3.473,-1.275 -5.118,-1.275c-2.742,0 -5.483,0.911 -7.493,2.914c-19.558,18.208 -38.018,35.141 -56.113,51.711c-1.827,1.82 -3.106,4.188 -3.472,6.737l-0.914,6.92c-15.353,-14.021 -33.448,-21.122 -53.735,-21.122c-2.925,-0 -6.033,0.182 -9.139,0.546c-30.341,2.913 -57.209,16.569 -79.873,40.24c-21.385,22.578 -40.576,56.446 -58.123,103.241c-18.095,48.433 -20.653,85.395 -7.493,113.072c12.977,27.312 35.275,48.433 66.164,62.818c12.612,6.009 25.955,8.922 39.845,8.922c21.385,0 43.866,-7.102 66.53,-20.939c37.286,-22.578 62.144,-58.813 73.658,-107.246c0.914,-4.006 -0.365,-8.194 -3.655,-10.925c-9.139,-7.647 -18.278,-15.295 -27.417,-22.76c9.139,-6.92 18.644,-14.021 28.33,-21.304c16.45,-4.006 32.9,-7.83 49.167,-11.653c-16.998,55.17 -34.727,110.523 -52.457,164.783c-1.461,4.735 0.366,9.833 4.388,12.564c13.159,8.922 26.501,18.026 40.027,27.13c1.828,1.457 4.021,2.003 6.214,2.003c2.925,0 5.849,-1.275 8.043,-3.46c34.361,-36.233 64.519,-54.623 89.559,-54.623c25.771,-0 49.349,19.3 71.647,59.358c1.645,2.913 4.57,4.917 7.86,5.462c0.731,0.183 1.279,0.183 1.828,0.183c2.741,-0 5.483,-1.093 7.859,-3.096c17.729,-16.205 36.006,-33.139 54.467,-50.437c3.107,-2.731 4.204,-7.1 3.107,-11.107c-13.708,-46.248 -26.868,-93.043 -39.479,-139.474" style="fill:#5ba2dd;fill-rule:nonzero;"/></g><g><path d="M1282.36,552.167c-3.472,-6.737 -7.128,-13.656 -10.6,-20.393c3.472,-0 6.945,-1.822 8.956,-4.735c2.924,-4.552 6.031,-8.922 9.138,-13.474c-2.559,12.746 -4.934,25.674 -7.494,38.602m-43.134,-83.94c-0.731,-1.275 -1.28,-2.367 -1.645,-3.46c3.837,-5.644 7.676,-11.107 11.515,-16.751c0.914,1.456 2.01,2.731 2.924,4.188c-4.204,5.28 -8.59,10.743 -12.794,16.023m275.258,-35.87c-11.88,-67.188 -23.577,-135.287 -34.727,-202.475c-0.731,-4.005 -3.473,-7.283 -7.31,-8.557c-1.28,-0.365 -2.377,-0.546 -3.656,-0.546c-2.742,-0 -5.483,1.091 -7.494,2.913c-19.374,17.48 -39.297,35.87 -61.229,56.445c-2.011,1.821 -3.29,4.37 -3.473,7.101c-2.011,24.946 -4.204,50.254 -6.58,75.564c-18.643,-42.425 -36.921,-85.578 -54.65,-128.732c-1.462,-3.641 -4.935,-6.19 -8.956,-6.736l-1.279,-0c-3.473,-0 -6.946,1.638 -8.956,4.551c-17.182,24.035 -32.717,46.067 -47.887,67.007c-2.011,2.73 -2.559,6.008 -1.828,9.103c10.967,45.339 22.481,91.041 34.178,136.015c-14.621,-19.118 -29.426,-38.601 -43.865,-58.083c-2.193,-2.732 -5.484,-4.37 -8.956,-4.37l-0.183,-0c-3.656,0.182 -6.946,2.002 -8.956,4.915c-8.59,12.747 -17.364,25.492 -25.954,38.055c-12.246,-37.872 -33.447,-82.847 -64.154,-137.288c-2.01,-3.46 -5.666,-5.645 -9.687,-5.645l-0.183,0c-4.021,0 -7.858,2.367 -9.687,5.826c-15.901,29.497 -32.168,59.177 -48.252,88.127c-2.559,4.37 -1.645,9.833 2.01,13.293c38.018,36.052 58.123,67.552 58.306,90.859c0.182,24.216 -5.118,42.242 -16.084,53.713c-10.053,10.562 -23.761,15.66 -41.673,15.66l-4.021,-0c-19.557,-0.728 -32.351,-6.191 -39.114,-16.388c-7.86,-11.835 -13.525,-31.135 -16.815,-57.173c-2.925,-24.035 12.794,-54.625 46.973,-90.859c0.548,-0.728 1.28,-1.457 1.645,-2.367c16.45,-30.043 32.9,-60.633 48.984,-91.223c2.192,-4.188 1.462,-9.468 -2.012,-12.928c-2.192,-2.002 -4.934,-3.095 -7.858,-3.095c-1.828,0 -3.656,0.364 -5.301,1.275c-51.908,28.04 -91.752,58.812 -118.804,91.405c-27.781,33.502 -41.123,67.916 -39.845,102.693c2.559,68.281 18.644,114.712 48.984,142.388c28.513,26.038 57.392,39.148 85.356,39.148l4.752,0c28.696,-1.457 59.401,-15.295 91.388,-41.151c16.45,-13.11 28.695,-29.679 36.737,-49.526c20.837,35.142 42.038,69.737 63.24,103.605c1.828,2.913 5.118,4.916 8.591,5.098l0.731,-0c3.29,-0 6.397,-1.457 8.59,-4.188c17.546,-20.757 35.641,-42.243 55.199,-65.732c1.461,-1.638 2.375,-3.641 2.559,-5.827c4.02,-37.69 7.858,-75.928 11.514,-113.8c6.579,15.841 13.16,31.5 19.74,47.159c1.644,3.823 5.117,6.373 9.138,6.737l1.097,0c3.656,0 7.128,-1.821 9.138,-4.916c11.15,-16.388 22.116,-32.593 32.9,-48.616c1.097,-1.457 1.645,-3.095 1.828,-4.916c2.01,-17.663 4.021,-35.142 5.849,-52.804c0.548,3.824 1.096,7.648 1.645,11.471c-0,0.547 -0,0.91 0.182,1.275c18.826,73.925 38.566,148.214 58.671,220.682c1.097,4.188 4.569,7.284 8.773,8.012c0.549,0.183 1.28,0.183 1.828,0.183c3.656,-0 7.128,-1.64 9.138,-4.735c15.171,-21.85 30.707,-44.61 47.888,-69.555c2.193,-3.095 2.559,-6.919 1.096,-10.379c-20.105,-48.251 -40.027,-97.96 -59.219,-147.668" style="fill:#5ba2dd;fill-rule:nonzero;"/></g><g><path d="M1744.97,376.093c-2.01,-3.095 -5.3,-4.734 -8.955,-4.734l-0.914,-0c-4.021,0.182 -7.494,2.549 -9.139,6.009c-10.784,21.485 -21.751,43.335 -32.717,65.003c-2.376,4.37 -1.462,9.65 2.193,12.927c45.328,42.608 70.368,74.29 74.389,94.319c4.022,19.301 2.194,32.411 -5.117,38.966c-4.935,4.37 -12.246,6.555 -21.933,6.555c-5.666,-0 -12.063,-0.729 -19.008,-2.185c-20.837,-4.37 -35.459,-12.2 -44.963,-23.853c-10.235,-12.564 -19.191,-31.5 -26.868,-56.082c-8.407,-27.13 11.515,-51.71 29.793,-67.552c1.279,-0.91 2.01,-2.185 2.741,-3.46c11.149,-22.578 22.299,-45.702 33.082,-68.28c1.828,-3.823 1.279,-8.375 -1.279,-11.653c-2.01,-2.732 -5.3,-4.188 -8.591,-4.188c-0.731,0 -1.645,0 -2.376,0.183c-46.607,10.378 -83.162,28.768 -105.644,53.349c-23.03,25.309 -31.437,56.263 -24.126,89.584c13.709,62.819 37.651,109.431 71.465,138.382c33.448,28.769 64.885,44.974 93.763,48.07c4.204,0.545 8.225,0.728 12.429,0.728c24.126,-0 48.618,-7.466 72.561,-22.396c29.61,-18.39 39.48,-50.8 29.61,-96.139c-8.59,-38.966 -40.393,-95.047 -110.396,-193.553" style="fill:#5ba2dd;fill-rule:nonzero;"/></g><g><path d="M2038.14,634.649c-1.279,0.729 -3.473,1.639 -7.859,1.639c-3.29,-0 -7.311,-0.546 -11.698,-1.456c-4.387,-0.911 -15.17,-4.917 -38.017,-20.393c-5.3,-19.119 -4.753,-27.13 -4.204,-29.862c14.987,2.367 29.244,7.83 42.221,16.387c11.698,7.648 18.46,15.478 20.105,23.307c0.915,4.188 1.28,9.286 -0.548,10.378m68.54,9.651c-5.665,-22.032 -16.997,-45.156 -34.726,-70.283c-17.913,-25.492 -42.953,-45.339 -74.389,-59.177c-12.795,-5.645 -25.406,-8.376 -37.653,-8.376c-8.772,0 -17.546,1.456 -26.136,4.37c-13.343,-34.595 -32.899,-81.209 -58.305,-141.477c-1.645,-4.006 -5.666,-6.737 -10.053,-6.737c-4.386,-0 -8.225,2.549 -10.052,6.555c-7.677,17.297 -15.537,35.142 -23.762,53.35c-1.096,2.549 -1.278,5.462 -0.365,8.193c19.923,56.627 32.534,95.593 39.845,122.905c8.59,32.411 17.547,93.59 25.04,172.614c0.366,4.005 3.108,7.647 6.946,9.103c1.279,0.547 2.558,0.729 4.021,0.729c2.558,0 5.3,-0.91 6.762,-2.914c16.998,-14.566 33.448,-28.586 48.984,-41.332c0.183,-0 0.365,-0.182 0.365,-0.182c34.363,19.301 60.316,30.408 77.497,32.956c4.752,0.729 9.321,1.093 13.526,1.093c19.374,-0 34.726,-7.283 44.596,-20.757c11.698,-15.841 14.257,-35.688 7.859,-60.633" style="fill:#5ba2dd;fill-rule:nonzero;"/></g><g><path d="M380.005,408.322c-0.731,0 -1.462,0.365 -1.828,0.91c-21.933,31.865 -44.232,63.547 -66.347,94.137c-0.366,0.546 -0.549,1.093 -0.366,1.638c0.183,0.547 0.366,0.911 0.914,1.275c29.976,20.757 43.501,45.157 38.017,68.645c-5.666,24.217 -16.266,44.064 -31.62,58.994c-15.17,14.749 -33.996,24.399 -56.112,28.769c-6.945,1.275 -13.16,2.003 -18.46,2.003c-10.601,-0 -17.729,-2.731 -21.202,-8.376c-5.483,-8.922 -6.763,-24.58 -4.021,-46.613c2.559,-21.485 24.857,-52.621 69.637,-98.506l0.183,-0.181c22.664,-31.137 45.329,-63.547 67.444,-95.958c0.548,-0.91 0.366,-2.002 -0.365,-2.731c-0.366,-0.364 -0.914,-0.546 -1.463,-0.546c-0.548,-0 -0.914,-0 -1.28,0.364c-115.148,87.946 -176.925,155.316 -188.988,205.752c-12.611,53.35 -7.86,87.217 14.439,103.422c16.084,11.654 33.63,17.662 52.091,17.662c6.945,0 14.257,-0.91 21.567,-2.548c27.051,-6.374 58.305,-24.035 92.85,-52.077c34.727,-28.404 57.574,-65.913 67.626,-111.797c9.688,-43.518 -1.096,-99.963 -31.071,-163.145c-0.184,-0.546 -0.914,-1.093 -1.645,-1.093" style="fill:#f00;fill-rule:nonzero;"/></g><g><path d="M925.953,497.36c-0.183,-0.728 -0.731,-1.275 -1.462,-1.457l-0.549,-0c-0.548,-0 -1.096,0.182 -1.461,0.547c-20.472,18.936 -39.48,36.598 -58.123,53.713c-0.549,0.547 -0.731,1.457 -0.549,2.186c3.839,11.653 7.677,23.488 11.515,35.323c-3.655,-3.459 -10.235,-9.65 -22.115,-21.303c-5.118,-4.917 -11.515,-7.466 -19.009,-7.466c-18.46,0 -44.597,15.114 -79.872,46.249c14.621,-47.159 29.243,-95.047 43.317,-142.752c14.074,-3.823 28.33,-7.465 42.221,-10.925c0.366,-0.182 0.731,-0.364 0.914,-0.546c24.127,-23.852 48.618,-48.616 75.303,-75.382c0.549,-0.546 0.731,-1.639 0.365,-2.367c-0.365,-0.728 -1.096,-1.092 -1.827,-1.092l-0.365,-0c-31.255,5.28 -63.423,11.289 -95.226,17.844c14.622,-38.419 29.061,-77.567 43.134,-116.532c0.183,-0.91 0,-1.822 -0.731,-2.367c-0.365,-0.183 -0.73,-0.365 -1.279,-0.365c-0.366,0 -0.731,0.182 -1.096,0.365c-22.665,14.384 -46.06,29.132 -71.465,45.52c-0.549,0.182 -0.732,0.728 -0.914,1.092c-8.956,26.038 -18.095,52.44 -27.051,78.295c-9.87,0.729 -19.739,1.457 -29.609,2.368c-0.731,0.182 -1.28,0.546 -1.645,1.092c-9.322,15.659 -19.009,31.5 -28.513,46.977c5.849,-43.153 11.698,-86.671 17.363,-130.006c0.183,-0.911 -0.365,-1.821 -1.097,-2.185c-0.182,-0.183 -0.548,-0.183 -0.913,-0.183c-0.549,0 -1.097,0.183 -1.463,0.547c-19.739,18.208 -38.2,35.142 -56.294,51.711c-0.366,0.364 -0.731,0.729 -0.731,1.274l-3.472,26.22c-16.085,-21.667 -36.373,-32.592 -59.951,-32.592c-2.742,-0 -5.483,-0 -8.225,0.364c-28.147,2.731 -53.187,15.477 -74.206,37.509c-20.471,21.486 -39.297,55.171 -56.295,100.327c-17.364,46.067 -19.923,80.844 -7.859,106.154c12.063,25.491 32.899,45.155 61.778,58.63c11.515,5.28 23.577,8.011 36.189,8.011c19.74,-0 40.576,-6.555 61.961,-19.483c35.275,-21.485 58.67,-55.717 69.636,-101.783c0.183,-0.729 -0.182,-1.457 -0.731,-2.003c-10.052,-8.194 -19.922,-16.387 -29.609,-24.399c-0.366,-0.365 -0.914,-0.546 -1.462,-0.546c-2.01,0 -2.924,0 -25.954,41.878c-12.794,23.49 -29.975,35.325 -50.629,35.325c-3.107,-0 -6.58,-0.365 -10.053,-0.912c-25.405,-4.369 -44.231,-17.661 -56.111,-40.057c-11.88,-22.031 -9.321,-47.888 7.676,-78.841c17.182,-31.319 36.007,-48.798 57.757,-53.714c2.925,-0.546 5.849,-0.911 8.773,-0.911c19.557,0 41.856,13.838 67.627,42.425c-1.096,14.931 -2.194,29.861 -3.29,44.793c0,0.91 0.365,1.638 1.096,2.002c0.184,0.183 0.549,0.183 0.914,0.183c0.549,-0 0.915,-0 1.28,-0.365c11.149,-8.558 22.481,-17.115 34.361,-26.038c22.117,-5.462 44.598,-10.742 66.531,-15.477c-18.461,60.087 -37.652,120.539 -57.026,179.715c-0.366,0.91 -0,1.821 0.731,2.367c13.342,8.922 26.685,18.026 40.211,27.13c0.365,0.182 0.731,0.365 1.096,0.365c0.549,-0 1.096,-0.365 1.462,-0.729c36.738,-38.783 68.176,-57.538 96.14,-57.538c29.426,0 55.381,20.94 79.507,64.093c0.365,0.546 0.914,0.911 1.462,1.092l0.366,0c0.547,0 1.096,-0.181 2.01,-1.092c17.729,-16.205 36.006,-33.139 54.467,-50.436c0.548,-0.547 0.731,-1.457 0.548,-2.185c-13.525,-46.249 -26.868,-93.227 -39.479,-139.657" style="fill:#f00;fill-rule:nonzero;"/></g><g><path d="M1284.56,572.742c-19.923,-37.51 -39.845,-76.111 -59.219,-114.712c7.494,-10.561 14.805,-21.121 22.299,-31.682c4.569,6.737 9.321,13.656 14.074,20.393c-6.764,8.376 -13.527,16.933 -20.472,25.491c-0.548,0.729 -0.731,1.639 -0.182,2.367c9.139,14.021 18.277,27.859 27.233,41.333c0.366,0.547 0.914,0.91 1.645,0.91c0.548,0 1.28,-0.363 1.645,-0.91c10.967,-16.205 22.116,-32.775 33.448,-49.344c-6.58,35.324 -13.526,70.829 -20.471,106.154m219.512,-143.663c-11.88,-67.37 -23.578,-135.832 -34.91,-203.385c-0.182,-0.728 -0.73,-1.457 -1.461,-1.639c-0.183,-0.181 -0.549,-0.181 -0.732,-0.181c-0.548,-0 -1.096,0.181 -1.462,0.546c-19.374,17.297 -39.297,35.87 -61.229,56.262c-0.366,0.365 -0.731,0.729 -0.731,1.275c-3.108,36.417 -6.398,73.379 -9.871,109.977c-23.395,-52.439 -46.607,-106.335 -68.723,-160.413c-0.183,-0.729 -0.914,-1.275 -1.645,-1.275l-0.183,0c-0.548,0 -1.279,0.364 -1.645,0.911c-17.18,24.035 -32.716,46.067 -47.886,67.005c-0.367,0.365 -0.549,1.093 -0.367,1.64c11.698,47.887 23.944,96.138 36.19,143.297c-1.096,6.373 -2.376,12.564 -3.472,18.937c-19.192,-24.945 -38.749,-50.801 -58.123,-76.657c-0.366,-0.545 -0.914,-0.91 -1.645,-0.91c-0.731,0 -1.28,0.365 -1.645,0.91c-12.429,18.391 -24.857,36.599 -37.104,54.443c-10.783,-40.786 -33.447,-91.77 -68.722,-154.223c-0.366,-0.729 -1.097,-1.092 -1.828,-1.092c-0.731,-0 -1.462,0.363 -1.828,1.092c-15.901,29.497 -32.168,59.176 -48.252,88.31c-0.549,0.91 -0.366,1.82 0.365,2.548c40.576,38.238 61.046,71.012 61.23,97.232c0.182,26.948 -5.849,46.613 -18.644,59.905c-11.697,12.382 -27.964,18.572 -48.252,18.572l-4.387,0c-22.299,-0.91 -37.834,-7.829 -46.241,-20.392c-8.774,-13.11 -14.805,-33.504 -18.278,-60.998c-3.29,-26.949 13.343,-59.905 49.349,-98.142c0.183,0 0.365,-0.182 0.365,-0.364c16.268,-30.044 32.718,-60.633 48.802,-91.223c0.365,-0.728 0.365,-1.639 -0.367,-2.367c-0.365,-0.365 -0.913,-0.546 -1.461,-0.546c-0.183,-0 -0.549,-0 -0.914,0.181c-101.806,54.989 -156.455,121.085 -153.896,185.906c2.376,65.549 17.546,110.159 46.059,136.015c26.867,24.398 53.552,36.78 79.324,36.78c1.28,0 2.559,0 3.838,-0.182c26.685,-1.457 55.747,-14.567 86.27,-39.147c20.288,-16.388 33.448,-37.509 40.028,-64.275c24.309,41.15 48.8,81.572 73.475,120.902c0.366,0.547 0.914,0.91 1.646,0.91c0.731,0 1.278,-0.363 2.01,-0.182c17.363,-20.757 35.458,-42.243 55.015,-65.731c0.366,-0.364 0.548,-0.729 0.548,-1.092c5.118,-47.16 9.87,-94.683 14.257,-141.478c0.182,-0.364 -0,-0.729 -0,-0.91c-5.118,-15.842 -10.235,-31.864 -15.354,-47.887c16.45,40.785 33.082,81.208 49.898,120.902c0.183,0.728 0.913,1.274 1.645,1.274l0.182,-0c0.549,-0 1.28,-0.364 1.645,-0.911c11.15,-16.387 22.116,-32.592 32.9,-48.615c0.183,-0.182 0.365,-0.547 0.365,-0.91c4.753,-42.425 9.323,-85.215 13.526,-127.275c3.838,28.222 7.677,56.991 11.698,85.578l-0,0.182c18.825,73.925 38.565,148.032 58.67,220.5c0.183,0.729 0.914,1.275 1.645,1.457l0.365,0c0.549,0 1.28,-0.364 1.645,-0.91c14.988,-21.85 30.524,-44.61 47.705,-69.555c0.366,-0.547 0.366,-1.275 0.183,-2.004c-20.288,-48.433 -40.21,-98.505 -59.585,-148.578" style="fill:#f00;fill-rule:nonzero;"/></g><g><path d="M1735.83,375.547c-0.366,-0.545 -0.915,-0.91 -1.645,-0.91l-0.184,0c-0.731,0 -1.278,0.365 -1.645,1.093c-10.783,21.485 -21.75,43.335 -32.716,65.003c-0.549,0.728 -0.365,1.82 0.366,2.367c47.338,44.61 72.562,76.838 77.131,99.052c4.752,22.942 2.193,38.601 -7.859,47.523c-6.58,6.009 -15.902,8.922 -27.783,8.922c-6.214,0 -13.159,-0.728 -20.836,-2.367c-22.847,-4.733 -39.297,-13.656 -50.08,-26.948c-10.967,-13.292 -20.471,-33.32 -28.513,-58.994c-7.859,-25.128 3.29,-51.711 32.351,-77.021c0.183,-0.182 0.365,-0.545 0.548,-0.728c11.15,-22.76 22.299,-45.702 33.083,-68.281c0.366,-0.728 0.366,-1.638 -0.183,-2.185c-0.365,-0.364 -1.096,-0.728 -1.645,-0.728l-0.365,0c-90.839,20.212 -136.716,69.555 -123.008,132.192c13.16,60.815 36.373,105.789 68.54,133.465c31.987,27.495 61.778,42.972 88.829,45.885c3.655,0.364 7.494,0.546 11.332,0.546c22.481,-0 45.146,-7.101 67.627,-21.121c26.319,-16.206 34.727,-44.61 25.588,-86.49c-8.225,-37.69 -39.845,-92.86 -108.933,-190.275" style="fill:#f00;fill-rule:nonzero;"/></g><g><path d="M2041.43,636.47c-3.107,1.821 -7.311,2.913 -12.611,2.913c-4.021,-0 -8.59,-0.546 -13.708,-1.638c-9.139,-2.003 -24.31,-10.197 -43.866,-23.671c-8.043,-27.676 -6.215,-38.055 -3.29,-41.879c1.279,-1.638 3.107,-2.549 5.483,-2.549c0.731,-0 1.462,-0 2.193,0.182c16.632,2.367 32.169,8.558 46.425,17.844c13.708,8.922 21.75,18.755 23.944,28.951c2.193,10.015 0.548,16.57 -4.57,19.847m55.198,4.005c-5.483,-21.12 -16.449,-43.152 -33.448,-67.37c-16.998,-24.034 -40.759,-42.97 -70.734,-56.08c-11.698,-5.099 -22.846,-7.648 -33.995,-7.648c-10.601,0 -21.203,2.368 -31.438,7.101c-13.342,-35.141 -33.813,-84.303 -61.412,-149.671c-0.183,-0.728 -0.914,-1.274 -1.828,-1.274c-0.731,-0 -1.462,0.546 -1.827,1.274c-7.677,17.298 -15.537,35.324 -23.761,53.533c-0.183,0.363 -0.183,0.91 0,1.456c19.922,56.627 32.717,95.957 40.027,123.451c8.591,32.775 17.546,94.683 25.224,174.07c-0,0.728 0.548,1.275 1.279,1.638c0.182,0.183 0.548,0.183 0.731,0.183c0.549,-0 0.914,-0.183 1.463,-0.546c16.997,-14.749 33.63,-28.769 49.166,-41.515c0.548,-0.364 0.731,-1.092 0.731,-1.639c-0,-1.638 -0.183,-3.459 -0.183,-5.098c37.652,21.85 66.712,34.778 84.076,37.327c4.388,0.546 8.408,0.91 12.246,0.91c16.45,0 29.062,-5.644 37.287,-16.933c10.052,-13.657 12.062,-31.136 6.396,-53.169" style="fill:#f00;fill-rule:nonzero;"/></g><g><path d="M310.321,503.645c30.869,21.37 44.641,46.541 38.942,70.761c-5.699,24.695 -16.621,45.116 -32.293,60.313c-15.672,15.197 -35.144,24.695 -57.464,29.445c-21.846,4.274 -36.093,1.899 -41.792,-7.599c-5.699,-9.023 -7.124,-25.17 -3.799,-47.966c2.849,-22.795 26.594,-55.564 70.286,-99.73c22.796,-31.344 45.116,-63.638 67.437,-95.932c-111.129,85.009 -176.191,152.921 -188.539,204.686c-12.347,51.765 -8.073,85.483 13.298,101.155c21.846,15.672 46.066,20.896 72.186,14.722c26.12,-6.174 56.989,-23.27 92.132,-51.765c34.668,-28.494 56.989,-65.537 66.962,-110.653c9.973,-44.642 -2.374,-101.631 -30.869,-161.469c-21.846,31.819 -44.166,63.163 -66.487,94.032Z" style="fill:url(#_Linear1);fill-rule:nonzero;"/></g><g><path d="M785.391,317.889c-9.066,26.593 -18.132,53.187 -27.198,79.78c-10.274,0.605 -21.153,1.209 -30.824,2.418c-11.483,18.132 -22.362,36.264 -33.242,55c6.044,-46.539 12.088,-93.077 18.132,-139.616c-18.132,16.924 -36.868,34.451 -56.208,51.979c-1.209,10.274 -2.418,20.549 -3.627,31.428c-18.132,-26.593 -41.099,-38.681 -69.505,-35.659c-28.407,2.417 -52.583,15.11 -73.132,36.868c-20.55,21.154 -38.682,54.396 -55.605,99.725c-16.923,44.726 -19.945,79.176 -7.857,103.956c11.484,25.385 32.033,44.726 60.44,58.022c29.011,13.297 61.044,9.671 96.099,-11.483c35.055,-21.154 58.022,-54.396 68.901,-100.33c-10.275,-8.461 -19.945,-16.319 -29.616,-24.78c-0.604,-1.209 -9.066,12.692 -24.175,41.099c-15.715,28.406 -36.869,39.89 -62.858,35.659c-26.593,-4.835 -45.934,-18.132 -58.022,-41.703c-12.088,-22.363 -9.67,-48.956 7.858,-80.385c16.923,-31.428 36.868,-50.165 59.23,-55c22.363,-4.835 48.352,8.462 78.572,42.912c-0.605,15.11 -1.813,30.22 -3.022,45.33c11.483,-8.462 22.967,-17.528 34.45,-25.989c23.572,-6.044 47.143,-11.484 70.11,-16.319c-18.736,61.044 -38.077,122.088 -58.022,183.132c13.297,9.066 27.198,18.132 40.495,27.198c75.549,-79.176 131.758,-77.967 178.901,6.648c18.736,-16.923 36.264,-33.241 54.396,-50.164c-13.901,-47.143 -26.594,-93.682 -39.286,-139.616c-19.341,17.528 -38.681,35.659 -58.022,53.187c4.231,13.901 9.066,27.802 13.297,41.703c-1.209,0 -10.275,-8.461 -27.803,-25.384c-16.923,-16.923 -50.164,-2.418 -101.538,43.516c15.714,-50.165 31.428,-100.33 45.934,-151.099c14.506,-3.626 29.011,-7.253 43.517,-10.879c25.384,-25.385 50.769,-50.165 75.549,-75.55c-33.242,6.044 -65.879,12.088 -99.121,18.737c15.11,-39.89 30.22,-79.781 44.725,-119.671c-23.571,14.506 -47.747,29.616 -71.923,45.33Z" style="fill:url(#_Linear2);fill-rule:nonzero;"/></g><g><path d="M1402.57,281.51c-3.107,39.144 -6.214,78.289 -10.563,118.054c-24.853,-55.92 -49.086,-111.841 -72.075,-167.761c-15.534,21.747 -31.067,44.115 -47.843,67.104c11.805,47.843 24.232,95.687 36.659,143.53c-8.699,45.357 -17.398,90.715 -26.097,136.073c-21.746,-40.387 -42.251,-80.774 -62.755,-121.161c8.078,-11.806 16.155,-23.611 24.232,-35.417c5.593,8.078 11.185,16.155 16.777,24.233c-6.835,8.698 -14.291,17.397 -21.126,26.717c9.32,13.67 18.019,27.339 27.339,41.63c11.184,-17.398 22.99,-34.174 34.174,-50.95c-19.883,-26.096 -39.145,-51.571 -58.406,-77.667c-13.048,19.261 -25.475,38.523 -39.145,57.784c-10.562,-42.872 -34.795,-95.686 -69.589,-157.82c-15.534,29.203 -31.689,59.027 -48.465,88.23c40.387,38.523 61.513,72.076 62.134,98.793c-0,27.339 -6.213,47.843 -19.262,61.513c-13.048,13.669 -31.066,19.883 -54.056,19.261c-22.99,-1.242 -39.144,-8.077 -47.843,-21.125c-9.32,-13.67 -15.534,-34.174 -18.64,-62.134c-3.728,-27.96 13.669,-61.513 49.707,-100.036c16.776,-30.445 32.931,-60.891 49.086,-90.715c-102.521,54.678 -155.335,119.918 -152.85,183.916c2.486,63.998 17.398,108.734 45.358,134.209c27.96,25.475 55.299,37.902 82.017,36.038c26.096,-1.243 54.678,-13.669 84.502,-38.523c21.125,-16.776 34.173,-39.144 40.387,-67.726c24.853,41.63 49.707,83.259 75.803,124.889c18.64,-21.747 37.28,-44.115 55.299,-65.24c4.971,-47.222 9.942,-94.444 14.291,-141.666c-11.184,-34.173 -22.368,-68.347 -32.931,-103.142c22.99,59.027 46.601,116.812 71.454,174.596c10.563,-16.154 21.747,-32.309 32.31,-48.464c5.592,-48.465 10.562,-96.929 15.533,-144.772c4.35,34.174 9.32,68.969 14.291,103.142c18.64,73.94 37.902,147.257 58.406,220.575c16.155,-23.61 32.309,-47.221 47.843,-69.589c-20.504,-49.086 -40.387,-98.793 -59.649,-149.122c-11.805,-67.726 -23.611,-135.452 -34.795,-203.178c-19.882,18.019 -40.387,36.659 -61.512,55.921Z" style="fill:url(#_Linear3);fill-rule:nonzero;"/></g><g><path d="M1582.32,492.036c12.986,60.9 35.823,104.783 67.617,132.546c32.688,27.764 61.795,42.093 87.767,45.227c25.972,2.687 52.391,-4.478 77.915,-20.15c25.972,-16.121 33.585,-43.436 24.629,-84.185c-8.956,-41.197 -46.57,-102.544 -108.366,-189.864c-10.299,21.047 -21.494,42.541 -32.688,64.93c46.122,43.884 72.99,77.02 77.468,100.305c4.925,23.733 2.239,39.854 -8.508,49.257c-10.747,9.404 -27.764,12.091 -50.601,7.165c-22.837,-4.926 -39.853,-14.329 -51.048,-27.763c-11.195,-13.881 -21.046,-33.584 -29.107,-59.556c-8.06,-26.42 3.583,-53.735 33.137,-79.259c11.643,-23.285 22.39,-46.123 33.137,-68.065c-91.35,20.151 -134.786,69.856 -121.352,129.412Z" style="fill:url(#_Linear4);fill-rule:nonzero;"/></g><g><path d="M1837.21,420.341c18.905,53.138 32.19,94.014 40.365,123.648c7.664,29.635 16.861,86.861 25.036,174.232c16.861,-14.307 33.211,-28.102 49.051,-41.386l-0,-8.687c40.364,23.504 69.999,36.277 86.86,38.832c21.971,3.066 37.81,-2.044 47.518,-15.328c9.708,-13.285 11.24,-30.146 5.62,-51.605c-5.109,-20.949 -16.35,-42.92 -32.7,-66.423c-16.861,-23.503 -39.854,-41.897 -69.999,-55.182c-22.482,-9.708 -43.942,-10.219 -65.912,0c-13.285,-34.744 -34.233,-85.327 -61.824,-151.239c-7.664,16.861 -15.84,34.744 -24.015,53.138Zm174.743,218.684c-9.708,-2.044 -24.525,-10.219 -45.474,-24.526c-9.708,-33.722 -7.664,-49.561 6.642,-47.517c17.372,2.554 33.212,8.686 47.518,18.394c13.795,9.197 22.481,18.905 24.525,30.145c2.555,10.73 0.511,17.883 -5.62,21.971c-3.066,2.044 -8.175,3.066 -13.796,3.066c-4.087,-0 -8.686,-0.511 -13.795,-1.533Zm-66.934,-39.854l0,-0.511c0.511,0.511 0.511,0.511 0.511,1.022c0,-0.511 0,-0.511 -0.511,-0.511Z" style="fill:url(#_Linear5);fill-rule:nonzero;"/></g></g></g></g></g><defs><linearGradient id="_Linear1" x1="0" y1="0" x2="1" y2="0" gradientUnits="userSpaceOnUse" gradientTransform="matrix(0,474.908,474.908,0,283.603,277.588)"><stop offset="0" style="stop-color:#ff8b00;stop-opacity:1"/><stop offset="0.14" style="stop-color:#ff8600;stop-opacity:1"/><stop offset="0.32" style="stop-color:#f70;stop-opacity:1"/><stop offset="0.51" style="stop-color:#ff5e00;stop-opacity:1"/><stop offset="0.72" style="stop-color:#ff3c00;stop-opacity:1"/><stop offset="0.93" style="stop-color:#ff1000;stop-opacity:1"/><stop offset="1" style="stop-color:#f00;stop-opacity:1"/></linearGradient><linearGradient id="_Linear2" x1="0" y1="0" x2="1" y2="0" gradientUnits="userSpaceOnUse" gradientTransform="matrix(0,604.396,604.396,0,699.506,104.537)"><stop offset="0" style="stop-color:#ff8b00;stop-opacity:1"/><stop offset="0.14" style="stop-color:#ff8600;stop-opacity:1"/><stop offset="0.32" style="stop-color:#f70;stop-opacity:1"/><stop offset="0.51" style="stop-color:#ff5e00;stop-opacity:1"/><stop offset="0.72" style="stop-color:#ff3c00;stop-opacity:1"/><stop offset="0.93" style="stop-color:#ff1000;stop-opacity:1"/><stop offset="1" style="stop-color:#f00;stop-opacity:1"/></linearGradient><linearGradient id="_Linear3" x1="0" y1="0" x2="1" y2="0" gradientUnits="userSpaceOnUse" gradientTransform="matrix(0,621.339,621.339,0,1256.08,52.8573)"><stop offset="0" style="stop-color:#ff8b00;stop-opacity:1"/><stop offset="0.14" style="stop-color:#ff8600;stop-opacity:1"/><stop offset="0.32" style="stop-color:#f70;stop-opacity:1"/><stop offset="0.51" style="stop-color:#ff5e00;stop-opacity:1"/><stop offset="0.72" style="stop-color:#ff3c00;stop-opacity:1"/><stop offset="0.93" style="stop-color:#ff1000;stop-opacity:1"/><stop offset="1" style="stop-color:#f00;stop-opacity:1"/></linearGradient><linearGradient id="_Linear4" x1="0" y1="0" x2="1" y2="0" gradientUnits="userSpaceOnUse" gradientTransform="matrix(0,447.792,447.792,0,1711.93,238.138)"><stop offset="0" style="stop-color:#ff8b00;stop-opacity:1"/><stop offset="0.14" style="stop-color:#ff8600;stop-opacity:1"/><stop offset="0.32" style="stop-color:#f70;stop-opacity:1"/><stop offset="0.51" style="stop-color:#ff5e00;stop-opacity:1"/><stop offset="0.72" style="stop-color:#ff3c00;stop-opacity:1"/><stop offset="0.93" style="stop-color:#ff1000;stop-opacity:1"/><stop offset="1" style="stop-color:#f00;stop-opacity:1"/></linearGradient><linearGradient id="_Linear5" x1="0" y1="0" x2="1" y2="0" gradientUnits="userSpaceOnUse" gradientTransform="matrix(0,510.943,510.943,0,1966.1,225.161)"><stop offset="0" style="stop-color:#ff8b00;stop-opacity:1"/><stop offset="0.14" style="stop-color:#ff8600;stop-opacity:1"/><stop offset="0.32" style="stop-color:#f70;stop-opacity:1"/><stop offset="0.51" style="stop-color:#ff5e00;stop-opacity:1"/><stop offset="0.72" style="stop-color:#ff3c00;stop-opacity:1"/><stop offset="0.93" style="stop-color:#ff1000;stop-opacity:1"/><stop offset="1" style="stop-color:#f00;stop-opacity:1"/></linearGradient></defs></svg>