<?xml version="1.0" encoding="UTF-8" standalone="no"?>
<!DOCTYPE svg PUBLIC "-//W3C//DTD SVG 1.1//EN" "http://www.w3.org/Graphics/SVG/1.1/DTD/svg11.dtd">
<svg width="100%" height="100%" viewBox="0 0 43 43" version="1.1" xmlns="http://www.w3.org/2000/svg" xmlns:xlink="http://www.w3.org/1999/xlink" xml:space="preserve" xmlns:serif="http://www.serif.com/" style="fill-rule:evenodd;clip-rule:evenodd;stroke-miterlimit:10;">
    <g transform="matrix(1.33333,0,0,1.33333,0,0)">
        <path d="M16,0C24.8,0 32,7.2 32,16C32,24.8 24.8,32 16,32C7.2,32 0,24.8 0,16C0,7.2 7.2,0 16,0Z" style="fill:url(#_Radial1);fill-rule:nonzero;"/>
    </g>
    <g transform="matrix(1.33333,0,0,1.33333,0,0)">
        <path d="M16,0C24.8,0 32,7.2 32,16C32,24.8 24.8,32 16,32C7.2,32 0,24.8 0,16C0,7.2 7.2,0 16,0ZM16,0.436C24.56,0.436 31.564,7.44 31.564,16C31.564,24.56 24.56,31.564 16,31.564C7.44,31.564 0.436,24.56 0.436,16C0.436,7.44 7.44,0.436 16,0.436Z"/>
    </g>
    <g transform="matrix(0.0286745,0,0,0.0286745,-18.6725,-12.8228)">
        <g transform="matrix(1,0,0,1,1653.82,1237.98)">
            <path d="M0,-210.122C72.589,-209.935 46.06,-73.496 130.058,-116.715C185.659,-145.323 94.716,-218.4 94.716,-218.4C94.716,-218.4 142.206,-218.55 176.371,-153.815C190.514,-127.017 183.669,-68.964 149.013,-43.495C114.357,-18.025 56.909,8.428 28.228,-38.041C4.195,-76.979 -49.048,-108.056 -49.048,-108.056" style="fill:rgb(147,39,143);fill-rule:nonzero;stroke:black;stroke-width:7.54px;"/>
        </g>
        <g transform="matrix(1,0,0,1,1122.04,1249.16)">
            <path d="M0,-216.06C-84.182,-203.924 -117.086,-73.455 -151.984,-127.214C-186.882,-180.972 -111.041,-208.664 -111.041,-208.664C-111.041,-208.664 -164.6,-225.75 -190.84,-154.898C-217.08,-84.046 -193.236,-46.065 -149.454,-26.554C-105.672,-7.042 -35.312,9.69 -8.569,-41.039C13.84,-83.547 71.24,-123.081 71.24,-123.081" style="fill:rgb(147,39,143);fill-rule:nonzero;stroke:black;stroke-width:7.54px;"/>
        </g>
        <g transform="matrix(0.00771758,-0.99997,-0.99997,-0.00771758,1396.42,627.881)">
            <path d="M-306.682,-312.653C-531.249,-286.544 -709.274,-183.347 -710.646,-5.495C-712.019,172.357 -530.383,275.293 -306.682,308.008C-80.304,341.113 87.526,178.528 88.899,0.675C90.271,-177.176 -62.751,-341.013 -306.682,-312.653" style="fill:rgb(147,39,143);fill-rule:nonzero;"/>
        </g>
        <g transform="matrix(0.00771758,-0.99997,-0.99997,-0.00771758,1396.42,627.881)">
            <path d="M-306.682,-312.653C-531.249,-286.544 -709.274,-183.347 -710.646,-5.495C-712.019,172.357 -530.383,275.293 -306.682,308.008C-80.304,341.113 87.526,178.528 88.899,0.675C90.271,-177.176 -62.751,-341.013 -306.682,-312.653Z" style="fill:none;fill-rule:nonzero;stroke:black;stroke-width:7.54px;"/>
        </g>
        <g transform="matrix(1,0,0,1,1395.91,1773.31)">
            <path d="M0,-538.334C0,-538.334 -19.635,-481.696 -23.683,-399.696C-27.784,-316.622 84.708,-272.241 38.005,-194.262C-8.697,-116.284 95.197,23.122 106.694,70.501C121.257,12.075 135.036,-51.422 149.545,-98.721C168.174,-149.613 157.981,-167.518 180.382,-216.124C202.784,-264.729 154.97,-287.768 189.009,-347.866C262.587,-477.778 187.612,-573.69 178.79,-608.835" style="fill:rgb(147,39,143);fill-rule:nonzero;stroke:black;stroke-width:7.54px;stroke-linecap:round;"/>
        </g>
        <g transform="matrix(1,0,0,1,1497.34,1286.07)">
            <path d="M0,544.06C-12.707,524.251 -66.56,439.069 -85.829,388.803C-106.156,335.773 -96.611,315.27 -79.282,278.05C-78.183,275.69 -77.054,273.265 -75.9,270.764C-61.694,239.956 -82.73,218.502 -107.089,193.663C-119.138,181.376 -132.794,167.45 -144.436,150.498C-161.627,125.465 -141.455,83.685 -121.504,53.043C-107.019,30.794 -90.516,11.059 -80.767,0C-89.163,67.771 -51.466,116.805 -26.022,149.901C-17.146,161.447 -9.481,171.418 -6.288,179.062C16.158,232.792 5.218,280.73 -9.921,347.079C-11.21,352.725 -12.528,358.503 -13.859,364.428C-20.038,391.936 -5.872,501.583 0,544.06" style="fill:rgb(26,26,26);fill-rule:nonzero;"/>
        </g>
        <g transform="matrix(1,0,0,1,1422.35,1846.29)">
            <path d="M0,-572.192C0,-572.192 -108.144,-459.415 -72.558,-407.597C-36.971,-355.779 15.31,-333.653 -4.338,-291.044C-23.986,-248.435 -36.564,-227.992 -14.363,-170.076C7.838,-112.161 74.547,-9.896 74.547,-9.896L81.088,0C81.088,0 57.327,-161.675 64.807,-194.974C81.937,-271.24 97.017,-323.159 72.178,-382.621C58.92,-414.359 -19.896,-474.577 0,-572.192M-10.56,-548.901C-13.764,-485.741 21.629,-439.698 45.975,-408.03C54.69,-396.694 62.216,-386.903 65.219,-379.714C75.321,-355.531 79.148,-331.007 77.262,-302.536C75.491,-275.79 68.956,-247.151 61.389,-213.989C60.1,-208.339 58.78,-202.557 57.448,-196.627C51.866,-171.775 62.373,-82.49 68.943,-32.751C48.803,-64.88 8.679,-131.037 -7.321,-172.775C-27.077,-224.314 -18.321,-243.121 -0.876,-280.589C0.225,-282.953 1.356,-285.381 2.511,-287.886C17.807,-321.057 -4.074,-343.37 -29.409,-369.206C-41.35,-381.383 -54.885,-395.185 -66.341,-411.866C-82.341,-435.164 -62.702,-475.398 -43.41,-505.047C-32.327,-522.08 -20.04,-537.639 -10.56,-548.901" style="fill-rule:nonzero;"/>
        </g>
        <g transform="matrix(1,0,0,1,1438.41,1418.62)">
            <path d="M0,40.154C-7.132,40.154 -14.37,33.627 -17.208,24.635C-18.904,19.265 -18.893,13.744 -17.177,9.091C-15.571,4.733 -12.647,1.69 -8.945,0.521C-7.85,0.175 -6.705,0 -5.542,0C1.59,0 8.827,6.527 11.666,15.518C15.07,26.302 11.363,37.119 3.403,39.633C2.307,39.979 1.162,40.154 0,40.154Z" style="fill-rule:nonzero;"/>
        </g>
        <g transform="matrix(1,0,0,1,1432.86,1462.07)">
            <path d="M0,-46.753C-1.477,-46.753 -2.952,-46.535 -4.396,-46.079C-14.107,-43.013 -18.771,-30.363 -14.812,-17.825C-11.443,-7.152 -2.911,0 5.542,0C7.02,0 8.494,-0.218 9.939,-0.674C19.65,-3.74 24.313,-16.39 20.355,-28.928C16.985,-39.601 8.454,-46.753 0,-46.753M0,-40.154C5.731,-40.154 11.645,-34.597 14.062,-26.941C16.87,-18.046 14.072,-8.899 7.952,-6.967C7.178,-6.723 6.367,-6.599 5.542,-6.599C-0.189,-6.599 -6.103,-12.156 -8.52,-19.812C-11.328,-28.707 -8.53,-37.854 -2.409,-39.786C-1.635,-40.03 -0.825,-40.154 0,-40.154" style="fill:rgb(147,39,143);fill-rule:nonzero;"/>
        </g>
        <g transform="matrix(1,0,0,1,1404.84,1426.43)">
            <path d="M0,39.151C-6.697,39.151 -13.737,33.958 -17.519,26.228C-19.993,21.169 -20.802,15.708 -19.797,10.851C-18.855,6.304 -16.417,2.859 -12.929,1.154C-11.364,0.388 -9.65,0 -7.836,0C-1.139,0 5.901,5.193 9.682,12.923C12.157,17.982 12.966,23.443 11.96,28.299C11.019,32.847 8.58,36.292 5.093,37.997C3.527,38.763 1.814,39.151 0,39.151Z" style="fill-rule:nonzero;"/>
        </g>
        <g transform="matrix(1,0,0,1,1397,1468.88)">
            <path d="M0,-45.75C-2.26,-45.75 -4.476,-45.271 -6.542,-44.26C-15.69,-39.786 -18.423,-26.584 -12.646,-14.773C-8.173,-5.629 0.089,0 7.837,0C10.097,0 12.313,-0.479 14.379,-1.49C23.527,-5.964 26.26,-19.166 20.482,-30.977C16.01,-40.121 7.748,-45.75 0,-45.75M0,-39.151C5.38,-39.151 11.365,-34.597 14.555,-28.077C16.678,-23.736 17.411,-18.904 16.566,-14.82C16.143,-12.777 14.92,-9.1 11.48,-7.417C10.369,-6.874 9.144,-6.599 7.837,-6.599C2.456,-6.599 -3.529,-11.153 -6.718,-17.673C-8.842,-22.014 -9.575,-26.846 -8.729,-30.93C-8.307,-32.972 -7.084,-36.65 -3.643,-38.333C-2.533,-38.876 -1.307,-39.151 0,-39.151" style="fill:rgb(147,39,143);fill-rule:nonzero;"/>
        </g>
        <g transform="matrix(1,0,0,1,1460.3,1598.22)">
            <path d="M0,37.453C-7.587,37.453 -13.761,29.053 -13.761,18.726C-13.761,8.4 -7.587,0 0,0C7.588,0 13.761,8.4 13.761,18.726C13.761,29.053 7.588,37.453 0,37.453" style="fill-rule:nonzero;"/>
        </g>
        <g transform="matrix(1,0,0,1,1460.3,1638.97)">
            <path d="M0,-44.052C-9.422,-44.052 -17.06,-34.191 -17.06,-22.026C-17.06,-9.861 -9.422,0 0,0C9.422,0 17.06,-9.861 17.06,-22.026C17.06,-34.191 9.422,-44.052 0,-44.052M0,-37.453C5.671,-37.453 10.461,-30.388 10.461,-22.026C10.461,-13.663 5.671,-6.599 0,-6.599C-5.671,-6.599 -10.461,-13.663 -10.461,-22.026C-10.461,-30.388 -5.671,-37.453 0,-37.453" style="fill:rgb(147,39,143);fill-rule:nonzero;"/>
        </g>
        <g transform="matrix(1,0,0,1,1427.8,1586.19)">
            <path d="M0,37.453C-7.587,37.453 -13.761,29.053 -13.761,18.726C-13.761,8.4 -7.587,0 0,0C7.588,0 13.761,8.4 13.761,18.726C13.761,29.053 7.588,37.453 0,37.453" style="fill-rule:nonzero;"/>
        </g>
        <g transform="matrix(1,0,0,1,1427.8,1626.94)">
            <path d="M0,-44.052C-9.422,-44.052 -17.06,-34.191 -17.06,-22.026C-17.06,-9.861 -9.422,0 0,0C9.422,0 17.06,-9.861 17.06,-22.026C17.06,-34.191 9.422,-44.052 0,-44.052M0,-37.453C5.671,-37.453 10.461,-30.388 10.461,-22.026C10.461,-13.663 5.671,-6.599 0,-6.599C-5.671,-6.599 -10.461,-13.663 -10.461,-22.026C-10.461,-30.388 -5.671,-37.453 0,-37.453" style="fill:rgb(147,39,143);fill-rule:nonzero;"/>
        </g>
        <g transform="matrix(1,0,0,1,1453.25,1644.51)">
            <path d="M0,37.452C-7.588,37.452 -13.761,29.052 -13.761,18.725C-13.761,8.4 -7.588,0 0,0C7.587,0 13.761,8.4 13.761,18.725C13.761,29.052 7.587,37.452 0,37.452" style="fill-rule:nonzero;"/>
        </g>
        <g transform="matrix(1,0,0,1,1453.25,1685.26)">
            <path d="M0,-44.052C-9.422,-44.052 -17.06,-34.191 -17.06,-22.026C-17.06,-9.861 -9.422,0 0,0C9.422,0 17.06,-9.861 17.06,-22.026C17.06,-34.191 9.422,-44.052 0,-44.052M0,-37.453C5.671,-37.453 10.461,-30.388 10.461,-22.026C10.461,-13.663 5.671,-6.599 0,-6.599C-5.671,-6.599 -10.461,-13.663 -10.461,-22.026C-10.461,-30.388 -5.671,-37.453 0,-37.453" style="fill:rgb(147,39,143);fill-rule:nonzero;"/>
        </g>
        <g transform="matrix(1,0,0,1,1425.05,1630.55)">
            <path d="M0,37.453C-7.588,37.453 -13.761,29.053 -13.761,18.726C-13.761,8.4 -7.588,0 0,0C7.587,0 13.761,8.4 13.761,18.726C13.761,29.053 7.587,37.453 0,37.453" style="fill-rule:nonzero;"/>
        </g>
        <g transform="matrix(1,0,0,1,1425.05,1671.3)">
            <path d="M0,-44.052C-9.422,-44.052 -17.06,-34.19 -17.06,-22.026C-17.06,-9.861 -9.422,0 0,0C9.422,0 17.06,-9.861 17.06,-22.026C17.06,-34.19 9.422,-44.052 0,-44.052M0,-37.453C5.671,-37.453 10.461,-30.388 10.461,-22.026C10.461,-13.663 5.671,-6.598 0,-6.598C-5.671,-6.598 -10.461,-13.663 -10.461,-22.026C-10.461,-30.388 -5.671,-37.453 0,-37.453" style="fill:rgb(147,39,143);fill-rule:nonzero;"/>
        </g>
        <g transform="matrix(1,0,0,1,1429.39,1675.89)">
            <path d="M0,29.919C-5.436,29.918 -10.683,24.457 -12.206,17.217C-13.069,13.115 -12.662,9.037 -11.059,5.734C-9.594,2.715 -7.297,0.738 -4.59,0.169C-4.055,0.057 -3.506,0 -2.959,0C2.477,0 7.725,5.461 9.248,12.702C10.111,16.804 9.704,20.881 8.101,24.185C6.636,27.203 4.339,29.18 1.632,29.749C1.096,29.861 0.547,29.919 0.001,29.919L0,29.919Z" style="fill-rule:nonzero;"/>
        </g>
        <g transform="matrix(1,0,0,1,1426.43,1709.11)">
            <path d="M0,-36.518C-0.769,-36.518 -1.541,-36.44 -2.311,-36.278C-10.019,-34.656 -14.57,-25.275 -12.477,-15.323C-10.592,-6.366 -3.967,0 2.959,0C3.728,0 4.5,-0.078 5.27,-0.24C12.978,-1.862 17.529,-11.243 15.436,-21.195C13.551,-30.152 6.926,-36.518 0,-36.518M0,-29.919C3.371,-29.919 7.651,-26.148 8.978,-19.836C10.274,-13.678 7.906,-7.538 3.911,-6.698C3.599,-6.632 3.279,-6.599 2.959,-6.599C-0.412,-6.599 -4.691,-10.37 -6.019,-16.682C-7.315,-22.84 -4.947,-28.98 -0.952,-29.82C-0.64,-29.886 -0.32,-29.919 0,-29.919" style="fill:rgb(147,39,143);fill-rule:nonzero;"/>
        </g>
        <g transform="matrix(1,0,0,1,1457.33,1687.47)">
            <path d="M0,29.919C-5.437,29.919 -10.685,24.458 -12.208,17.217C-13.07,13.115 -12.663,9.038 -11.061,5.734C-9.596,2.716 -7.298,0.739 -4.591,0.17C-4.056,0.058 -3.506,0 -2.959,0C2.476,0 7.724,5.461 9.247,12.702C10.109,16.804 9.702,20.882 8.1,24.185C6.635,27.204 4.338,29.181 1.631,29.75C1.096,29.862 0.547,29.919 0,29.919Z" style="fill-rule:nonzero;"/>
        </g>
        <g transform="matrix(1,0,0,1,1454.37,1720.69)">
            <path d="M0,-36.518C-0.769,-36.518 -1.541,-36.44 -2.311,-36.278C-10.019,-34.656 -14.57,-25.275 -12.477,-15.323C-10.592,-6.366 -3.967,0 2.959,0C3.728,0 4.5,-0.078 5.27,-0.24C12.978,-1.862 17.529,-11.243 15.436,-21.195C13.552,-30.152 6.926,-36.518 0,-36.518M0,-29.919C3.371,-29.919 7.651,-26.148 8.978,-19.836C10.274,-13.677 7.906,-7.538 3.911,-6.698C3.599,-6.632 3.278,-6.599 2.959,-6.599C-0.412,-6.599 -4.691,-10.37 -6.019,-16.682C-7.315,-22.84 -4.947,-28.98 -0.952,-29.82C-0.64,-29.886 -0.32,-29.919 0,-29.919" style="fill:rgb(147,39,143);fill-rule:nonzero;"/>
        </g>
        <g transform="matrix(1,0,0,1,1461.89,1723.97)">
            <path d="M0,29.919C-5.436,29.918 -10.683,24.457 -12.206,17.216C-13.069,13.114 -12.662,9.037 -11.059,5.733C-9.594,2.715 -7.297,0.738 -4.59,0.169C-4.055,0.057 -3.506,0 -2.958,0C2.477,0 7.725,5.461 9.248,12.702C10.111,16.804 9.704,20.881 8.101,24.185C6.636,27.203 4.339,29.18 1.632,29.749C1.097,29.861 0.548,29.919 0.001,29.919L0,29.919Z" style="fill-rule:nonzero;"/>
        </g>
        <g transform="matrix(1,0,0,1,1458.93,1757.19)">
            <path d="M0,-36.518C-0.769,-36.518 -1.541,-36.44 -2.311,-36.278C-10.019,-34.656 -14.57,-25.275 -12.477,-15.323C-10.592,-6.366 -3.967,0 2.959,0C3.728,0 4.5,-0.078 5.27,-0.24C12.978,-1.862 17.529,-11.243 15.436,-21.195C13.551,-30.152 6.926,-36.518 0,-36.518M0,-29.919C3.371,-29.919 7.65,-26.148 8.978,-19.836C10.274,-13.677 7.906,-7.538 3.911,-6.698C3.599,-6.632 3.279,-6.599 2.959,-6.599C-0.412,-6.599 -4.692,-10.37 -6.019,-16.681C-7.315,-22.84 -4.947,-28.98 -0.952,-29.82C-0.64,-29.886 -0.32,-29.919 0,-29.919" style="fill:rgb(147,39,143);fill-rule:nonzero;"/>
        </g>
        <g transform="matrix(1,0,0,1,1477.47,1555.61)">
            <path d="M0,37.453C-7.587,37.453 -13.761,29.053 -13.761,18.726C-13.761,8.4 -7.587,0 0,0C7.588,0 13.761,8.4 13.761,18.726C13.761,29.053 7.588,37.453 0,37.453" style="fill-rule:nonzero;"/>
        </g>
        <g transform="matrix(1,0,0,1,1477.47,1596.37)">
            <path d="M0,-44.052C-9.422,-44.052 -17.06,-34.19 -17.06,-22.026C-17.06,-9.861 -9.422,0 0,0C9.422,0 17.06,-9.861 17.06,-22.026C17.06,-34.19 9.422,-44.052 0,-44.052M0,-37.453C5.671,-37.453 10.461,-30.388 10.461,-22.026C10.461,-13.663 5.671,-6.598 0,-6.598C-5.671,-6.598 -10.461,-13.663 -10.461,-22.026C-10.461,-30.388 -5.671,-37.453 0,-37.453" style="fill:rgb(147,39,143);fill-rule:nonzero;"/>
        </g>
        <g transform="matrix(1,0,0,1,1444.97,1543.58)">
            <path d="M0,37.453C-7.587,37.453 -13.761,29.053 -13.761,18.726C-13.761,8.4 -7.587,0 0,0C7.588,0 13.761,8.4 13.761,18.726C13.761,29.053 7.588,37.453 0,37.453" style="fill-rule:nonzero;"/>
        </g>
        <g transform="matrix(1,0,0,1,1444.97,1584.33)">
            <path d="M0,-44.052C-9.422,-44.052 -17.06,-34.19 -17.06,-22.026C-17.06,-9.861 -9.422,0 0,0C9.422,0 17.06,-9.861 17.06,-22.026C17.06,-34.19 9.422,-44.052 0,-44.052M0,-37.453C5.671,-37.453 10.461,-30.388 10.461,-22.026C10.461,-13.663 5.671,-6.598 0,-6.598C-5.671,-6.598 -10.461,-13.663 -10.461,-22.026C-10.461,-30.388 -5.671,-37.453 0,-37.453" style="fill:rgb(147,39,143);fill-rule:nonzero;"/>
        </g>
        <g transform="matrix(1,0,0,1,1480.56,1504.9)">
            <path d="M0,37.083C-6.8,37.083 -13.352,30.333 -15.239,21.382C-16.304,16.337 -15.801,11.311 -13.824,7.229C-11.984,3.433 -9.078,0.942 -5.64,0.218C-4.954,0.073 -4.25,0 -3.549,0C3.25,0 9.802,6.75 11.69,15.701C13.821,25.806 9.514,35.3 2.09,36.865C1.404,37.01 0.701,37.083 0,37.083" style="fill-rule:nonzero;"/>
        </g>
        <g transform="matrix(1,0,0,1,1477.01,1545.29)">
            <path d="M0,-43.682C-0.922,-43.682 -1.848,-43.588 -2.771,-43.393C-11.991,-41.449 -17.429,-30.223 -14.919,-18.32C-12.66,-7.609 -4.734,0 3.549,0C4.471,0 5.397,-0.094 6.32,-0.288C15.539,-2.233 20.978,-13.458 18.468,-25.361C16.208,-36.072 8.282,-43.682 0,-43.682M0,-37.083C4.547,-37.083 10.283,-32.189 12.011,-23.999C12.911,-19.729 12.49,-15.344 10.854,-11.968C10.052,-10.312 8.22,-7.433 4.958,-6.745C4.496,-6.648 4.022,-6.599 3.549,-6.599C-0.999,-6.599 -6.735,-11.492 -8.462,-19.682C-9.363,-23.952 -8.941,-28.338 -7.305,-31.714C-6.503,-33.369 -4.671,-36.248 -1.41,-36.936C-0.947,-37.034 -0.473,-37.083 0,-37.083" style="fill:rgb(147,39,143);fill-rule:nonzero;"/>
        </g>
        <g transform="matrix(1,0,0,1,1450.35,1502.01)">
            <path d="M0,36.822C-6.634,36.821 -13.175,30.633 -15.552,22.106C-16.936,17.139 -16.755,12.092 -15.043,7.893C-13.45,3.986 -10.709,1.315 -7.325,0.372C-6.438,0.125 -5.52,0 -4.593,0C2.042,0 8.583,6.188 10.959,14.716C12.344,19.682 12.163,24.73 10.451,28.928C8.858,32.836 6.117,35.507 2.732,36.449C1.846,36.696 0.927,36.822 0,36.822Z" style="fill-rule:nonzero;"/>
        </g>
        <g transform="matrix(1,0,0,1,1445.76,1542.13)">
            <path d="M0,-43.421C-1.211,-43.421 -2.422,-43.261 -3.618,-42.928C-12.694,-40.398 -17.404,-28.848 -14.137,-17.129C-11.301,-6.956 -3.384,0 4.593,0C5.803,0 7.015,-0.16 8.211,-0.493C17.287,-3.023 21.996,-14.573 18.73,-26.291C15.894,-36.465 7.977,-43.421 0,-43.421M0,-36.822C5.099,-36.822 10.418,-31.533 12.374,-24.519C14.619,-16.464 11.901,-8.372 6.439,-6.85C5.841,-6.683 5.22,-6.598 4.593,-6.598C-0.506,-6.598 -5.826,-11.888 -7.781,-18.901C-10.026,-26.957 -7.308,-35.048 -1.846,-36.571C-1.248,-36.738 -0.627,-36.822 0,-36.822" style="fill:rgb(147,39,143);fill-rule:nonzero;"/>
        </g>
        <g transform="matrix(1,0,0,1,1430.73,1464.69)">
            <path d="M0,36.08C-6.204,36.08 -12.759,30.888 -15.94,23.454C-17.969,18.714 -18.457,13.687 -17.314,9.299C-16.252,5.216 -13.888,2.206 -10.657,0.824C-9.381,0.278 -8.009,0 -6.579,0C-0.375,0 6.181,5.192 9.362,12.626C11.39,17.366 11.878,22.393 10.736,26.782C9.673,30.864 7.309,33.874 4.079,35.257C2.802,35.803 1.43,36.08 0,36.08Z" style="fill-rule:nonzero;"/>
        </g>
        <g transform="matrix(1,0,0,1,1424.15,1504.07)">
            <path d="M0,-42.678C-1.837,-42.678 -3.651,-42.327 -5.377,-41.589C-14.039,-37.882 -17.181,-25.81 -12.395,-14.626C-8.562,-5.671 -0.807,0 6.579,0C8.416,0 10.23,-0.35 11.955,-1.089C20.617,-4.796 23.76,-16.867 18.974,-28.051C15.141,-37.007 7.385,-42.678 0,-42.678M0,-36.079C4.922,-36.079 10.23,-31.71 12.907,-25.455C14.624,-21.443 15.067,-17.059 14.121,-13.428C13.658,-11.649 12.423,-8.467 9.359,-7.156C8.495,-6.786 7.56,-6.599 6.579,-6.599C1.656,-6.599 -3.651,-10.968 -6.328,-17.223C-9.618,-24.911 -7.994,-33.291 -2.78,-35.522C-1.917,-35.892 -0.981,-36.079 0,-36.079" style="fill:rgb(147,39,143);fill-rule:nonzero;"/>
        </g>
        <g transform="matrix(1,0,0,1,1467.22,1457.44)">
            <path d="M0,36.08C-6.204,36.08 -12.759,30.888 -15.94,23.454C-17.969,18.714 -18.457,13.687 -17.314,9.299C-16.252,5.216 -13.888,2.206 -10.657,0.824C-9.381,0.278 -8.009,0 -6.579,0C-0.375,0 6.18,5.192 9.362,12.626C11.39,17.366 11.878,22.393 10.736,26.782C9.673,30.864 7.309,33.874 4.078,35.257C2.802,35.803 1.43,36.08 0,36.08Z" style="fill-rule:nonzero;"/>
        </g>
        <g transform="matrix(1,0,0,1,1460.64,1496.82)">
            <path d="M0,-42.678C-1.837,-42.678 -3.651,-42.327 -5.377,-41.589C-14.039,-37.882 -17.181,-25.811 -12.395,-14.627C-8.562,-5.671 -0.807,0 6.578,0C8.416,0 10.229,-0.351 11.955,-1.089C20.617,-4.796 23.76,-16.867 18.973,-28.051C15.141,-37.007 7.386,-42.678 0,-42.678M0,-36.079C4.922,-36.079 10.23,-31.71 12.907,-25.455C16.197,-17.767 14.572,-9.387 9.359,-7.156C8.495,-6.786 7.56,-6.599 6.578,-6.599C1.656,-6.599 -3.651,-10.968 -6.328,-17.223C-9.618,-24.911 -7.994,-33.291 -2.781,-35.522C-1.917,-35.892 -0.981,-36.079 0,-36.079" style="fill:rgb(147,39,143);fill-rule:nonzero;"/>
        </g>
        <g transform="matrix(1,0,0,1,1485.21,1570.2)">
            <path d="M0,-394.382C-12.12,-249.175 -11.789,-283.558 30.589,-173.424C72.968,-63.289 181.289,-67.876 148.807,-8.245C116.324,51.386 100.326,54.556 100.326,54.556C100.326,54.556 206.99,10.306 223.58,-42.711C246.225,-99.819 216.005,-140.405 199.095,-176.906C182.185,-213.406 176.674,-256.932 181.037,-312.733C185.401,-368.533 168.998,-422.482 169.8,-448.938" style="fill:rgb(147,39,143);fill-rule:nonzero;stroke:black;stroke-width:7.54px;"/>
        </g>
        <g transform="matrix(1,0,0,1,1561,1361.49)">
            <path d="M0,-193.639C0,-193.639 72.242,-117.133 100.007,-41.322C155.303,109.661 259.514,177.786 336.087,104.207C254.648,100.602 241.719,54.014 239.017,7.13C237.48,-19.541 239.944,-60.537 218.327,-89.679C187.907,-124.368 174.285,-130.872 154.315,-186.347C119.363,-283.442 86.323,-348.434 86.323,-348.434" style="fill:rgb(147,39,143);fill-rule:nonzero;stroke:black;stroke-width:7.54px;"/>
        </g>
        <g transform="matrix(-0.701916,0.712259,0.712259,0.701916,1354.2,991.292)">
            <path d="M67.214,-136.269C37.003,-143.634 25.47,-75.464 28.96,-42.104C32.449,-8.746 54.904,48.442 67.214,45.882C79.524,43.323 71.855,4.365 88.276,-25.887C104.696,-56.139 97.424,-128.905 67.214,-136.269" style="fill:rgb(0,255,0);fill-rule:nonzero;"/>
        </g>
        <g transform="matrix(-0.701916,0.712259,0.712259,0.701916,1354.2,991.292)">
            <path d="M67.214,-136.269C37.003,-143.634 25.47,-75.464 28.96,-42.104C32.449,-8.746 54.904,48.442 67.214,45.882C79.524,43.323 71.855,4.365 88.276,-25.887C104.696,-56.139 97.424,-128.905 67.214,-136.269Z" style="fill:none;fill-rule:nonzero;stroke:black;stroke-width:7.54px;"/>
        </g>
        <g transform="matrix(-0.657014,0.753878,0.753878,0.657014,1353.36,1017.45)">
            <path d="M49.623,-128.196C40.15,-118.333 32.523,-31.158 28.075,-9.207C25.44,3.796 41.494,26.027 49.623,25.133C57.751,24.24 57.957,0.222 55.857,-15.076C41.358,-37.737 59.095,-138.059 49.623,-128.196" style="fill-rule:nonzero;"/>
        </g>
        <g transform="matrix(-0.701916,-0.712259,-0.712259,0.701916,1446.56,991.292)">
            <path d="M-67.214,-136.269C-37.003,-143.634 -25.47,-75.464 -28.96,-42.104C-32.449,-8.746 -54.904,48.442 -67.214,45.882C-79.524,43.323 -71.855,4.365 -88.276,-25.887C-104.696,-56.139 -97.424,-128.905 -67.214,-136.269" style="fill:rgb(0,255,0);fill-rule:nonzero;"/>
        </g>
        <g transform="matrix(-0.701916,-0.712259,-0.712259,0.701916,1446.56,991.292)">
            <path d="M-67.214,-136.269C-37.003,-143.634 -25.47,-75.464 -28.96,-42.104C-32.449,-8.746 -54.904,48.442 -67.214,45.882C-79.524,43.323 -71.855,4.365 -88.276,-25.887C-104.696,-56.139 -97.424,-128.905 -67.214,-136.269Z" style="fill:none;fill-rule:nonzero;stroke:black;stroke-width:7.54px;"/>
        </g>
        <g transform="matrix(-0.657014,-0.753878,-0.753878,0.657014,1447.41,1017.45)">
            <path d="M-49.623,-128.196C-40.15,-118.333 -32.523,-31.158 -28.075,-9.207C-25.44,3.796 -41.494,26.027 -49.623,25.133C-57.751,24.24 -57.957,0.222 -55.857,-15.076C-41.358,-37.737 -59.095,-138.059 -49.623,-128.196" style="fill-rule:nonzero;"/>
        </g>
        <g transform="matrix(1,0,0,1,1159.42,1461.24)">
            <path d="M0,-387.495C-2.794,-385.113 -58.223,-290.947 -87.757,-266.902C-117.29,-242.857 -150.375,-219.153 -211.569,-225.468C-272.763,-231.782 -301.905,-192.786 -337.989,-150.359C-374.073,-107.932 -396.509,0 -396.509,0C-396.509,0 -298.09,-92.615 -265.421,-115.042C-196.2,-162.563 -179.958,-113.071 -92.371,-147.334C-4.785,-181.598 35.668,-190.627 88.848,-300.719" style="fill:rgb(147,39,143);fill-rule:nonzero;stroke:black;stroke-width:7.54px;"/>
        </g>
        <g transform="matrix(1,0,0,1,1236.04,1619.28)">
            <path d="M0,-498.018C-36.18,-422.527 -81.125,-355.032 -153.85,-328.273C-226.576,-301.515 -298.281,-253.294 -301.19,-210.063C-304.099,-166.832 -216.848,0 -176.209,-115.979C-167.146,-141.844 -172.057,-149.562 -172.057,-149.562C-172.057,-149.562 -203.743,-136.648 -211.015,-151.013C-218.287,-165.378 -211.464,-226.466 -175.704,-237.281C-139.945,-248.097 42.683,-251.916 75.821,-365.725" style="fill:rgb(147,39,143);fill-rule:nonzero;stroke:black;stroke-width:7.54px;"/>
        </g>
        <g transform="matrix(1,0,0,1,1318.06,1730.1)">
            <path d="M0,-571.593C0,-571.593 -40.253,-543.864 -56.141,-472.462C-72.03,-401.061 -45.012,-345.083 -67.857,-288.18C-91.057,-223.503 -134.788,-165.622 -133.139,-122.208C-131.49,-78.795 -104.87,0 -104.87,0C-104.87,0 -87.157,-98.778 -62.481,-145.978C-37.805,-193.178 41.29,-255.028 82.279,-330.35C124.05,-403.926 96.658,-501.96 96.658,-501.96" style="fill:rgb(147,39,143);fill-rule:nonzero;stroke:black;stroke-width:7.54px;"/>
        </g>
    </g>
    <defs>
        <radialGradient id="_Radial1" cx="0" cy="0" r="1" gradientUnits="userSpaceOnUse" gradientTransform="matrix(41.1308,12.2774,-12.2774,41.1308,16.8702,7.02371)"><stop offset="0" style="stop-color:rgb(242,13,13);stop-opacity:1"/><stop offset="0.33" style="stop-color:rgb(242,94,13);stop-opacity:1"/><stop offset="1" style="stop-color:rgb(218,230,26);stop-opacity:1"/></radialGradient>
    </defs>
</svg>
