<?xml version="1.0" encoding="UTF-8" standalone="no"?>
<!DOCTYPE svg PUBLIC "-//W3C//DTD SVG 1.1//EN" "http://www.w3.org/Graphics/SVG/1.1/DTD/svg11.dtd">
<svg width="100%" height="100%" viewBox="0 0 84 84" version="1.1" xmlns="http://www.w3.org/2000/svg" xmlns:xlink="http://www.w3.org/1999/xlink" xml:space="preserve" xmlns:serif="http://www.serif.com/" style="fill-rule:evenodd;clip-rule:evenodd;stroke-linejoin:round;stroke-miterlimit:2;">
    <g transform="matrix(4.16667,0,0,4.16667,0,0)">
        <g transform="matrix(0.902998,0,0,0.900794,0.970018,0.992063)">
            <path d="M2,3C2,2.451 2.451,2 3,2L5.153,2C5.64,2 6.059,2.356 6.139,2.836L6.879,7.271C6.951,7.703 6.731,8.135 6.339,8.331L4.791,9.104C5.912,11.882 8.118,14.088 10.896,15.209L11.67,13.661C11.866,13.269 12.297,13.049 12.729,13.121L17.164,13.861C17.644,13.941 18,14.36 18,14.847L18,17C18,17.549 17.549,18 17,18L15,18C7.82,18 2,12.18 2,5L2,3Z" style="fill-rule:nonzero;"/>
        </g>
    </g>
</svg>
