<?xml version="1.0" encoding="utf-8"?>
<!-- Generator: Adobe Illustrator 25.0.1, SVG Export Plug-In . SVG Version: 6.00 Build 0)  -->
<svg version="1.1" id="Layer_1" xmlns="http://www.w3.org/2000/svg" xmlns:xlink="http://www.w3.org/1999/xlink" x="0px" y="0px"
	 viewBox="0 0 700 700" style="enable-background:new 0 0 700 700;" xml:space="preserve">
<style type="text/css">
	.st0{clip-path:url(#SVGID_2_);}
	.st1{clip-path:url(#SVGID_4_);}
	.st2{clip-path:url(#SVGID_2_);fill:#FFFFFF;}
</style>
<g>
	<g>
		<defs>
			<rect id="SVGID_1_" width="700" height="700"/>
		</defs>
		<clipPath id="SVGID_2_">
			<use xlink:href="#SVGID_1_"  style="overflow:visible;"/>
		</clipPath>
		<g class="st0">
			<defs>
				<path id="SVGID_3_" d="M175,0h350c96.2,0,175,76.4,175,169.7v360.6c0,93.3-78.8,169.7-175,169.7H175C78.8,700,0,623.6,0,530.3
					V169.7C0,76.4,78.8,0,175,0z"/>
			</defs>
			<clipPath id="SVGID_4_">
				<use xlink:href="#SVGID_3_"  style="overflow:visible;"/>
			</clipPath>
			<g class="st1">
				<defs>
					<rect id="SVGID_5_" width="700" height="700"/>
				</defs>
				<clipPath id="SVGID_6_">
					<use xlink:href="#SVGID_5_"  style="overflow:visible;"/>
				</clipPath>
				<g style="clip-path:url(#SVGID_6_);">
					
						<image style="overflow:visible;" width="300" height="300" xlink:href="DD8983EB.jpg"  transform="matrix(2.3333 0 0 2.3333 0 0)">
					</image>
				</g>
			</g>
		</g>
		<path class="st2" d="M285.3,365.9h8.5l116.6,209.9c50.9,0,95.4,4.2,137.8,8.5V113.6c-38.2,4.2-82.7,4.2-133.6,8.5v218.4h-8.5
			L289.6,122.1c-50.9,0-99.6-4.2-137.8-8.5v472.8c38.2-4.2,82.7-8.5,133.6-8.5V365.9z"/>
	</g>
</g>
</svg>
