<?xml version="1.0" encoding="UTF-8" standalone="no"?>
<!DOCTYPE svg PUBLIC "-//W3C//DTD SVG 1.1//EN" "http://www.w3.org/Graphics/SVG/1.1/DTD/svg11.dtd">
<svg width="100%" height="100%" viewBox="0 0 575 375" version="1.1" xmlns="http://www.w3.org/2000/svg" xmlns:xlink="http://www.w3.org/1999/xlink" xml:space="preserve" xmlns:serif="http://www.serif.com/" style="fill-rule:evenodd;clip-rule:evenodd;stroke-linejoin:round;stroke-miterlimit:2;">
    <g transform="matrix(0.476698,0,0,0.476698,132.572,8.22458)">
        <path d="M358.6,11.3C338.6,25.8 321.9,43.3 307.1,63C306.2,64.1 305.5,65.4 304.3,67.2C405.6,64.6 485.6,104.3 545.4,186.2C552,172 561.2,152.3 567.2,138.6L596.6,138.6L562.2,214.5C584,257.8 592.4,308.8 588.7,356.6C585.7,395.6 575.7,432.8 555.5,466.5C512.2,538.6 448.7,583.3 365.9,598.4C360.6,599.4 358.9,599.7 358.9,599.7C338.9,654.1 295.9,711.9 252,740.3C251.8,740.5 249.7,741.4 249.6,741.2C249.6,741.2 251.5,739.6 252.8,738.6C283.5,711.9 310.5,679.9 327.3,642.4C333.1,629.4 337.3,616 339.4,601.4L333.2,601.4C254.6,602.7 186.1,577.8 130.4,521.6C91.8,482.7 65.7,436.7 57,381.9C55.6,373.2 54.6,364.5 53.4,355.7L53.4,315.7C53.7,313.7 54.2,311.8 54.4,309.8C57.8,273.1 67,238.1 85.4,205.8C86.9,203.2 87.2,202.2 87.2,202.2C78.8,183.9 69,161.8 60.8,143.4C60.1,141.8 59.5,140.2 58.6,138C67.7,138 76.1,138.2 84.4,137.9C87.9,137.8 89.7,138.9 91.2,142.1C95.8,152.6 100.8,162.9 105.9,173.8C107.4,172.1 108.4,170.8 109.5,169.6C117.8,160.5 125.7,150.9 134.5,142.4C177.4,101.2 228.5,76.5 287.5,68.4C289.6,68.1 292.1,66.5 293.5,64.7C306.2,48.9 322.1,34.8 338.3,22.5C347.9,15.1 362.3,8.4 362.3,8.4C361.2,9.4 360.2,10.2 358.6,11.3M361,593.8C366.3,592.8 374.6,591.5 379.4,590.2C379.4,590.2 379.9,588.3 380.4,586.5C382.6,578.5 384.5,570.4 386.2,562.2C386.8,559.6 387,558.7 387,558.7C420.7,551.6 454.4,535.9 481.8,515.3C518.5,487.6 547.9,453.4 566.2,411.2C586.9,363.5 587.2,313.8 576.2,263.6C572.9,248.6 568,234.1 560.8,219.2C517.2,315.1 474,410 430.4,505.8C429.2,503.4 428.6,502 428,500.7C407.6,455.1 387.2,409.5 366.7,363.9C355.1,337.9 343.7,311.8 331.7,286C308.4,235.8 309.6,185 328.2,133.9C333.5,119.1 342.8,105 353.2,93.7C353.2,94 351.8,96.7 351.2,97.9C342.6,117.1 338.1,136.5 335.9,157.3C332.5,188.8 335.5,219.4 348.6,248.7C371.1,299 393.3,349.4 415.7,399.8C421,411.8 426.4,423.8 432.2,436.7C433.4,434.2 434.2,432.7 434.9,431.1C449,399.8 463,368.5 477.1,337.2C498.5,289.5 520,241.8 541.3,194.1C542.1,192.4 543.2,189.8 542.5,188.6C540,184.5 536.8,180.8 533.5,176.4C527.1,189.1 521.2,200.6 515,212.7C514.1,210.6 513.4,209.1 512.8,207.6C503.6,184.6 491,163.7 474,145.7C428.2,97.2 371.8,74.3 305.6,72.5L300.1,72.6C283.5,99.6 271.9,132.5 267.9,163.8C263,201.5 266.4,238.2 282,273.4C296.2,305.5 310.2,337.7 323.9,370.1C335.6,397.7 347.7,425.2 357.8,453.3C369.7,486.5 375.1,522.8 369.3,558C367.2,570.5 364.6,582.6 361,593.8M90,208.9C87.7,212.1 83.3,220.4 82.1,223.1L83.8,227C89.2,238.2 94.4,249.6 99.3,261.1C100.2,263.2 100.9,264.6 100.9,264.6C98.4,271.5 93.4,281.9 90.9,288.7C68.6,349.6 72.5,409.7 104.6,465.1C149.5,543 216.9,589.6 308.7,596.4C319.2,597.2 329.9,596.5 341,596.5C342,586.2 343.3,577.1 343.7,568C345.2,534.5 340.1,501.7 328.1,470.5C316.4,440.1 302.7,410.4 289.9,380.4C289.6,379.7 289,379.1 288.2,378C267.5,419.9 247,461.3 226,503.6C180.4,405.3 135.5,307.7 90,208.9M285.9,74.3C285.9,74.3 272.7,76.2 272.8,76.2C266.6,86.1 256.9,101.3 250.5,111C249.3,112.8 246.9,114.4 244.8,114.7C193.6,121.2 150.3,143.4 113.9,179.7C111.2,182.4 110.5,184.4 112.2,188.2C149.3,268.3 186.2,348.4 223.2,428.5C223.9,430 224.6,431.4 225.6,433.2C226.4,431.9 226.9,431.3 227.3,430.5C241.7,401 256.1,371.6 270.3,342C271.1,340.3 270.5,337.6 269.7,335.7C263.9,321.4 257,307.4 252,292.8C241.4,261.6 236.4,229.5 239.8,196.4C244.2,153.4 259.8,114.5 283.1,78.4C284.1,77.2 284.9,75.8 285.9,74.3" style="fill:rgb(0,40,120);fill-rule:nonzero;"/>
    </g>
</svg>
